<?xml version="1.0" encoding="UTF-8" standalone="no"?>
<!-- Created with Inkscape (http://www.inkscape.org/) -->

<svg
   version="1.1"
   id="svg2"
   xml:space="preserve"
   width="240.87067"
   height="157.508"
   viewBox="0 0 240.87067 157.508"
   xmlns="http://www.w3.org/2000/svg"
   xmlns:svg="http://www.w3.org/2000/svg"><defs
     id="defs6" /><g
     id="g8"
     transform="matrix(1.3333333,0,0,-1.3333333,0,157.508)"><g
       id="g10"
       transform="translate(19.18,15.541)"><g
         id="g12"><g
           id="g14"><g
             id="g16"><path
               d="m 28.3468,28.3468 v 56.69362 h 85.04044 V 28.3468 Z"
               style="fill:#e6e6ff;fill-opacity:1;fill-rule:nonzero;stroke:none"
               id="path18" /></g><g
             id="g20"><path
               d="M -11.33855,0 H 153.07259 M -11.33855,28.3468 H 153.07259 M -11.33855,56.69362 H 153.07259 M -11.33855,85.04042 H 153.07259 M 0,-11.33855 V 96.37897 M 28.3468,-11.33855 V 96.37897 M 56.69362,-11.33855 V 96.37897 M 85.04042,-11.33855 V 96.37897 M 113.38724,-11.33855 V 96.37897 m 28.3468,-107.71752 V 96.37897"
               style="fill:none;stroke:#808080;stroke-width:0.19925;stroke-linecap:butt;stroke-linejoin:miter;stroke-miterlimit:10;stroke-dasharray:none;stroke-opacity:1"
               id="path22" /></g><g
             id="g24"><path
               d="M -11.33855,0 H 152.36522"
               style="fill:none;stroke:#000000;stroke-width:0.79701;stroke-linecap:butt;stroke-linejoin:miter;stroke-miterlimit:10;stroke-dasharray:none;stroke-opacity:1"
               id="path26" /><g
               id="g28"
               transform="translate(152.36522)"><g
                 id="g30"><path
                   d="M -1.55415,2.0722 C -1.42464,1.29512 0,0.1295 0.38852,0 0,-0.1295 -1.42464,-1.29512 -1.55415,-2.0722"
                   style="fill:none;stroke:#000000;stroke-width:0.6376;stroke-linecap:round;stroke-linejoin:round;stroke-miterlimit:10;stroke-dasharray:none;stroke-opacity:1"
                   id="path32" /></g></g><g
               id="g34"><g
                 id="g36"
                 transform="translate(147.989,-8.009)"><g
                   id="g38"><g
                     id="g40"
                     transform="translate(-167.169,-7.532)"><g
                       aria-label="x"
                       transform="matrix(1,0,0,-1,167.169,7.532)"
                       id="text44"
                       style="font-size:9.9626px;font-family:CMMI10;-inkscape-font-specification:CMMI10"><path
                         d="m 0.77832811,-0.28700849 q 0.17512382,0.13620742 0.49618419,0.13620742 0.3113312,0 0.5496942,-0.29673759 0.238363,-0.30160214 0.3259249,-0.65671434 l 0.4524032,-1.7658319 q 0.1070201,-0.4815905 0.1070201,-0.6567143 0,-0.2480921 -0.141072,-0.432945 -0.1362074,-0.184853 -0.3842995,-0.184853 -0.3161957,0 -0.5934751,0.1994466 -0.2772794,0.194582 -0.4669969,0.5010487 -0.18971747,0.3016022 -0.26755028,0.6129334 -0.0194582,0.063239 -0.0778328,0.063239 H 0.65671434 q -0.0778328,0 -0.0778328,-0.092426 v -0.029187 q 0.097291,-0.3697058 0.33078944,-0.7199535 0.23349843,-0.3551122 0.56915243,-0.574017 0.3405185,-0.2189047 0.724818,-0.2189047 0.3648413,0 0.6567144,0.194582 0.2967376,0.194582 0.4183513,0.530236 0.1702593,-0.3064667 0.4329451,-0.5156424 0.2675502,-0.2091756 0.583746,-0.2091756 0.2140403,0 0.4378096,0.077833 0.2237693,0.072968 0.3648413,0.2286338 0.141072,0.1556657 0.141072,0.3891641 0,0.2529566 -0.1653948,0.4378096 -0.1605301,0.1799883 -0.4134868,0.1799883 -0.1605301,0 -0.2675503,-0.1021555 -0.1070201,-0.1021556 -0.1070201,-0.2578212 0,-0.2091757 0.141072,-0.3648413 0.1459365,-0.1605302 0.3453831,-0.1897175 -0.1799884,-0.141072 -0.4961842,-0.141072 -0.3210603,0 -0.5594233,0.2967376 -0.2334984,0.2967376 -0.3307894,0.6615789 l -0.4378096,1.7609674 q -0.1070201,0.3988931 -0.1070201,0.6567143 0,0.25295663 0.141072,0.43780956 0.1459365,0.17998837 0.3842995,0.17998837 0.4669968,0 0.8318381,-0.40862226 0.3697059,-0.4134868 0.4864551,-0.90480637 0.019458,-0.058375 0.077833,-0.058375 h 0.1216138 q 0.038916,0 0.063239,0.029187 0.024323,0.024323 0.024323,0.058375 0,0.00973 -0.00973,0.029187 -0.141072,0.59347514 -0.5934752,1.05560745 -0.4524032,0.46213232 -1.0215556,0.46213232 -0.3648413,0 -0.6615789,-0.19458203 -0.2918731,-0.19944658 -0.4134868,-0.53510057 -0.1556657,0.29187304 -0.4329451,0.51077782 -0.2724148,0.21890478 -0.583746,0.21890478 -0.2140403,0 -0.44267414,-0.07783282 -0.22376933,-0.07296826 -0.3648413,-0.22863388 -0.14107197,-0.15566562 -0.14107197,-0.3940286 0,-0.23349843 0.16053017,-0.42321587 0.16539473,-0.1945821 0.40862226,-0.1945821 0.16539468,0 0.27727938,0.1021556 0.1118847,0.097291 0.1118847,0.25782118 0,0.20917568 -0.141072,0.3648413 -0.13620742,0.15566563 -0.34538309,0.19458203 z"
                         id="path184" /></g><g
                       aria-label="1"
                       transform="matrix(1,0,0,-1,172.863,6.038)"
                       id="text48"
                       style="font-size:6.9738px;font-family:CMR7;-inkscape-font-specification:CMR7"><path
                         d="M 0.86491467,-0.5788799 H 1.9886227 V -4.4573752 L 0.76616457,-4.2122026 V -4.8387549 L 1.9818124,-5.0839276 h 0.6878455 v 4.5050477 h 1.123708 V 0 H 0.86491467 Z"
                         id="path187" /></g><g
                       id="g50"
                       transform="translate(167.169,7.532)" /></g></g><g
                   id="g52"
                   transform="translate(-147.989,8.009)" /></g></g></g><g
             id="g54"><path
               d="M 0,-11.33855 V 95.6716"
               style="fill:none;stroke:#000000;stroke-width:0.79701;stroke-linecap:butt;stroke-linejoin:miter;stroke-miterlimit:10;stroke-dasharray:none;stroke-opacity:1"
               id="path56" /><g
               id="g58"
               transform="rotate(90,-47.8358,47.8358)"><g
                 id="g60"><path
                   d="M -1.55415,2.0722 C -1.42464,1.29512 0,0.1295 0.38852,0 0,-0.1295 -1.42464,-1.29512 -1.55415,-2.0722"
                   style="fill:none;stroke:#000000;stroke-width:0.6376;stroke-linecap:round;stroke-linejoin:round;stroke-miterlimit:10;stroke-dasharray:none;stroke-opacity:1"
                   id="path62" /></g></g><g
               id="g64"><g
                 id="g66"
                 transform="translate(-13.882,94.98)"><g
                   id="g68"><g
                     id="g70"
                     transform="translate(-5.298,-110.521)"><g
                       aria-label="x"
                       transform="matrix(1,0,0,-1,5.298,110.521)"
                       id="text74"
                       style="font-size:9.9626px;font-family:CMMI10;-inkscape-font-specification:CMMI10"><path
                         d="m 0.77832811,-0.28700849 q 0.17512382,0.13620742 0.49618419,0.13620742 0.3113312,0 0.5496942,-0.29673759 0.238363,-0.30160214 0.3259249,-0.65671434 l 0.4524032,-1.7658319 q 0.1070201,-0.4815905 0.1070201,-0.6567143 0,-0.2480921 -0.141072,-0.432945 -0.1362074,-0.184853 -0.3842995,-0.184853 -0.3161957,0 -0.5934751,0.1994466 -0.2772794,0.194582 -0.4669969,0.5010487 -0.18971747,0.3016022 -0.26755028,0.6129334 -0.0194582,0.063239 -0.0778328,0.063239 H 0.65671434 q -0.0778328,0 -0.0778328,-0.092426 v -0.029187 q 0.097291,-0.3697058 0.33078944,-0.7199535 0.23349843,-0.3551122 0.56915243,-0.574017 0.3405185,-0.2189047 0.724818,-0.2189047 0.3648413,0 0.6567144,0.194582 0.2967376,0.194582 0.4183513,0.530236 0.1702593,-0.3064667 0.4329451,-0.5156424 0.2675502,-0.2091756 0.583746,-0.2091756 0.2140403,0 0.4378096,0.077833 0.2237693,0.072968 0.3648413,0.2286338 0.141072,0.1556657 0.141072,0.3891641 0,0.2529566 -0.1653948,0.4378096 -0.1605301,0.1799883 -0.4134868,0.1799883 -0.1605301,0 -0.2675503,-0.1021555 -0.1070201,-0.1021556 -0.1070201,-0.2578212 0,-0.2091757 0.141072,-0.3648413 0.1459365,-0.1605302 0.3453831,-0.1897175 -0.1799884,-0.141072 -0.4961842,-0.141072 -0.3210603,0 -0.5594233,0.2967376 -0.2334984,0.2967376 -0.3307894,0.6615789 l -0.4378096,1.7609674 q -0.1070201,0.3988931 -0.1070201,0.6567143 0,0.25295663 0.141072,0.43780956 0.1459365,0.17998837 0.3842995,0.17998837 0.4669968,0 0.8318381,-0.40862226 0.3697059,-0.4134868 0.4864551,-0.90480637 0.019458,-0.058375 0.077833,-0.058375 h 0.1216138 q 0.038916,0 0.063239,0.029187 0.024323,0.024323 0.024323,0.058375 0,0.00973 -0.00973,0.029187 -0.141072,0.59347514 -0.5934752,1.05560745 -0.4524032,0.46213232 -1.0215556,0.46213232 -0.3648413,0 -0.6615789,-0.19458203 -0.2918731,-0.19944658 -0.4134868,-0.53510057 -0.1556657,0.29187304 -0.4329451,0.51077782 -0.2724148,0.21890478 -0.583746,0.21890478 -0.2140403,0 -0.44267414,-0.07783282 -0.22376933,-0.07296826 -0.3648413,-0.22863388 -0.14107197,-0.15566562 -0.14107197,-0.3940286 0,-0.23349843 0.16053017,-0.42321587 0.16539473,-0.1945821 0.40862226,-0.1945821 0.16539468,0 0.27727938,0.1021556 0.1118847,0.097291 0.1118847,0.25782118 0,0.20917568 -0.141072,0.3648413 -0.13620742,0.15566563 -0.34538309,0.19458203 z"
                         id="path190" /></g><g
                       aria-label="2"
                       transform="matrix(1,0,0,-1,10.992,109.027)"
                       id="text78"
                       style="font-size:6.9738px;font-family:CMR7;-inkscape-font-specification:CMR7"><path
                         d="m 1.3382341,-0.5788799 h 2.400649 V 0 H 0.51077638 v -0.5788799 q 0.39159523,-0.40521593 1.06582002,-1.0862511 0.67763,-0.6844404 0.851294,-0.8819406 0.3303021,-0.3711641 0.4596987,-0.6265523 0.1328019,-0.2587934 0.1328019,-0.5073712 0,-0.4052159 -0.2860348,-0.6606041 -0.2826296,-0.2553882 -0.7389231,-0.2553882 -0.3234917,0 -0.6844404,0.1123708 -0.35754346,0.1123708 -0.76616456,0.3405176 v -0.6946559 q 0.41543146,-0.1668536 0.77638006,-0.251983 0.3609487,-0.085129 0.6606042,-0.085129 0.7900008,0 1.259915,0.3950004 0.4699143,0.3950004 0.4699143,1.0556045 0,0.3132762 -0.1191812,0.5959058 -0.1157759,0.2792244 -0.4256469,0.6606041 -0.085129,0.09875 -0.541423,0.5720695 -0.4562936,0.4699143 -1.2871565,1.3178031 z"
                         id="path193" /></g><g
                       id="g80"
                       transform="translate(5.298,110.521)" /></g></g><g
                   id="g82"
                   transform="translate(13.882,-94.98)" /></g></g></g><g
             id="g84"><path
               d="M 28.3468,-5.66927 V 90.7097"
               style="fill:none;stroke:#000000;stroke-width:0.79701;stroke-linecap:butt;stroke-linejoin:miter;stroke-miterlimit:10;stroke-dasharray:2.98883, 2.98883;stroke-dashoffset:0;stroke-opacity:1"
               id="path86" /></g><g
             id="g88"><path
               d="M 113.38724,-5.66927 V 90.7097"
               style="fill:none;stroke:#000000;stroke-width:0.79701;stroke-linecap:butt;stroke-linejoin:miter;stroke-miterlimit:10;stroke-dasharray:2.98883, 2.98883;stroke-dashoffset:0;stroke-opacity:1"
               id="path90" /></g><g
             id="g92"><path
               d="M -5.66927,28.3468 H 147.40332"
               style="fill:none;stroke:#000000;stroke-width:0.79701;stroke-linecap:butt;stroke-linejoin:miter;stroke-miterlimit:10;stroke-dasharray:2.98883, 2.98883;stroke-dashoffset:0;stroke-opacity:1"
               id="path94" /></g><g
             id="g96"><path
               d="M -5.66927,85.04042 H 147.40332"
               style="fill:none;stroke:#000000;stroke-width:0.79701;stroke-linecap:butt;stroke-linejoin:miter;stroke-miterlimit:10;stroke-dasharray:2.98883, 2.98883;stroke-dashoffset:0;stroke-opacity:1"
               id="path98" /></g><g
             id="g100"><path
               d="m 28.3468,0 h 85.04044"
               style="fill:none;stroke:#0000ff;stroke-width:1.19553;stroke-linecap:butt;stroke-linejoin:miter;stroke-miterlimit:10;stroke-dasharray:none;stroke-opacity:1"
               id="path102" /><g
               id="g104"><g
                 id="g106" /><g
                 id="g108"
                 transform="translate(64.896,-10.726)"><g
                   id="g110"><g
                     id="g112"
                     transform="translate(-84.076,-4.815)"><g
                       aria-label="A"
                       transform="matrix(1,0,0,-1,84.076,4.815)"
                       id="text116"
                       style="font-size:9.9626px;font-family:CMMI10;-inkscape-font-specification:CMMI10"><path
                         d="m 0.44753866,0 q -0.097291,0 -0.097291,-0.13134287 0.0389164,-0.21890478 0.12647831,-0.21890478 0.40375771,0 0.69563074,-0.16053017 0.2967376,-0.16053017 0.5107778,-0.49618418 0.019458,-0.019458 0.019458,-0.019458 l 3.5559866,-5.997991 q 0.077833,-0.1070201 0.1897174,-0.1070201 h 0.1313429 q 0.029187,0 0.058375,0.014594 0.029187,0.00973 0.048646,0.038916 0.024323,0.024323 0.024323,0.05351 l 0.6032043,6.43580057 q 0,0.043781 0.043781,0.13134287 0.097291,0.10702011 0.7442763,0.10702011 0.1021555,0 0.1021555,0.13134287 -0.034052,0.13134287 -0.058375,0.17512382 Q 7.1265667,0 7.0341403,0 h -2.49065 q -0.092426,0 -0.092426,-0.13134287 0.05351,-0.21890478 0.1313428,-0.21890478 0.7880572,0 0.8367027,-0.26755028 L 5.2683084,-2.2620161 H 2.8117103 L 2.013924,-0.92426463 q -0.072968,0.10702012 -0.072968,0.24809209 0,0.17512382 0.1653947,0.25295663 0.1702593,0.0729683 0.3745704,0.0729683 0.097291,0 0.097291,0.13134287 -0.034052,0.14107197 -0.05351,0.17998837 Q 2.5052436,0 2.4128171,0 Z M 3.0062923,-2.6122637 H 5.229392 L 4.9326544,-5.8374608 Z"
                         id="path196" /></g><g
                       aria-label="1"
                       transform="matrix(1,0,0,-1,91.548,3.321)"
                       id="text120"
                       style="font-size:6.9738px;font-family:CMR7;-inkscape-font-specification:CMR7"><path
                         d="M 0.86491467,-0.5788799 H 1.9886227 V -4.4573752 L 0.76616457,-4.2122026 V -4.8387549 L 1.9818124,-5.0839276 h 0.6878455 v 4.5050477 h 1.123708 V 0 H 0.86491467 Z"
                         id="path199" /></g><g
                       id="g122"
                       transform="translate(84.076,4.815)" /></g></g><g
                   id="g124"
                   transform="translate(-64.896,10.726)" /></g></g></g><g
             id="g126"><path
               d="M 0,28.3468 V 85.04042"
               style="fill:none;stroke:#0000ff;stroke-width:1.19553;stroke-linecap:butt;stroke-linejoin:miter;stroke-miterlimit:10;stroke-dasharray:none;stroke-opacity:1"
               id="path128" /><g
               id="g130"><g
                 id="g132" /><g
                 id="g134"
                 transform="translate(-15.859,54.036)"><g
                   id="g136"><g
                     id="g138"
                     transform="translate(-3.321,-69.577)"><g
                       aria-label="A"
                       transform="matrix(1,0,0,-1,3.321,69.577)"
                       id="text142"
                       style="font-size:9.9626px;font-family:CMMI10;-inkscape-font-specification:CMMI10"><path
                         d="m 0.44753866,0 q -0.097291,0 -0.097291,-0.13134287 0.0389164,-0.21890478 0.12647831,-0.21890478 0.40375771,0 0.69563074,-0.16053017 0.2967376,-0.16053017 0.5107778,-0.49618418 0.019458,-0.019458 0.019458,-0.019458 l 3.5559866,-5.997991 q 0.077833,-0.1070201 0.1897174,-0.1070201 h 0.1313429 q 0.029187,0 0.058375,0.014594 0.029187,0.00973 0.048646,0.038916 0.024323,0.024323 0.024323,0.05351 l 0.6032043,6.43580057 q 0,0.043781 0.043781,0.13134287 0.097291,0.10702011 0.7442763,0.10702011 0.1021555,0 0.1021555,0.13134287 -0.034052,0.13134287 -0.058375,0.17512382 Q 7.1265667,0 7.0341403,0 h -2.49065 q -0.092426,0 -0.092426,-0.13134287 0.05351,-0.21890478 0.1313428,-0.21890478 0.7880572,0 0.8367027,-0.26755028 L 5.2683084,-2.2620161 H 2.8117103 L 2.013924,-0.92426463 q -0.072968,0.10702012 -0.072968,0.24809209 0,0.17512382 0.1653947,0.25295663 0.1702593,0.0729683 0.3745704,0.0729683 0.097291,0 0.097291,0.13134287 -0.034052,0.14107197 -0.05351,0.17998837 Q 2.5052436,0 2.4128171,0 Z M 3.0062923,-2.6122637 H 5.229392 L 4.9326544,-5.8374608 Z"
                         id="path202" /></g><g
                       aria-label="2"
                       transform="matrix(1,0,0,-1,10.793,68.083)"
                       id="text146"
                       style="font-size:6.9738px;font-family:CMR7;-inkscape-font-specification:CMR7"><path
                         d="m 1.3382341,-0.5788799 h 2.400649 V 0 H 0.51077638 v -0.5788799 q 0.39159523,-0.40521593 1.06582002,-1.0862511 0.67763,-0.6844404 0.851294,-0.8819406 0.3303021,-0.3711641 0.4596987,-0.6265523 0.1328019,-0.2587934 0.1328019,-0.5073712 0,-0.4052159 -0.2860348,-0.6606041 -0.2826296,-0.2553882 -0.7389231,-0.2553882 -0.3234917,0 -0.6844404,0.1123708 -0.35754346,0.1123708 -0.76616456,0.3405176 v -0.6946559 q 0.41543146,-0.1668536 0.77638006,-0.251983 0.3609487,-0.085129 0.6606042,-0.085129 0.7900008,0 1.259915,0.3950004 0.4699143,0.3950004 0.4699143,1.0556045 0,0.3132762 -0.1191812,0.5959058 -0.1157759,0.2792244 -0.4256469,0.6606041 -0.085129,0.09875 -0.541423,0.5720695 -0.4562936,0.4699143 -1.2871565,1.3178031 z"
                         id="path205" /></g><g
                       id="g148"
                       transform="translate(3.321,69.577)" /></g></g><g
                   id="g150"
                   transform="translate(15.859,-54.036)" /></g></g></g><g
             id="g152"><g
               id="g154"
               transform="translate(52.837,54.036)"><g
                 id="g156"><g
                   id="g158"
                   transform="translate(-72.017,-69.577)"><g
                     aria-label="A"
                     transform="matrix(1,0,0,-1,72.017,69.577)"
                     id="text162"
                     style="font-size:9.9626px;font-family:CMMI10;-inkscape-font-specification:CMMI10"><path
                       d="m 0.44753866,0 q -0.097291,0 -0.097291,-0.13134287 0.0389164,-0.21890478 0.12647831,-0.21890478 0.40375771,0 0.69563074,-0.16053017 0.2967376,-0.16053017 0.5107778,-0.49618418 0.019458,-0.019458 0.019458,-0.019458 l 3.5559866,-5.997991 q 0.077833,-0.1070201 0.1897174,-0.1070201 h 0.1313429 q 0.029187,0 0.058375,0.014594 0.029187,0.00973 0.048646,0.038916 0.024323,0.024323 0.024323,0.05351 l 0.6032043,6.43580057 q 0,0.043781 0.043781,0.13134287 0.097291,0.10702011 0.7442763,0.10702011 0.1021555,0 0.1021555,0.13134287 -0.034052,0.13134287 -0.058375,0.17512382 Q 7.1265667,0 7.0341403,0 h -2.49065 q -0.092426,0 -0.092426,-0.13134287 0.05351,-0.21890478 0.1313428,-0.21890478 0.7880572,0 0.8367027,-0.26755028 L 5.2683084,-2.2620161 H 2.8117103 L 2.013924,-0.92426463 q -0.072968,0.10702012 -0.072968,0.24809209 0,0.17512382 0.1653947,0.25295663 0.1702593,0.0729683 0.3745704,0.0729683 0.097291,0 0.097291,0.13134287 -0.034052,0.14107197 -0.05351,0.17998837 Q 2.5052436,0 2.4128171,0 Z M 3.0062923,-2.6122637 H 5.229392 L 4.9326544,-5.8374608 Z"
                       id="path208" /></g><g
                     aria-label="1"
                     transform="matrix(1,0,0,-1,79.489,68.083)"
                     id="text166"
                     style="font-size:6.9738px;font-family:CMR7;-inkscape-font-specification:CMR7"><path
                       d="M 0.86491467,-0.5788799 H 1.9886227 V -4.4573752 L 0.76616457,-4.2122026 V -4.8387549 L 1.9818124,-5.0839276 h 0.6878455 v 4.5050477 h 1.123708 V 0 H 0.86491467 Z"
                       id="path211" /></g><g
                     aria-label="×"
                     transform="matrix(1,0,0,-1,86.172,69.577)"
                     id="text170"
                     style="font-size:9.9626px;font-family:CMSY10;-inkscape-font-specification:CMSY10"><path
                       d="M 6.9854947,-5.3510057 4.7623951,-3.118177 6.9854947,-0.89507732 6.4066132,-0.30646669 4.1737845,-2.5392954 1.9409557,-0.30646669 1.3669387,-0.89507732 3.5851738,-3.118177 1.3669387,-5.3510057 l 0.574017,-0.5886107 2.2328288,2.2328288 2.2328287,-2.2328288 z"
                       id="path214" /></g><g
                     aria-label="A"
                     transform="matrix(1,0,0,-1,96.135,69.577)"
                     id="text174"
                     style="font-size:9.9626px;font-family:CMMI10;-inkscape-font-specification:CMMI10"><path
                       d="m 0.44753866,0 q -0.097291,0 -0.097291,-0.13134287 0.0389164,-0.21890478 0.12647831,-0.21890478 0.40375771,0 0.69563074,-0.16053017 0.2967376,-0.16053017 0.5107778,-0.49618418 0.019458,-0.019458 0.019458,-0.019458 l 3.5559866,-5.997991 q 0.077833,-0.1070201 0.1897174,-0.1070201 h 0.1313429 q 0.029187,0 0.058375,0.014594 0.029187,0.00973 0.048646,0.038916 0.024323,0.024323 0.024323,0.05351 l 0.6032043,6.43580057 q 0,0.043781 0.043781,0.13134287 0.097291,0.10702011 0.7442763,0.10702011 0.1021555,0 0.1021555,0.13134287 -0.034052,0.13134287 -0.058375,0.17512382 Q 7.1265667,0 7.0341403,0 h -2.49065 q -0.092426,0 -0.092426,-0.13134287 0.05351,-0.21890478 0.1313428,-0.21890478 0.7880572,0 0.8367027,-0.26755028 L 5.2683084,-2.2620161 H 2.8117103 L 2.013924,-0.92426463 q -0.072968,0.10702012 -0.072968,0.24809209 0,0.17512382 0.1653947,0.25295663 0.1702593,0.0729683 0.3745704,0.0729683 0.097291,0 0.097291,0.13134287 -0.034052,0.14107197 -0.05351,0.17998837 Q 2.5052436,0 2.4128171,0 Z M 3.0062923,-2.6122637 H 5.229392 L 4.9326544,-5.8374608 Z"
                       id="path217" /></g><g
                     aria-label="2"
                     transform="matrix(1,0,0,-1,103.607,68.083)"
                     id="text178"
                     style="font-size:6.9738px;font-family:CMR7;-inkscape-font-specification:CMR7"><path
                       d="m 1.3382341,-0.5788799 h 2.400649 V 0 H 0.51077638 v -0.5788799 q 0.39159523,-0.40521593 1.06582002,-1.0862511 0.67763,-0.6844404 0.851294,-0.8819406 0.3303021,-0.3711641 0.4596987,-0.6265523 0.1328019,-0.2587934 0.1328019,-0.5073712 0,-0.4052159 -0.2860348,-0.6606041 -0.2826296,-0.2553882 -0.7389231,-0.2553882 -0.3234917,0 -0.6844404,0.1123708 -0.35754346,0.1123708 -0.76616456,0.3405176 v -0.6946559 q 0.41543146,-0.1668536 0.77638006,-0.251983 0.3609487,-0.085129 0.6606042,-0.085129 0.7900008,0 1.259915,0.3950004 0.4699143,0.3950004 0.4699143,1.0556045 0,0.3132762 -0.1191812,0.5959058 -0.1157759,0.2792244 -0.4256469,0.6606041 -0.085129,0.09875 -0.541423,0.5720695 -0.4562936,0.4699143 -1.2871565,1.3178031 z"
                       id="path220" /></g><g
                     id="g180"
                     transform="translate(72.017,69.577)" /></g></g><g
                 id="g182"
                 transform="translate(-52.837,-54.036)" /></g></g></g></g></g></g></svg>
