<?xml version="1.0" encoding="UTF-8" standalone="no"?>
<!-- Created with Inkscape (http://www.inkscape.org/) -->

<svg
   version="1.1"
   id="svg2"
   xml:space="preserve"
   width="214.10933"
   height="165.82533"
   viewBox="0 0 214.10933 165.82533"
   xmlns="http://www.w3.org/2000/svg"
   xmlns:svg="http://www.w3.org/2000/svg"><defs
     id="defs6" /><g
     id="g8"
     transform="matrix(1.3333333,0,0,-1.3333333,0,165.82533)"><g
       id="g10"
       transform="translate(23.598,15.732)"><g
         id="g12"><g
           id="g14"><g
             id="g16"><path
               d="m 28.3468,85.04042 c 23.5984,23.5984 33.09523,15.73227 56.69362,0 C 108.63882,69.30815 136.98563,51.9452 113.38724,28.3468 89.78883,4.74841 23.59839,-15.73225 0,0 -23.59839,15.73225 4.74841,61.44203 28.3468,85.04042 Z"
               style="fill:#e6e6ff;fill-opacity:1;fill-rule:nonzero;stroke:none"
               id="path18" /></g><g
             id="g20"><path
               d="m 56.69362,28.3468 c 11.79919,7.86614 22.03952,28.34682 14.17338,28.34682 -7.86611,0 -38.58714,-20.48068 -42.5202,-28.34682 -3.93306,-7.86612 16.54761,-7.86612 28.34682,0 z"
               style="fill:#ffffff;fill-opacity:1;fill-rule:nonzero;stroke:none"
               id="path22" /></g><g
             id="g24"><path
               d="m 30.33936,56.69362 c 0,1.10046 -0.89208,1.99255 -1.99256,1.99255 -1.10046,0 -1.99255,-0.89209 -1.99255,-1.99255 0,-1.10048 0.89209,-1.99255 1.99255,-1.99255 1.10048,0 1.99256,0.89207 1.99256,1.99255 z"
               style="fill:#000000;fill-opacity:1;fill-rule:nonzero;stroke:none"
               id="path26" /><g
               id="g28"><g
                 id="g30"
                 transform="translate(25.562,48.745)"><g
                   id="g32"><g
                     id="g34"
                     transform="translate(-49.16,-64.477)"><g
                       aria-label="a"
                       transform="matrix(1,0,0,-1,49.16,64.477)"
                       id="text38"
                       style="font-size:9.9626px;font-family:CMBX10;-inkscape-font-specification:CMBX10"><path
                         d="m 3.4149146,-2.738742 q -1.0847948,0 -1.5031462,0.2480921 -0.4183513,0.248092 -0.4183513,0.8464318 0,0.4767259 0.3113312,0.75886988 0.3161958,0.27727939 0.8561609,0.27727939 0.7442763,0 1.1918149,-0.52537147 0.4524032,-0.530236 0.4524032,-1.4058551 V -2.738742 Z M 5.2002047,-3.1084479 V 0 H 4.3051273 v -0.82697361 q -0.3064667,0.49618417 -0.7637344,0.73454715 -0.4572678,0.23349843 -1.1188467,0.23349843 -0.8367027,0 -1.3328869,-0.46699686 -0.49131957,-0.47186142 -0.49131957,-1.25991861 0,-0.9194001 0.61293337,-1.386397 0.6177979,-0.4669968 1.8388002,-0.4669968 h 1.255054 v -0.087562 q 0,-0.617798 -0.4086222,-0.953452 -0.4037577,-0.3405185 -1.1383049,-0.3405185 -0.4669968,0 -0.9096709,0.1118847 -0.4426742,0.1118846 -0.85129641,0.335654 v -0.8269737 q 0.49131961,-0.1897174 0.95345191,-0.2821439 0.4621323,-0.097291 0.8999419,-0.097291 1.1820858,0 1.7658319,0.6129334 0.5837461,0.6129334 0.5837461,1.8582583 z"
                         id="path110" /></g><g
                       id="g40"
                       transform="translate(49.16,64.477)" /></g></g><g
                   id="g42"
                   transform="translate(-25.562,-48.745)" /></g></g></g><g
             id="g44"><path
               d="m 109.7105,28.3468 c 0,1.10048 -0.89208,1.99256 -1.99256,1.99256 -1.10046,0 -1.99255,-0.89208 -1.99255,-1.99256 0,-1.10046 0.89209,-1.99255 1.99255,-1.99255 1.10048,0 1.99256,0.89209 1.99256,1.99255 z"
               style="fill:#000000;fill-opacity:1;fill-rule:nonzero;stroke:none"
               id="path46" /><g
               id="g48"><g
                 id="g50"
                 transform="translate(104.534,31.866)"><g
                   id="g52"><g
                     id="g54"
                     transform="translate(-128.132,-47.598)"><g
                       aria-label="b"
                       transform="matrix(1,0,0,-1,128.132,47.598)"
                       id="text58"
                       style="font-size:9.9626px;font-family:CMBX10;-inkscape-font-specification:CMBX10"><path
                         d="m 4.849957,-2.7192838 q 0,-0.9875038 -0.4086222,-1.5469271 -0.4037578,-0.5642879 -1.1139821,-0.5642879 -0.7102244,0 -1.1188467,0.5642879 -0.4037577,0.5594233 -0.4037577,1.5469271 0,0.9875038 0.4037577,1.5517916 0.4086223,0.55942337 1.1188467,0.55942337 0.7102243,0 1.1139821,-0.55942337 Q 4.849957,-1.73178 4.849957,-2.7192838 Z M 1.8047483,-4.6213231 q 0.2821439,-0.4864551 0.7102244,-0.7199535 0.432945,-0.238363 1.0312847,-0.238363 0.9923684,0 1.6101663,0.7880572 0.6226625,0.7880572 0.6226625,2.0722986 0,1.2842414 -0.6226625,2.07229856 -0.6177979,0.78805721 -1.6101663,0.78805721 -0.5983397,0 -1.0312847,-0.23349843 Q 2.0868922,-0.33078944 1.8047483,-0.81724451 V 0 H 0.90480642 V -7.5692408 H 1.8047483 Z"
                         id="path113" /></g><g
                       id="g60"
                       transform="translate(128.132,47.598)" /></g></g><g
                   id="g62"
                   transform="translate(-104.534,-31.866)" /></g></g></g><path
             d="M 28.3468,56.69362 H 19.84267 V 5.66927 H 65.19774 V 28.3468 h 42.5202"
             style="fill:none;stroke:#000000;stroke-width:0.3985;stroke-linecap:butt;stroke-linejoin:miter;stroke-miterlimit:10;stroke-dasharray:none;stroke-opacity:1"
             id="path64" /><g
             id="g66"><g
               id="g68"
               transform="translate(33.058,11.683)"><g
                 id="g70"><g
                   id="g72"
                   transform="translate(-56.656,-27.415)"><g
                     aria-label="α"
                     transform="matrix(1,0,0,-1,56.656,27.415)"
                     id="text76"
                     style="font-size:9.9626px;font-family:CMMIB10;-inkscape-font-specification:CMMIB10"><path
                       d="M 4.1154099,-2.5344309 3.9013696,-3.6581421 q -0.2189047,-1.1528985 -1.0847948,-1.1528985 -0.6518498,0 -0.9485873,0.5351006 -0.3745704,0.671308 -0.3745704,1.5566562 0,1.0702011 0.3648413,1.5809789 0.3697058,0.52050697 0.9583164,0.52050697 0.6518498,0 1.0020975,-1.03614927 z m 0.5010487,-1.4885525 0.4815905,-1.4253133 h 0.7977863 l -0.9972329,2.9527822 0.194582,1.0653366 q 0.043781,0.238363 0.2140403,0.43780957 0.1994465,0.23349843 0.3551122,0.23349843 H 6.0904174 V 0 H 5.5553169 Q 5.0980491,0 4.6894268,-0.40862226 4.4899803,-0.61293338 4.4072829,-1.0410138 4.1835136,-0.50104872 3.7262458,-0.07783281 3.5122056,0.12161377 2.8165748,0.12161377 q -1.1431694,0 -1.6977281,-0.7394117 -0.56915248,-0.76373447 -0.56915248,-2.10148587 0,-1.4301779 0.61779798,-2.1014859 0.6859016,-0.7491408 1.6490826,-0.7491408 1.5128753,0 1.7998838,1.5469271 z"
                       id="path116" /></g><g
                     aria-label="("
                     transform="matrix(1,0,0,-1,64.234,27.415)"
                     id="text80"
                     style="font-size:9.9626px;font-family:CMR10;-inkscape-font-specification:CMR10"><path
                       d="M 3.0889897,2.4711917 Q 2.5344309,2.0333822 2.1306732,1.4642297 1.73178,0.89994187 1.4739589,0.25782119 1.2210022,-0.3842995 1.0945239,-1.0847948 0.96804558,-1.7852901 0.96804558,-2.4906499 q 0,-0.715089 0.12647832,-1.4155843 0.1264783,-0.7004953 0.3842995,-1.3474805 0.2626857,-0.6469853 0.6664434,-1.2112731 0.4037577,-0.5642879 0.9437229,-0.9875038 0,-0.019458 0.048646,-0.019458 h 0.092426 q 0.029187,0 0.05351,0.029187 0.024323,0.024323 0.024323,0.058375 0,0.043781 -0.019458,0.063239 -0.486455,0.4767259 -0.8123799,1.0215556 -0.3210604,0.5448297 -0.5205069,1.1626276 -0.1945821,0.6129334 -0.282144,1.2745123 -0.087562,0.6567143 -0.087562,1.3718033 0,3.16682244 1.6928636,4.8110406 0.029187,0.029187 0.029187,0.082697 0,0.024323 -0.029187,0.05351 -0.024323,0.034052 -0.048646,0.034052 h -0.092426 q -0.048646,0 -0.048646,-0.019458 z"
                       id="path119" /></g><g
                     aria-label="t"
                     transform="matrix(1,0,0,-1,68.108,27.415)"
                     id="text84"
                     style="font-size:9.9626px;font-family:CMMI10;-inkscape-font-specification:CMMI10"><path
                       d="m 0.61779793,-0.80751541 q 0,-0.14593652 0.0291873,-0.27727939 L 1.3669387,-3.9451506 H 0.32106034 q -0.10215556,0 -0.10215556,-0.1313429 0.0389164,-0.2189047 0.13134287,-0.2189047 H 1.4545006 l 0.3988932,-1.62476 q 0.038916,-0.1313428 0.1556656,-0.2237693 0.1167492,-0.092426 0.2626858,-0.092426 0.1264783,0 0.2091756,0.077833 0.087562,0.072968 0.087562,0.1994465 0,0.029187 -0.00486,0.048646 0,0.014594 -0.00486,0.034052 l -0.3988931,1.580979 h 1.0264202 q 0.1021555,0 0.1021555,0.1313428 -0.00486,0.024323 -0.019458,0.082697 -0.014594,0.058375 -0.038916,0.097291 -0.024323,0.038916 -0.072968,0.038916 H 2.0722986 l -0.715089,2.879814 q -0.072968,0.28214394 -0.072968,0.48645507 0,0.42808046 0.291873,0.42808046 0.4378096,0 0.7734636,-0.40862226 0.3405185,-0.4134868 0.5205069,-0.90480637 0.038916,-0.058375 0.077833,-0.058375 h 0.1216138 q 0.038916,0 0.063239,0.029187 0.024323,0.024323 0.024323,0.058375 0,0.019458 -0.00973,0.029187 -0.2189048,0.60320424 -0.6372562,1.060472 -0.4183513,0.45726777 -0.9583164,0.45726777 -0.3940286,0 -0.66644348,-0.25782119 Q 0.61779793,-0.4037577 0.61779793,-0.80751541 Z"
                       id="path122" /></g><g
                     aria-label=")"
                     transform="matrix(1,0,0,-1,71.706,27.415)"
                     id="text88"
                     style="font-size:9.9626px;font-family:CMR10;-inkscape-font-specification:CMR10"><path
                       d="m 0.64698524,2.4906499 q -0.0875619,0 -0.0875619,-0.087562 0,-0.043781 0.0194582,-0.063239 1.70259277,-1.66367636 1.70259277,-4.8304988 0,-3.1668225 -1.68313457,-4.8110406 -0.0389164,-0.024323 -0.0389164,-0.082697 0,-0.034052 0.0243227,-0.058375 0.0291873,-0.029187 0.0632392,-0.029187 h 0.0924265 q 0.0291873,0 0.0486455,0.019458 0.71508899,0.5642879 1.19181489,1.3718033 0.476726,0.8075154 0.6956308,1.7220509 0.2237693,0.9145355 0.2237693,1.8679875 0,0.7053598 -0.1216138,1.3912615 Q 2.6609092,-0.41835136 2.3982235,0.24322753 2.1404023,0.90967097 1.7415091,1.4690943 1.342616,2.0333822 0.78805721,2.4711917 0.768599,2.4906499 0.7394117,2.4906499 Z"
                       id="path125" /></g><g
                     id="g90"
                     transform="translate(56.656,27.415)" /></g></g><g
                 id="g92"
                 transform="translate(-33.058,-11.683)" /></g></g><g
             id="g94"><g
               id="g96"
               transform="translate(44.847,67.462)"><g
                 id="g98"><g
                   id="g100"
                   transform="translate(-68.445,-83.194)"><g
                     aria-label="S"
                     transform="matrix(1,0,0,-1,68.445,83.194)"
                     id="text104"
                     style="font-size:9.9626px;font-family:CMMI10;-inkscape-font-specification:CMMI10"><path
                       d="m 0.60806883,0.21890478 q -0.0291873,0 -0.05351,-0.0340518 -0.0243228,-0.0340519 -0.0243228,-0.0632392 L 1.104253,-2.2036414 q 0.019458,-0.058375 0.082697,-0.058375 h 0.1167492 q 0.038916,0 0.058375,0.029187 0.024323,0.029187 0.024323,0.072968 -0.082697,0.3405186 -0.082697,0.6080688 0,0.71995354 0.4961841,1.07020118 0.4961842,0.35024765 1.2501896,0.35024765 0.3259249,0 0.6421207,-0.16053017 0.3161957,-0.16053017 0.5496942,-0.41835136 0.238363,-0.25782118 0.3794349,-0.574017 0.141072,-0.3210603 0.141072,-0.6469852 0,-0.3502477 -0.1848529,-0.6226625 -0.184853,-0.2772794 -0.5107778,-0.3551122 L 2.8506267,-3.2300616 Q 2.3593071,-3.3614045 2.067434,-3.7554331 1.775561,-4.1543263 1.775561,-4.6505104 q 0,-0.5983398 0.3551122,-1.1528985 0.3551122,-0.5545588 0.9242646,-0.8853483 0.574017,-0.335654 1.1674922,-0.335654 0.4572677,0 0.8367027,0.1702593 0.3842995,0.1653947 0.5886106,0.530236 l 0.5691524,-0.671308 q 0.058375,-0.029187 0.068104,-0.029187 h 0.063239 q 0.038916,0 0.063239,0.034052 0.024323,0.034052 0.024323,0.068104 L 5.856919,-4.611594 q -0.014594,0.068104 -0.077833,0.068104 H 5.6574724 q -0.087562,0 -0.087562,-0.1070201 0.048646,-0.3161958 0.048646,-0.5496943 0,-0.4621323 -0.1605302,-0.8026508 -0.1556656,-0.3453831 -0.4767259,-0.5205069 -0.3161958,-0.1799884 -0.7880572,-0.1799884 -0.3988932,0 -0.7929218,0.2286339 -0.3940286,0.2286339 -0.6372561,0.6080688 -0.2432276,0.379435 -0.2432276,0.7880572 0,0.3210604 0.184853,0.5691524 0.1897174,0.2480921 0.5010487,0.335654 l 1.2161377,0.3161958 q 0.3307894,0.087562 0.5740169,0.3113313 0.2480921,0.2189047 0.3745704,0.5253714 0.1264783,0.3016022 0.1264783,0.6615789 0,0.4718614 -0.1994465,0.9339938 -0.1994466,0.45726772 -0.5594234,0.83670267 -0.3551122,0.37943495 -0.8075154,0.59347518 -0.4524032,0.21404023 -0.9242646,0.21404023 -1.1869504,0 -1.7025927,-0.69563074 L 0.7491408,0.18971748 q -0.0583746,0.0291873 -0.0729683,0.0291873 z"
                       id="path128" /></g><g
                     id="g106"
                     transform="translate(68.445,83.194)" /></g></g><g
                 id="g108"
                 transform="translate(-44.847,-67.462)" /></g></g></g></g></g></g></svg>
