<?xml version="1.0" encoding="UTF-8" standalone="no"?>
<!-- Created with Inkscape (http://www.inkscape.org/) -->

<svg
   version="1.1"
   id="svg2"
   xml:space="preserve"
   width="219.47733"
   height="143.88667"
   viewBox="0 0 219.47733 143.88667"
   xmlns="http://www.w3.org/2000/svg"
   xmlns:svg="http://www.w3.org/2000/svg"><defs
     id="defs6" /><g
     id="g8"
     transform="matrix(1.3333333,0,0,-1.3333333,0,143.88667)"><g
       id="g10"
       transform="translate(11.438,11.438)"><g
         id="g12"><g
           id="g14"><g
             id="g16"><path
               d="M -11.33855,-11.33855 H 153.07259 M -11.33855,-5.66927 H 153.07259 M -11.33855,0 H 153.07259 M -11.33855,5.66927 H 153.07259 M -11.33855,11.33855 H 153.07259 M -11.33855,17.00781 H 153.07259 M -11.33855,22.6771 H 153.07259 M -11.33855,28.34636 H 153.07259 M -11.33855,34.01564 H 153.07259 M -11.33855,39.6849 H 153.07259 M -11.33855,45.35419 H 153.07259 M -11.33855,51.02345 H 153.07259 M -11.33855,56.69273 H 153.07259 M -11.33855,62.362 H 153.07259 M -11.33855,68.03128 H 153.07259 M -11.33855,73.70055 H 153.07259 M -11.33855,79.36983 H 153.07259 M -11.33855,85.0391 H 153.07259 M -11.33855,90.70837 H 153.07259 M -11.33855,96.37764 H 153.07259 M -11.33855,-11.33855 V 96.37897 M -5.66927,-11.33855 V 96.37897 M 0,-11.33855 V 96.37897 M 5.66927,-11.33855 V 96.37897 M 11.33855,-11.33855 V 96.37897 M 17.00781,-11.33855 V 96.37897 M 22.6771,-11.33855 V 96.37897 M 28.34636,-11.33855 V 96.37897 M 34.01564,-11.33855 V 96.37897 M 39.6849,-11.33855 V 96.37897 M 45.35419,-11.33855 V 96.37897 M 51.02345,-11.33855 V 96.37897 M 56.69273,-11.33855 V 96.37897 M 62.362,-11.33855 V 96.37897 M 68.03128,-11.33855 V 96.37897 M 73.70055,-11.33855 V 96.37897 M 79.36983,-11.33855 V 96.37897 M 85.0391,-11.33855 V 96.37897 M 90.70837,-11.33855 V 96.37897 M 96.37764,-11.33855 V 96.37897 m 5.66928,-107.71752 V 96.37897 M 107.7162,-11.33855 V 96.37897 m 5.66927,-107.71752 V 96.37897 m 5.66928,-107.71752 V 96.37897 m 5.66926,-107.71752 V 96.37897 M 130.3933,-11.33855 V 96.37897 m 5.66926,-107.71752 V 96.37897 m 5.66928,-107.71752 V 96.37897 m 5.66927,-107.71752 V 96.37897 m 5.66928,-107.71752 V 96.37897"
               style="fill:none;stroke:#808080;stroke-width:0.19925;stroke-linecap:butt;stroke-linejoin:miter;stroke-miterlimit:10;stroke-dasharray:none;stroke-opacity:1"
               id="path18" /></g><g
             id="g20"><path
               d="m 0,85.04042 5.90543,-0.60252 5.90544,-1.8037 5.90544,-2.92699 5.90544,-3.92398 5.90544,-4.75315 5.90544,-5.37688 5.90544,-5.77007 5.90545,-5.90931 5.90544,-5.79862 5.90544,-5.43484 5.90544,-4.83448 5.90544,-4.02648 5.90542,-3.04119 5.90546,-1.92609 5.90544,-0.72665 5.90545,0.50691 5.90544,1.71978 5.90544,2.85693 5.90544,3.87337 5.90544,4.72157 5.90544,5.36694 5.90545,5.78043 5.90543,5.94351 5.90545,5.85051"
               style="fill:none;stroke:#0000ff;stroke-width:0.3985;stroke-linecap:butt;stroke-linejoin:miter;stroke-miterlimit:10;stroke-dasharray:none;stroke-opacity:1"
               id="path22" /></g></g></g></g></g></svg>
