<?xml version="1.0" encoding="UTF-8" standalone="no"?>
<!-- Created with Inkscape (http://www.inkscape.org/) -->

<svg
   version="1.1"
   id="svg2"
   xml:space="preserve"
   width="214.10933"
   height="165.82533"
   viewBox="0 0 214.10933 165.82533"
   xmlns="http://www.w3.org/2000/svg"
   xmlns:svg="http://www.w3.org/2000/svg"><defs
     id="defs6" /><g
     id="g8"
     transform="matrix(1.3333333,0,0,-1.3333333,0,165.82533)"><g
       id="g10"
       transform="translate(23.598,15.732)"><g
         id="g12"><g
           id="g14"><g
             id="g16"><path
               d="m 28.3468,85.04042 c 23.5984,23.5984 33.09523,15.73227 56.69362,0 C 108.63882,69.30815 136.98563,51.9452 113.38724,28.3468 89.78883,4.74841 23.59839,-15.73225 0,0 -23.59839,15.73225 4.74841,61.44203 28.3468,85.04042 Z"
               style="fill:#e6e6ff;fill-opacity:1;fill-rule:nonzero;stroke:none"
               id="path18" /></g><g
             id="g20"><path
               d="m 30.33936,56.69362 c 0,1.10046 -0.89208,1.99255 -1.99256,1.99255 -1.10046,0 -1.99255,-0.89209 -1.99255,-1.99255 0,-1.10048 0.89209,-1.99255 1.99255,-1.99255 1.10048,0 1.99256,0.89207 1.99256,1.99255 z"
               style="fill:#000000;fill-opacity:1;fill-rule:nonzero;stroke:none"
               id="path22" /><g
               id="g24"><g
                 id="g26"
                 transform="translate(25.323,48.745)"><g
                   id="g28"><g
                     id="g30"
                     transform="translate(-48.921,-64.477)"><g
                       aria-label="x"
                       transform="matrix(1,0,0,-1,48.921,64.477)"
                       id="text34"
                       style="font-size:9.9626px;font-family:CMBX10;-inkscape-font-specification:CMBX10"><path
                         d="M 5.4677549,-5.4482967 3.4976119,-2.7971166 5.5699105,0 H 4.514303 L 2.9284595,-2.1404023 1.342616,0 H 0.28700849 L 2.403088,-2.8506267 0.46699686,-5.4482967 H 1.5226044 l 1.4447715,1.9409557 1.4447715,-1.9409557 z"
                         id="path78" /></g><g
                       id="g36"
                       transform="translate(48.921,64.477)" /></g></g><g
                   id="g38"
                   transform="translate(-25.323,-48.745)" /></g></g></g><g
             id="g40"><path
               d="m 109.7105,28.3468 c 0,1.10048 -0.89208,1.99256 -1.99256,1.99256 -1.10046,0 -1.99255,-0.89208 -1.99255,-1.99256 0,-1.10046 0.89209,-1.99255 1.99255,-1.99255 1.10048,0 1.99256,0.89209 1.99256,1.99255 z"
               style="fill:#000000;fill-opacity:1;fill-rule:nonzero;stroke:none"
               id="path42" /><g
               id="g44"><g
                 id="g46"
                 transform="translate(104.614,33.803)"><g
                   id="g48"><g
                     id="g50"
                     transform="translate(-128.212,-49.535)"><g
                       aria-label="y"
                       transform="matrix(1,0,0,-1,128.212,49.535)"
                       id="text54"
                       style="font-size:9.9626px;font-family:CMBX10;-inkscape-font-specification:CMBX10"><path
                         d="M 3.2057389,0.50591327 Q 2.8263039,1.4788234 2.4663272,1.775561 2.1063504,2.0722986 1.5031462,2.0722986 H 0.78805721 V 1.3231578 H 1.3134287 q 0.3697058,0 0.574017,-0.1751238 Q 2.0917568,0.97291013 2.3398489,0.32106034 L 2.500379,-0.08756191 0.29673759,-5.4482967 H 1.245325 l 1.7025927,4.2613463 1.7025927,-4.2613463 h 0.9485874 z"
                         id="path81" /></g><g
                       id="g56"
                       transform="translate(128.212,49.535)" /></g></g><g
                   id="g58"
                   transform="translate(-104.614,-33.803)" /></g></g></g><path
             d="M 28.3468,56.69362 107.71794,28.3468"
             style="fill:none;stroke:#000000;stroke-width:0.3985;stroke-linecap:butt;stroke-linejoin:miter;stroke-miterlimit:10;stroke-dasharray:none;stroke-opacity:1"
             id="path60" /><g
             id="g62"><g
               id="g64"
               transform="translate(53.351,24.943)"><g
                 id="g66"><g
                   id="g68"
                   transform="translate(-76.949,-40.675)"><g
                     aria-label="S"
                     transform="matrix(1,0,0,-1,76.949,40.675)"
                     id="text72"
                     style="font-size:9.9626px;font-family:CMMI10;-inkscape-font-specification:CMMI10"><path
                       d="m 0.60806883,0.21890478 q -0.0291873,0 -0.05351,-0.0340518 -0.0243228,-0.0340519 -0.0243228,-0.0632392 L 1.104253,-2.2036414 q 0.019458,-0.058375 0.082697,-0.058375 h 0.1167492 q 0.038916,0 0.058375,0.029187 0.024323,0.029187 0.024323,0.072968 -0.082697,0.3405186 -0.082697,0.6080688 0,0.71995354 0.4961841,1.07020118 0.4961842,0.35024765 1.2501896,0.35024765 0.3259249,0 0.6421207,-0.16053017 0.3161957,-0.16053017 0.5496942,-0.41835136 0.238363,-0.25782118 0.3794349,-0.574017 0.141072,-0.3210603 0.141072,-0.6469852 0,-0.3502477 -0.1848529,-0.6226625 -0.184853,-0.2772794 -0.5107778,-0.3551122 L 2.8506267,-3.2300616 Q 2.3593071,-3.3614045 2.067434,-3.7554331 1.775561,-4.1543263 1.775561,-4.6505104 q 0,-0.5983398 0.3551122,-1.1528985 0.3551122,-0.5545588 0.9242646,-0.8853483 0.574017,-0.335654 1.1674922,-0.335654 0.4572677,0 0.8367027,0.1702593 0.3842995,0.1653947 0.5886106,0.530236 l 0.5691524,-0.671308 q 0.058375,-0.029187 0.068104,-0.029187 h 0.063239 q 0.038916,0 0.063239,0.034052 0.024323,0.034052 0.024323,0.068104 L 5.856919,-4.611594 q -0.014594,0.068104 -0.077833,0.068104 H 5.6574724 q -0.087562,0 -0.087562,-0.1070201 0.048646,-0.3161958 0.048646,-0.5496943 0,-0.4621323 -0.1605302,-0.8026508 -0.1556656,-0.3453831 -0.4767259,-0.5205069 -0.3161958,-0.1799884 -0.7880572,-0.1799884 -0.3988932,0 -0.7929218,0.2286339 -0.3940286,0.2286339 -0.6372561,0.6080688 -0.2432276,0.379435 -0.2432276,0.7880572 0,0.3210604 0.184853,0.5691524 0.1897174,0.2480921 0.5010487,0.335654 l 1.2161377,0.3161958 q 0.3307894,0.087562 0.5740169,0.3113313 0.2480921,0.2189047 0.3745704,0.5253714 0.1264783,0.3016022 0.1264783,0.6615789 0,0.4718614 -0.1994465,0.9339938 -0.1994466,0.45726772 -0.5594234,0.83670267 -0.3551122,0.37943495 -0.8075154,0.59347518 -0.4524032,0.21404023 -0.9242646,0.21404023 -1.1869504,0 -1.7025927,-0.69563074 L 0.7491408,0.18971748 q -0.0583746,0.0291873 -0.0729683,0.0291873 z"
                       id="path84" /></g><g
                     id="g74"
                     transform="translate(76.949,40.675)" /></g></g><g
                 id="g76"
                 transform="translate(-53.351,-24.943)" /></g></g></g></g></g></g></svg>
