<?xml version="1.0" encoding="UTF-8"?>
<svg version="1.1" viewBox="0 0 82.548 113.03" xml:space="preserve" xmlns="http://www.w3.org/2000/svg"><defs><clipPath id="clipPath46"><path d="m138.42 19.812v64.586l-132.49 30.88-61.773-66.236v-64.586l132.49-30.88z"/></clipPath></defs><g transform="matrix(1.3333 0 0 -1.3333 0 113.03)"><g transform="translate(-66.173,-38.464)"><g transform="translate(66.173,38.464)"><g transform="translate(-10.339,7.96)"><g clip-path="url(#clipPath46)"><g fill-opacity=".5" stroke-miterlimit="10" stroke-opacity=".5" stroke-width=".3985"><g fill="#1010ef" stroke="#0d0dbf"><path d="m13.131 14.08-2.4392-3.8679 2.5502 2.0179 2.2359 3.5455z"/><path d="m10.692 10.212-0.35356-4.0516 2.5796 2.3555 0.32407 3.714z"/><path d="m10.339 6.1606 1.7564-3.9593 2.4333 2.6854-1.6101 3.6293z"/><path d="m12.095 2.2014 3.7456-3.5972 2.1211 2.9852-3.4335 3.2974z"/><path d="m15.841-1.3958 5.4806-2.9897 1.6644 3.2343-5.0239 2.7406z"/><path d="m21.321-4.3855 6.8418-2.1787 1.0943 3.4159-6.2716 1.9971z"/><path d="m28.163-6.5642 7.7366-1.2192 0.44957 3.5175-7.0919 1.1176z"/><path d="m35.9-7.7834 8.1042-0.17655-0.22578 3.5322-7.4289 0.16184z"/><path d="m44.004-7.96 7.9196 0.87829-0.88572 3.459-7.2596-0.8051z"/><path d="m51.924-7.0817 7.1955 1.8727-1.4854 3.3029-6.5959-1.7167z"/><path d="m59.119-5.209 5.9805 2.74-1.9837 3.0746-5.4822-2.5117z"/><path d="m65.1-2.4689 4.3582 3.4206-2.3469 2.7896-3.995-3.1355z"/><path d="m69.458 0.95163 2.4392 3.8679-2.5502 2.4672-2.2359-3.5455z"/><path d="m71.897 4.8195 0.35356 4.0516-2.5796 2.1296-0.32406-3.714z"/><path d="m72.251 8.8711-1.7564 3.9592-2.4333 1.7996 1.6101-3.6293z"/><path d="m70.494 12.83-3.7456 3.5972-2.1211 1.4999 3.4335-3.2974z"/><path d="m66.748 16.427-5.4806 2.9898-1.6644 1.2508 5.0239-2.7406z"/><path d="m61.268 19.417-6.8418 2.1786-1.0943 1.0692 6.2716-1.9971z"/><path d="m54.426 21.596-7.7366 1.2192-0.44957 0.96761 7.0919-1.1176z"/><path d="m46.69 22.815-8.1042 0.17654 0.22577 0.9529 7.4289-0.16183z"/><path d="m38.585 22.992-7.9196-0.87828 0.88573 1.0261 7.2596 0.8051z"/><path d="m30.666 22.113-7.1955-1.8727 1.4854 1.1822 6.5959 1.7167z"/><path d="m23.47 20.241-5.9806-2.7401 1.9837 1.4105 5.4822 2.5117z"/><path d="m17.49 17.501-4.3582-3.4206 2.3469 1.6955 3.995 3.1355z"/></g><g fill="#3030cf" stroke="#2626a6"><path d="m15.478 15.776-2.2359-3.5455 2.5502 2.0178 2.0326 3.2232z"/><path d="m13.242 12.23-0.32407-3.714 2.5796 2.3554 0.29463 3.3764z"/><path d="m12.918 8.5161 1.6101-3.6293 2.4333 2.6854-1.4637 3.2994z"/><path d="m14.528 4.8868 3.4335-3.2974 2.1212 2.9852-3.1214 2.9977z"/><path d="m17.962 1.5894 5.0239-2.7406 1.6644 3.2343-4.5671 2.4914z"/><path d="m22.986-1.1512 6.2716-1.9971 1.0943 3.4158-5.7015 1.8156z"/><path d="m29.257-3.1484 7.0919-1.1176 0.44957 3.5175-6.4472 1.016z"/><path d="m36.349-4.266 7.4289-0.16184-0.22577 3.5322-6.7535 0.14713z"/><path d="m43.778-4.4278 7.2596 0.8051-0.88573 3.459-6.5997-0.7319z"/><path d="m51.038-3.6227 6.5959 1.7167-1.4854 3.3029-5.9962-1.5606z"/><path d="m57.634-1.906 5.4822 2.5117-1.9837 3.0746-4.9838-2.2834z"/><path d="m63.116 0.60567 3.995 3.1355-2.3469 2.7896-3.6318-2.8505z"/><path d="m67.111 3.7412 2.2359 3.5455-2.5502 2.4672-2.0326-3.2232z"/><path d="m69.347 7.2867 0.32406 3.714-2.5796 2.1296-0.29463-3.3764z"/><path d="m69.671 11.001-1.6101 3.6293-2.4332 1.7997 1.4637-3.2994z"/><path d="m68.061 14.63-3.4335 3.2974-2.1212 1.4999 3.1214-2.9977z"/><path d="m64.627 17.927-5.0239 2.7406-1.6644 1.2507 4.5671-2.4914z"/><path d="m59.603 20.668-6.2716 1.9971-1.0943 1.0692 5.7015-1.8156z"/><path d="m53.332 22.665-7.0919 1.1176-0.44957 0.96759 6.4472-1.016z"/><path d="m46.24 23.783-7.4289 0.16183 0.22576 0.95288 6.7535-0.14712z"/><path d="m38.811 23.945-7.2596-0.8051 0.88572 1.0261 6.5997 0.7319z"/><path d="m31.551 23.14-6.5959-1.7167 1.4854 1.1821 5.9962 1.5606z"/><path d="m24.956 21.423-5.4822-2.5117 1.9837 1.4105 4.9838 2.2834z"/><path d="m19.473 18.911-3.995-3.1355 2.3469 1.6955 3.6318 2.8505z"/></g><g fill="#5050af" stroke="#40408c"><path d="m17.825 17.471-2.0326-3.2232 2.5502 2.0178 1.8294 2.9009z"/><path d="m15.793 14.248-0.29463-3.3764 2.5797 2.3555 0.26517 3.0387z"/><path d="m15.498 10.872 1.4637-3.2994 2.4333 2.6854-1.3173 2.9694z"/><path d="m16.962 7.5722 3.1214-2.9977 2.1211 2.9852-2.8092 2.6979z"/><path d="m20.083 4.5745 4.5671-2.4914 1.6645 3.2343-4.1104 2.2423z"/><path d="m24.65 2.0831 5.7015-1.8156 1.0943 3.4159-5.1314 1.634z"/><path d="m30.352 0.2675 6.4472-1.016 0.44957 3.5175-5.8024 0.91441z"/><path d="m36.799-0.7485 6.7535-0.14713-0.2258 3.5322-6.0782 0.13243z"/><path d="m43.552-0.89563 6.5997 0.7319-0.88576 3.459-5.9397-0.65872z"/><path d="m50.152-0.16373 5.9962 1.5606-1.4854 3.3029-5.3966-1.4045z"/><path d="m56.148 1.3969 4.9838 2.2834-1.9838 3.0746-4.4854-2.0551z"/><path d="m61.132 3.6802 3.6318 2.8505-2.3469 2.7896-3.2687-2.5654z"/><path d="m64.764 6.5308 2.0326 3.2232-2.5502 2.4672-1.8294-2.9009z"/><path d="m66.797 9.754 0.29463 3.3764-2.5797 2.1296-0.26517-3.0387z"/><path d="m67.091 13.13-1.4637 3.2994-2.4333 1.7996 1.3173-2.9694z"/><path d="m65.628 16.43-3.1214 2.9977-2.1212 1.4999 2.8092-2.6979z"/><path d="m62.506 19.427-4.5671 2.4914-1.6645 1.2508 4.1104-2.2423z"/><path d="m57.939 21.919-5.7015 1.8156-1.0943 1.0692 5.1314-1.634z"/><path d="m52.238 23.734-6.4472 1.016-0.44957 0.96757 5.8024-0.91443z"/><path d="m45.79 24.75-6.7535 0.14712 0.2258 0.95288 6.0782-0.13243z"/><path d="m39.037 24.897-6.5997-0.7319 0.88576 1.0261 5.9397 0.65872z"/><path d="m32.437 24.166-5.9962-1.5606 1.4854 1.1821 5.3966 1.4045z"/><path d="m26.441 22.605-4.9838-2.2834 1.9838 1.4104 4.4854 2.0551z"/><path d="m21.457 20.322-3.6318-2.8505 2.3469 1.6955 3.2687 2.5654z"/></g><g fill="#70708f" stroke="#595973"><path d="m20.172 19.167-1.8294-2.9009 2.5502 2.0178 1.6261 2.5786z"/><path d="m18.343 16.266-0.26517-3.0387 2.5796 2.3555 0.23569 2.7011z"/><path d="m18.078 13.227 1.3173-2.9694 2.4333 2.6854-1.171 2.6395z"/><path d="m19.395 10.258 2.8092-2.6979 2.1212 2.9852-2.4971 2.3981z"/><path d="m22.204 7.5597 4.1104-2.2423 1.6644 3.2343-3.6537 1.9932z"/><path d="m26.315 5.3174 5.1314-1.634 1.0943 3.4159-4.5612 1.4524z"/><path d="m31.446 3.6834 5.8024-0.91441 0.44958 3.5175-5.1577 0.81282z"/><path d="m37.248 2.769 6.0782-0.13243-0.22575 3.5322-5.4028 0.11771z"/><path d="m43.327 2.6365 5.9397 0.65872-0.88574 3.459-5.2797-0.58553z"/><path d="m49.266 3.2953 5.3966 1.4045-1.4854 3.303-4.797-1.2485z"/><path d="m54.663 4.6998 4.4854 2.0551-1.9837 3.0746-3.987-1.8267z"/><path d="m59.148 6.7549 3.2687 2.5654-2.3469 2.7896-2.9055-2.2804z"/><path d="m62.417 9.3203 1.8294 2.9009-2.5502 2.4672-1.6261-2.5786z"/><path d="m64.246 12.221 0.26517 3.0387-2.5796 2.1296-0.23569-2.7011z"/><path d="m64.512 15.26-1.3173 2.9694-2.4333 1.7997 1.171-2.6395z"/><path d="m63.194 18.229-2.8092 2.6979-2.1211 1.4999 2.4971-2.3981z"/><path d="m60.385 20.927-4.1104 2.2423-1.6644 1.2508 3.6537-1.9932z"/><path d="m56.275 23.17-5.1314 1.634-1.0943 1.0692 4.5612-1.4524z"/><path d="m51.143 24.804-5.8024 0.91443-0.44958 0.96761 5.1578-0.81284z"/><path d="m45.341 25.718-6.0782 0.13243 0.22576 0.95288 5.4028-0.1177z"/><path d="m39.263 25.85-5.9397-0.65872 0.88574 1.0261 5.2797 0.58554z"/><path d="m33.323 25.192-5.3966-1.4045 1.4854 1.1821 4.797 1.2485z"/><path d="m27.926 23.787-4.4854-2.0551 1.9837 1.4105 3.987 1.8267z"/><path d="m23.441 21.732-3.2687-2.5654 2.3469 1.6955 2.9055 2.2804z"/></g><g fill="#90906f" stroke="#737359"><path d="m22.519 20.862-1.6261-2.5786 2.5502 2.0178 1.4229 2.2563z"/><path d="m20.893 18.284-0.23569-2.7011 2.5796 2.3555 0.20625 2.3634z"/><path d="m20.657 15.582 1.171-2.6395 2.4333 2.6854-1.0246 2.3096z"/><path d="m21.828 12.943 2.4971-2.3981 2.1211 2.9852-2.1849 2.0984z"/><path d="m24.325 10.545 3.6537-1.9932 1.6644 3.2343-3.197 1.744z"/><path d="m27.979 8.5517 4.5612-1.4524 1.0943 3.4159-3.9911 1.2709z"/><path d="m32.54 7.0993 5.1577-0.81282 0.44957 3.5175-4.513 0.71122z"/><path d="m37.698 6.2864 5.4028-0.11771-0.22579 3.5322-4.7275 0.10299z"/><path d="m43.101 6.1687 5.2797 0.58553-0.88576 3.459-4.6198-0.51233z"/><path d="m48.381 6.7543 4.797 1.2485-1.4854 3.3029-4.1974-1.0924z"/><path d="m53.178 8.0028 3.987 1.8267-1.9837 3.0746-3.4887-1.5984z"/><path d="m57.165 9.8294 2.9055 2.2804-2.3469 2.7895-2.5423-1.9953z"/><path d="m60.07 12.11 1.6261 2.5786-2.5502 2.4672-1.4229-2.2563z"/><path d="m61.696 14.688 0.23569 2.7011-2.5796 2.1296-0.20624-2.3634z"/><path d="m61.932 17.389-1.171 2.6395-2.4333 1.7996 1.0246-2.3096z"/><path d="m60.761 20.029-2.4971 2.3981-2.1211 1.4999 2.185-2.0984z"/><path d="m58.264 22.427-3.6537 1.9932-1.6644 1.2508 3.197-1.744z"/><path d="m54.61 24.42-4.5612 1.4524-1.0943 1.0692 3.9911-1.2709z"/><path d="m50.049 25.873-5.1578 0.81284-0.44957 0.9676 4.513-0.71124z"/><path d="m44.891 26.686-5.4028 0.1177 0.22578 0.9529 4.7275-0.103z"/><path d="m39.488 26.803-5.2797-0.58554 0.88574 1.0261 4.6198 0.51235z"/><path d="m34.209 26.218-4.797-1.2485 1.4854 1.1822 4.1974 1.0924z"/><path d="m29.412 24.969-3.987-1.8267 1.9837 1.4105 3.4886 1.5984z"/><path d="m25.425 23.143-2.9055-2.2804 2.3469 1.6955 2.5423 1.9953z"/></g><g fill="#b0b04f" stroke="#8d8d3f"><path d="m24.866 22.558-1.4229-2.2563 2.5502 2.0178 1.2196 1.934z"/><path d="m23.443 20.301-0.20625-2.3634 2.5797 2.3555 0.17676 2.0258z"/><path d="m23.237 17.938 1.0246-2.3096 2.4333 2.6854-0.87823 1.9796z"/><path d="m24.262 15.628 2.1849-2.0984 2.1211 2.9852-1.8728 1.7986z"/><path d="m26.446 13.53 3.197-1.744 1.6644 3.2343-2.7403 1.4949z"/><path d="m29.644 11.786 3.9911-1.2709 1.0943 3.4159-3.4209 1.0893z"/><path d="m33.635 10.515 4.513-0.71122 0.44957 3.5175-3.8683 0.60961z"/><path d="m38.148 9.8039 4.7275-0.10299-0.22579 3.5322-4.0521 0.08827z"/><path d="m42.875 9.7009 4.6198 0.51233-0.88572 3.459-3.9598-0.43914z"/><path d="m47.495 10.213 4.1974 1.0924-1.4854 3.3029-3.5978-0.93637z"/><path d="m51.692 11.306 3.4887 1.5984-1.9837 3.0746-2.9903-1.37z"/><path d="m55.181 12.904 2.5423 1.9953-2.3469 2.7896-2.1791-1.7103z"/><path d="m57.723 14.899 1.4229 2.2563-2.5502 2.4672-1.2196-1.9339z"/><path d="m59.146 17.156 0.20624 2.3634-2.5797 2.1296-0.17677-2.0258z"/><path d="m59.352 19.519-1.0246 2.3096-2.4333 1.7997 0.87823-1.9796z"/><path d="m58.328 21.829-2.185 2.0984-2.1211 1.4999 1.8728-1.7986z"/><path d="m56.143 23.927-3.197 1.744-1.6644 1.2508 2.7403-1.4949z"/><path d="m52.946 25.671-3.9911 1.2709-1.0943 1.0692 3.4209-1.0893z"/><path d="m48.955 26.942-4.513 0.71124-0.44957 0.96761 3.8683-0.60964z"/><path d="m44.442 27.653-4.7275 0.103 0.22579 0.95288 4.0521-0.08827z"/><path d="m39.714 27.756-4.6198-0.51235 0.88575 1.0261 3.9598 0.43915z"/><path d="m35.094 27.244-4.1974-1.0924 1.4854 1.1821 3.5978 0.93637z"/><path d="m30.897 26.151-3.4886-1.5984 1.9837 1.4105 2.9903 1.37z"/><path d="m27.408 24.553-2.5423-1.9953 2.3469 1.6955 2.1791 1.7103z"/></g><g fill="#d0d02f" stroke="#a6a626"><path d="m27.213 24.253-1.2196-1.934 2.5502 2.0178 1.0163 1.6116z"/><path d="m25.993 22.319-0.17676-2.0258 2.5796 2.3555 0.14732 1.6882z"/><path d="m25.817 20.293 0.87823-1.9796 2.4333 2.6854-0.73187 1.6497z"/><path d="m26.695 18.314 1.8728-1.7986 2.1212 2.9852-1.5607 1.4988z"/><path d="m28.568 16.515 2.7403-1.4949 1.6644 3.2343-2.2836 1.2457z"/><path d="m31.308 15.02 3.4209-1.0893 1.0943 3.4159-2.8508 0.90779z"/><path d="m34.729 13.931 3.8683-0.60961 0.44956 3.5175-3.2236 0.50802z"/><path d="m38.597 13.321 4.0521-0.08827-0.22578 3.5322-3.3768 0.07357z"/><path d="m42.649 13.233 3.9598 0.43914-0.88575 3.459-3.2998-0.36597z"/><path d="m46.609 13.672 3.5978 0.93637-1.4854 3.3029-2.9982-0.7803z"/><path d="m50.207 14.609 2.9903 1.37-1.9838 3.0746-2.4919-1.1417z"/><path d="m53.197 15.979 2.1791 1.7103-2.3469 2.7896-1.816-1.4252z"/><path d="m55.376 17.689 1.2196 1.9339-2.5502 2.4672-1.0163-1.6116z"/><path d="m56.596 19.623 0.17677 2.0258-2.5796 2.1296-0.14733-1.6882z"/><path d="m56.773 21.649-0.87823 1.9796-2.4333 1.7997 0.73187-1.6497z"/><path d="m55.894 23.628-1.8728 1.7986-2.1212 1.4999 1.5607-1.4988z"/><path d="m54.022 25.427-2.7403 1.4949-1.6644 1.2508 2.2836-1.2457z"/><path d="m51.281 26.922-3.4209 1.0893-1.0943 1.0692 2.8508-0.90775z"/><path d="m47.86 28.011-3.8683 0.60964-0.44957 0.96759 3.2236-0.50805z"/><path d="m43.992 28.621-4.0521 0.08827 0.22577 0.95288 3.3768-0.07356z"/><path d="m39.94 28.709-3.9598-0.43915 0.88574 1.0261 3.2998 0.36595z"/><path d="m35.98 28.27-3.5978-0.93637 1.4854 1.1822 2.9982 0.7803z"/><path d="m32.382 27.334-2.9903-1.37 1.9838 1.4104 2.4919 1.1417z"/><path d="m29.392 25.963-2.1791-1.7103 2.3469 1.6955 1.8159 1.4252z"/></g><g fill="#f0f00f" stroke="#c0c00c"><path d="m29.56 25.949-1.0163-1.6116 2.5502 2.0178 0.81308 1.2893z"/><path d="m28.544 24.337-0.14732-1.6882 2.5797 2.3555 0.11783 1.3505z"/><path d="m28.396 22.649 0.73187-1.6497 2.4333 2.6854-0.58548 1.3198z"/><path d="m29.128 20.999 1.5607-1.4988 2.1211 2.9852-1.2485 1.1991z"/><path d="m30.689 19.5 2.2836-1.2457 1.6644 3.2343-1.8269 0.9966z"/><path d="m32.972 18.255 2.8508-0.90779 1.0943 3.4159-2.2806 0.72624z"/><path d="m35.823 17.347 3.2236-0.50802 0.44958 3.5175-2.5789 0.40642z"/><path d="m39.047 16.839 3.3768-0.07357-0.22577 3.5322-2.7014 0.05886z"/><path d="m42.424 16.765 3.2998 0.36597-0.88574 3.459-2.6399-0.29278z"/><path d="m45.723 17.131 2.9982 0.7803-1.4854 3.303-2.3985-0.62427z"/><path d="m48.722 17.912 2.4919 1.1417-1.9837 3.0746-1.9935-0.91334z"/><path d="m51.213 19.053 1.816 1.4252-2.3469 2.7896-1.4528-1.1402z"/><path d="m53.029 20.478 1.0163 1.6116-2.5502 2.4672-0.81306-1.2893z"/><path d="m54.046 22.09 0.14733 1.6882-2.5797 2.1296-0.11783-1.3505z"/><path d="m54.193 23.778-0.73187 1.6497-2.4333 1.7996 0.58548-1.3198z"/><path d="m53.461 25.428-1.5607 1.4988-2.1211 1.4999 1.2485-1.1991z"/><path d="m51.9 26.927-2.2836 1.2457-1.6644 1.2508 1.8269-0.9966z"/><path d="m49.617 28.173-2.8508 0.90775-1.0943 1.0692 2.2806-0.72622z"/><path d="m46.766 29.08-3.2236 0.50805-0.44957 0.9676 2.5789-0.40643z"/><path d="m43.543 29.588-3.3768 0.07356 0.22578 0.95289 2.7014-0.05885z"/><path d="m40.166 29.662-3.2998-0.36595 0.88574 1.0261 2.6399 0.29276z"/><path d="m36.866 29.296-2.9982-0.7803 1.4854 1.1821 2.3985 0.62427z"/><path d="m33.868 28.516-2.4919-1.1417 1.9837 1.4105 1.9935 0.91335z"/><path d="m31.376 27.374-1.8159-1.4252 2.3469 1.6955 1.4527 1.1402z"/></g><g fill="#fff700" stroke="#ccc500"><path d="m31.907 27.644-0.81308-1.2893 2.5502 2.0178 0.6098 0.96698z"/><path d="m31.094 26.355-0.11783-1.3505 2.5796 2.3555 0.08839 1.0129z"/><path d="m30.976 25.004 0.58548-1.3198 2.4333 2.6854-0.43911 0.98983z"/><path d="m31.561 23.685 1.2485-1.1991 2.1212 2.9852-0.93642 0.89931z"/><path d="m32.81 22.486 1.8269-0.9966 1.6644 3.2343-1.3702 0.74745z"/><path d="m34.637 21.489 2.2806-0.72624 1.0943 3.4159-1.7105 0.54467z"/><path d="m36.917 20.763 2.5789-0.40642 0.44956 3.5175-1.9342 0.30479z"/><path d="m39.496 20.356 2.7014-0.05886-0.22578 3.5322-2.0261 0.04416z"/><path d="m42.198 20.297 2.6399 0.29278-0.88574 3.459-1.9799-0.21957z"/><path d="m44.838 20.59 2.3985 0.62427-1.4854 3.3029-1.7989-0.46819z"/><path d="m47.236 21.214 1.9935 0.91334-1.9837 3.0746-1.4952-0.68503z"/><path d="m49.23 22.128 1.4528 1.1402-2.3469 2.7896-1.0896-0.85516z"/><path d="m50.682 23.268 0.81306 1.2893-2.5502 2.4672-0.60978-0.96697z"/><path d="m51.496 24.557 0.11783 1.3505-2.5796 2.1296-0.08839-1.0129z"/><path d="m51.613 25.908-0.58548 1.3198-2.4333 1.7997 0.43911-0.98982z"/><path d="m51.028 27.228-1.2485 1.1991-2.1212 1.4999 0.93643-0.8993z"/><path d="m49.779 28.427-1.8269 0.9966-1.6644 1.2508 1.3702-0.74746z"/><path d="m47.952 29.423-2.2806 0.72622-1.0943 1.0692 1.7105-0.54466z"/><path d="m45.672 30.15-2.5789 0.40643-0.44955 0.96758 1.9342-0.30481z"/><path d="m43.093 30.556-2.7014 0.05885 0.22579 0.95287 2.0261-0.04414z"/><path d="m40.392 30.615-2.6399-0.29276 0.88574 1.0261 1.9799 0.21956z"/><path d="m37.752 30.322-2.3985-0.62427 1.4854 1.1822 1.7989 0.46818z"/><path d="m35.353 29.698-1.9935-0.91335 1.9837 1.4105 1.4952 0.68504z"/><path d="m33.36 28.784-1.4527-1.1402 2.3469 1.6955 1.0896 0.85514z"/></g><g fill="#ffe700" stroke="#ccb900"><path d="m34.254 29.34-0.6098-0.96698 2.5502 2.0178 0.40656 0.64468z"/><path d="m33.644 28.373-0.08839-1.0129 2.5797 2.3555 0.0589 0.67527z"/><path d="m33.556 27.36 0.43911-0.98983 2.4333 2.6854-0.29273 0.65991z"/><path d="m33.995 26.37 0.93642-0.89931 2.1211 2.9852-0.62428 0.59953z"/><path d="m34.931 25.471 1.3702-0.74745 1.6644 3.2343-0.91345 0.49831z"/><path d="m36.301 24.723 1.7105-0.54467 1.0943 3.4159-1.1403 0.36311z"/><path d="m38.012 24.179 1.9342-0.30479 0.44958 3.5175-1.2894 0.2032z"/><path d="m39.946 23.874 2.0261-0.04416-0.22578 3.5322-1.3507 0.02945z"/><path d="m41.972 23.83 1.9799 0.21957-0.88574 3.459-1.32-0.14639z"/><path d="m43.952 24.049 1.7989 0.46819-1.4854 3.303-1.1993-0.31215z"/><path d="m45.751 24.517 1.4952 0.68503-1.9838 3.0746-0.99677-0.45666z"/><path d="m47.246 25.202 1.0896 0.85516-2.3469 2.7895-0.7264-0.57012z"/><path d="m48.336 26.058 0.60978 0.96697-2.5502 2.4672-0.40654-0.64466z"/><path d="m48.945 27.025 0.08839 1.0129-2.5797 2.1296-0.0589-0.67527z"/><path d="m49.034 28.037-0.43911 0.98982-2.4333 1.7997 0.29272-0.65991z"/><path d="m48.595 29.027-0.93643 0.8993-2.1211 1.4999 0.62429-0.59953z"/><path d="m47.658 29.927-1.3702 0.74746-1.6644 1.2508 0.91345-0.49831z"/><path d="m46.288 30.674-1.7105 0.54466-1.0943 1.0692 1.1403-0.3631z"/><path d="m44.578 31.219-1.9342 0.30481-0.44959 0.9676 1.2895-0.20321z"/><path d="m42.643 31.524-2.0261 0.04414 0.22578 0.95291 1.3507-0.02945z"/><path d="m40.617 31.568-1.9799-0.21956 0.88575 1.0261 1.32 0.14639z"/><path d="m38.637 31.348-1.7989-0.46818 1.4854 1.1821 1.1993 0.31215z"/><path d="m36.838 30.88-1.4952-0.68504 1.9838 1.4105 0.99678 0.45666z"/><path d="m35.343 30.195-1.0896-0.85514 2.3469 1.6955 0.72638 0.5701z"/></g><g fill="#ffd700" stroke="#ccac00"><path d="m36.601 31.035-0.40656-0.64468 2.5502 2.0178 0.20328 0.32234z"/><path d="m36.194 30.391-0.0589-0.67527 2.5796 2.3555 0.02946 0.33765z"/><path d="m36.135 29.715 0.29273-0.65991 2.4333 2.6854-0.14638 0.32994z"/><path d="m36.428 29.055 0.62428-0.59953 2.1211 2.9852-0.31213 0.2998z"/><path d="m37.052 28.456 0.91345-0.49831 1.6644 3.2343-0.45674 0.24916z"/><path d="m37.966 27.958 1.1403-0.36311 1.0943 3.4159-0.57019 0.18155z"/><path d="m39.106 27.594 1.2894-0.2032 0.44957 3.5175-0.64473 0.10161z"/><path d="m40.395 27.391 1.3507-0.02945-0.22576 3.5322-0.6754 0.01473z"/><path d="m41.746 27.362 1.32 0.14639-0.88573 3.459-0.65999-0.0732z"/><path d="m43.066 27.508 1.1993 0.31215-1.4854 3.3029-0.59964-0.15607z"/><path d="m44.265 27.82 0.99677 0.45666-1.9837 3.0746-0.49841-0.22834z"/><path d="m45.262 28.277 0.7264 0.57012-2.3469 2.7896-0.36321-0.28507z"/><path d="m45.989 28.847 0.40654 0.64466-2.5502 2.4672-0.20326-0.32232z"/><path d="m46.395 29.492 0.0589 0.67527-2.5796 2.1296-0.02946-0.33767z"/><path d="m46.454 30.167-0.29272 0.65991-2.4333 1.7996 0.14637-0.32994z"/><path d="m46.161 30.827-0.62429 0.59953-2.1212 1.4999 0.31215-0.29978z"/><path d="m45.537 31.427-0.91345 0.49831-1.6644 1.2508 0.45673-0.24917z"/><path d="m44.624 31.925-1.1403 0.3631-1.0943 1.0692 0.57017-0.18155z"/><path d="m43.483 32.288-1.2895 0.20321-0.44957 0.96761 0.64475-0.10162z"/><path d="m42.194 32.491-1.3507 0.02945 0.22575 0.95287 0.6754-0.01471z"/><path d="m40.843 32.521-1.32-0.14639 0.88572 1.0261 0.65999 0.0732z"/><path d="m39.523 32.374-1.1993-0.31215 1.4854 1.1822 0.59964 0.15605z"/><path d="m38.324 32.062-0.99678-0.45666 1.9837 1.4105 0.49841 0.22835z"/><path d="m37.327 31.605-0.72638-0.5701 2.3469 1.6955 0.36319 0.28506z"/></g><g fill="#ffc700" stroke="#cc9f00"><path d="m38.948 32.731-0.20328-0.32234 2.5502 2.0178 2e-5 2e-5z"/><path d="m38.744 32.408-0.02946-0.33765 2.5796 2.3555v1e-5z"/><path d="m38.715 32.071 0.14638-0.32994 2.4333 2.6854v2e-5z"/><path d="m38.861 31.741 0.31213-0.2998 2.1212 2.9852-2e-5 3e-5z"/><path d="m39.173 31.441 0.45674-0.24916 1.6644 3.2343h-3e-5z"/><path d="m39.63 31.192 0.57019-0.18155 1.0943 3.4159-3e-5 1e-5z"/><path d="m40.2 31.01 0.64473-0.10161 0.44957 3.5175h-1e-5z"/><path d="m40.845 30.909 0.6754-0.01473-0.2258 3.5322h-3e-5z"/><path d="m41.52 30.894 0.65999 0.0732-0.88574 3.459h-5e-5z"/><path d="m42.18 30.967 0.59964 0.15607-1.4854 3.3029-3e-5 -1e-5z"/><path d="m42.78 31.123 0.49841 0.22834-1.9837 3.0746-3e-5 -2e-5z"/><path d="m43.278 31.352 0.36321 0.28507-2.3469 2.7896-1e-5 -1e-5z"/><path d="m43.642 31.637 0.20326 0.32232-2.5502 2.4672z"/><path d="m43.845 31.959 0.02946 0.33767-2.5796 2.1296v-2e-5z"/><path d="m43.874 32.297-0.14637 0.32994-2.4333 1.7997v-1e-5z"/><path d="m43.728 32.627-0.31215 0.29978-2.1211 1.4999 1e-5 -4e-5z"/><path d="m43.416 32.926-0.45673 0.24917-1.6644 1.2508h3e-5z"/><path d="m42.959 33.176-0.57017 0.18155-1.0943 1.0692h1e-5z"/><path d="m42.389 33.357-0.64475 0.10162-0.44957 0.96759 4e-5 -1e-5z"/><path d="m41.744 33.459-0.6754 0.01471 0.2258 0.95288h3e-5z"/><path d="m41.069 33.473-0.65999-0.0732 0.88575 1.0261h4e-5z"/><path d="m40.409 33.4-0.59964-0.15605 1.4854 1.1821 3e-5 1e-5z"/><path d="m39.809 33.244-0.49841-0.22835 1.9837 1.4104 3e-5 2e-5z"/><path d="m39.311 33.016-0.36319-0.28506 2.3469 1.6955z"/></g><g fill="#ffb700" stroke="#cc9200"><path d="m41.295 34.426-2e-5 -2e-5 2.5502 2.0178-0.20325-0.32229z"/><path d="m41.295 34.426v-1e-5l2.5796 2.3555-0.02947-0.33762z"/><path d="m41.295 34.426v-2e-5l2.4333 2.6854 0.14637-0.32991z"/><path d="m41.295 34.426 2e-5 -3e-5 2.1211 2.9852 0.31212-0.29975z"/><path d="m41.295 34.426h3e-5l1.6644 3.2343 0.45668-0.24914z"/><path d="m41.295 34.426 3e-5 -1e-5 1.0943 3.4159 0.57011-0.18155z"/><path d="m41.295 34.426h1e-5l0.44959 3.5175 0.64468-0.10159z"/><path d="m41.295 34.426h3e-5l-0.22577 3.5322 0.67533-0.01471z"/><path d="m41.295 34.426h5e-5l-0.88574 3.459 0.65992 0.07318z"/><path d="m41.295 34.426 3e-5 1e-5 -1.4854 3.3029 0.5996 0.15607z"/><path d="m41.295 34.426 3e-5 2e-5 -1.9838 3.0746 0.49835 0.22832z"/><path d="m41.295 34.426 1e-5 1e-5 -2.3469 2.7896 0.36314 0.28502z"/><path d="m41.295 34.426-2.5502 2.4672 0.20328 0.3223z"/><path d="m41.295 34.426v2e-5l-2.5796 2.1296 0.02945 0.33762z"/><path d="m41.295 34.426v1e-5l-2.4333 1.7997-0.14636 0.32993z"/><path d="m41.295 34.426-1e-5 4e-5 -2.1212 1.4999-0.3121 0.29974z"/><path d="m41.295 34.426h-3e-5l-1.6644 1.2508-0.4567 0.24913z"/><path d="m41.295 34.426h-1e-5l-1.0943 1.0692-0.57013 0.18157z"/><path d="m41.295 34.426-4e-5 1e-5 -0.44958 0.96761-0.64467 0.10157z"/><path d="m41.295 34.426h-3e-5l0.22577 0.9529-0.67532 0.01471z"/><path d="m41.295 34.426h-4e-5l0.88574 1.0261-0.65993-0.07318z"/><path d="m41.295 34.426-3e-5 -1e-5 1.4854 1.1822-0.59959-0.15606z"/><path d="m41.295 34.426-3e-5 -2e-5 1.9837 1.4105-0.49835-0.22832z"/><path d="m41.295 34.426 2.3469 1.6955-0.36316-0.28504z"/></g><g fill="#ffa700" stroke="#cc8600"><path d="m43.641 36.122 0.20325 0.32229 2.5502 2.0178-0.40652-0.64461z"/><path d="m43.845 36.444 0.02947 0.33762 2.5796 2.3555-0.05892-0.67524z"/><path d="m43.874 36.782-0.14637 0.32991 2.4333 2.6854 0.29274-0.65986z"/><path d="m43.728 37.112-0.31212 0.29975 2.1211 2.9852 0.62426-0.59952z"/><path d="m43.416 37.411-0.45668 0.24914 1.6644 3.2343 0.91339-0.49827z"/><path d="m42.959 37.661-0.57011 0.18155 1.0943 3.4159 1.1403-0.3631z"/><path d="m42.389 37.842-0.64468 0.10159 0.44957 3.5175 1.2894-0.20319z"/><path d="m41.744 37.944-0.67533 0.01471-0.22576 3.5322 1.3507-0.02945z"/><path d="m41.069 37.958-0.65992-0.07318-0.88574 3.459 1.3199 0.14638z"/><path d="m40.409 37.885-0.5996-0.15607-1.4854 3.303 1.1992 0.31212z"/><path d="m39.809 37.729-0.49835-0.22832-1.9837 3.0746 0.99673 0.45668z"/><path d="m39.311 37.501-0.36314-0.28502-2.3469 2.7896 0.72634 0.57005z"/><path d="m38.948 37.216-0.20328-0.3223-2.5502 2.4672 0.40654 0.64463z"/><path d="m38.745 36.894-0.02945-0.33762-2.5797 2.1296 0.05893 0.67526z"/><path d="m38.715 36.556 0.14636-0.32993-2.4333 1.7997-0.29275 0.65984z"/><path d="m38.861 36.226 0.3121-0.29974-2.1211 1.4999-0.62426 0.59953z"/><path d="m39.174 35.926 0.4567-0.24913-1.6644 1.2508-0.91339 0.49827z"/><path d="m39.63 35.677 0.57013-0.18157-1.0943 1.0692-1.1403 0.36312z"/><path d="m40.2 35.496 0.64467-0.10157-0.44957 0.9676-1.2894 0.20317z"/><path d="m40.845 35.394 0.67532-0.01471 0.22577 0.95286-1.3507 0.02945z"/><path d="m41.52 35.379 0.65993 0.07318 0.88574 1.0261-1.3199-0.14638z"/><path d="m42.18 35.452 0.59959 0.15606 1.4854 1.1821-1.1992-0.31212z"/><path d="m42.78 35.608 0.49835 0.22832 1.9837 1.4105-0.99674-0.45668z"/><path d="m43.278 35.837 0.36316 0.28504 2.3469 1.6955-0.72635-0.57008z"/></g><g fill="#ff9700" stroke="#cc7900"><path d="m45.988 37.817 0.40652 0.64461 2.5502 2.0178-0.60974-0.96695z"/><path d="m46.395 38.462 0.05892 0.67524 2.5796 2.3555-0.08841-1.0129z"/><path d="m46.454 39.137-0.29274 0.65986 2.4333 2.6854 0.43912-0.98979z"/><path d="m46.161 39.797-0.62426 0.59952 2.1212 2.9852 0.93637-0.89927z"/><path d="m45.537 40.397-0.91339 0.49827 1.6644 3.2343 1.3701-0.74743z"/><path d="m44.623 40.895-1.1403 0.3631 1.0943 3.4159 1.7104-0.54464z"/><path d="m43.483 41.258-1.2894 0.20319 0.44958 3.5175 1.9341-0.30483z"/><path d="m42.194 41.461-1.3507 0.02945-0.22579 3.5322 2.026-0.04411z"/><path d="m40.843 41.491-1.3199-0.14638-0.88575 3.459 1.9799 0.21956z"/><path d="m39.523 41.344-1.1992-0.31212-1.4854 3.3029 1.7988 0.46819z"/><path d="m38.324 41.032-0.99673-0.45668-1.9838 3.0746 1.4951 0.68499z"/><path d="m37.327 40.575-0.72634-0.57005-2.3469 2.7895 1.0895 0.85511z"/><path d="m36.601 40.005-0.40654-0.64463-2.5502 2.4672 0.60975 0.96696z"/><path d="m36.194 39.361-0.05893-0.67526-2.5796 2.1296 0.08841 1.0129z"/><path d="m36.135 38.685 0.29275-0.65984-2.4333 1.7997-0.43911 0.98977z"/><path d="m36.428 38.026 0.62426-0.59953-2.1212 1.4999-0.93636 0.89928z"/><path d="m37.052 37.426 0.91339-0.49827-1.6644 1.2508-1.3701 0.74742z"/><path d="m37.966 36.928 1.1403-0.36312-1.0943 1.0692-1.7104 0.54466z"/><path d="m39.106 36.565 1.2894-0.20317-0.44959 0.96758-1.9341 0.30481z"/><path d="m40.396 36.362 1.3507-0.02945 0.22578 0.95291-2.026 0.04412z"/><path d="m41.746 36.332 1.3199 0.14638 0.88574 1.0261-1.9799-0.21956z"/><path d="m43.066 36.478 1.1992 0.31212 1.4854 1.1822-1.7988-0.46819z"/><path d="m44.265 36.791 0.99674 0.45668 1.9837 1.4105-1.4951-0.685z"/><path d="m45.262 37.247 0.72635 0.57008 2.3469 1.6955-1.0896-0.85511z"/></g><g fill="#ff8700" stroke="#cc6c00"><path d="m48.335 39.513 0.60974 0.96695 2.5502 2.0178-0.81304-1.2892z"/><path d="m48.945 40.48 0.08841 1.0129 2.5796 2.3555-0.11786-1.3505z"/><path d="m49.033 41.493-0.43912 0.98979 2.4333 2.6854 0.58548-1.3197z"/><path d="m48.594 42.482-0.93637 0.89927 2.1211 2.9852 1.2485-1.199z"/><path d="m47.658 43.382-1.3701 0.74743 1.6644 3.2343 1.8268-0.99657z"/><path d="m46.288 44.129-1.7104 0.54464 1.0943 3.4159 2.2806-0.72621z"/><path d="m44.577 44.674-1.9341 0.30483 0.44956 3.5175 2.5788-0.40641z"/><path d="m42.643 44.979-2.026 0.04411-0.22578 3.5322 2.7014-0.05885z"/><path d="m40.617 45.023-1.9799-0.21956-0.88573 3.459 2.6398 0.29276z"/><path d="m38.637 44.803-1.7988-0.46819-1.4854 3.303 2.3985 0.62424z"/><path d="m36.839 44.335-1.4951-0.68499-1.9837 3.0746 1.9935 0.91333z"/><path d="m35.344 43.65-1.0895-0.85511-2.3469 2.7895 1.4527 1.1402z"/><path d="m34.254 42.795-0.60975-0.96696-2.5502 2.4672 0.81305 1.2893z"/><path d="m33.644 41.828-0.08841-1.0129-2.5796 2.1296 0.11785 1.3505z"/><path d="m33.556 40.815 0.43911-0.98977-2.4333 1.7997-0.58548 1.3197z"/><path d="m33.995 39.825 0.93636-0.89928-2.1211 1.4999-1.2485 1.199z"/><path d="m34.931 38.926 1.3701-0.74742-1.6644 1.2508-1.8268 0.99657z"/><path d="m36.301 38.179 1.7104-0.54466-1.0943 1.0692-2.2806 0.72622z"/><path d="m38.012 37.634 1.9341-0.30481-0.44955 0.9676-2.5788 0.40641z"/><path d="m39.946 37.329 2.026-0.04412 0.22579 0.95288-2.7014 0.05884z"/><path d="m41.972 37.285 1.9799 0.21956 0.88573 1.0261-2.6398-0.29276z"/><path d="m43.952 37.505 1.7988 0.46819 1.4854 1.1821-2.3985-0.62422z"/><path d="m45.751 37.973 1.4951 0.685 1.9838 1.4104-1.9935-0.91333z"/><path d="m47.246 38.658 1.0896 0.85511 2.3469 1.6955-1.4527-1.1402z"/></g><g fill="#f70" stroke="#cc5f00"><path d="m50.682 41.208 0.81304 1.2892 2.5502 2.0178-1.0163-1.6116z"/><path d="m51.495 42.498 0.11786 1.3505 2.5796 2.3555-0.1473-1.6882z"/><path d="m51.613 43.848-0.58548 1.3197 2.4333 2.6854 0.73184-1.6496z"/><path d="m51.028 45.168-1.2485 1.199 2.1212 2.9852 1.5606-1.4988z"/><path d="m49.779 46.367-1.8268 0.99657 1.6644 3.2343 2.2835-1.2457z"/><path d="m47.952 47.363-2.2806 0.72621 1.0943 3.4159 2.8507-0.90775z"/><path d="m45.672 48.09-2.5788 0.40641 0.44957 3.5175 3.2235-0.50803z"/><path d="m43.093 48.496-2.7014 0.05885-0.22577 3.5322 3.3767-0.07356z"/><path d="m40.392 48.555-2.6398-0.29276-0.88574 3.459 3.2998 0.36596z"/><path d="m37.752 48.262-2.3985-0.62424-1.4854 3.3029 2.9981 0.78031z"/><path d="m35.353 47.638-1.9935-0.91333-1.9837 3.0746 2.4918 1.1417z"/><path d="m33.36 46.725-1.4527-1.1402-2.3469 2.7896 1.8159 1.4252z"/><path d="m31.907 45.584-0.81305-1.2893-2.5502 2.4672 1.0163 1.6116z"/><path d="m31.094 44.295-0.11785-1.3505-2.5796 2.1296 0.14731 1.6882z"/><path d="m30.976 42.945 0.58548-1.3197-2.4333 1.7997-0.73184 1.6496z"/><path d="m31.562 41.625 1.2485-1.199-2.1212 1.4999-1.5606 1.4988z"/><path d="m32.81 40.426 1.8268-0.99657-1.6644 1.2507-2.2835 1.2457z"/><path d="m34.637 39.429 2.2806-0.72622-1.0943 1.0692-2.8507 0.90776z"/><path d="m36.918 38.703 2.5788-0.40641-0.44959 0.96759-3.2235 0.50801z"/><path d="m39.496 38.297 2.7014-0.05884 0.22576 0.95287-3.3767 0.07356z"/><path d="m42.198 38.238 2.6398 0.29276 0.88574 1.0261-3.2998-0.36597z"/><path d="m44.838 38.531 2.3985 0.62422 1.4854 1.1821-2.9981-0.78028z"/><path d="m47.236 39.155 1.9935 0.91333 1.9837 1.4105-2.4919-1.1417z"/><path d="m49.229 40.068 1.4527 1.1402 2.3469 1.6955-1.8159-1.4252z"/></g><g fill="#ff6700" stroke="#cc5200"><path d="m53.029 42.904 1.0163 1.6116 2.5502 2.0179-1.2196-1.9339z"/><path d="m54.045 44.515 0.1473 1.6882 2.5796 2.3555-0.17677-2.0258z"/><path d="m54.193 46.204-0.73184 1.6496 2.4333 2.6854 0.87821-1.9796z"/><path d="m53.461 47.853-1.5606 1.4988 2.1212 2.9852 1.8728-1.7986z"/><path d="m51.9 49.352-2.2835 1.2457 1.6644 3.2343 2.7403-1.4948z"/><path d="m49.617 50.598-2.8507 0.90775 1.0943 3.4159 3.4208-1.0893z"/><path d="m46.766 51.506-3.2235 0.50803 0.44956 3.5175 3.8683-0.60961z"/><path d="m43.542 52.014-3.3767 0.07356-0.22579 3.5322 4.0521-0.08828z"/><path d="m40.166 52.087-3.2998-0.36596-0.88574 3.459 3.9597 0.43916z"/><path d="m36.866 51.721-2.9981-0.78031-1.4854 3.303 3.5977 0.93632z"/><path d="m33.868 50.941-2.4918-1.1417-1.9838 3.0746 2.9902 1.37z"/><path d="m31.376 49.799-1.8159-1.4252-2.3469 2.7896 2.1791 1.7102z"/><path d="m29.56 48.374-1.0163-1.6116-2.5502 2.4672 1.2196 1.9339z"/><path d="m28.544 46.762-0.14731-1.6882-2.5796 2.1296 0.17677 2.0258z"/><path d="m28.397 45.074 0.73184-1.6496-2.4333 1.7997-0.87822 1.9796z"/><path d="m29.128 43.425 1.5606-1.4988-2.1211 1.4999-1.8728 1.7986z"/><path d="m30.689 41.926 2.2835-1.2457-1.6644 1.2508-2.7403 1.4948z"/><path d="m32.973 40.68 2.8507-0.90776-1.0943 1.0692-3.4208 1.0893z"/><path d="m35.823 39.772 3.2235-0.50801-0.44955 0.96761-3.8682 0.6096z"/><path d="m39.047 39.264 3.3767-0.07356 0.22579 0.9529-4.0521 0.08827z"/><path d="m42.424 39.191 3.2998 0.36597 0.88574 1.0261-3.9597-0.43915z"/><path d="m45.723 39.557 2.9981 0.78028 1.4854 1.1821-3.5977-0.93633z"/><path d="m48.721 40.337 2.4919 1.1417 1.9838 1.4105-2.9902-1.37z"/><path d="m51.213 41.479 1.8159 1.4252 2.3469 1.6955-2.1791-1.7103z"/></g><g fill="#ff5700" stroke="#cc4600"><path d="m55.376 44.599 1.2196 1.9339 2.5502 2.0178-1.4228-2.2562z"/><path d="m56.596 46.533 0.17677 2.0258 2.5796 2.3554-0.20622-2.3634z"/><path d="m56.772 48.559-0.87821 1.9796 2.4333 2.6854 1.0246-2.3095z"/><path d="m55.894 50.539-1.8728 1.7986 2.1212 2.9852 2.1849-2.0983z"/><path d="m54.021 52.337-2.7403 1.4948 1.6644 3.2343 3.197-1.744z"/><path d="m51.281 53.832-3.4208 1.0893 1.0943 3.4159 3.991-1.2709z"/><path d="m47.86 54.921-3.8683 0.60961 0.44957 3.5175 4.513-0.71121z"/><path d="m43.992 55.531-4.0521 0.08828-0.22577 3.5322 4.7274-0.10301z"/><path d="m39.94 55.619-3.9597-0.43916-0.88576 3.459 4.6197 0.51234z"/><path d="m35.98 55.18-3.5977-0.93632-1.4854 3.3029 4.1973 1.0924z"/><path d="m32.383 54.244-2.9902-1.37-1.9837 3.0746 3.4886 1.5984z"/><path d="m29.392 52.874-2.1791-1.7102-2.3469 2.7896 2.5423 1.9953z"/><path d="m27.213 51.164-1.2196-1.9339-2.5502 2.4672 1.4228 2.2562z"/><path d="m25.994 49.23-0.17677-2.0258-2.5796 2.1296 0.20624 2.3634z"/><path d="m25.817 47.204 0.87822-1.9796-2.4333 1.7996-1.0246 2.3095z"/><path d="m26.695 45.224 1.8728-1.7986-2.1212 1.4999-2.1849 2.0983z"/><path d="m28.568 43.426 2.7403-1.4948-1.6645 1.2508-3.197 1.744z"/><path d="m31.308 41.931 3.4208-1.0893-1.0943 1.0692-3.991 1.2709z"/><path d="m34.729 40.842 3.8682-0.6096-0.44957 0.9676-4.513 0.7112z"/><path d="m38.597 40.232 4.0521-0.08827 0.22577 0.95286-4.7274 0.10301z"/><path d="m42.649 40.144 3.9597 0.43915 0.88575 1.0261-4.6197-0.51235z"/><path d="m46.609 40.583 3.5977 0.93633 1.4854 1.1821-4.1973-1.0924z"/><path d="m50.207 41.519 2.9902 1.37 1.9837 1.4105-3.4886-1.5984z"/><path d="m53.197 42.889 2.1791 1.7103 2.3469 1.6955-2.5423-1.9953z"/></g><g fill="#ff4700" stroke="#cc3900"><path d="m57.723 46.295 1.4228 2.2562 2.5502 2.0178-1.6261-2.5785z"/><path d="m59.146 48.551 0.20622 2.3634 2.5797 2.3555-0.23571-2.701z"/><path d="m59.352 50.915-1.0246 2.3095 2.4333 2.6854 1.171-2.6395z"/><path d="m58.327 53.224-2.1849 2.0983 2.1211 2.9852 2.4971-2.3981z"/><path d="m56.143 55.322-3.197 1.744 1.6644 3.2343 3.6537-1.9932z"/><path d="m52.946 57.066-3.991 1.2709 1.0943 3.4159 4.5611-1.4524z"/><path d="m48.955 58.337-4.513 0.71121 0.44957 3.5175 5.1577-0.81282z"/><path d="m44.442 59.049-4.7274 0.10301-0.22578 3.5322 5.4028-0.11771z"/><path d="m39.714 59.152-4.6197-0.51234-0.88572 3.459 5.2797 0.58551z"/><path d="m35.094 58.639-4.1973-1.0924-1.4854 3.3029 4.797 1.2485z"/><path d="m30.897 57.547-3.4886-1.5984-1.9837 3.0746 3.987 1.8267z"/><path d="m27.409 55.948-2.5423-1.9953-2.3469 2.7896 2.9054 2.2804z"/><path d="m24.866 53.953-1.4228-2.2562-2.5502 2.4672 1.6261 2.5786z"/><path d="m23.443 51.697-0.20624-2.3634-2.5796 2.1296 0.23568 2.701z"/><path d="m23.237 49.333 1.0246-2.3095-2.4333 1.7997-1.1709 2.6395z"/><path d="m24.262 47.024 2.1849-2.0983-2.1211 1.4999-2.4971 2.3981z"/><path d="m26.447 44.926 3.197-1.744-1.6644 1.2507-3.6537 1.9932z"/><path d="m29.644 43.182 3.991-1.2709-1.0943 1.0692-4.5612 1.4524z"/><path d="m33.635 41.911 4.513-0.7112-0.44957 0.96759-5.1577 0.81281z"/><path d="m38.148 41.2 4.7274-0.10301 0.22579 0.95291-5.4028 0.11769z"/><path d="m42.875 41.097 4.6197 0.51235 0.88574 1.0261-5.2797-0.58551z"/><path d="m47.495 41.609 4.1973 1.0924 1.4854 1.1821-4.797-1.2485z"/><path d="m51.692 42.701 3.4886 1.5984 1.9837 1.4105-3.987-1.8267z"/><path d="m55.181 44.3 2.5423 1.9953 2.3469 1.6955-2.9055-2.2804z"/></g><g fill="#ff3700" stroke="#cc2c00"><path d="m60.07 47.99 1.6261 2.5785 2.5502 2.0178-1.8293-2.9008z"/><path d="m61.696 50.569 0.23571 2.701 2.5796 2.3555-0.26517-3.0387z"/><path d="m61.932 53.27-1.171 2.6395 2.4333 2.6854 1.3173-2.9694z"/><path d="m60.761 55.91-2.4971 2.3981 2.1211 2.9852 2.8092-2.6979z"/><path d="m58.264 58.308-3.6537 1.9932 1.6644 3.2343 4.1104-2.2423z"/><path d="m54.61 60.301-4.5611 1.4524 1.0943 3.4159 5.1313-1.634z"/><path d="m50.049 61.753-5.1577 0.81282 0.44959 3.5175 5.8024-0.91445z"/><path d="m44.891 62.566-5.4028 0.11771-0.22577 3.5322 6.0781-0.1324z"/><path d="m39.488 62.684-5.2797-0.58551-0.88575 3.459 5.9396 0.6587z"/><path d="m34.209 62.098-4.797-1.2485-1.4854 3.3029 5.3966 1.4046z"/><path d="m29.412 60.85-3.987-1.8267-1.9837 3.0746 4.4854 2.055z"/><path d="m25.425 59.023-2.9054-2.2804-2.3469 2.7895 3.2686 2.5654z"/><path d="m22.519 56.743-1.6261-2.5786-2.5502 2.4672 1.8294 2.9008z"/><path d="m20.893 54.164-0.23568-2.701-2.5796 2.1296 0.26517 3.0387z"/><path d="m20.658 51.463 1.1709-2.6395-2.4333 1.7997-1.3173 2.9694z"/><path d="m21.829 48.824 2.4971-2.3981-2.1211 1.4999-2.8092 2.6979z"/><path d="m24.326 46.426 3.6537-1.9932-1.6644 1.2508-4.1104 2.2423z"/><path d="m27.979 44.432 4.5612-1.4524-1.0943 1.0692-5.1313 1.634z"/><path d="m32.54 42.98 5.1577-0.81281-0.44959 0.96759-5.8024 0.91443z"/><path d="m37.698 42.167 5.4028-0.11769 0.22576 0.95288-6.0781 0.1324z"/><path d="m43.101 42.049 5.2797 0.58551 0.88574 1.0261-5.9396-0.6587z"/><path d="m48.381 42.635 4.797 1.2485 1.4854 1.1822-5.3966-1.4046z"/><path d="m53.177 43.883 3.987 1.8267 1.9837 1.4105-4.4854-2.055z"/><path d="m57.164 45.71 2.9055 2.2804 2.3469 1.6955-3.2686-2.5654z"/></g><g fill="#ff2700" stroke="#cc1f00"><path d="m62.417 49.686 1.8293 2.9008 2.5502 2.0178-2.0326-3.2231z"/><path d="m64.246 52.587 0.26517 3.0387 2.5796 2.3555-0.29462-3.3763z"/><path d="m64.511 55.626-1.3173 2.9694 2.4333 2.6854 1.4637-3.2993z"/><path d="m63.194 58.595-2.8092 2.6979 2.1212 2.9852 3.1213-2.9976z"/><path d="m60.385 61.293-4.1104 2.2423 1.6644 3.2343 4.5671-2.4914z"/><path d="m56.274 63.535-5.1313 1.634 1.0943 3.4159 5.7014-1.8155z"/><path d="m51.143 65.169-5.8024 0.91445 0.44955 3.5174 6.4471-1.016z"/><path d="m45.341 66.083-6.0781 0.1324-0.22578 3.5322 6.7534-0.14713z"/><path d="m39.263 66.216-5.9396-0.6587-0.88574 3.459 6.5996 0.73189z"/><path d="m33.323 65.557-5.3966-1.4046-1.4853 3.3029 5.9962 1.5606z"/><path d="m27.926 64.153-4.4854-2.055-1.9838 3.0746 4.9838 2.2834z"/><path d="m23.441 62.098-3.2686-2.5654-2.3469 2.7896 3.6318 2.8504z"/><path d="m20.172 59.532-1.8294-2.9008-2.5502 2.4672 2.0326 3.2232z"/><path d="m18.343 56.631-0.26517-3.0387-2.5796 2.1296 0.29462 3.3763z"/><path d="m18.078 53.593 1.3173-2.9694-2.4333 1.7997-1.4637 3.2993z"/><path d="m19.395 50.623 2.8092-2.6979-2.1212 1.4999-3.1213 2.9976z"/><path d="m22.204 47.925 4.1104-2.2423-1.6644 1.2508-4.5671 2.4914z"/><path d="m26.315 45.683 5.1313-1.634-1.0943 1.0692-5.7015 1.8156z"/><path d="m31.446 44.049 5.8024-0.91443-0.44955 0.96761-6.4471 1.016z"/><path d="m37.248 43.135 6.0781-0.1324 0.22579 0.95288-6.7534 0.14713z"/><path d="m43.327 43.002 5.9396 0.6587 0.88575 1.0261-6.5996-0.73191z"/><path d="m49.266 43.661 5.3966 1.4046 1.4853 1.1822-5.9962-1.5606z"/><path d="m54.663 45.066 4.4854 2.055 1.9838 1.4105-4.9838-2.2834z"/><path d="m59.148 47.121 3.2686 2.5654 2.3469 1.6955-3.6318-2.8504z"/></g><g fill="#ff1700" stroke="#cc1300"><path d="m64.764 51.382 2.0326 3.2231 2.5502 2.0178-2.2359-3.5455z"/><path d="m66.796 54.605 0.29462 3.3763 2.5796 2.3555-0.32405-3.7139z"/><path d="m67.091 57.981-1.4637 3.2993 2.4333 2.6854 1.61-3.6293z"/><path d="m65.627 61.28-3.1213 2.9976 2.1212 2.9852 3.4334-3.2974z"/><path d="m62.506 64.278-4.5671 2.4914 1.6644 3.2343 5.0238-2.7406z"/><path d="m57.939 66.769-5.7014 1.8155 1.0943 3.4159 6.2716-1.9971z"/><path d="m52.237 68.585-6.4471 1.016 0.44959 3.5175 7.0918-1.1176z"/><path d="m45.79 69.601-6.7534 0.14713-0.22579 3.5322 7.4288-0.16183z"/><path d="m39.037 69.748-6.5996-0.73189-0.88574 3.459 7.2596 0.8051z"/><path d="m32.437 69.016-5.9962-1.5606-1.4854 3.303 6.5958 1.7166z"/><path d="m26.441 67.456-4.9838-2.2834-1.9838 3.0746 5.4821 2.5117z"/><path d="m21.457 65.172-3.6318-2.8504-2.347 2.7896 3.995 3.1355z"/><path d="m17.826 62.322-2.0326-3.2232-2.5502 2.4672 2.2359 3.5455z"/><path d="m15.793 59.099-0.29462-3.3763-2.5796 2.1296 0.32404 3.7139z"/><path d="m15.498 55.722 1.4637-3.2993-2.4333 1.7997-1.61 3.6293z"/><path d="m16.962 52.423 3.1213-2.9976-2.1212 1.4999-3.4334 3.2974z"/><path d="m20.083 49.425 4.5671-2.4914-1.6644 1.2508-5.0238 2.7406z"/><path d="m24.65 46.934 5.7015-1.8156-1.0943 1.0692-6.2716 1.9971z"/><path d="m30.352 45.118 6.4471-1.016-0.44958 0.96759-7.0918 1.1176z"/><path d="m36.799 44.102 6.7534-0.14713 0.22578 0.95289-7.4288 0.16183z"/><path d="m43.552 43.955 6.5996 0.73191 0.88573 1.0261-7.2596-0.8051z"/><path d="m50.152 44.687 5.9962 1.5606 1.4854 1.1821-6.5958-1.7166z"/><path d="m56.148 46.248 4.9838 2.2834 1.9838 1.4105-5.4821-2.5117z"/><path d="m61.132 48.531 3.6318 2.8504 2.3469 1.6955-3.995-3.1355z"/></g><g fill="#ff0700" stroke="#cc0600"><path d="m67.111 53.077 2.2359 3.5455 2.5502 2.0178-2.4391-3.8678z"/><path d="m69.347 56.623 0.32405 3.7139 2.5797 2.3555-0.35356-4.0516z"/><path d="m69.671 60.336-1.61 3.6293 2.4333 2.6854 1.7564-3.9592z"/><path d="m68.061 63.966-3.4334 3.2974 2.1211 2.9852 3.7456-3.5972z"/><path d="m64.627 67.263-5.0238 2.7406 1.6644 3.2343 5.4805-2.9897z"/><path d="m59.603 70.004-6.2716 1.9971 1.0943 3.4159 6.8418-2.1786z"/><path d="m53.332 72.001-7.0918 1.1176 0.44957 3.5174 7.7365-1.2192z"/><path d="m46.24 73.118-7.4288 0.16183-0.22577 3.5322 8.1042-0.17658z"/><path d="m38.811 73.28-7.2596-0.8051-0.88574 3.459 7.9195 0.8783z"/><path d="m31.552 72.475-6.5958-1.7166-1.4854 3.3029 7.1954 1.8727z"/><path d="m24.956 70.758-5.4821-2.5117-1.9837 3.0746 5.9805 2.74z"/><path d="m19.474 68.247-3.995-3.1355-2.3469 2.7896 4.3582 3.4205z"/><path d="m15.479 65.111-2.2359-3.5455-2.5502 2.4672 2.4391 3.8678z"/><path d="m13.243 61.566-0.32404-3.7139-2.5797 2.1296 0.35356 4.0516z"/><path d="m12.919 57.852 1.61-3.6293-2.4333 1.7997-1.7564 3.9592z"/><path d="m14.529 54.223 3.4334-3.2974-2.1211 1.4999-3.7456 3.5972z"/><path d="m17.962 50.925 5.0238-2.7406-1.6644 1.2508-5.4805 2.9897z"/><path d="m22.986 48.185 6.2716-1.9971-1.0943 1.0692-6.8418 2.1786z"/><path d="m29.258 46.188 7.0918-1.1176-0.44957 0.9676-7.7365 1.2192z"/><path d="m36.349 45.07 7.4288-0.16183 0.22577 0.95288-8.1042 0.17655z"/><path d="m43.778 44.908 7.2596 0.8051 0.88575 1.0261-7.9195-0.87829z"/><path d="m51.038 45.713 6.5958 1.7166 1.4854 1.1821-7.1954-1.8727z"/><path d="m57.634 47.43 5.4821 2.5117 1.9837 1.4105-5.9805-2.74z"/><path d="m63.116 49.942 3.995 3.1355 2.3469 1.6955-4.3582-3.4206z"/></g></g></g></g></g></g></g></svg>
