<?xml version="1.0" encoding="UTF-8" standalone="no"?>
<!-- Created with Inkscape (http://www.inkscape.org/) -->

<svg
   version="1.1"
   id="svg2"
   xml:space="preserve"
   width="279.68799"
   height="233.16133"
   viewBox="0 0 279.68799 233.16133"
   xmlns="http://www.w3.org/2000/svg"
   xmlns:svg="http://www.w3.org/2000/svg"><defs
     id="defs6"><clipPath
       clipPathUnits="userSpaceOnUse"
       id="clipPath250"><path
         d="M 0,0 H 194.27216 V 161.39636 H 0 Z"
         id="path248" /></clipPath></defs><g
     id="g8"
     transform="matrix(1.3333333,0,0,-1.3333333,0,233.16133)"><g
       id="g10"
       transform="translate(9.686,6.946)"><g
         id="g12"><g
           id="g14"><g
             id="g16" /><g
             id="g18" /><g
             id="g20"><g
               id="g22" /></g><g
             id="g24" /><g
             id="g26" /><g
             id="g28" /><g
             id="g30" /><g
             id="g32"
             transform="translate(-9.686,-6.946)"><g
               id="g34"
               transform="translate(9.686,6.946)"><g
                 id="g36"><g
                   id="g38"><g
                     id="g40"><g
                       id="g42"><g
                         id="g44"><path
                           d="m 0,78.5723 v 4.25174 M 48.56804,78.5723 v 4.25174 m 97.13608,-4.25174 v 4.25174 m 48.56804,-4.25174 v 4.25174"
                           style="fill:none;stroke:#808080;stroke-width:0.19925;stroke-linecap:butt;stroke-linejoin:miter;stroke-miterlimit:10;stroke-dasharray:none;stroke-opacity:1"
                           id="path46" /></g></g><g
                       id="g48"><g
                         id="g50"><path
                           d="m 95.01024,0 h 4.25165 m -4.25165,40.34909 h 4.25165 m -4.25165,80.69818 h 4.25165 m -4.25165,40.34909 h 4.25165"
                           style="fill:none;stroke:#808080;stroke-width:0.19925;stroke-linecap:butt;stroke-linejoin:miter;stroke-miterlimit:10;stroke-dasharray:none;stroke-opacity:1"
                           id="path52" /></g></g><path
                       d="M 0,80.69818 H 192.27963"
                       style="fill:none;stroke:#000000;stroke-width:0.3985;stroke-linecap:butt;stroke-linejoin:miter;stroke-miterlimit:10;stroke-dasharray:none;stroke-opacity:1"
                       id="path54" /><g
                       id="g56"
                       transform="translate(192.27963,80.69818)"><g
                         id="g58"><path
                           d="M 1.99252,0 -1.19551,1.59401 0,0 -1.19551,-1.59401"
                           style="fill:#000000;fill-opacity:1;fill-rule:nonzero;stroke:none"
                           id="path60" /></g></g><path
                       d="M 97.13608,0 V 159.40384"
                       style="fill:none;stroke:#000000;stroke-width:0.3985;stroke-linecap:butt;stroke-linejoin:miter;stroke-miterlimit:10;stroke-dasharray:none;stroke-opacity:1"
                       id="path62" /><g
                       id="g64"
                       transform="rotate(90,-31.13388,128.26996)"><g
                         id="g66"><path
                           d="M 1.99252,0 -1.19551,1.59401 0,0 -1.19551,-1.59401"
                           style="fill:#000000;fill-opacity:1;fill-rule:nonzero;stroke:none"
                           id="path68" /></g></g><g
                       id="g70"><g
                         id="g72"
                         transform="translate(-6.365,68.631)"><g
                           id="g74"><g
                             id="g76"
                             transform="translate(-3.321,-75.577)"><g
                               aria-label="−"
                               transform="matrix(1,0,0,-1,3.321,75.577)"
                               id="text80"
                               style="font-size:9.9626px;font-family:CMSY10;-inkscape-font-specification:CMSY10"><path
                                 d="m 1.0556075,-3.5365283 h 6.2363539 v 0.8269736 H 1.0556075 Z"
                                 id="path308" /></g><g
                               aria-label="1"
                               transform="matrix(1,0,0,-1,11.069,75.577)"
                               id="text84"
                               style="font-size:9.9626px;font-family:CMR10;-inkscape-font-specification:CMR10"><path
                                 d="m 0.92426463,0 v -0.35024765 q 1.24532497,0 1.24532497,-0.31619579 V -5.8958354 Q 1.6539472,-5.6477433 0.86589002,-5.6477433 V -5.997991 q 1.22100218,0 1.84366468,-0.6372561 h 0.141072 q 0.034052,0 0.063239,0.029187 0.034052,0.024323 0.034052,0.058375 v 5.88124176 q 0,0.31619579 1.245325,0.31619579 V 0 Z"
                                 id="path311" /></g><g
                               id="g86"
                               transform="translate(3.321,75.577)" /></g></g><g
                           id="g88"
                           transform="translate(6.365,-68.631)" /></g></g><g
                       id="g90"><g
                         id="g92"
                         transform="translate(38.328,68.631)"><g
                           id="g94"><g
                             id="g96"
                             transform="translate(-48.014,-75.577)"><g
                               aria-label="−"
                               transform="matrix(1,0,0,-1,48.014,75.577)"
                               id="text100"
                               style="font-size:9.9626px;font-family:CMSY10;-inkscape-font-specification:CMSY10"><path
                                 d="m 1.0556075,-3.5365283 h 6.2363539 v 0.8269736 H 1.0556075 Z"
                                 id="path314" /></g><g
                               aria-label="0"
                               transform="matrix(1,0,0,-1,55.762,75.577)"
                               id="text104"
                               style="font-size:9.9626px;font-family:CMR10;-inkscape-font-specification:CMR10"><path
                                 d="m 2.4906499,0.21890478 q -1.2210022,0 -1.66367629,-1.00209744 -0.43780956,-1.00696194 -0.43780956,-2.39335894 0,-0.86589 0.15566562,-1.6296245 0.16053018,-0.7637344 0.62752703,-1.2939704 0.4718614,-0.5351006 1.3182932,-0.5351006 0.6567144,0 1.0750657,0.3210603 0.4183514,0.3210604 0.6372562,0.8318382 0.2189048,0.5059133 0.2967376,1.0896594 0.082697,0.5788815 0.082697,1.2161376 0,0.8561609 -0.1605301,1.6053017 -0.1556657,0.74427629 -0.617798,1.26964776 -0.4621323,0.52050692 -1.3134287,0.52050692 z m 0,-0.25782119 q 0.5545588,0 0.8269737,-0.56915242 0.2724148,-0.56915247 0.3356539,-1.25991867 0.063239,-0.6907661 0.063239,-1.4690943 0,-0.7491408 -0.063239,-1.3815323 -0.063239,-0.6323916 -0.3356539,-1.1431694 -0.2675503,-0.5156424 -0.8269737,-0.5156424 -0.5642878,0 -0.8367027,0.5156424 -0.2724148,0.5156423 -0.335654,1.1480339 -0.063239,0.627527 -0.063239,1.3766678 0,0.5545588 0.024323,1.0458784 0.029187,0.4913197 0.1459365,1.0166911 0.1167493,0.52050695 0.3745704,0.8804837 0.2626858,0.35511219 0.6907662,0.35511219 z"
                                 id="path317" /></g><g
                               aria-label="."
                               transform="matrix(1,0,0,-1,60.744,75.577)"
                               id="text108"
                               style="font-size:9.9626px;font-family:CMMI10;-inkscape-font-specification:CMMI10"><path
                                 d="M 0.26755029,-0.15080107 V -4.8402279 q 0,-0.077833 0.0632391,-0.1264783 0.0632392,-0.05351 0.13620742,-0.05351 0.0535101,0 0.11188467,0.029187 L 4.611594,-2.6609092 q 0.092427,0.05351 0.092427,0.1702593 0,0.1167492 -0.092427,0.1702592 L 0.57888153,0.0097291 q -0.0583746,0.02918731 -0.11188467,0.02918731 -0.0729683,0 -0.13620742,-0.05351006 -0.0632391,-0.05351006 -0.0632391,-0.13620742 z M 0.66644344,-0.50591327 4.1056808,-2.4906499 0.66644344,-4.4753866 Z"
                                 id="path320" /></g><g
                               aria-label="5"
                               transform="matrix(1,0,0,-1,63.511,75.577)"
                               id="text112"
                               style="font-size:9.9626px;font-family:CMR10;-inkscape-font-specification:CMR10"><path
                                 d="m 0.86589002,-1.1334403 q 0.10215556,0.29187304 0.31133128,0.53023602 0.2140402,0.23836298 0.5010487,0.3745704 0.291873,0.13134287 0.6032043,0.13134287 0.7199535,0 0.9923683,-0.55942333 0.2724148,-0.55942336 0.2724148,-1.35720966 0,-0.3453831 -0.014594,-0.5788815 -0.00973,-0.238363 -0.063239,-0.4572678 -0.092426,-0.3502476 -0.3259249,-0.6129333 -0.2286339,-0.2626858 -0.5642878,-0.2626858 -0.335654,0 -0.5788816,0.1021556 -0.238363,0.1021555 -0.389164,0.238363 -0.1508011,0.1362074 -0.2675503,0.2870085 -0.1167492,0.150801 -0.1459365,0.1605301 H 1.0847948 q -0.024323,0 -0.063239,-0.029187 -0.0340518,-0.034052 -0.0340518,-0.063239 v -3.3273527 q 0,-0.024323 0.0291873,-0.048646 0.034052,-0.029187 0.068104,-0.029187 h 0.029187 q 0.671308,0.3210603 1.4253133,0.3210603 0.7394117,0 1.4253134,-0.3210603 h 0.029187 q 0.034052,0 0.063239,0.024323 0.029187,0.024323 0.029187,0.05351 v 0.092426 q 0,0.048646 -0.019458,0.048646 -0.3405186,0.4524032 -0.856161,0.7053598 -0.5107778,0.2529567 -1.060472,0.2529567 -0.3988932,0 -0.8172445,-0.1118847 v 1.8825811 q 0.3307894,-0.2675503 0.5886106,-0.379435 0.2626857,-0.1167492 0.6664435,-0.1167492 0.5496942,0 0.9826392,0.3161958 0.4378095,0.3161958 0.671308,0.8269736 0.2334984,0.5059133 0.2334984,1.0361493 0,0.5983398 -0.2967376,1.10911758 -0.291873,0.51077782 -0.7977863,0.81237996 -0.5059133,0.30160214 -1.0993884,0.30160214 -0.4913197,0 -0.9048065,-0.25295663 Q 0.96804558,-0.28700849 0.7296826,-0.71508895 0.49618417,-1.1431694 0.49618417,-1.6247599 q 0,-0.2237694 0.14593652,-0.3648413 0.14593652,-0.141072 0.36484131,-0.141072 0.2189048,0 0.3648413,0.1459365 0.1508011,0.141072 0.1508011,0.3599768 0,0.2140402 -0.1508011,0.3648413 -0.1459365,0.1459365 -0.3648413,0.1459365 -0.0340519,0 -0.0778328,-0.00486 -0.043781,-0.00973 -0.0632392,-0.014594 z"
                                 id="path323" /></g><g
                               id="g114"
                               transform="translate(48.014,75.577)" /></g></g><g
                           id="g116"
                           transform="translate(-38.328,-68.631)" /></g></g><g
                       id="g118"><g
                         id="g120"
                         transform="translate(139.337,68.631)"><g
                           id="g122"><g
                             id="g124"
                             transform="translate(-149.023,-75.577)"><g
                               aria-label="0"
                               transform="matrix(1,0,0,-1,149.023,75.577)"
                               id="text128"
                               style="font-size:9.9626px;font-family:CMR10;-inkscape-font-specification:CMR10"><path
                                 d="m 2.4906499,0.21890478 q -1.2210022,0 -1.66367629,-1.00209744 -0.43780956,-1.00696194 -0.43780956,-2.39335894 0,-0.86589 0.15566562,-1.6296245 0.16053018,-0.7637344 0.62752703,-1.2939704 0.4718614,-0.5351006 1.3182932,-0.5351006 0.6567144,0 1.0750657,0.3210603 0.4183514,0.3210604 0.6372562,0.8318382 0.2189048,0.5059133 0.2967376,1.0896594 0.082697,0.5788815 0.082697,1.2161376 0,0.8561609 -0.1605301,1.6053017 -0.1556657,0.74427629 -0.617798,1.26964776 -0.4621323,0.52050692 -1.3134287,0.52050692 z m 0,-0.25782119 q 0.5545588,0 0.8269737,-0.56915242 0.2724148,-0.56915247 0.3356539,-1.25991867 0.063239,-0.6907661 0.063239,-1.4690943 0,-0.7491408 -0.063239,-1.3815323 -0.063239,-0.6323916 -0.3356539,-1.1431694 -0.2675503,-0.5156424 -0.8269737,-0.5156424 -0.5642878,0 -0.8367027,0.5156424 -0.2724148,0.5156423 -0.335654,1.1480339 -0.063239,0.627527 -0.063239,1.3766678 0,0.5545588 0.024323,1.0458784 0.029187,0.4913197 0.1459365,1.0166911 0.1167493,0.52050695 0.3745704,0.8804837 0.2626858,0.35511219 0.6907662,0.35511219 z"
                                 id="path326" /></g><g
                               aria-label="."
                               transform="matrix(1,0,0,-1,154.004,75.577)"
                               id="text132"
                               style="font-size:9.9626px;font-family:CMMI10;-inkscape-font-specification:CMMI10"><path
                                 d="M 0.26755029,-0.15080107 V -4.8402279 q 0,-0.077833 0.0632391,-0.1264783 0.0632392,-0.05351 0.13620742,-0.05351 0.0535101,0 0.11188467,0.029187 L 4.611594,-2.6609092 q 0.092427,0.05351 0.092427,0.1702593 0,0.1167492 -0.092427,0.1702592 L 0.57888153,0.0097291 q -0.0583746,0.02918731 -0.11188467,0.02918731 -0.0729683,0 -0.13620742,-0.05351006 -0.0632391,-0.05351006 -0.0632391,-0.13620742 z M 0.66644344,-0.50591327 4.1056808,-2.4906499 0.66644344,-4.4753866 Z"
                                 id="path329" /></g><g
                               aria-label="5"
                               transform="matrix(1,0,0,-1,156.772,75.577)"
                               id="text136"
                               style="font-size:9.9626px;font-family:CMR10;-inkscape-font-specification:CMR10"><path
                                 d="m 0.86589002,-1.1334403 q 0.10215556,0.29187304 0.31133128,0.53023602 0.2140402,0.23836298 0.5010487,0.3745704 0.291873,0.13134287 0.6032043,0.13134287 0.7199535,0 0.9923683,-0.55942333 0.2724148,-0.55942336 0.2724148,-1.35720966 0,-0.3453831 -0.014594,-0.5788815 -0.00973,-0.238363 -0.063239,-0.4572678 -0.092426,-0.3502476 -0.3259249,-0.6129333 -0.2286339,-0.2626858 -0.5642878,-0.2626858 -0.335654,0 -0.5788816,0.1021556 -0.238363,0.1021555 -0.389164,0.238363 -0.1508011,0.1362074 -0.2675503,0.2870085 -0.1167492,0.150801 -0.1459365,0.1605301 H 1.0847948 q -0.024323,0 -0.063239,-0.029187 -0.0340518,-0.034052 -0.0340518,-0.063239 v -3.3273527 q 0,-0.024323 0.0291873,-0.048646 0.034052,-0.029187 0.068104,-0.029187 h 0.029187 q 0.671308,0.3210603 1.4253133,0.3210603 0.7394117,0 1.4253134,-0.3210603 h 0.029187 q 0.034052,0 0.063239,0.024323 0.029187,0.024323 0.029187,0.05351 v 0.092426 q 0,0.048646 -0.019458,0.048646 -0.3405186,0.4524032 -0.856161,0.7053598 -0.5107778,0.2529567 -1.060472,0.2529567 -0.3988932,0 -0.8172445,-0.1118847 v 1.8825811 q 0.3307894,-0.2675503 0.5886106,-0.379435 0.2626857,-0.1167492 0.6664435,-0.1167492 0.5496942,0 0.9826392,0.3161958 0.4378095,0.3161958 0.671308,0.8269736 0.2334984,0.5059133 0.2334984,1.0361493 0,0.5983398 -0.2967376,1.10911758 -0.291873,0.51077782 -0.7977863,0.81237996 -0.5059133,0.30160214 -1.0993884,0.30160214 -0.4913197,0 -0.9048065,-0.25295663 Q 0.96804558,-0.28700849 0.7296826,-0.71508895 0.49618417,-1.1431694 0.49618417,-1.6247599 q 0,-0.2237694 0.14593652,-0.3648413 0.14593652,-0.141072 0.36484131,-0.141072 0.2189048,0 0.3648413,0.1459365 0.1508011,0.141072 0.1508011,0.3599768 0,0.2140402 -0.1508011,0.3648413 -0.1459365,0.1459365 -0.3648413,0.1459365 -0.0340519,0 -0.0778328,-0.00486 -0.043781,-0.00973 -0.0632392,-0.014594 z"
                                 id="path332" /></g><g
                               id="g138"
                               transform="translate(149.023,75.577)" /></g></g><g
                           id="g140"
                           transform="translate(-139.337,-68.631)" /></g></g><g
                       id="g142"><g
                         id="g144"
                         transform="translate(191.779,68.631)"><g
                           id="g146"><g
                             id="g148"
                             transform="translate(-201.465,-75.577)"><g
                               aria-label="1"
                               transform="matrix(1,0,0,-1,201.465,75.577)"
                               id="text152"
                               style="font-size:9.9626px;font-family:CMR10;-inkscape-font-specification:CMR10"><path
                                 d="m 0.92426463,0 v -0.35024765 q 1.24532497,0 1.24532497,-0.31619579 V -5.8958354 Q 1.6539472,-5.6477433 0.86589002,-5.6477433 V -5.997991 q 1.22100218,0 1.84366468,-0.6372561 h 0.141072 q 0.034052,0 0.063239,0.029187 0.034052,0.024323 0.034052,0.058375 v 5.88124176 q 0,0.31619579 1.245325,0.31619579 V 0 Z"
                                 id="path335" /></g><g
                               id="g154"
                               transform="translate(201.465,75.577)" /></g></g><g
                           id="g156"
                           transform="translate(-191.779,-68.631)" /></g></g><g
                       id="g158"><g
                         id="g160"
                         transform="translate(78.759,-2.795)"><g
                           id="g162"><g
                             id="g164"
                             transform="translate(-88.445,-4.151)"><g
                               aria-label="−"
                               transform="matrix(1,0,0,-1,88.445,4.151)"
                               id="text168"
                               style="font-size:9.9626px;font-family:CMSY10;-inkscape-font-specification:CMSY10"><path
                                 d="m 1.0556075,-3.5365283 h 6.2363539 v 0.8269736 H 1.0556075 Z"
                                 id="path338" /></g><g
                               aria-label="1"
                               transform="matrix(1,0,0,-1,96.194,4.151)"
                               id="text172"
                               style="font-size:9.9626px;font-family:CMR10;-inkscape-font-specification:CMR10"><path
                                 d="m 0.92426463,0 v -0.35024765 q 1.24532497,0 1.24532497,-0.31619579 V -5.8958354 Q 1.6539472,-5.6477433 0.86589002,-5.6477433 V -5.997991 q 1.22100218,0 1.84366468,-0.6372561 h 0.141072 q 0.034052,0 0.063239,0.029187 0.034052,0.024323 0.034052,0.058375 v 5.88124176 q 0,0.31619579 1.245325,0.31619579 V 0 Z"
                                 id="path341" /></g><g
                               id="g174"
                               transform="translate(88.445,4.151)" /></g></g><g
                           id="g176"
                           transform="translate(-78.759,2.795)" /></g></g><g
                       id="g178"><g
                         id="g180"
                         transform="translate(71.01,37.553)"><g
                           id="g182"><g
                             id="g184"
                             transform="translate(-80.696,-44.499)"><g
                               aria-label="−"
                               transform="matrix(1,0,0,-1,80.696,44.499)"
                               id="text188"
                               style="font-size:9.9626px;font-family:CMSY10;-inkscape-font-specification:CMSY10"><path
                                 d="m 1.0556075,-3.5365283 h 6.2363539 v 0.8269736 H 1.0556075 Z"
                                 id="path344" /></g><g
                               aria-label="0"
                               transform="matrix(1,0,0,-1,88.445,44.499)"
                               id="text192"
                               style="font-size:9.9626px;font-family:CMR10;-inkscape-font-specification:CMR10"><path
                                 d="m 2.4906499,0.21890478 q -1.2210022,0 -1.66367629,-1.00209744 -0.43780956,-1.00696194 -0.43780956,-2.39335894 0,-0.86589 0.15566562,-1.6296245 0.16053018,-0.7637344 0.62752703,-1.2939704 0.4718614,-0.5351006 1.3182932,-0.5351006 0.6567144,0 1.0750657,0.3210603 0.4183514,0.3210604 0.6372562,0.8318382 0.2189048,0.5059133 0.2967376,1.0896594 0.082697,0.5788815 0.082697,1.2161376 0,0.8561609 -0.1605301,1.6053017 -0.1556657,0.74427629 -0.617798,1.26964776 -0.4621323,0.52050692 -1.3134287,0.52050692 z m 0,-0.25782119 q 0.5545588,0 0.8269737,-0.56915242 0.2724148,-0.56915247 0.3356539,-1.25991867 0.063239,-0.6907661 0.063239,-1.4690943 0,-0.7491408 -0.063239,-1.3815323 -0.063239,-0.6323916 -0.3356539,-1.1431694 -0.2675503,-0.5156424 -0.8269737,-0.5156424 -0.5642878,0 -0.8367027,0.5156424 -0.2724148,0.5156423 -0.335654,1.1480339 -0.063239,0.627527 -0.063239,1.3766678 0,0.5545588 0.024323,1.0458784 0.029187,0.4913197 0.1459365,1.0166911 0.1167493,0.52050695 0.3745704,0.8804837 0.2626858,0.35511219 0.6907662,0.35511219 z"
                                 id="path347" /></g><g
                               aria-label="."
                               transform="matrix(1,0,0,-1,93.426,44.499)"
                               id="text196"
                               style="font-size:9.9626px;font-family:CMMI10;-inkscape-font-specification:CMMI10"><path
                                 d="M 0.26755029,-0.15080107 V -4.8402279 q 0,-0.077833 0.0632391,-0.1264783 0.0632392,-0.05351 0.13620742,-0.05351 0.0535101,0 0.11188467,0.029187 L 4.611594,-2.6609092 q 0.092427,0.05351 0.092427,0.1702593 0,0.1167492 -0.092427,0.1702592 L 0.57888153,0.0097291 q -0.0583746,0.02918731 -0.11188467,0.02918731 -0.0729683,0 -0.13620742,-0.05351006 -0.0632391,-0.05351006 -0.0632391,-0.13620742 z M 0.66644344,-0.50591327 4.1056808,-2.4906499 0.66644344,-4.4753866 Z"
                                 id="path350" /></g><g
                               aria-label="5"
                               transform="matrix(1,0,0,-1,96.194,44.499)"
                               id="text200"
                               style="font-size:9.9626px;font-family:CMR10;-inkscape-font-specification:CMR10"><path
                                 d="m 0.86589002,-1.1334403 q 0.10215556,0.29187304 0.31133128,0.53023602 0.2140402,0.23836298 0.5010487,0.3745704 0.291873,0.13134287 0.6032043,0.13134287 0.7199535,0 0.9923683,-0.55942333 0.2724148,-0.55942336 0.2724148,-1.35720966 0,-0.3453831 -0.014594,-0.5788815 -0.00973,-0.238363 -0.063239,-0.4572678 -0.092426,-0.3502476 -0.3259249,-0.6129333 -0.2286339,-0.2626858 -0.5642878,-0.2626858 -0.335654,0 -0.5788816,0.1021556 -0.238363,0.1021555 -0.389164,0.238363 -0.1508011,0.1362074 -0.2675503,0.2870085 -0.1167492,0.150801 -0.1459365,0.1605301 H 1.0847948 q -0.024323,0 -0.063239,-0.029187 -0.0340518,-0.034052 -0.0340518,-0.063239 v -3.3273527 q 0,-0.024323 0.0291873,-0.048646 0.034052,-0.029187 0.068104,-0.029187 h 0.029187 q 0.671308,0.3210603 1.4253133,0.3210603 0.7394117,0 1.4253134,-0.3210603 h 0.029187 q 0.034052,0 0.063239,0.024323 0.029187,0.024323 0.029187,0.05351 v 0.092426 q 0,0.048646 -0.019458,0.048646 -0.3405186,0.4524032 -0.856161,0.7053598 -0.5107778,0.2529567 -1.060472,0.2529567 -0.3988932,0 -0.8172445,-0.1118847 v 1.8825811 q 0.3307894,-0.2675503 0.5886106,-0.379435 0.2626857,-0.1167492 0.6664435,-0.1167492 0.5496942,0 0.9826392,0.3161958 0.4378095,0.3161958 0.671308,0.8269736 0.2334984,0.5059133 0.2334984,1.0361493 0,0.5983398 -0.2967376,1.10911758 -0.291873,0.51077782 -0.7977863,0.81237996 -0.5059133,0.30160214 -1.0993884,0.30160214 -0.4913197,0 -0.9048065,-0.25295663 Q 0.96804558,-0.28700849 0.7296826,-0.71508895 0.49618417,-1.1431694 0.49618417,-1.6247599 q 0,-0.2237694 0.14593652,-0.3648413 0.14593652,-0.141072 0.36484131,-0.141072 0.2189048,0 0.3648413,0.1459365 0.1508011,0.141072 0.1508011,0.3599768 0,0.2140402 -0.1508011,0.3648413 -0.1459365,0.1459365 -0.3648413,0.1459365 -0.0340519,0 -0.0778328,-0.00486 -0.043781,-0.00973 -0.0632392,-0.014594 z"
                                 id="path353" /></g><g
                               id="g202"
                               transform="translate(80.696,44.499)" /></g></g><g
                           id="g204"
                           transform="translate(-71.01,-37.553)" /></g></g><g
                       id="g206"><g
                         id="g208"
                         transform="translate(78.759,117.835)"><g
                           id="g210"><g
                             id="g212"
                             transform="translate(-88.445,-124.781)"><g
                               aria-label="0"
                               transform="matrix(1,0,0,-1,88.445,124.781)"
                               id="text216"
                               style="font-size:9.9626px;font-family:CMR10;-inkscape-font-specification:CMR10"><path
                                 d="m 2.4906499,0.21890478 q -1.2210022,0 -1.66367629,-1.00209744 -0.43780956,-1.00696194 -0.43780956,-2.39335894 0,-0.86589 0.15566562,-1.6296245 0.16053018,-0.7637344 0.62752703,-1.2939704 0.4718614,-0.5351006 1.3182932,-0.5351006 0.6567144,0 1.0750657,0.3210603 0.4183514,0.3210604 0.6372562,0.8318382 0.2189048,0.5059133 0.2967376,1.0896594 0.082697,0.5788815 0.082697,1.2161376 0,0.8561609 -0.1605301,1.6053017 -0.1556657,0.74427629 -0.617798,1.26964776 -0.4621323,0.52050692 -1.3134287,0.52050692 z m 0,-0.25782119 q 0.5545588,0 0.8269737,-0.56915242 0.2724148,-0.56915247 0.3356539,-1.25991867 0.063239,-0.6907661 0.063239,-1.4690943 0,-0.7491408 -0.063239,-1.3815323 -0.063239,-0.6323916 -0.3356539,-1.1431694 -0.2675503,-0.5156424 -0.8269737,-0.5156424 -0.5642878,0 -0.8367027,0.5156424 -0.2724148,0.5156423 -0.335654,1.1480339 -0.063239,0.627527 -0.063239,1.3766678 0,0.5545588 0.024323,1.0458784 0.029187,0.4913197 0.1459365,1.0166911 0.1167493,0.52050695 0.3745704,0.8804837 0.2626858,0.35511219 0.6907662,0.35511219 z"
                                 id="path356" /></g><g
                               aria-label="."
                               transform="matrix(1,0,0,-1,93.426,124.781)"
                               id="text220"
                               style="font-size:9.9626px;font-family:CMMI10;-inkscape-font-specification:CMMI10"><path
                                 d="M 0.26755029,-0.15080107 V -4.8402279 q 0,-0.077833 0.0632391,-0.1264783 0.0632392,-0.05351 0.13620742,-0.05351 0.0535101,0 0.11188467,0.029187 L 4.611594,-2.6609092 q 0.092427,0.05351 0.092427,0.1702593 0,0.1167492 -0.092427,0.1702592 L 0.57888153,0.0097291 q -0.0583746,0.02918731 -0.11188467,0.02918731 -0.0729683,0 -0.13620742,-0.05351006 -0.0632391,-0.05351006 -0.0632391,-0.13620742 z M 0.66644344,-0.50591327 4.1056808,-2.4906499 0.66644344,-4.4753866 Z"
                                 id="path359" /></g><g
                               aria-label="5"
                               transform="matrix(1,0,0,-1,96.194,124.781)"
                               id="text224"
                               style="font-size:9.9626px;font-family:CMR10;-inkscape-font-specification:CMR10"><path
                                 d="m 0.86589002,-1.1334403 q 0.10215556,0.29187304 0.31133128,0.53023602 0.2140402,0.23836298 0.5010487,0.3745704 0.291873,0.13134287 0.6032043,0.13134287 0.7199535,0 0.9923683,-0.55942333 0.2724148,-0.55942336 0.2724148,-1.35720966 0,-0.3453831 -0.014594,-0.5788815 -0.00973,-0.238363 -0.063239,-0.4572678 -0.092426,-0.3502476 -0.3259249,-0.6129333 -0.2286339,-0.2626858 -0.5642878,-0.2626858 -0.335654,0 -0.5788816,0.1021556 -0.238363,0.1021555 -0.389164,0.238363 -0.1508011,0.1362074 -0.2675503,0.2870085 -0.1167492,0.150801 -0.1459365,0.1605301 H 1.0847948 q -0.024323,0 -0.063239,-0.029187 -0.0340518,-0.034052 -0.0340518,-0.063239 v -3.3273527 q 0,-0.024323 0.0291873,-0.048646 0.034052,-0.029187 0.068104,-0.029187 h 0.029187 q 0.671308,0.3210603 1.4253133,0.3210603 0.7394117,0 1.4253134,-0.3210603 h 0.029187 q 0.034052,0 0.063239,0.024323 0.029187,0.024323 0.029187,0.05351 v 0.092426 q 0,0.048646 -0.019458,0.048646 -0.3405186,0.4524032 -0.856161,0.7053598 -0.5107778,0.2529567 -1.060472,0.2529567 -0.3988932,0 -0.8172445,-0.1118847 v 1.8825811 q 0.3307894,-0.2675503 0.5886106,-0.379435 0.2626857,-0.1167492 0.6664435,-0.1167492 0.5496942,0 0.9826392,0.3161958 0.4378095,0.3161958 0.671308,0.8269736 0.2334984,0.5059133 0.2334984,1.0361493 0,0.5983398 -0.2967376,1.10911758 -0.291873,0.51077782 -0.7977863,0.81237996 -0.5059133,0.30160214 -1.0993884,0.30160214 -0.4913197,0 -0.9048065,-0.25295663 Q 0.96804558,-0.28700849 0.7296826,-0.71508895 0.49618417,-1.1431694 0.49618417,-1.6247599 q 0,-0.2237694 0.14593652,-0.3648413 0.14593652,-0.141072 0.36484131,-0.141072 0.2189048,0 0.3648413,0.1459365 0.1508011,0.141072 0.1508011,0.3599768 0,0.2140402 -0.1508011,0.3648413 -0.1459365,0.1459365 -0.3648413,0.1459365 -0.0340519,0 -0.0778328,-0.00486 -0.043781,-0.00973 -0.0632392,-0.014594 z"
                                 id="path362" /></g><g
                               id="g226"
                               transform="translate(88.445,124.781)" /></g></g><g
                           id="g228"
                           transform="translate(-78.759,-117.835)" /></g></g><g
                       id="g230"><g
                         id="g232"
                         transform="translate(86.508,158.184)"><g
                           id="g234"><g
                             id="g236"
                             transform="translate(-96.194,-165.13)"><g
                               aria-label="1"
                               transform="matrix(1,0,0,-1,96.194,165.13)"
                               id="text240"
                               style="font-size:9.9626px;font-family:CMR10;-inkscape-font-specification:CMR10"><path
                                 d="m 0.92426463,0 v -0.35024765 q 1.24532497,0 1.24532497,-0.31619579 V -5.8958354 Q 1.6539472,-5.6477433 0.86589002,-5.6477433 V -5.997991 q 1.22100218,0 1.84366468,-0.6372561 h 0.141072 q 0.034052,0 0.063239,0.029187 0.034052,0.024323 0.034052,0.058375 v 5.88124176 q 0,0.31619579 1.245325,0.31619579 V 0 Z"
                                 id="path365" /></g><g
                               id="g242"
                               transform="translate(96.194,165.13)" /></g></g><g
                           id="g244"
                           transform="translate(-86.508,-158.184)" /></g></g><g
                       id="g246"
                       clip-path="url(#clipPath250)"><g
                         id="g252"><path
                           d="m 0,0 9.71361,21.86919 9.71361,17.51151 9.7136,13.63799 9.71361,10.24867 9.71361,7.34354 9.71361,4.92258 9.7136,2.98584 9.71361,1.53326 9.71361,0.56488 9.71361,0.08072 9.71361,0.08069 9.71361,0.56488 9.7136,1.53326 9.71361,2.98584 9.71361,4.9226 9.7136,7.34353 9.71361,10.24868 9.71361,13.63797 9.71361,17.51152 9.71361,21.86921"
                           style="fill:none;stroke:#0000ff;stroke-width:0.3985;stroke-linecap:butt;stroke-linejoin:miter;stroke-miterlimit:10;stroke-dasharray:none;stroke-opacity:1"
                           id="path254" /></g></g></g><g
                     id="g256"><g
                       id="g258"
                       transform="translate(185.056,84.217)"><g
                         id="g260"><g
                           id="g262"
                           transform="translate(-194.742,-91.163)"><g
                             aria-label="x"
                             transform="matrix(1,0,0,-1,194.742,91.163)"
                             id="text266"
                             style="font-size:9.9626px;font-family:CMMI10;-inkscape-font-specification:CMMI10"><path
                               d="m 0.77832811,-0.28700849 q 0.17512382,0.13620742 0.49618419,0.13620742 0.3113312,0 0.5496942,-0.29673759 0.238363,-0.30160214 0.3259249,-0.65671434 l 0.4524032,-1.7658319 q 0.1070201,-0.4815905 0.1070201,-0.6567143 0,-0.2480921 -0.141072,-0.432945 -0.1362074,-0.184853 -0.3842995,-0.184853 -0.3161957,0 -0.5934751,0.1994466 -0.2772794,0.194582 -0.4669969,0.5010487 -0.18971747,0.3016022 -0.26755028,0.6129334 -0.0194582,0.063239 -0.0778328,0.063239 H 0.65671434 q -0.0778328,0 -0.0778328,-0.092426 v -0.029187 q 0.097291,-0.3697058 0.33078944,-0.7199535 0.23349843,-0.3551122 0.56915243,-0.574017 0.3405185,-0.2189047 0.724818,-0.2189047 0.3648413,0 0.6567144,0.194582 0.2967376,0.194582 0.4183513,0.530236 0.1702593,-0.3064667 0.4329451,-0.5156424 0.2675502,-0.2091756 0.583746,-0.2091756 0.2140403,0 0.4378096,0.077833 0.2237693,0.072968 0.3648413,0.2286338 0.141072,0.1556657 0.141072,0.3891641 0,0.2529566 -0.1653948,0.4378096 -0.1605301,0.1799883 -0.4134868,0.1799883 -0.1605301,0 -0.2675503,-0.1021555 -0.1070201,-0.1021556 -0.1070201,-0.2578212 0,-0.2091757 0.141072,-0.3648413 0.1459365,-0.1605302 0.3453831,-0.1897175 -0.1799884,-0.141072 -0.4961842,-0.141072 -0.3210603,0 -0.5594233,0.2967376 -0.2334984,0.2967376 -0.3307894,0.6615789 l -0.4378096,1.7609674 q -0.1070201,0.3988931 -0.1070201,0.6567143 0,0.25295663 0.141072,0.43780956 0.1459365,0.17998837 0.3842995,0.17998837 0.4669968,0 0.8318381,-0.40862226 0.3697059,-0.4134868 0.4864551,-0.90480637 0.019458,-0.058375 0.077833,-0.058375 h 0.1216138 q 0.038916,0 0.063239,0.029187 0.024323,0.024323 0.024323,0.058375 0,0.00973 -0.00973,0.029187 -0.141072,0.59347514 -0.5934752,1.05560745 -0.4524032,0.46213232 -1.0215556,0.46213232 -0.3648413,0 -0.6615789,-0.19458203 -0.2918731,-0.19944658 -0.4134868,-0.53510057 -0.1556657,0.29187304 -0.4329451,0.51077782 -0.2724148,0.21890478 -0.583746,0.21890478 -0.2140403,0 -0.44267414,-0.07783282 -0.22376933,-0.07296826 -0.3648413,-0.22863388 -0.14107197,-0.15566562 -0.14107197,-0.3940286 0,-0.23349843 0.16053017,-0.42321587 0.16539473,-0.1945821 0.40862226,-0.1945821 0.16539468,0 0.27727938,0.1021556 0.1118847,0.097291 0.1118847,0.25782118 0,0.20917568 -0.141072,0.3648413 -0.13620742,0.15566563 -0.34538309,0.19458203 z"
                               id="path368" /></g><g
                             id="g268"
                             transform="translate(194.742,91.163)" /></g></g><g
                         id="g270"
                         transform="translate(-185.056,-84.217)" /></g></g><g
                     id="g272"><g
                       id="g274"
                       transform="translate(100.654,150.402)"><g
                         id="g276"><g
                           id="g278"
                           transform="translate(-110.34,-157.348)"><g
                             aria-label="f"
                             transform="matrix(1,0,0,-1,110.34,157.348)"
                             id="text282"
                             style="font-size:9.9626px;font-family:CMMI10;-inkscape-font-specification:CMMI10"><path
                               d="m 0.96804558,1.6442181 q 0.18485292,0.141072 0.44753862,0.141072 0.3551122,0 0.5788816,-0.78805721 Q 2.0868922,0.61779793 2.500379,-1.5031462 L 2.9576468,-3.9451506 H 2.1014859 q -0.097291,0 -0.097291,-0.1313429 0.038916,-0.2189047 0.1264783,-0.2189047 H 3.020886 l 0.1167492,-0.6469853 q 0.058375,-0.3016021 0.1070201,-0.5156423 0.048646,-0.2189048 0.1021556,-0.4037577 0.058375,-0.184853 0.1702592,-0.4134869 0.1702593,-0.3259248 0.4572678,-0.5351005 0.291873,-0.2140403 0.627527,-0.2140403 0.2189048,0 0.4232159,0.082697 0.2091757,0.077833 0.3405186,0.238363 0.1313428,0.1605302 0.1313428,0.3794349 0,0.2529567 -0.1702592,0.4426742 -0.1653947,0.1848529 -0.4037577,0.1848529 -0.1605302,0 -0.2772794,-0.097291 -0.1118847,-0.1021556 -0.1118847,-0.2626858 0,-0.2189048 0.1459365,-0.3794349 Q 4.8304988,-6.6011952 5.0494036,-6.625518 4.8645507,-6.76659 4.5921358,-6.76659 q -0.150801,0 -0.2870085,0.141072 -0.1313428,0.141072 -0.1702592,0.3016021 -0.063239,0.2529567 -0.2772794,1.3718033 l -0.1216138,0.6567144 h 1.0264202 q 0.097291,0 0.097291,0.1313428 -0.00486,0.024323 -0.019458,0.087562 -0.014594,0.058375 -0.043781,0.097291 -0.024323,0.034052 -0.063239,0.034052 H 3.6678712 L 3.2057389,-1.5128753 Q 3.118177,-0.98263923 3.0014278,-0.43294501 2.8895431,0.11188467 2.6803674,0.68590164 2.4760563,1.2647832 2.1549959,1.6539472 1.8339356,2.0431113 1.396126,2.0431113 q -0.335654,0 -0.60320424,-0.194582 Q 0.53023602,1.6588118 0.53023602,1.342616 q 0,-0.2529567 0.16053017,-0.44267413 0.16539473,-0.18485292 0.41348681,-0.18485292 0.1653947,0 0.2772794,0.097291 0.1118847,0.10215556 0.1118847,0.26268574 0,0.2140402 -0.1605302,0.389164 -0.1556656,0.1799884 -0.36484132,0.1799884 z"
                               id="path371" /></g><g
                             aria-label="("
                             transform="matrix(1,0,0,-1,116.29,157.348)"
                             id="text286"
                             style="font-size:9.9626px;font-family:CMR10;-inkscape-font-specification:CMR10"><path
                               d="M 3.0889897,2.4711917 Q 2.5344309,2.0333822 2.1306732,1.4642297 1.73178,0.89994187 1.4739589,0.25782119 1.2210022,-0.3842995 1.0945239,-1.0847948 0.96804558,-1.7852901 0.96804558,-2.4906499 q 0,-0.715089 0.12647832,-1.4155843 0.1264783,-0.7004953 0.3842995,-1.3474805 0.2626857,-0.6469853 0.6664434,-1.2112731 0.4037577,-0.5642879 0.9437229,-0.9875038 0,-0.019458 0.048646,-0.019458 h 0.092426 q 0.029187,0 0.05351,0.029187 0.024323,0.024323 0.024323,0.058375 0,0.043781 -0.019458,0.063239 -0.486455,0.4767259 -0.8123799,1.0215556 -0.3210604,0.5448297 -0.5205069,1.1626276 -0.1945821,0.6129334 -0.282144,1.2745123 -0.087562,0.6567143 -0.087562,1.3718033 0,3.16682244 1.6928636,4.8110406 0.029187,0.029187 0.029187,0.082697 0,0.024323 -0.029187,0.05351 -0.024323,0.034052 -0.048646,0.034052 h -0.092426 q -0.048646,0 -0.048646,-0.019458 z"
                               id="path374" /></g><g
                             aria-label="x"
                             transform="matrix(1,0,0,-1,120.165,157.348)"
                             id="text290"
                             style="font-size:9.9626px;font-family:CMMI10;-inkscape-font-specification:CMMI10"><path
                               d="m 0.77832811,-0.28700849 q 0.17512382,0.13620742 0.49618419,0.13620742 0.3113312,0 0.5496942,-0.29673759 0.238363,-0.30160214 0.3259249,-0.65671434 l 0.4524032,-1.7658319 q 0.1070201,-0.4815905 0.1070201,-0.6567143 0,-0.2480921 -0.141072,-0.432945 -0.1362074,-0.184853 -0.3842995,-0.184853 -0.3161957,0 -0.5934751,0.1994466 -0.2772794,0.194582 -0.4669969,0.5010487 -0.18971747,0.3016022 -0.26755028,0.6129334 -0.0194582,0.063239 -0.0778328,0.063239 H 0.65671434 q -0.0778328,0 -0.0778328,-0.092426 v -0.029187 q 0.097291,-0.3697058 0.33078944,-0.7199535 0.23349843,-0.3551122 0.56915243,-0.574017 0.3405185,-0.2189047 0.724818,-0.2189047 0.3648413,0 0.6567144,0.194582 0.2967376,0.194582 0.4183513,0.530236 0.1702593,-0.3064667 0.4329451,-0.5156424 0.2675502,-0.2091756 0.583746,-0.2091756 0.2140403,0 0.4378096,0.077833 0.2237693,0.072968 0.3648413,0.2286338 0.141072,0.1556657 0.141072,0.3891641 0,0.2529566 -0.1653948,0.4378096 -0.1605301,0.1799883 -0.4134868,0.1799883 -0.1605301,0 -0.2675503,-0.1021555 -0.1070201,-0.1021556 -0.1070201,-0.2578212 0,-0.2091757 0.141072,-0.3648413 0.1459365,-0.1605302 0.3453831,-0.1897175 -0.1799884,-0.141072 -0.4961842,-0.141072 -0.3210603,0 -0.5594233,0.2967376 -0.2334984,0.2967376 -0.3307894,0.6615789 l -0.4378096,1.7609674 q -0.1070201,0.3988931 -0.1070201,0.6567143 0,0.25295663 0.141072,0.43780956 0.1459365,0.17998837 0.3842995,0.17998837 0.4669968,0 0.8318381,-0.40862226 0.3697059,-0.4134868 0.4864551,-0.90480637 0.019458,-0.058375 0.077833,-0.058375 h 0.1216138 q 0.038916,0 0.063239,0.029187 0.024323,0.024323 0.024323,0.058375 0,0.00973 -0.00973,0.029187 -0.141072,0.59347514 -0.5934752,1.05560745 -0.4524032,0.46213232 -1.0215556,0.46213232 -0.3648413,0 -0.6615789,-0.19458203 -0.2918731,-0.19944658 -0.4134868,-0.53510057 -0.1556657,0.29187304 -0.4329451,0.51077782 -0.2724148,0.21890478 -0.583746,0.21890478 -0.2140403,0 -0.44267414,-0.07783282 -0.22376933,-0.07296826 -0.3648413,-0.22863388 -0.14107197,-0.15566562 -0.14107197,-0.3940286 0,-0.23349843 0.16053017,-0.42321587 0.16539473,-0.1945821 0.40862226,-0.1945821 0.16539468,0 0.27727938,0.1021556 0.1118847,0.097291 0.1118847,0.25782118 0,0.20917568 -0.141072,0.3648413 -0.13620742,0.15566563 -0.34538309,0.19458203 z"
                               id="path377" /></g><g
                             aria-label=")"
                             transform="matrix(1,0,0,-1,125.858,157.348)"
                             id="text294"
                             style="font-size:9.9626px;font-family:CMR10;-inkscape-font-specification:CMR10"><path
                               d="m 0.64698524,2.4906499 q -0.0875619,0 -0.0875619,-0.087562 0,-0.043781 0.0194582,-0.063239 1.70259277,-1.66367636 1.70259277,-4.8304988 0,-3.1668225 -1.68313457,-4.8110406 -0.0389164,-0.024323 -0.0389164,-0.082697 0,-0.034052 0.0243227,-0.058375 0.0291873,-0.029187 0.0632392,-0.029187 h 0.0924265 q 0.0291873,0 0.0486455,0.019458 0.71508899,0.5642879 1.19181489,1.3718033 0.476726,0.8075154 0.6956308,1.7220509 0.2237693,0.9145355 0.2237693,1.8679875 0,0.7053598 -0.1216138,1.3912615 Q 2.6609092,-0.41835136 2.3982235,0.24322753 2.1404023,0.90967097 1.7415091,1.4690943 1.342616,2.0333822 0.78805721,2.4711917 0.768599,2.4906499 0.7394117,2.4906499 Z"
                               id="path380" /></g><g
                             id="g296"
                             transform="translate(110.34,157.348)" /></g></g><g
                         id="g298"
                         transform="translate(-100.654,-150.402)" /></g></g></g></g><g
                 id="g300"
                 transform="translate(-9.686,-6.946)" /></g><g
               id="g302"
               transform="translate(9.686,6.946)" /></g><g
             id="g304" /><g
             id="g306" /></g></g></g></g></svg>
