<?xml version="1.0" encoding="UTF-8" standalone="no"?>
<!-- Created with Inkscape (http://www.inkscape.org/) -->

<svg
   version="1.1"
   id="svg2"
   xml:space="preserve"
   width="214.10933"
   height="165.82533"
   viewBox="0 0 214.10933 165.82533"
   xmlns="http://www.w3.org/2000/svg"
   xmlns:svg="http://www.w3.org/2000/svg"><defs
     id="defs6" /><g
     id="g8"
     transform="matrix(1.3333333,0,0,-1.3333333,0,165.82533)"><g
       id="g10"
       transform="translate(23.598,15.732)"><g
         id="g12"><g
           id="g14"><g
             id="g16"><path
               d="m 28.3468,85.04042 c 23.5984,23.5984 33.09523,15.73227 56.69362,0 C 108.63882,69.30815 136.98563,51.9452 113.38724,28.3468 89.78883,4.74841 23.59839,-15.73225 0,0 -23.59839,15.73225 4.74841,61.44203 28.3468,85.04042 Z"
               style="fill:#e6e6ff;fill-opacity:1;fill-rule:nonzero;stroke:none"
               id="path18" /></g><g
             id="g20"><path
               d="m 43.93764,56.69362 c 0,8.61067 -6.98017,15.59082 -15.59084,15.59082 -8.61067,0 -15.59083,-6.98015 -15.59083,-15.59082 0,-8.61069 6.98016,-15.59084 15.59083,-15.59084 8.61067,0 15.59084,6.98015 15.59084,15.59084 z"
               style="fill:none;stroke:#000000;stroke-width:0.3985;stroke-linecap:butt;stroke-linejoin:miter;stroke-miterlimit:10;stroke-dasharray:2.98883, 2.98883;stroke-dashoffset:0;stroke-opacity:1"
               id="path22" /><g
               id="g24"><g
                 id="g26"
                 transform="translate(41.829,72.666)"><g
                   id="g28"><g
                     id="g30"
                     transform="translate(-65.427,-88.398)"><g
                       aria-label="B"
                       transform="matrix(1,0,0,-1,65.427,88.398)"
                       id="text34"
                       style="font-size:9.9626px;font-family:CMMI10;-inkscape-font-specification:CMMI10"><path
                         d="m 0.49618417,0 q -0.097291,0 -0.097291,-0.13134287 0.004865,-0.0243228 0.0194582,-0.0826974 0.0145937,-0.0583746 0.0389164,-0.097291 0.0243228,-0.0389164 0.0729683,-0.0389164 0.28214394,0 0.49131958,-0.0145936 0.2091757,-0.0145937 0.3551122,-0.0535101 0.1167493,-0.0437809 0.1897175,-0.26755028 L 2.9284595,-6.1585211 q 0.019458,-0.097291 0.019458,-0.1362075 0,-0.1070201 -0.1167492,-0.1216137 -0.1897175,-0.038916 -0.7199535,-0.038916 -0.097291,0 -0.097291,-0.1313429 0.00486,-0.024323 0.019458,-0.082697 0.014594,-0.063239 0.038916,-0.097291 0.029187,-0.038916 0.068104,-0.038916 h 3.5705802 q 0.3259249,0 0.6421207,0.082697 0.3210603,0.077833 0.5886106,0.2529566 0.2724148,0.1751238 0.4280805,0.4378096 0.1605301,0.2578212 0.1605301,0.6032043 0,0.3745704 -0.194582,0.6956307 -0.1897175,0.3210604 -0.4961842,0.5594233 -0.3016021,0.238363 -0.6567143,0.3940286 -0.3502477,0.1508011 -0.7345472,0.2237694 0.2724149,0 0.5496943,0.1070201 0.2821439,0.1070201 0.5010487,0.291873 0.2189048,0.1848529 0.3502476,0.4426741 0.1362074,0.2578212 0.1362074,0.5545588 0,0.5983397 -0.4183513,1.0945239 Q 6.148792,-0.56915243 5.5115359,-0.28214394 4.8791443,0 4.2856691,0 Z M 2.3301198,-0.42808046 q 0,0.0778328 0.3405185,0.0778328 h 1.4253134 q 0.486455,0 0.9339937,-0.26755028 0.4475386,-0.27241484 0.7150889,-0.71995347 0.2724149,-0.4475387 0.2724149,-0.9339938 0,-0.2967375 -0.1264783,-0.5594233 Q 5.7693571,-3.0987188 5.5358587,-3.2495198 5.3023602,-3.4051855 5.0007581,-3.4051855 H 3.0598024 l -0.6907662,2.75820026 q -0.038916,0.13620742 -0.038916,0.21890478 z M 3.1279061,-3.6678712 h 1.5128752 q 0.476726,0 0.9242647,-0.2432275 0.4524032,-0.2432276 0.7345471,-0.6615789 0.2870085,-0.4183514 0.2870085,-0.8853482 0,-0.4329451 -0.2724148,-0.715089 Q 6.0466365,-6.4552587 5.618556,-6.4552587 H 4.2516173 q -0.2675503,0 -0.3599768,0.048646 -0.092426,0.048646 -0.1556656,0.291873 z"
                         id="path92" /></g><g
                       aria-label="("
                       transform="matrix(1,0,0,-1,73.484,88.398)"
                       id="text38"
                       style="font-size:9.9626px;font-family:CMR10;-inkscape-font-specification:CMR10"><path
                         d="M 3.0889897,2.4711917 Q 2.5344309,2.0333822 2.1306732,1.4642297 1.73178,0.89994187 1.4739589,0.25782119 1.2210022,-0.3842995 1.0945239,-1.0847948 0.96804558,-1.7852901 0.96804558,-2.4906499 q 0,-0.715089 0.12647832,-1.4155843 0.1264783,-0.7004953 0.3842995,-1.3474805 0.2626857,-0.6469853 0.6664434,-1.2112731 0.4037577,-0.5642879 0.9437229,-0.9875038 0,-0.019458 0.048646,-0.019458 h 0.092426 q 0.029187,0 0.05351,0.029187 0.024323,0.024323 0.024323,0.058375 0,0.043781 -0.019458,0.063239 -0.486455,0.4767259 -0.8123799,1.0215556 -0.3210604,0.5448297 -0.5205069,1.1626276 -0.1945821,0.6129334 -0.282144,1.2745123 -0.087562,0.6567143 -0.087562,1.3718033 0,3.16682244 1.6928636,4.8110406 0.029187,0.029187 0.029187,0.082697 0,0.024323 -0.029187,0.05351 -0.024323,0.034052 -0.048646,0.034052 h -0.092426 q -0.048646,0 -0.048646,-0.019458 z"
                         id="path95" /></g><g
                       aria-label="a"
                       transform="matrix(1,0,0,-1,77.358,88.398)"
                       id="text42"
                       style="font-size:9.9626px;font-family:CMBX10;-inkscape-font-specification:CMBX10"><path
                         d="m 3.4149146,-2.738742 q -1.0847948,0 -1.5031462,0.2480921 -0.4183513,0.248092 -0.4183513,0.8464318 0,0.4767259 0.3113312,0.75886988 0.3161958,0.27727939 0.8561609,0.27727939 0.7442763,0 1.1918149,-0.52537147 0.4524032,-0.530236 0.4524032,-1.4058551 V -2.738742 Z M 5.2002047,-3.1084479 V 0 H 4.3051273 v -0.82697361 q -0.3064667,0.49618417 -0.7637344,0.73454715 -0.4572678,0.23349843 -1.1188467,0.23349843 -0.8367027,0 -1.3328869,-0.46699686 -0.49131957,-0.47186142 -0.49131957,-1.25991861 0,-0.9194001 0.61293337,-1.386397 0.6177979,-0.4669968 1.8388002,-0.4669968 h 1.255054 v -0.087562 q 0,-0.617798 -0.4086222,-0.953452 -0.4037577,-0.3405185 -1.1383049,-0.3405185 -0.4669968,0 -0.9096709,0.1118847 -0.4426742,0.1118846 -0.85129641,0.335654 v -0.8269737 q 0.49131961,-0.1897174 0.95345191,-0.2821439 0.4621323,-0.097291 0.8999419,-0.097291 1.1820858,0 1.7658319,0.6129334 0.5837461,0.6129334 0.5837461,1.8582583 z"
                         id="path98" /></g><g
                       aria-label=",r"
                       transform="matrix(1,0,0,-1,82.927,88.398)"
                       id="text46"
                       style="font-size:9.9626px;font-family:CMMI10;-inkscape-font-specification:CMMI10"><path
                         d="m 0.55942333,-3.4586955 q 0,-0.3502477 0.20917567,-0.617798 0.21404023,-0.2675502 0.5399651,-0.4037577 0.3259249,-0.1410719 0.6859017,-0.1410719 0.082697,0 0.1459365,0.05351 0.063239,0.05351 0.063239,0.1459365 0,0.072968 -0.05351,0.1362075 -0.05351,0.063239 -0.1264783,0.063239 -0.2529567,0 -0.4961842,0.087562 -0.2432275,0.082697 -0.4086222,0.2578212 -0.16053022,0.1751238 -0.16053022,0.4183514 0,0.3648413 0.33565402,0.5691524 0.335654,0.1994466 0.7296826,0.1994466 0.072968,0 0.1264783,0.063239 0.05351,0.063239 0.05351,0.1362075 0,0.092426 -0.063239,0.1459365 -0.063239,0.05351 -0.1459365,0.05351 -0.5448297,0 -0.9923684,-0.3161958 -0.44267407,-0.3210603 -0.44267407,-0.8512963 z"
                         id="path101" /><path
                         d="m 5.1999635,-0.17025927 q 0,-0.0583746 0.00973,-0.0875619 L 5.9539689,-3.2300616 q 0.072968,-0.2772794 0.072968,-0.4864551 0,-0.4280805 -0.2918731,-0.4280805 -0.3113312,0 -0.4621323,0.3745704 -0.1508011,0.3697059 -0.291873,0.9388583 0,0.029187 -0.029187,0.048646 -0.029187,0.014594 -0.05351,0.014594 H 4.7816122 q -0.034052,0 -0.058375,-0.034052 -0.024323,-0.038916 -0.024323,-0.068104 0.1070201,-0.432945 0.2043112,-0.7345471 0.1021555,-0.3016022 0.3113312,-0.5496943 0.2140402,-0.248092 0.530236,-0.248092 0.3453831,0 0.6032043,0.1994465 0.2626857,0.1994466 0.3259249,0.5253715 0.2529566,-0.3307894 0.574017,-0.5253715 0.3259249,-0.1994465 0.7102244,-0.1994465 0.3161958,0 0.5545587,0.1848529 0.2432276,0.1848529 0.2432276,0.5010487 0,0.2529566 -0.1605302,0.4426741 -0.1556656,0.1848529 -0.4183514,0.1848529 -0.1605301,0 -0.2724148,-0.097291 -0.1070201,-0.1021555 -0.1070201,-0.2626857 0,-0.2189048 0.1605302,-0.3891641 0.1605301,-0.1751238 0.3697058,-0.1751238 -0.1605302,-0.1313429 -0.389164,-0.1313429 -0.4280805,0 -0.7442763,0.3064667 -0.3161958,0.3016022 -0.5691524,0.768599 l -0.7102244,2.85062672 q -0.034052,0.13620742 -0.1556656,0.23349843 -0.1167492,0.09729102 -0.2626858,0.09729102 -0.1216137,0 -0.2091756,-0.07783282 -0.087562,-0.07783281 -0.087562,-0.20431112 z"
                         id="path103" /></g><g
                       aria-label=")"
                       transform="matrix(1,0,0,-1,92.127,88.398)"
                       id="text50"
                       style="font-size:9.9626px;font-family:CMR10;-inkscape-font-specification:CMR10"><path
                         d="m 0.64698524,2.4906499 q -0.0875619,0 -0.0875619,-0.087562 0,-0.043781 0.0194582,-0.063239 1.70259277,-1.66367636 1.70259277,-4.8304988 0,-3.1668225 -1.68313457,-4.8110406 -0.0389164,-0.024323 -0.0389164,-0.082697 0,-0.034052 0.0243227,-0.058375 0.0291873,-0.029187 0.0632392,-0.029187 h 0.0924265 q 0.0291873,0 0.0486455,0.019458 0.71508899,0.5642879 1.19181489,1.3718033 0.476726,0.8075154 0.6956308,1.7220509 0.2237693,0.9145355 0.2237693,1.8679875 0,0.7053598 -0.1216138,1.3912615 Q 2.6609092,-0.41835136 2.3982235,0.24322753 2.1404023,0.90967097 1.7415091,1.4690943 1.342616,2.0333822 0.78805721,2.4711917 0.768599,2.4906499 0.7394117,2.4906499 Z"
                         id="path106" /></g><g
                       id="g52"
                       transform="translate(65.427,88.398)" /></g></g><g
                   id="g54"
                   transform="translate(-41.829,-72.666)" /></g></g></g><g
             id="g56"><path
               d="m 30.33936,56.69362 c 0,1.10046 -0.89208,1.99255 -1.99256,1.99255 -1.10046,0 -1.99255,-0.89209 -1.99255,-1.99255 0,-1.10048 0.89209,-1.99255 1.99255,-1.99255 1.10048,0 1.99256,0.89207 1.99256,1.99255 z"
               style="fill:#000000;fill-opacity:1;fill-rule:nonzero;stroke:none"
               id="path58" /><g
               id="g60"><g
                 id="g62"
                 transform="translate(31.866,48.745)"><g
                   id="g64"><g
                     id="g66"
                     transform="translate(-55.464,-64.477)"><g
                       aria-label="a"
                       transform="matrix(1,0,0,-1,55.464,64.477)"
                       id="text70"
                       style="font-size:9.9626px;font-family:CMBX10;-inkscape-font-specification:CMBX10"><path
                         d="m 3.4149146,-2.738742 q -1.0847948,0 -1.5031462,0.2480921 -0.4183513,0.248092 -0.4183513,0.8464318 0,0.4767259 0.3113312,0.75886988 0.3161958,0.27727939 0.8561609,0.27727939 0.7442763,0 1.1918149,-0.52537147 0.4524032,-0.530236 0.4524032,-1.4058551 V -2.738742 Z M 5.2002047,-3.1084479 V 0 H 4.3051273 v -0.82697361 q -0.3064667,0.49618417 -0.7637344,0.73454715 -0.4572678,0.23349843 -1.1188467,0.23349843 -0.8367027,0 -1.3328869,-0.46699686 -0.49131957,-0.47186142 -0.49131957,-1.25991861 0,-0.9194001 0.61293337,-1.386397 0.6177979,-0.4669968 1.8388002,-0.4669968 h 1.255054 v -0.087562 q 0,-0.617798 -0.4086222,-0.953452 -0.4037577,-0.3405185 -1.1383049,-0.3405185 -0.4669968,0 -0.9096709,0.1118847 -0.4426742,0.1118846 -0.85129641,0.335654 v -0.8269737 q 0.49131961,-0.1897174 0.95345191,-0.2821439 0.4621323,-0.097291 0.8999419,-0.097291 1.1820858,0 1.7658319,0.6129334 0.5837461,0.6129334 0.5837461,1.8582583 z"
                         id="path109" /></g><g
                       id="g72"
                       transform="translate(55.464,64.477)" /></g></g><g
                   id="g74"
                   transform="translate(-31.866,-48.745)" /></g></g></g><g
             id="g76"><g
               id="g78"
               transform="translate(53.351,24.943)"><g
                 id="g80"><g
                   id="g82"
                   transform="translate(-76.949,-40.675)"><g
                     aria-label="S"
                     transform="matrix(1,0,0,-1,76.949,40.675)"
                     id="text86"
                     style="font-size:9.9626px;font-family:CMMI10;-inkscape-font-specification:CMMI10"><path
                       d="m 0.60806883,0.21890478 q -0.0291873,0 -0.05351,-0.0340518 -0.0243228,-0.0340519 -0.0243228,-0.0632392 L 1.104253,-2.2036414 q 0.019458,-0.058375 0.082697,-0.058375 h 0.1167492 q 0.038916,0 0.058375,0.029187 0.024323,0.029187 0.024323,0.072968 -0.082697,0.3405186 -0.082697,0.6080688 0,0.71995354 0.4961841,1.07020118 0.4961842,0.35024765 1.2501896,0.35024765 0.3259249,0 0.6421207,-0.16053017 0.3161957,-0.16053017 0.5496942,-0.41835136 0.238363,-0.25782118 0.3794349,-0.574017 0.141072,-0.3210603 0.141072,-0.6469852 0,-0.3502477 -0.1848529,-0.6226625 -0.184853,-0.2772794 -0.5107778,-0.3551122 L 2.8506267,-3.2300616 Q 2.3593071,-3.3614045 2.067434,-3.7554331 1.775561,-4.1543263 1.775561,-4.6505104 q 0,-0.5983398 0.3551122,-1.1528985 0.3551122,-0.5545588 0.9242646,-0.8853483 0.574017,-0.335654 1.1674922,-0.335654 0.4572677,0 0.8367027,0.1702593 0.3842995,0.1653947 0.5886106,0.530236 l 0.5691524,-0.671308 q 0.058375,-0.029187 0.068104,-0.029187 h 0.063239 q 0.038916,0 0.063239,0.034052 0.024323,0.034052 0.024323,0.068104 L 5.856919,-4.611594 q -0.014594,0.068104 -0.077833,0.068104 H 5.6574724 q -0.087562,0 -0.087562,-0.1070201 0.048646,-0.3161958 0.048646,-0.5496943 0,-0.4621323 -0.1605302,-0.8026508 -0.1556656,-0.3453831 -0.4767259,-0.5205069 -0.3161958,-0.1799884 -0.7880572,-0.1799884 -0.3988932,0 -0.7929218,0.2286339 -0.3940286,0.2286339 -0.6372561,0.6080688 -0.2432276,0.379435 -0.2432276,0.7880572 0,0.3210604 0.184853,0.5691524 0.1897174,0.2480921 0.5010487,0.335654 l 1.2161377,0.3161958 q 0.3307894,0.087562 0.5740169,0.3113313 0.2480921,0.2189047 0.3745704,0.5253714 0.1264783,0.3016022 0.1264783,0.6615789 0,0.4718614 -0.1994465,0.9339938 -0.1994466,0.45726772 -0.5594234,0.83670267 -0.3551122,0.37943495 -0.8075154,0.59347518 -0.4524032,0.21404023 -0.9242646,0.21404023 -1.1869504,0 -1.7025927,-0.69563074 L 0.7491408,0.18971748 q -0.0583746,0.0291873 -0.0729683,0.0291873 z"
                       id="path112" /></g><g
                     id="g88"
                     transform="translate(76.949,40.675)" /></g></g><g
                 id="g90"
                 transform="translate(-53.351,-24.943)" /></g></g></g></g></g></g></svg>
