<?xml version="1.0" encoding="UTF-8" standalone="no"?>
<!-- Created with Inkscape (http://www.inkscape.org/) -->

<svg
   version="1.1"
   id="svg2"
   xml:space="preserve"
   width="302.36267"
   height="213.80667"
   viewBox="0 0 302.36267 213.80667"
   xmlns="http://www.w3.org/2000/svg"
   xmlns:svg="http://www.w3.org/2000/svg"><defs
     id="defs6"><clipPath
       clipPathUnits="userSpaceOnUse"
       id="clipPath30"><path
         d="M 0,0 H 368.13922 V 252.47966 H 0 Z"
         id="path28" /></clipPath><clipPath
       clipPathUnits="userSpaceOnUse"
       id="clipPath34"><path
         d="M 0,0 H 369 V 253 H 0 Z"
         id="path32" /></clipPath><clipPath
       clipPathUnits="userSpaceOnUse"
       id="clipPath38"><path
         d="M 0,0 H 369 V 253 H 0 Z"
         id="path36" /></clipPath><clipPath
       clipPathUnits="userSpaceOnUse"
       id="clipPath42"><path
         d="M 0,0 H 369 V 253 H 0 Z"
         id="path40" /></clipPath><clipPath
       clipPathUnits="userSpaceOnUse"
       id="clipPath46"><path
         d="M 0,0 H 369 V 253 H 0 Z"
         id="path44" /></clipPath><clipPath
       clipPathUnits="userSpaceOnUse"
       id="clipPath50"><path
         d="M 0,0 H 369 V 253 H 0 Z"
         id="path48" /></clipPath><clipPath
       clipPathUnits="userSpaceOnUse"
       id="clipPath54"><path
         d="M 0,0 H 369 V 253 H 0 Z"
         id="path52" /></clipPath></defs><g
     id="g8"
     transform="matrix(1.3333333,0,0,-1.3333333,0,213.80667)"><g
       id="g10"
       transform="translate(-0.199,-0.199)"><g
         id="g12"><g
           id="g14"><g
             id="g16"><g
               id="g18"
               transform="translate(0.199,0.199)"><g
                 id="g20"><g
                   id="g22"
                   transform="scale(0.616)"><g
                     id="g24"><g
                       id="g26" /><g
                       id="g144"><g
                         clip-path="url(#clipPath30)"
                         id="g142"><g
                           transform="matrix(1,0,0,-1,0,252.47966)"
                           id="g140"><g
                             id="g56" /><g
                             id="g138"><g
                               id="g72"><g
                                 id="g70"><g
                                   clip-path="url(#clipPath34)"
                                   id="g68"><g
                                   id="g66"><g
                                   id="g60"><path
                                   d="M 279.902,109.512 243.457,99.242"
                                   style="fill:none;stroke:#ff0000;stroke-width:1.39147;stroke-linecap:butt;stroke-linejoin:miter;stroke-miterlimit:2.9;stroke-dasharray:none;stroke-opacity:1"
                                   id="path58" /></g><g
                                   transform="matrix(-1,-0.281763,0.281763,-1,0,0)"
                                   id="g64"><path
                                   d="m -280.895,-25.151 -8.78,-3.225 8.781,-3.232 c -1.404,1.907 -1.396,4.514 -10e-4,6.457 z"
                                   style="fill:#ff0000;fill-opacity:1;fill-rule:evenodd;stroke:#ff0000;stroke-width:0.502246;stroke-linecap:butt;stroke-linejoin:round;stroke-miterlimit:4;stroke-dasharray:none;stroke-opacity:1"
                                   id="path62" /></g></g></g></g></g><g
                               id="g84"><g
                                 id="g82"><g
                                   clip-path="url(#clipPath38)"
                                   id="g80"><g
                                   id="g78"><g
                                   id="g76"><path
                                   d="m 357.727,77.105 c 0.015,46.317 -19.161,90.743 -53.301,123.5 -34.145,32.754 -80.457,51.157 -128.75,51.157 -48.293,0 -94.606,-18.403 -128.746,-51.157 C 12.785,167.848 2.828,123.789 2.844,77.473 2.828,31.156 19.227,-14.293 53.371,-47.047 c 34.141,-32.758 74.012,-50.504 122.305,-50.504 48.293,0 94.605,18.403 128.75,51.16 34.14,32.754 53.316,77.18 53.301,123.496 z"
                                   style="fill:none;stroke:#7272bb;stroke-width:1.22881;stroke-linecap:butt;stroke-linejoin:miter;stroke-miterlimit:3.725;stroke-dasharray:none;stroke-opacity:1"
                                   id="path74" /></g></g></g></g></g><g
                               id="g96"><g
                                 id="g94"><g
                                   clip-path="url(#clipPath42)"
                                   id="g92"><g
                                   id="g90"><g
                                   id="g88"><path
                                   d="m 309.84,81.973 c 0.004,31.8 -14.832,62.297 -41.238,84.785 -26.411,22.488 -62.227,35.121 -99.579,35.121 -37.347,0 -73.168,-12.633 -99.574,-35.121 C 43.039,144.27 28.207,113.773 28.211,81.973 28.199,50.172 43.031,19.668 69.438,-2.824 c 26.41,-22.492 62.234,-35.125 99.585,-35.125 37.356,0 73.176,12.633 99.586,35.125 26.411,22.492 41.239,52.996 41.231,84.797 z"
                                   style="fill:none;stroke:#7272bb;stroke-width:1.24751;stroke-linecap:butt;stroke-linejoin:miter;stroke-miterlimit:3.725;stroke-dasharray:none;stroke-opacity:1"
                                   id="path86" /></g></g></g></g></g><g
                               id="g108"><g
                                 id="g106"><g
                                   clip-path="url(#clipPath46)"
                                   id="g104"><g
                                   id="g102"><g
                                   id="g100"><path
                                   d="m 245.219,85.297 c 0,17.719 -9.821,34.715 -27.297,47.242 -17.477,12.527 -41.18,19.566 -65.899,19.566 -24.714,0 -48.418,-7.039 -65.894,-19.566 -17.481,-12.527 -21.953,-29.523 -21.953,-47.242 0,-17.719 10.906,-37.715 28.383,-50.246 17.48,-12.528 34.75,-16.563 59.464,-16.563 24.719,0 48.422,7.039 65.899,19.571 17.476,12.527 27.297,29.519 27.297,47.238 z"
                                   style="fill:none;stroke:#7272bb;stroke-width:1.39147;stroke-linecap:butt;stroke-linejoin:miter;stroke-miterlimit:3.725;stroke-dasharray:none;stroke-opacity:1"
                                   id="path98" /></g></g></g></g></g><g
                               id="g124"><g
                                 id="g122"><g
                                   clip-path="url(#clipPath50)"
                                   id="g120"><g
                                   id="g118"><g
                                   id="g112"><path
                                   d="M 243.457,99.242 204.125,88.352"
                                   style="fill:none;stroke:#7272bb;stroke-width:1.39147;stroke-linecap:butt;stroke-linejoin:miter;stroke-miterlimit:3.725;stroke-dasharray:none;stroke-opacity:1"
                                   id="path110" /></g><g
                                   transform="matrix(1,0.276911,-0.276911,1,0,0)"
                                   id="g116"><path
                                   d="m 219.326,32.805 -8.793,-3.233 8.792,-3.231 c -1.405,1.908 -1.397,4.519 0.001,6.464 z"
                                   style="fill:#7272bb;fill-opacity:1;fill-rule:evenodd;stroke:#7272bb;stroke-width:0.502878;stroke-linecap:butt;stroke-linejoin:round;stroke-miterlimit:4;stroke-dasharray:none;stroke-opacity:1"
                                   id="path114" /></g></g></g></g></g><g
                               id="g136"><g
                                 id="g134"><g
                                   clip-path="url(#clipPath54)"
                                   id="g132"><g
                                   id="g130"><g
                                   id="g128"><path
                                   d="m -8.266,251.566 c 3.391,0 77.743,-79.73 115.844,-61.3 40.883,19.773 34.192,59.527 70.004,61.359 35.813,1.828 46.965,-70.332 53.324,-93.223 5.047,-19.148 6.946,-41.355 12.621,-58.914 7.746,-24.605 29.907,-42.992 53.047,-52.914 20.68,-12.437 57.699,-15.316 100.024,-38.871 42.32,-23.551 61.683,-85.574 61.683,-85.574"
                                   style="fill:none;stroke:#ff0000;stroke-width:1.64364;stroke-linecap:butt;stroke-linejoin:miter;stroke-miterlimit:4;stroke-dasharray:none;stroke-opacity:1"
                                   id="path126" /></g></g></g></g></g></g></g></g></g></g></g></g><g
                 id="g146"
                 transform="translate(-0.199,-0.199)" /></g></g><g
             id="g148"><g
               id="g150"><g
                 id="g152"
                 transform="translate(122.363,86.387)"><g
                   id="g154"><g
                     id="g156"
                     transform="translate(-122.164,-86.188)"><g
                       aria-label="∇"
                       transform="matrix(1,0,0,-1,122.164,86.188)"
                       id="text160"
                       style="font-size:9.9626px;font-family:CMSY10;-inkscape-font-specification:CMSY10"><path
                         d="M 3.3273527,-1.0264202 5.3607348,-6.2995931 H 1.2939705 Z M 2.7873875,0 -0.0291873,-7.1654831 h 6.722809 L 3.8770469,0 Z"
                         id="path302" /></g><g
                       aria-label="f"
                       transform="matrix(1,0,0,-1,130.466,86.188)"
                       id="text164"
                       style="font-size:9.9626px;font-family:CMMI10;-inkscape-font-specification:CMMI10"><path
                         d="m 0.96804558,1.6442181 q 0.18485292,0.141072 0.44753862,0.141072 0.3551122,0 0.5788816,-0.78805721 Q 2.0868922,0.61779793 2.500379,-1.5031462 L 2.9576468,-3.9451506 H 2.1014859 q -0.097291,0 -0.097291,-0.1313429 0.038916,-0.2189047 0.1264783,-0.2189047 H 3.020886 l 0.1167492,-0.6469853 q 0.058375,-0.3016021 0.1070201,-0.5156423 0.048646,-0.2189048 0.1021556,-0.4037577 0.058375,-0.184853 0.1702592,-0.4134869 0.1702593,-0.3259248 0.4572678,-0.5351005 0.291873,-0.2140403 0.627527,-0.2140403 0.2189048,0 0.4232159,0.082697 0.2091757,0.077833 0.3405186,0.238363 0.1313428,0.1605302 0.1313428,0.3794349 0,0.2529567 -0.1702592,0.4426742 -0.1653947,0.1848529 -0.4037577,0.1848529 -0.1605302,0 -0.2772794,-0.097291 -0.1118847,-0.1021556 -0.1118847,-0.2626858 0,-0.2189048 0.1459365,-0.3794349 Q 4.8304988,-6.6011952 5.0494036,-6.625518 4.8645507,-6.76659 4.5921358,-6.76659 q -0.150801,0 -0.2870085,0.141072 -0.1313428,0.141072 -0.1702592,0.3016021 -0.063239,0.2529567 -0.2772794,1.3718033 l -0.1216138,0.6567144 h 1.0264202 q 0.097291,0 0.097291,0.1313428 -0.00486,0.024323 -0.019458,0.087562 -0.014594,0.058375 -0.043781,0.097291 -0.024323,0.034052 -0.063239,0.034052 H 3.6678712 L 3.2057389,-1.5128753 Q 3.118177,-0.98263923 3.0014278,-0.43294501 2.8895431,0.11188467 2.6803674,0.68590164 2.4760563,1.2647832 2.1549959,1.6539472 1.8339356,2.0431113 1.396126,2.0431113 q -0.335654,0 -0.60320424,-0.194582 Q 0.53023602,1.6588118 0.53023602,1.342616 q 0,-0.2529567 0.16053017,-0.44267413 0.16539473,-0.18485292 0.41348681,-0.18485292 0.1653947,0 0.2772794,0.097291 0.1118847,0.10215556 0.1118847,0.26268574 0,0.2140402 -0.1605302,0.389164 -0.1556656,0.1799884 -0.36484132,0.1799884 z"
                         id="path305" /></g><g
                       id="g166"
                       transform="translate(122.164,86.188)" /></g></g><g
                   id="g168"
                   transform="translate(-122.363,-86.387)" /></g></g><g
               id="g170"><g
                 id="g172"
                 transform="translate(161.402,75.527)"><g
                   id="g174"><g
                     id="g176"
                     transform="translate(-161.203,-75.328)"><g
                       aria-label="∇"
                       transform="matrix(1,0,0,-1,161.203,75.328)"
                       id="text180"
                       style="font-size:9.9626px;font-family:CMSY10;-inkscape-font-specification:CMSY10;fill:#ff0000"><path
                         d="M 3.3273527,-1.0264202 5.3607348,-6.2995931 H 1.2939705 Z M 2.7873875,0 -0.0291873,-7.1654831 h 6.722809 L 3.8770469,0 Z"
                         id="path308" /></g><g
                       aria-label="g"
                       transform="matrix(1,0,0,-1,169.505,75.328)"
                       id="text184"
                       style="font-size:9.9626px;font-family:CMMI10;-inkscape-font-specification:CMMI10;fill:#ff0000"><path
                         d="m 0.14107197,1.4253133 q 0,-0.2432275 0.16539472,-0.42808041 0.17025927,-0.17998838 0.40862226,-0.17998838 0.16053017,0 0.26755028,0.097291 0.11188467,0.10215558 0.11188467,0.26268578 0,0.1799883 -0.10215557,0.3210603 -0.10215556,0.1459365 -0.26268573,0.2043111 0.26755029,0.082697 0.8367027,0.082697 0.4572678,0 0.8367027,-0.3551122 Q 2.782523,1.0799302 2.8992722,0.61779793 L 3.1862807,-0.54969422 Q 2.6463156,0 2.0625695,0 1.634489,0 1.3280223,-0.21890478 1.0264202,-0.43780956 0.86589002,-0.80265086 0.70535985,-1.1674922 0.70535985,-1.5761144 q 0,-0.4572678 0.18485292,-0.9583165 0.18971743,-0.5010487 0.52537143,-0.9291292 0.3405186,-0.4280804 0.7783281,-0.6810371 0.4378096,-0.2578211 0.9242647,-0.2578211 0.291873,0 0.5253714,0.1605301 0.2334985,0.1605302 0.3697059,0.4280805 0.097291,-0.3891641 0.4280805,-0.3891641 0.1264783,0 0.2140402,0.077833 0.087562,0.072968 0.087562,0.1994466 0,0.029187 -0.00486,0.043781 0,0.014594 -0.00486,0.034052 L 3.5949029,0.67617254 Q 3.5170701,0.98750378 3.3078944,1.245325 3.0987188,1.5031462 2.8165748,1.6734054 2.5344309,1.8485293 2.1987769,1.9458203 q -0.335654,0.097291 -0.6469852,0.097291 -0.56915247,0 -0.99236837,-0.1118847 Q 0.14107197,1.8242065 0.14107197,1.4253133 Z M 2.0820277,-0.25782119 q 0.6372561,0 1.2550541,-0.87561911 L 3.886776,-3.3078944 Q 3.8186723,-3.6532775 3.6143611,-3.8965051 3.41005,-4.1445972 3.0987188,-4.1445972 q -0.3307895,0 -0.6275271,0.2724149 -0.291873,0.2675503 -0.486455,0.6421207 -0.184853,0.3599767 -0.3599768,1.0361493 -0.1702593,0.6713079 -0.1702593,1.060472 0,0.34051854 0.1556657,0.60806883 0.1556656,0.26755028 0.4718614,0.26755028 z"
                         id="path311" /></g><g
                       id="g186"
                       transform="translate(161.203,75.328)" /></g></g><g
                   id="g188"
                   transform="translate(-161.402,-75.527)" /></g></g><g
               id="g190"><g
                 id="g192"
                 transform="translate(42.785,112.894)"><g
                   id="g194"><g
                     id="g196"
                     transform="translate(-42.586,-112.695)"><g
                       aria-label="f"
                       transform="matrix(1,0,0,-1,42.586,112.695)"
                       id="text200"
                       style="font-size:9.9626px;font-family:CMMI10;-inkscape-font-specification:CMMI10"><path
                         d="m 0.96804558,1.6442181 q 0.18485292,0.141072 0.44753862,0.141072 0.3551122,0 0.5788816,-0.78805721 Q 2.0868922,0.61779793 2.500379,-1.5031462 L 2.9576468,-3.9451506 H 2.1014859 q -0.097291,0 -0.097291,-0.1313429 0.038916,-0.2189047 0.1264783,-0.2189047 H 3.020886 l 0.1167492,-0.6469853 q 0.058375,-0.3016021 0.1070201,-0.5156423 0.048646,-0.2189048 0.1021556,-0.4037577 0.058375,-0.184853 0.1702592,-0.4134869 0.1702593,-0.3259248 0.4572678,-0.5351005 0.291873,-0.2140403 0.627527,-0.2140403 0.2189048,0 0.4232159,0.082697 0.2091757,0.077833 0.3405186,0.238363 0.1313428,0.1605302 0.1313428,0.3794349 0,0.2529567 -0.1702592,0.4426742 -0.1653947,0.1848529 -0.4037577,0.1848529 -0.1605302,0 -0.2772794,-0.097291 -0.1118847,-0.1021556 -0.1118847,-0.2626858 0,-0.2189048 0.1459365,-0.3794349 Q 4.8304988,-6.6011952 5.0494036,-6.625518 4.8645507,-6.76659 4.5921358,-6.76659 q -0.150801,0 -0.2870085,0.141072 -0.1313428,0.141072 -0.1702592,0.3016021 -0.063239,0.2529567 -0.2772794,1.3718033 l -0.1216138,0.6567144 h 1.0264202 q 0.097291,0 0.097291,0.1313428 -0.00486,0.024323 -0.019458,0.087562 -0.014594,0.058375 -0.043781,0.097291 -0.024323,0.034052 -0.063239,0.034052 H 3.6678712 L 3.2057389,-1.5128753 Q 3.118177,-0.98263923 3.0014278,-0.43294501 2.8895431,0.11188467 2.6803674,0.68590164 2.4760563,1.2647832 2.1549959,1.6539472 1.8339356,2.0431113 1.396126,2.0431113 q -0.335654,0 -0.60320424,-0.194582 Q 0.53023602,1.6588118 0.53023602,1.342616 q 0,-0.2529567 0.16053017,-0.44267413 0.16539473,-0.18485292 0.41348681,-0.18485292 0.1653947,0 0.2772794,0.097291 0.1118847,0.10215556 0.1118847,0.26268574 0,0.2140402 -0.1605302,0.389164 -0.1556656,0.1799884 -0.36484132,0.1799884 z"
                         id="path314" /></g><g
                       aria-label="="
                       transform="matrix(1,0,0,-1,51.304,112.695)"
                       id="text204"
                       style="font-size:9.9626px;font-family:CMR10;-inkscape-font-specification:CMR10"><path
                         d="m 0.7491408,-1.3231578 q -0.0826974,0 -0.13620742,-0.063239 -0.05351,-0.063239 -0.05351,-0.1362075 0,-0.082697 0.05351,-0.1410719 0.0535101,-0.058375 0.13620742,-0.058375 H 7.004953 q 0.072968,0 0.1264783,0.058375 0.05351,0.058375 0.05351,0.1410719 0,0.072968 -0.05351,0.1362075 -0.05351,0.063239 -0.1264783,0.063239 z m 0,-1.9360911 q -0.0826974,0 -0.13620742,-0.058375 -0.05351,-0.058375 -0.05351,-0.1410719 0,-0.072968 0.05351,-0.1362074 0.0535101,-0.063239 0.13620742,-0.063239 H 7.004953 q 0.072968,0 0.1264783,0.063239 0.05351,0.063239 0.05351,0.1362074 0,0.082697 -0.05351,0.1410719 -0.05351,0.058375 -0.1264783,0.058375 z"
                         id="path317" /></g><g
                       aria-label="c"
                       transform="matrix(1,0,0,-1,61.82,112.695)"
                       id="text208"
                       style="font-size:9.9626px;font-family:CMMI10;-inkscape-font-specification:CMMI10"><path
                         d="m 1.1674922,-1.1869504 q 0,0.43294505 0.2189047,0.73454719 0.2237694,0.30160214 0.6372562,0.30160214 0.5934752,0 1.1383048,-0.27241484 0.5496943,-0.27241483 0.8950774,-0.75400539 0.029187,-0.029187 0.077833,-0.029187 0.048646,0 0.097291,0.058375 0.05351,0.05351 0.05351,0.1021556 0,0.038916 -0.019458,0.0583746 -0.3648413,0.51077782 -0.9826392,0.80751541 -0.6177979,0.29187304 -1.2793768,0.29187304 -0.476726,0 -0.8415673,-0.22376934 Q 0.79778631,-0.34051855 0.59833973,-0.7199535 0.39889315,-1.0993884 0.39889315,-1.5761144 q 0,-0.671308 0.37457041,-1.3328869 0.37457044,-0.6615789 0.99723284,-1.0750657 0.6226625,-0.4183513 1.3085642,-0.4183513 0.4475386,0 0.8026508,0.2189047 0.3599768,0.2140403 0.3599768,0.6372562 0,0.2724148 -0.1605302,0.4669968 -0.1556656,0.1897175 -0.4232159,0.1897175 -0.1605302,0 -0.2724148,-0.097291 -0.1070202,-0.1021556 -0.1070202,-0.2626857 0,-0.2334985 0.1702593,-0.3988932 0.1702593,-0.1653947 0.3988932,-0.1653947 h 0.019458 Q 3.7505686,-3.984067 3.5267992,-4.0618998 q -0.2189048,-0.082697 -0.4572677,-0.082697 -0.5837461,0 -1.0215557,0.5010488 -0.4378095,0.4961841 -0.6615789,1.1918149 -0.2189047,0.6907662 -0.2189047,1.2647831 z"
                         id="path320" /></g><g
                       aria-label="3"
                       transform="matrix(1,0,0,-1,66.131,111.201)"
                       id="text212"
                       style="font-size:6.9738px;font-family:CMR7;-inkscape-font-specification:CMR7"><path
                         d="m 2.8297011,-2.7411666 q 0.4937505,0.1055605 0.7695698,0.4392677 0.2792244,0.3337072 0.2792244,0.8240526 0,0.75254384 -0.5175867,1.16457012 -0.5175867,0.41202628 -1.471036,0.41202628 -0.3200865,0 -0.6606041,-0.06469834 -0.33711242,-0.06129317 -0.69806106,-0.18728467 v -0.6640093 q 0.28603477,0.16685362 0.62655236,0.25198302 0.3405176,0.0851294 0.7116818,0.0851294 0.6469834,0 0.9840958,-0.25538819 0.3405176,-0.25538819 0.3405176,-0.74232831 0,-0.4494832 -0.3166814,-0.7014663 Q 2.5640974,-2.4347007 2.0022434,-2.4347007 H 1.4097428 v -0.5652592 h 0.619742 q 0.5073712,0 0.7763801,-0.2009054 0.2690089,-0.2043106 0.2690089,-0.5856903 0,-0.3915952 -0.2792244,-0.5993109 -0.2758193,-0.2111209 -0.793406,-0.2111209 -0.2826296,0 -0.6061213,0.061293 -0.3234917,0.061293 -0.71168175,0.1906899 v -0.6129317 q 0.39159525,-0.1089656 0.73211285,-0.1634484 0.3439227,-0.054483 0.6469834,-0.054483 0.7831904,0 1.239484,0.3575434 0.4562936,0.3541383 0.4562936,0.9602596 0,0.4222418 -0.2417675,0.715087 -0.2417675,0.2894399 -0.6878456,0.4018107 z"
                         id="path323" /></g><g
                       id="g214"
                       transform="translate(42.586,112.695)" /></g></g><g
                   id="g216"
                   transform="translate(-42.785,-112.894)" /></g></g><g
               id="g218"><g
                 id="g220"
                 transform="translate(169.853,112.894)"><g
                   id="g222"><g
                     id="g224"
                     transform="translate(-169.654,-112.695)"><g
                       aria-label="g"
                       transform="matrix(1,0,0,-1,169.654,112.695)"
                       id="text228"
                       style="font-size:9.9626px;font-family:CMMI10;-inkscape-font-specification:CMMI10;fill:#ff0000"><path
                         d="m 0.14107197,1.4253133 q 0,-0.2432275 0.16539472,-0.42808041 0.17025927,-0.17998838 0.40862226,-0.17998838 0.16053017,0 0.26755028,0.097291 0.11188467,0.10215558 0.11188467,0.26268578 0,0.1799883 -0.10215557,0.3210603 -0.10215556,0.1459365 -0.26268573,0.2043111 0.26755029,0.082697 0.8367027,0.082697 0.4572678,0 0.8367027,-0.3551122 Q 2.782523,1.0799302 2.8992722,0.61779793 L 3.1862807,-0.54969422 Q 2.6463156,0 2.0625695,0 1.634489,0 1.3280223,-0.21890478 1.0264202,-0.43780956 0.86589002,-0.80265086 0.70535985,-1.1674922 0.70535985,-1.5761144 q 0,-0.4572678 0.18485292,-0.9583165 0.18971743,-0.5010487 0.52537143,-0.9291292 0.3405186,-0.4280804 0.7783281,-0.6810371 0.4378096,-0.2578211 0.9242647,-0.2578211 0.291873,0 0.5253714,0.1605301 0.2334985,0.1605302 0.3697059,0.4280805 0.097291,-0.3891641 0.4280805,-0.3891641 0.1264783,0 0.2140402,0.077833 0.087562,0.072968 0.087562,0.1994466 0,0.029187 -0.00486,0.043781 0,0.014594 -0.00486,0.034052 L 3.5949029,0.67617254 Q 3.5170701,0.98750378 3.3078944,1.245325 3.0987188,1.5031462 2.8165748,1.6734054 2.5344309,1.8485293 2.1987769,1.9458203 q -0.335654,0.097291 -0.6469852,0.097291 -0.56915247,0 -0.99236837,-0.1118847 Q 0.14107197,1.8242065 0.14107197,1.4253133 Z M 2.0820277,-0.25782119 q 0.6372561,0 1.2550541,-0.87561911 L 3.886776,-3.3078944 Q 3.8186723,-3.6532775 3.6143611,-3.8965051 3.41005,-4.1445972 3.0987188,-4.1445972 q -0.3307895,0 -0.6275271,0.2724149 -0.291873,0.2675503 -0.486455,0.6421207 -0.184853,0.3599767 -0.3599768,1.0361493 -0.1702593,0.6713079 -0.1702593,1.060472 0,0.34051854 0.1556657,0.60806883 0.1556656,0.26755028 0.4718614,0.26755028 z"
                         id="path326" /></g><g
                       aria-label="("
                       transform="matrix(1,0,0,-1,174.763,112.695)"
                       id="text232"
                       style="font-size:9.9626px;font-family:CMR10;-inkscape-font-specification:CMR10;fill:#ff0000"><path
                         d="M 3.0889897,2.4711917 Q 2.5344309,2.0333822 2.1306732,1.4642297 1.73178,0.89994187 1.4739589,0.25782119 1.2210022,-0.3842995 1.0945239,-1.0847948 0.96804558,-1.7852901 0.96804558,-2.4906499 q 0,-0.715089 0.12647832,-1.4155843 0.1264783,-0.7004953 0.3842995,-1.3474805 0.2626857,-0.6469853 0.6664434,-1.2112731 0.4037577,-0.5642879 0.9437229,-0.9875038 0,-0.019458 0.048646,-0.019458 h 0.092426 q 0.029187,0 0.05351,0.029187 0.024323,0.024323 0.024323,0.058375 0,0.043781 -0.019458,0.063239 -0.486455,0.4767259 -0.8123799,1.0215556 -0.3210604,0.5448297 -0.5205069,1.1626276 -0.1945821,0.6129334 -0.282144,1.2745123 -0.087562,0.6567143 -0.087562,1.3718033 0,3.16682244 1.6928636,4.8110406 0.029187,0.029187 0.029187,0.082697 0,0.024323 -0.029187,0.05351 -0.024323,0.034052 -0.048646,0.034052 h -0.092426 q -0.048646,0 -0.048646,-0.019458 z"
                         id="path329" /></g><g
                       aria-label="x,y"
                       transform="matrix(1,0,0,-1,178.638,112.695)"
                       id="text236"
                       style="font-size:9.9626px;font-family:CMMI10;-inkscape-font-specification:CMMI10;fill:#ff0000"><path
                         d="m 0.77832811,-0.28700849 q 0.17512382,0.13620742 0.49618419,0.13620742 0.3113312,0 0.5496942,-0.29673759 0.238363,-0.30160214 0.3259249,-0.65671434 l 0.4524032,-1.7658319 q 0.1070201,-0.4815905 0.1070201,-0.6567143 0,-0.2480921 -0.141072,-0.432945 -0.1362074,-0.184853 -0.3842995,-0.184853 -0.3161957,0 -0.5934751,0.1994466 -0.2772794,0.194582 -0.4669969,0.5010487 -0.18971747,0.3016022 -0.26755028,0.6129334 -0.0194582,0.063239 -0.0778328,0.063239 H 0.65671434 q -0.0778328,0 -0.0778328,-0.092426 v -0.029187 q 0.097291,-0.3697058 0.33078944,-0.7199535 0.23349843,-0.3551122 0.56915243,-0.574017 0.3405185,-0.2189047 0.724818,-0.2189047 0.3648413,0 0.6567144,0.194582 0.2967376,0.194582 0.4183513,0.530236 0.1702593,-0.3064667 0.4329451,-0.5156424 0.2675502,-0.2091756 0.583746,-0.2091756 0.2140403,0 0.4378096,0.077833 0.2237693,0.072968 0.3648413,0.2286338 0.141072,0.1556657 0.141072,0.3891641 0,0.2529566 -0.1653948,0.4378096 -0.1605301,0.1799883 -0.4134868,0.1799883 -0.1605301,0 -0.2675503,-0.1021555 -0.1070201,-0.1021556 -0.1070201,-0.2578212 0,-0.2091757 0.141072,-0.3648413 0.1459365,-0.1605302 0.3453831,-0.1897175 -0.1799884,-0.141072 -0.4961842,-0.141072 -0.3210603,0 -0.5594233,0.2967376 -0.2334984,0.2967376 -0.3307894,0.6615789 l -0.4378096,1.7609674 q -0.1070201,0.3988931 -0.1070201,0.6567143 0,0.25295663 0.141072,0.43780956 0.1459365,0.17998837 0.3842995,0.17998837 0.4669968,0 0.8318381,-0.40862226 0.3697059,-0.4134868 0.4864551,-0.90480637 0.019458,-0.058375 0.077833,-0.058375 h 0.1216138 q 0.038916,0 0.063239,0.029187 0.024323,0.024323 0.024323,0.058375 0,0.00973 -0.00973,0.029187 -0.141072,0.59347514 -0.5934752,1.05560745 -0.4524032,0.46213232 -1.0215556,0.46213232 -0.3648413,0 -0.6615789,-0.19458203 -0.2918731,-0.19944658 -0.4134868,-0.53510057 -0.1556657,0.29187304 -0.4329451,0.51077782 -0.2724148,0.21890478 -0.583746,0.21890478 -0.2140403,0 -0.44267414,-0.07783282 -0.22376933,-0.07296826 -0.3648413,-0.22863388 -0.14107197,-0.15566562 -0.14107197,-0.3940286 0,-0.23349843 0.16053017,-0.42321587 0.16539473,-0.1945821 0.40862226,-0.1945821 0.16539468,0 0.27727938,0.1021556 0.1118847,0.097291 0.1118847,0.25782118 0,0.20917568 -0.141072,0.3648413 -0.13620742,0.15566563 -0.34538309,0.19458203 z"
                         id="path332" /><path
                         d="m 6.2530493,-3.4586955 q 0,-0.3502477 0.2091756,-0.617798 0.2140403,-0.2675502 0.5399652,-0.4037577 0.3259248,-0.1410719 0.6859016,-0.1410719 0.082697,0 0.1459365,0.05351 0.063239,0.05351 0.063239,0.1459365 0,0.072968 -0.05351,0.1362075 -0.05351,0.063239 -0.1264783,0.063239 -0.2529566,0 -0.4961842,0.087562 -0.2432275,0.082697 -0.4086222,0.2578212 -0.1605302,0.1751238 -0.1605302,0.4183514 0,0.3648413 0.335654,0.5691524 0.335654,0.1994466 0.7296826,0.1994466 0.072968,0 0.1264783,0.063239 0.05351,0.063239 0.05351,0.1362075 0,0.092426 -0.063239,0.1459365 -0.063239,0.05351 -0.1459365,0.05351 -0.5448297,0 -0.9923683,-0.3161958 -0.4426741,-0.3210603 -0.4426741,-0.8512963 z"
                         id="path334" /><path
                         d="m 10.961693,1.4253133 q 0.209176,0.3599768 0.729683,0.3599768 0.471861,0 0.817244,-0.3307895 0.345383,-0.3307894 0.554559,-0.80265081 0.21404,-0.46699686 0.33079,-0.95831648 -0.442675,0.41835136 -0.958317,0.41835136 -0.394029,0 -0.671308,-0.13620742 -0.277279,-0.13620742 -0.432945,-0.40375771 -0.150801,-0.27241484 -0.150801,-0.65671434 0,-0.3259249 0.08756,-0.6664434 0.08756,-0.3453831 0.243227,-0.7637345 0.160531,-0.4232159 0.27728,-0.7345471 0.131343,-0.3648413 0.131343,-0.5983398 0,-0.2967376 -0.218905,-0.2967376 -0.394029,0 -0.65185,0.4086223 -0.252957,0.4037577 -0.37457,0.9048064 -0.01946,0.063239 -0.0827,0.063239 h -0.116749 q -0.0827,0 -0.0827,-0.092426 v -0.029187 q 0.16053,-0.5934752 0.491319,-1.0507429 0.33079,-0.4621323 0.836703,-0.4621323 0.355112,0 0.59834,0.2334984 0.248092,0.2334984 0.248092,0.5934752 0,0.1848529 -0.0827,0.389164 -0.04378,0.1216138 -0.199447,0.530236 -0.155666,0.4086223 -0.238363,0.6761726 -0.0827,0.2675503 -0.136207,0.5253715 -0.05351,0.2578211 -0.05351,0.51564232 0,0.33078945 0.141072,0.55942333 0.141072,0.22863388 0.447539,0.22863388 0.617798,0 1.109118,-0.75400535 l 0.754005,-3.06953148 q 0.03405,-0.1313429 0.155666,-0.2237693 0.121613,-0.097291 0.262685,-0.097291 0.121614,0 0.209176,0.077833 0.09243,0.077833 0.09243,0.2043111 0,0.058375 -0.0097,0.077833 l -0.987503,3.9646088 q -0.131343,0.51077782 -0.481591,0.9777747 -0.350248,0.4669969 -0.846432,0.7491408 -0.491319,0.2870085 -1.02642,0.2870085 -0.257821,0 -0.510778,-0.1021556 -0.252956,-0.097291 -0.408622,-0.2967376 -0.155666,-0.1994466 -0.155666,-0.4669968 0,-0.27241488 0.160531,-0.47186145 0.16053,-0.19944658 0.42808,-0.19944658 0.16053,0 0.26755,0.097291 0.111885,0.10215557 0.111885,0.26268574 0,0.22863388 -0.170259,0.39889318 -0.17026,0.1702592 -0.398893,0.1702592 -0.0097,-0.00486 -0.01946,-0.00973 -0.0097,0 -0.01946,0 z"
                         id="path336" /></g><g
                       aria-label=")=0"
                       transform="matrix(1,0,0,-1,194.001,112.695)"
                       id="text240"
                       style="font-size:9.9626px;font-family:CMR10;-inkscape-font-specification:CMR10;fill:#ff0000"><path
                         d="m 0.64698524,2.4906499 q -0.0875619,0 -0.0875619,-0.087562 0,-0.043781 0.0194582,-0.063239 1.70259277,-1.66367636 1.70259277,-4.8304988 0,-3.1668225 -1.68313457,-4.8110406 -0.0389164,-0.024323 -0.0389164,-0.082697 0,-0.034052 0.0243227,-0.058375 0.0291873,-0.029187 0.0632392,-0.029187 h 0.0924265 q 0.0291873,0 0.0486455,0.019458 0.71508899,0.5642879 1.19181489,1.3718033 0.476726,0.8075154 0.6956308,1.7220509 0.2237693,0.9145355 0.2237693,1.8679875 0,0.7053598 -0.1216138,1.3912615 Q 2.6609092,-0.41835136 2.3982235,0.24322753 2.1404023,0.90967097 1.7415091,1.4690943 1.342616,2.0333822 0.78805721,2.4711917 0.768599,2.4906499 0.7394117,2.4906499 Z"
                         id="path339" /><path
                         d="m 7.3931986,-1.3231578 q -0.082697,0 -0.1362075,-0.063239 -0.05351,-0.063239 -0.05351,-0.1362075 0,-0.082697 0.05351,-0.1410719 0.05351,-0.058375 0.1362075,-0.058375 h 6.2558124 q 0.07297,0 0.126478,0.058375 0.05351,0.058375 0.05351,0.1410719 0,0.072968 -0.05351,0.1362075 -0.05351,0.063239 -0.126478,0.063239 z m 0,-1.9360911 q -0.082697,0 -0.1362075,-0.058375 -0.05351,-0.058375 -0.05351,-0.1410719 0,-0.072968 0.05351,-0.1362074 0.05351,-0.063239 0.1362075,-0.063239 h 6.2558124 q 0.07297,0 0.126478,0.063239 0.05351,0.063239 0.05351,0.1362074 0,0.082697 -0.05351,0.1410719 -0.05351,0.058375 -0.126478,0.058375 z"
                         id="path341" /><path
                         d="m 19.653221,0.21890478 q -1.221002,0 -1.663676,-1.00209744 -0.43781,-1.00696194 -0.43781,-2.39335894 0,-0.86589 0.155666,-1.6296245 0.16053,-0.7637344 0.627527,-1.2939704 0.471861,-0.5351006 1.318293,-0.5351006 0.656714,0 1.075066,0.3210603 0.418351,0.3210604 0.637256,0.8318382 0.218905,0.5059133 0.296737,1.0896594 0.0827,0.5788815 0.0827,1.2161376 0,0.8561609 -0.16053,1.6053017 -0.155666,0.74427629 -0.617798,1.26964776 -0.462133,0.52050692 -1.313429,0.52050692 z m 0,-0.25782119 q 0.554559,0 0.826974,-0.56915242 0.272414,-0.56915247 0.335654,-1.25991867 0.06324,-0.6907661 0.06324,-1.4690943 0,-0.7491408 -0.06324,-1.3815323 -0.06324,-0.6323916 -0.335654,-1.1431694 -0.267551,-0.5156424 -0.826974,-0.5156424 -0.564288,0 -0.836703,0.5156424 -0.272415,0.5156423 -0.335654,1.1480339 -0.06324,0.627527 -0.06324,1.3766678 0,0.5545588 0.02432,1.0458784 0.02919,0.4913197 0.145936,1.0166911 0.11675,0.52050695 0.374571,0.8804837 0.262685,0.35511219 0.690766,0.35511219 z"
                         id="path343" /></g><g
                       id="g242"
                       transform="translate(169.654,112.695)" /></g></g><g
                   id="g244"
                   transform="translate(-169.853,-112.894)" /></g></g><g
               id="g246"><g
                 id="g248"
                 transform="translate(31.426,137.841)"><g
                   id="g250"><g
                     id="g252"
                     transform="translate(-31.227,-137.642)"><g
                       aria-label="f"
                       transform="matrix(1,0,0,-1,31.227,137.642)"
                       id="text256"
                       style="font-size:9.9626px;font-family:CMMI10;-inkscape-font-specification:CMMI10"><path
                         d="m 0.96804558,1.6442181 q 0.18485292,0.141072 0.44753862,0.141072 0.3551122,0 0.5788816,-0.78805721 Q 2.0868922,0.61779793 2.500379,-1.5031462 L 2.9576468,-3.9451506 H 2.1014859 q -0.097291,0 -0.097291,-0.1313429 0.038916,-0.2189047 0.1264783,-0.2189047 H 3.020886 l 0.1167492,-0.6469853 q 0.058375,-0.3016021 0.1070201,-0.5156423 0.048646,-0.2189048 0.1021556,-0.4037577 0.058375,-0.184853 0.1702592,-0.4134869 0.1702593,-0.3259248 0.4572678,-0.5351005 0.291873,-0.2140403 0.627527,-0.2140403 0.2189048,0 0.4232159,0.082697 0.2091757,0.077833 0.3405186,0.238363 0.1313428,0.1605302 0.1313428,0.3794349 0,0.2529567 -0.1702592,0.4426742 -0.1653947,0.1848529 -0.4037577,0.1848529 -0.1605302,0 -0.2772794,-0.097291 -0.1118847,-0.1021556 -0.1118847,-0.2626858 0,-0.2189048 0.1459365,-0.3794349 Q 4.8304988,-6.6011952 5.0494036,-6.625518 4.8645507,-6.76659 4.5921358,-6.76659 q -0.150801,0 -0.2870085,0.141072 -0.1313428,0.141072 -0.1702592,0.3016021 -0.063239,0.2529567 -0.2772794,1.3718033 l -0.1216138,0.6567144 h 1.0264202 q 0.097291,0 0.097291,0.1313428 -0.00486,0.024323 -0.019458,0.087562 -0.014594,0.058375 -0.043781,0.097291 -0.024323,0.034052 -0.063239,0.034052 H 3.6678712 L 3.2057389,-1.5128753 Q 3.118177,-0.98263923 3.0014278,-0.43294501 2.8895431,0.11188467 2.6803674,0.68590164 2.4760563,1.2647832 2.1549959,1.6539472 1.8339356,2.0431113 1.396126,2.0431113 q -0.335654,0 -0.60320424,-0.194582 Q 0.53023602,1.6588118 0.53023602,1.342616 q 0,-0.2529567 0.16053017,-0.44267413 0.16539473,-0.18485292 0.41348681,-0.18485292 0.1653947,0 0.2772794,0.097291 0.1118847,0.10215556 0.1118847,0.26268574 0,0.2140402 -0.1605302,0.389164 -0.1556656,0.1799884 -0.36484132,0.1799884 z"
                         id="path346" /></g><g
                       aria-label="="
                       transform="matrix(1,0,0,-1,39.944,137.642)"
                       id="text260"
                       style="font-size:9.9626px;font-family:CMR10;-inkscape-font-specification:CMR10"><path
                         d="m 0.7491408,-1.3231578 q -0.0826974,0 -0.13620742,-0.063239 -0.05351,-0.063239 -0.05351,-0.1362075 0,-0.082697 0.05351,-0.1410719 0.0535101,-0.058375 0.13620742,-0.058375 H 7.004953 q 0.072968,0 0.1264783,0.058375 0.05351,0.058375 0.05351,0.1410719 0,0.072968 -0.05351,0.1362075 -0.05351,0.063239 -0.1264783,0.063239 z m 0,-1.9360911 q -0.0826974,0 -0.13620742,-0.058375 -0.05351,-0.058375 -0.05351,-0.1410719 0,-0.072968 0.05351,-0.1362074 0.0535101,-0.063239 0.13620742,-0.063239 H 7.004953 q 0.072968,0 0.1264783,0.063239 0.05351,0.063239 0.05351,0.1362074 0,0.082697 -0.05351,0.1410719 -0.05351,0.058375 -0.1264783,0.058375 z"
                         id="path349" /></g><g
                       aria-label="c"
                       transform="matrix(1,0,0,-1,50.46,137.642)"
                       id="text264"
                       style="font-size:9.9626px;font-family:CMMI10;-inkscape-font-specification:CMMI10"><path
                         d="m 1.1674922,-1.1869504 q 0,0.43294505 0.2189047,0.73454719 0.2237694,0.30160214 0.6372562,0.30160214 0.5934752,0 1.1383048,-0.27241484 0.5496943,-0.27241483 0.8950774,-0.75400539 0.029187,-0.029187 0.077833,-0.029187 0.048646,0 0.097291,0.058375 0.05351,0.05351 0.05351,0.1021556 0,0.038916 -0.019458,0.0583746 -0.3648413,0.51077782 -0.9826392,0.80751541 -0.6177979,0.29187304 -1.2793768,0.29187304 -0.476726,0 -0.8415673,-0.22376934 Q 0.79778631,-0.34051855 0.59833973,-0.7199535 0.39889315,-1.0993884 0.39889315,-1.5761144 q 0,-0.671308 0.37457041,-1.3328869 0.37457044,-0.6615789 0.99723284,-1.0750657 0.6226625,-0.4183513 1.3085642,-0.4183513 0.4475386,0 0.8026508,0.2189047 0.3599768,0.2140403 0.3599768,0.6372562 0,0.2724148 -0.1605302,0.4669968 -0.1556656,0.1897175 -0.4232159,0.1897175 -0.1605302,0 -0.2724148,-0.097291 -0.1070202,-0.1021556 -0.1070202,-0.2626857 0,-0.2334985 0.1702593,-0.3988932 0.1702593,-0.1653947 0.3988932,-0.1653947 h 0.019458 Q 3.7505686,-3.984067 3.5267992,-4.0618998 q -0.2189048,-0.082697 -0.4572677,-0.082697 -0.5837461,0 -1.0215557,0.5010488 -0.4378095,0.4961841 -0.6615789,1.1918149 -0.2189047,0.6907662 -0.2189047,1.2647831 z"
                         id="path352" /></g><g
                       aria-label="2"
                       transform="matrix(1,0,0,-1,54.772,136.147)"
                       id="text268"
                       style="font-size:6.9738px;font-family:CMR7;-inkscape-font-specification:CMR7"><path
                         d="m 1.3382341,-0.5788799 h 2.400649 V 0 H 0.51077638 v -0.5788799 q 0.39159523,-0.40521593 1.06582002,-1.0862511 0.67763,-0.6844404 0.851294,-0.8819406 0.3303021,-0.3711641 0.4596987,-0.6265523 0.1328019,-0.2587934 0.1328019,-0.5073712 0,-0.4052159 -0.2860348,-0.6606041 -0.2826296,-0.2553882 -0.7389231,-0.2553882 -0.3234917,0 -0.6844404,0.1123708 -0.35754346,0.1123708 -0.76616456,0.3405176 v -0.6946559 q 0.41543146,-0.1668536 0.77638006,-0.251983 0.3609487,-0.085129 0.6606042,-0.085129 0.7900008,0 1.259915,0.3950004 0.4699143,0.3950004 0.4699143,1.0556045 0,0.3132762 -0.1191812,0.5959058 -0.1157759,0.2792244 -0.4256469,0.6606041 -0.085129,0.09875 -0.541423,0.5720695 -0.4562936,0.4699143 -1.2871565,1.3178031 z"
                         id="path355" /></g><g
                       id="g270"
                       transform="translate(31.227,137.642)" /></g></g><g
                   id="g272"
                   transform="translate(-31.426,-137.841)" /></g></g><g
               id="g274"><g
                 id="g276"
                 transform="translate(8.711,150.315)"><g
                   id="g278"><g
                     id="g280"
                     transform="translate(-8.512,-150.116)"><g
                       aria-label="f"
                       transform="matrix(1,0,0,-1,8.512,150.116)"
                       id="text284"
                       style="font-size:9.9626px;font-family:CMMI10;-inkscape-font-specification:CMMI10"><path
                         d="m 0.96804558,1.6442181 q 0.18485292,0.141072 0.44753862,0.141072 0.3551122,0 0.5788816,-0.78805721 Q 2.0868922,0.61779793 2.500379,-1.5031462 L 2.9576468,-3.9451506 H 2.1014859 q -0.097291,0 -0.097291,-0.1313429 0.038916,-0.2189047 0.1264783,-0.2189047 H 3.020886 l 0.1167492,-0.6469853 q 0.058375,-0.3016021 0.1070201,-0.5156423 0.048646,-0.2189048 0.1021556,-0.4037577 0.058375,-0.184853 0.1702592,-0.4134869 0.1702593,-0.3259248 0.4572678,-0.5351005 0.291873,-0.2140403 0.627527,-0.2140403 0.2189048,0 0.4232159,0.082697 0.2091757,0.077833 0.3405186,0.238363 0.1313428,0.1605302 0.1313428,0.3794349 0,0.2529567 -0.1702592,0.4426742 -0.1653947,0.1848529 -0.4037577,0.1848529 -0.1605302,0 -0.2772794,-0.097291 -0.1118847,-0.1021556 -0.1118847,-0.2626858 0,-0.2189048 0.1459365,-0.3794349 Q 4.8304988,-6.6011952 5.0494036,-6.625518 4.8645507,-6.76659 4.5921358,-6.76659 q -0.150801,0 -0.2870085,0.141072 -0.1313428,0.141072 -0.1702592,0.3016021 -0.063239,0.2529567 -0.2772794,1.3718033 l -0.1216138,0.6567144 h 1.0264202 q 0.097291,0 0.097291,0.1313428 -0.00486,0.024323 -0.019458,0.087562 -0.014594,0.058375 -0.043781,0.097291 -0.024323,0.034052 -0.063239,0.034052 H 3.6678712 L 3.2057389,-1.5128753 Q 3.118177,-0.98263923 3.0014278,-0.43294501 2.8895431,0.11188467 2.6803674,0.68590164 2.4760563,1.2647832 2.1549959,1.6539472 1.8339356,2.0431113 1.396126,2.0431113 q -0.335654,0 -0.60320424,-0.194582 Q 0.53023602,1.6588118 0.53023602,1.342616 q 0,-0.2529567 0.16053017,-0.44267413 0.16539473,-0.18485292 0.41348681,-0.18485292 0.1653947,0 0.2772794,0.097291 0.1118847,0.10215556 0.1118847,0.26268574 0,0.2140402 -0.1605302,0.389164 -0.1556656,0.1799884 -0.36484132,0.1799884 z"
                         id="path358" /></g><g
                       aria-label="="
                       transform="matrix(1,0,0,-1,17.229,150.116)"
                       id="text288"
                       style="font-size:9.9626px;font-family:CMR10;-inkscape-font-specification:CMR10"><path
                         d="m 0.7491408,-1.3231578 q -0.0826974,0 -0.13620742,-0.063239 -0.05351,-0.063239 -0.05351,-0.1362075 0,-0.082697 0.05351,-0.1410719 0.0535101,-0.058375 0.13620742,-0.058375 H 7.004953 q 0.072968,0 0.1264783,0.058375 0.05351,0.058375 0.05351,0.1410719 0,0.072968 -0.05351,0.1362075 -0.05351,0.063239 -0.1264783,0.063239 z m 0,-1.9360911 q -0.0826974,0 -0.13620742,-0.058375 -0.05351,-0.058375 -0.05351,-0.1410719 0,-0.072968 0.05351,-0.1362074 0.0535101,-0.063239 0.13620742,-0.063239 H 7.004953 q 0.072968,0 0.1264783,0.063239 0.05351,0.063239 0.05351,0.1362074 0,0.082697 -0.05351,0.1410719 -0.05351,0.058375 -0.1264783,0.058375 z"
                         id="path361" /></g><g
                       aria-label="c"
                       transform="matrix(1,0,0,-1,27.745,150.116)"
                       id="text292"
                       style="font-size:9.9626px;font-family:CMMI10;-inkscape-font-specification:CMMI10"><path
                         d="m 1.1674922,-1.1869504 q 0,0.43294505 0.2189047,0.73454719 0.2237694,0.30160214 0.6372562,0.30160214 0.5934752,0 1.1383048,-0.27241484 0.5496943,-0.27241483 0.8950774,-0.75400539 0.029187,-0.029187 0.077833,-0.029187 0.048646,0 0.097291,0.058375 0.05351,0.05351 0.05351,0.1021556 0,0.038916 -0.019458,0.0583746 -0.3648413,0.51077782 -0.9826392,0.80751541 -0.6177979,0.29187304 -1.2793768,0.29187304 -0.476726,0 -0.8415673,-0.22376934 Q 0.79778631,-0.34051855 0.59833973,-0.7199535 0.39889315,-1.0993884 0.39889315,-1.5761144 q 0,-0.671308 0.37457041,-1.3328869 0.37457044,-0.6615789 0.99723284,-1.0750657 0.6226625,-0.4183513 1.3085642,-0.4183513 0.4475386,0 0.8026508,0.2189047 0.3599768,0.2140403 0.3599768,0.6372562 0,0.2724148 -0.1605302,0.4669968 -0.1556656,0.1897175 -0.4232159,0.1897175 -0.1605302,0 -0.2724148,-0.097291 -0.1070202,-0.1021556 -0.1070202,-0.2626857 0,-0.2334985 0.1702593,-0.3988932 0.1702593,-0.1653947 0.3988932,-0.1653947 h 0.019458 Q 3.7505686,-3.984067 3.5267992,-4.0618998 q -0.2189048,-0.082697 -0.4572677,-0.082697 -0.5837461,0 -1.0215557,0.5010488 -0.4378095,0.4961841 -0.6615789,1.1918149 -0.2189047,0.6907662 -0.2189047,1.2647831 z"
                         id="path364" /></g><g
                       aria-label="1"
                       transform="matrix(1,0,0,-1,32.057,148.621)"
                       id="text296"
                       style="font-size:6.9738px;font-family:CMR7;-inkscape-font-specification:CMR7"><path
                         d="M 0.86491467,-0.5788799 H 1.9886227 V -4.4573752 L 0.76616457,-4.2122026 V -4.8387549 L 1.9818124,-5.0839276 h 0.6878455 v 4.5050477 h 1.123708 V 0 H 0.86491467 Z"
                         id="path367" /></g><g
                       id="g298"
                       transform="translate(8.512,150.116)" /></g></g><g
                   id="g300"
                   transform="translate(-8.711,-150.315)" /></g></g></g></g></g></g></g></svg>
