<?xml version="1.0" encoding="UTF-8"?>
<svg version="1.1" viewBox="0 0 85.608 114.54" xml:space="preserve" xmlns="http://www.w3.org/2000/svg"><defs><clipPath id="clipPath46"><path d="m139.93 20.089v64.573l-132.46 30.864-61.754-66.215v-64.573l132.46-30.864z"/></clipPath></defs><g transform="matrix(1.3333 0 0 -1.3333 0 114.54)"><g transform="translate(-65,-37.872)"><g transform="translate(65,37.872)"><g transform="translate(-10.722,8.253)"><g clip-path="url(#clipPath46)"><g fill-opacity=".5" stroke-miterlimit="10" stroke-opacity=".5" stroke-width=".3985"><g fill="#1f1fe0" stroke="#1818b4"><path d="m72.033 0.98941 2.5293 4.0109-4.6823 4.7118-2.1562-3.4192z"/><path d="m74.563 5.0004 0.36639 4.2014-4.7364 4.092-0.31234-3.5816z"/><path d="m74.929 9.2018-1.8219 4.1055-4.4676 3.4862 1.5531-3.4998z"/><path d="m73.107 13.307-3.8848 3.7301-3.8945 2.9359 3.3116-3.1797z"/><path d="m69.222 17.037-5.684 3.1001-3.0559 2.4786 4.8454-2.6427z"/><path d="m63.538 20.137-7.0957 2.2589-2.009 2.1453 6.0488-1.9257z"/><path d="m56.443 22.396-8.0235 1.264-0.8253 1.9588 6.8398-1.0775z"/><path d="m48.419 23.66-8.4048 0.18277 0.41472 1.9318 7.1647-0.15581z"/><path d="m40.014 23.843-8.2132-0.91106 1.6264 2.0663 7.0015 0.77664z"/><path d="m31.801 22.932-7.4622-1.9422 2.7274 2.3528 6.3612 1.6557z"/><path d="m24.339 20.99-6.2021-2.8416 3.6424 2.772 5.2871 2.4224z"/><path d="m18.137 18.148-4.5196-3.5472 4.3092 3.2954 3.8528 3.0239z"/><path d="m13.617 14.601-2.5294-4.0109 4.6824 3.8871 2.1562 3.4192z"/><path d="m11.088 10.59-0.36638-4.2014 4.7364 4.5069 0.31234 3.5816z"/><path d="m10.722 6.3888 1.8218-4.1056 4.4676 5.1127-1.5531 3.4998z"/><path d="m12.544 2.2832 3.8848-3.73 3.8945 5.663-3.3116 3.1797z"/><path d="m16.428-1.4468 5.684-3.1001 3.0559 6.1203-4.8454 2.6427z"/><path d="m22.112-4.5469 7.0957-2.2589 2.009 6.4536-6.0488 1.9257z"/><path d="m29.208-6.8058 8.0235-1.264 0.82529 6.6401-6.8398 1.0775z"/><path d="m37.231-8.0698 8.4048-0.18279-0.41472 6.6671-7.1648 0.15582z"/><path d="m45.636-8.2526 8.2132 0.91106-1.6264 6.5326-7.0015-0.77664z"/><path d="m53.849-7.3416 7.4622 1.9422-2.7274 6.2461-6.3612-1.6557z"/><path d="m61.312-5.3993 6.2021 2.8416-3.6424 5.8268-5.2871-2.4224z"/><path d="m67.514-2.5578 4.5196 3.5472-4.3092 5.3036-3.8528-3.0239z"/></g><g fill="#5757a8" stroke="#464686"><path d="m67.724 6.293 2.1562 3.4192-3.9274 4.0147-1.8432-2.9228z"/><path d="m69.88 9.7121 0.31234 3.5816-3.9727 3.4948-0.26697-3.0616z"/><path d="m70.193 13.294-1.5531 3.4998-3.7473 2.9868 1.3276-2.9918z"/><path d="m68.64 16.794-3.3116 3.1797-3.2665 2.5252 2.8309-2.7181z"/><path d="m65.328 19.973-4.8454 2.6427-2.5632 2.1415 4.142-2.2591z"/><path d="m60.482 22.616-6.0488 1.9257-1.6851 1.862 5.1707-1.6462z"/><path d="m54.434 24.542-6.8398 1.0775-0.6922 1.7056 5.8469-0.92111z"/><path d="m47.594 25.619-7.1647 0.15581 0.34783 1.683 6.1247-0.13321z"/><path d="m40.429 25.775-7.0015-0.77664 1.3642 1.7957 5.9851 0.66391z"/><path d="m33.428 24.998-6.3612-1.6557 2.2876 2.0361 5.4379 1.4154z"/><path d="m27.066 23.343-5.2871-2.4224 3.0551 2.3877 4.5196 2.0707z"/><path d="m21.779 20.92-3.8528-3.0239 3.6144 2.8267 3.2935 2.5849z"/><path d="m17.927 17.896-2.1562-3.4192 3.9274 3.323 1.8432 2.9228z"/><path d="m15.77 14.477-0.31234-3.5816 3.9727 3.8429 0.26697 3.0616z"/><path d="m15.458 10.896 1.5531-3.4998 3.7473 4.351-1.3276 2.9918z"/><path d="m17.011 7.3959 3.3116-3.1797 3.2665 4.8125-2.8309 2.7182z"/><path d="m20.323 4.2162 4.8454-2.6427 2.5632 5.1962-4.142 2.2591z"/><path d="m25.168 1.5734 6.0488-1.9257 1.6851 5.4757-5.1707 1.6461z"/><path d="m31.217-0.35222 6.8398-1.0775 0.69221 5.6321-5.8469 0.92114z"/><path d="m38.057-1.4298 7.1648-0.15582-0.34783 5.6547-6.1247 0.13318z"/><path d="m45.222-1.5856 7.0015 0.77664-1.3642 5.542-5.9851-0.66391z"/><path d="m52.223-0.80893 6.3612 1.6557-2.2876 5.3017-5.4378-1.4154z"/><path d="m58.584 0.84674 5.2871 2.4224-3.0551 4.95-4.5196-2.0707z"/><path d="m63.871 3.2691 3.8528 3.0239-3.6144 4.511-3.2935-2.5849z"/></g><g fill="#887" stroke="#6d6d5f"><path d="m64.11 10.804 1.8432 2.9228-3.2831 3.4307-1.5815-2.5079z"/><path d="m65.953 13.727 0.26697 3.0616-3.321 2.9961-0.2291-2.627z"/><path d="m66.22 16.789-1.3276 2.9918-3.1325 2.5714 1.1392-2.5671z"/><path d="m64.892 19.78-2.8309 2.7181-2.7306 2.1856 2.429-2.3323z"/><path d="m62.061 22.498-4.142 2.2591-2.1427 1.8648 3.5541-1.9384z"/><path d="m57.919 24.758-5.1707 1.6462-1.4087 1.6312 4.4367-1.4125z"/><path d="m52.749 26.404-5.8469 0.92111-0.57866 1.5004 5.0169-0.79038z"/><path d="m46.902 27.325-6.1247 0.13321 0.29078 1.4815 5.2553-0.11428z"/><path d="m40.777 27.458-5.9851-0.66391 1.1404 1.5757 5.1355 0.56967z"/><path d="m34.792 26.794-5.4379-1.4154 1.9123 1.7767 4.6659 1.2144z"/><path d="m29.354 25.379-4.5196-2.0707 2.5539 2.0706 3.878 1.7768z"/><path d="m24.834 23.308-3.2935-2.5849 3.0214 2.4376 2.826 2.218z"/><path d="m21.541 20.723-1.8432-2.9228 3.2831 2.8525 1.5816 2.5079z"/><path d="m19.698 17.8-0.26697-3.0616 3.321 3.2871 0.22908 2.627z"/><path d="m19.431 14.739 1.3276-2.9918 3.1325 3.7118-1.1392 2.5671z"/><path d="m20.758 11.747 2.8309-2.7182 2.7306 4.0976-2.429 2.3323z"/><path d="m23.589 9.0287 4.142-2.2591 2.1427 4.4183-3.5541 1.9384z"/><path d="m27.731 6.7696 5.1707-1.6461 1.4087 4.652-4.4367 1.4125z"/><path d="m32.902 5.1235 5.8469-0.92114 0.57866 4.7828-5.0169 0.79036z"/><path d="m38.749 4.2023 6.1247-0.13318-0.29077 4.8017-5.2553 0.11429z"/><path d="m44.874 4.0691 5.9851 0.66391-1.1404 4.7074-5.1355-0.56966z"/><path d="m50.859 4.733 5.4378 1.4154-1.9123 4.5065-4.6659-1.2144z"/><path d="m56.297 6.1484 4.5196 2.0707-2.5539 4.2126-3.878-1.7768z"/><path d="m60.816 8.2191 3.2935 2.5849-3.0214 3.8456-2.826-2.218z"/></g><g fill="#b2b24d" stroke="#8e8e3e"><path d="m61.088 14.65 1.5815 2.5079-2.7312 2.943-1.3639-2.1628z"/><path d="m62.67 17.158 0.2291 2.627-2.7628 2.5814-0.19754-2.2655z"/><path d="m62.899 19.785-1.1392 2.5671-2.606 2.2281 0.98235-2.2138z"/><path d="m61.76 22.352-2.429 2.3323-2.2717 1.9071 2.0947-2.0113z"/><path d="m59.331 24.684-3.5541 1.9384-1.7825 1.6403 3.0649-1.6716z"/><path d="m55.777 26.622-4.4367 1.4125-1.1719 1.4459 3.8261-1.2181z"/><path d="m51.34 28.035-5.0169 0.79038-0.4814 1.3371 4.3264-0.68158z"/><path d="m46.323 28.825-5.2553 0.11428 0.24189 1.3214 4.532-0.09856z"/><path d="m41.068 28.94-5.1355-0.56967 0.94872 1.3998 4.4287 0.49124z"/><path d="m35.932 28.37-4.6659-1.2144 1.5909 1.5669 4.0238 1.0473z"/><path d="m31.266 27.155-3.878-1.7768 2.1246 1.8115 3.3443 1.5322z"/><path d="m27.388 25.379-2.826-2.218 2.5136 2.1167 2.437 1.9127z"/><path d="m24.562 23.161-1.5816-2.5079 2.7312 2.4619 1.3639 2.1628z"/><path d="m22.981 20.653-0.22908-2.627 2.7628 2.8235 0.19754 2.2655z"/><path d="m22.752 18.026 1.1392-2.5671 2.606 3.1768-0.98236 2.2138z"/><path d="m23.891 15.459 2.429-2.3323 2.2717 3.4978-2.0947 2.0113z"/><path d="m26.32 13.126 3.5541-1.9384 1.7825 3.7646-3.0649 1.6716z"/><path d="m29.874 11.188 4.4367-1.4125 1.1719 3.959-3.8261 1.218z"/><path d="m34.311 9.7754 5.0169-0.79036 0.4814 4.0677-4.3264 0.68159z"/><path d="m39.328 8.9851 5.2553-0.11429-0.2419 4.0835-4.532 0.09856z"/><path d="m44.583 8.8708 5.1355 0.56966-0.94872 4.0051-4.4287-0.49127z"/><path d="m49.718 9.4405 4.6659 1.2144-1.5909 3.8379-4.0238-1.0473z"/><path d="m54.384 10.655 3.878 1.7768-2.1246 3.5934-3.3443-1.5322z"/><path d="m58.262 12.432 2.826 2.218-2.5136 3.2881-2.437-1.9127z"/></g><g fill="#d5d52a" stroke="#abab21"><path d="m58.575 17.938 1.3639 2.1628-2.2552 2.5364-1.1841-1.8777z"/><path d="m59.939 20.101 0.19754 2.2655-2.2812 2.2379-0.17152-1.967z"/><path d="m60.136 22.366-0.98235 2.2138-2.1518 1.9461 0.85292-1.922z"/><path d="m59.154 24.58-2.0947 2.0113-1.8757 1.6811 1.8187-1.7462z"/><path d="m57.059 26.591-3.0649 1.6716-1.4718 1.4608 2.661-1.4513z"/><path d="m53.994 28.263-3.8261 1.2181-0.96762 1.3003 3.3219-1.0575z"/><path d="m50.168 29.481-4.3264 0.68158-0.39748 1.2105 3.7563-0.59178z"/><path d="m45.842 30.162-4.532 0.09856 0.19973 1.1975 3.9348-0.08555z"/><path d="m41.31 30.261-4.4287-0.49124 0.78333 1.2622 3.8451 0.42651z"/><path d="m36.881 29.77-4.0238-1.0473 1.3136 1.4002 3.4935 0.90929z"/><path d="m32.857 28.722-3.3443-1.5322 1.7543 1.6021 2.9036 1.3303z"/><path d="m29.513 27.19-2.437-1.9127 2.0755 1.8542 2.1159 1.6606z"/><path d="m27.076 25.277-1.3639-2.1628 2.2552 2.1392 1.1842 1.8778z"/><path d="m25.712 23.115-0.19754-2.2655 2.2812 2.4378 0.1715 1.9669z"/><path d="m25.514 20.849 0.98236-2.2138 2.1518 2.7295-0.8529 1.922z"/><path d="m26.497 18.635 2.0947-2.0113 1.8757 2.9946-1.8187 1.7463z"/><path d="m28.592 16.624 3.0649-1.6716 1.4718 3.2148-2.661 1.4513z"/><path d="m31.656 14.952 3.8261-1.218 0.96763 3.3753-3.3219 1.0576z"/><path d="m35.483 13.734 4.3264-0.68159 0.39748 3.4652-3.7563 0.59177z"/><path d="m39.809 13.053 4.532-0.09856-0.19973 3.4782-3.9348 0.08557z"/><path d="m44.341 12.954 4.4287 0.49127-0.78335 3.4134-3.8451-0.42653z"/><path d="m48.77 13.446 4.0238 1.0473-1.3136 3.2754-3.4935-0.90928z"/><path d="m52.793 14.493 3.3443 1.5322-1.7543 3.0735-2.9036-1.3303z"/><path d="m56.138 16.025 2.437 1.9127-2.0755 2.8214-2.1159-1.6607z"/></g><g fill="#f5f50a" stroke="#c4c408"><path d="m56.499 20.759 1.1841 1.8777-1.8409 2.1995-1.0374-1.6451z"/><path d="m57.683 22.637 0.17152 1.967-1.8622 1.9558-0.15025-1.7232z"/><path d="m57.855 24.604-0.85292 1.922-1.7565 1.7176 0.74724-1.6839z"/><path d="m57.002 26.526-1.8187 1.7462-1.5311 1.5013 1.5933-1.5299z"/><path d="m55.183 28.272-2.661 1.4513-1.2014 1.3214 2.3313-1.2715z"/><path d="m52.522 29.724-3.3219 1.0575-0.78987 1.1904 2.9103-0.92653z"/><path d="m49.2 30.781-3.7563 0.59178-0.32448 1.1171 3.2909-0.51843z"/><path d="m45.444 31.373-3.9348 0.08555 0.16304 1.1065 3.4472-0.075z"/><path d="m41.509 31.458-3.8451-0.42651 0.63944 1.1594 3.3687 0.37369z"/><path d="m37.664 31.032-3.4935-0.90929 1.0723 1.272 3.0606 0.79662z"/><path d="m34.171 30.123-2.9036-1.3303 1.432 1.4368 2.5438 1.1655z"/><path d="m31.267 28.792-2.1159-1.6606 1.6942 1.6426 1.8537 1.4549z"/><path d="m29.151 27.132-1.1842-1.8778 1.8409 1.8752 1.0374 1.6451z"/><path d="m27.967 25.254-0.1715-1.9669 1.8621 2.1189 0.15027 1.7232z"/><path d="m27.796 23.287 0.8529-1.922 1.7565 2.3571-0.74725 1.6839z"/><path d="m28.649 21.365 1.8187-1.7463 1.5311 2.5734-1.5933 1.5299z"/><path d="m30.467 19.619 2.661-1.4513 1.2014 2.7532-2.3313 1.2715z"/><path d="m33.128 18.167 3.3219-1.0576 0.78987 2.8843-2.9103 0.9265z"/><path d="m36.45 17.11 3.7563-0.59177 0.32448 2.9576-3.2909 0.51846z"/><path d="m40.206 16.518 3.9348-0.08557-0.16304 2.9682-3.4472 0.07497z"/><path d="m44.141 16.432 3.8451 0.42653-0.63942 2.9153-3.3687-0.37367z"/><path d="m47.986 16.859 3.4935 0.90928-1.0723 2.8027-3.0606-0.79661z"/><path d="m51.48 17.768 2.9036 1.3303-1.432 2.6379-2.5438-1.1655z"/><path d="m54.383 19.099 2.1159 1.6607-1.6942 2.4321-1.8537-1.4549z"/></g><g fill="#fff700" stroke="#ccc500"><path d="m54.805 23.191 1.0374 1.6451-1.4784 1.926-0.91962-1.4583z"/><path d="m55.843 24.836 0.15025 1.7232-1.4954 1.7303-0.13317-1.5275z"/><path d="m55.993 26.56-0.74724 1.6839-1.4106 1.5391 0.66235-1.4927z"/><path d="m55.246 28.244-1.5933 1.5299-1.2296 1.3653 1.4124-1.3562z"/><path d="m53.652 29.773-2.3313 1.2715-0.96483 1.221 2.0666-1.1271z"/><path d="m51.321 31.045-2.9103 0.92653-0.63431 1.1157 2.5798-0.82129z"/><path d="m48.411 31.971-3.2909 0.51843-0.26057 1.0568 2.9172-0.45956z"/><path d="m45.12 32.49-3.4472 0.075 0.13094 1.0483 3.0557-0.06645z"/><path d="m41.672 32.565-3.3687-0.37369 0.51354 1.0907 2.9861 0.33125z"/><path d="m38.304 32.191-3.0606-0.79662 0.86111 1.1812 2.7131 0.70613z"/><path d="m35.243 31.395-2.5438-1.1655 1.15 1.3136 2.2549 1.0331z"/><path d="m32.699 30.229-1.8537-1.4549 1.3606 1.4788 1.6432 1.2897z"/><path d="m30.846 28.774-1.0374-1.6451 1.4784 1.6657 0.91961 1.4583z"/><path d="m29.808 27.129-0.15027-1.7232 1.4954 1.8614 0.13319 1.5275z"/><path d="m29.658 25.406 0.74725-1.6839 1.4106 2.0526-0.66237 1.4927z"/><path d="m30.405 23.722 1.5933-1.5299 1.2296 2.2264-1.4124 1.3561z"/><path d="m31.998 22.192 2.3313-1.2715 0.96482 2.3708-2.0665 1.1271z"/><path d="m34.33 20.921 2.9103-0.9265 0.63432 2.476-2.5798 0.82129z"/><path d="m37.24 19.994 3.2909-0.51846 0.26055 2.5349-2.9171 0.45956z"/><path d="m40.531 19.476 3.4472-0.07497-0.13094 2.5434-3.0558 0.06647z"/><path d="m43.978 19.401 3.3687 0.37367-0.51354 2.501-2.9861-0.33124z"/><path d="m47.347 19.774 3.0606 0.79661-0.86112 2.4105-2.7131-0.70614z"/><path d="m50.408 20.571 2.5438 1.1655-1.15 2.2781-2.2549-1.0331z"/><path d="m52.951 21.736 1.8537 1.4549-1.3606 2.1129-1.6432-1.2897z"/></g><g fill="#ffea00" stroke="#ccbc00"><path d="m53.445 25.304 0.91962 1.4583-1.1575 1.7046-0.82736-1.312z"/><path d="m54.364 26.762 0.13317 1.5275-1.1709 1.5514-0.11983-1.3743z"/><path d="m54.497 28.29-0.66235 1.4927-1.1045 1.4016 0.59593-1.3429z"/><path d="m53.835 29.783-1.4124 1.3562-0.96278 1.2656 1.2707-1.2201z"/><path d="m52.423 31.139-2.0666 1.1271-0.75546 1.1525 1.8592-1.014z"/><path d="m50.356 32.266-2.5798 0.82129-0.49667 1.0701 2.321-0.73891z"/><path d="m47.776 33.087-2.9172 0.45956-0.20402 1.024 2.6245-0.41347z"/><path d="m44.859 33.547-3.0557 0.06645 0.10252 1.0174 2.7492-0.05978z"/><path d="m41.803 33.613-2.9861-0.33125 0.40205 1.0506 2.6866 0.298z"/><path d="m38.817 33.282-2.7131-0.70613 0.67426 1.1214 2.4409 0.63532z"/><path d="m36.104 32.576-2.2549-1.0331 0.90045 1.2251 2.0287 0.92949z"/><path d="m33.849 31.543-1.6432-1.2897 1.0653 1.3544 1.4784 1.1603z"/><path d="m32.206 30.253-0.91961-1.4583 1.1576 1.5008 0.82735 1.312z"/><path d="m31.286 28.795-0.13319-1.5275 1.1709 1.654 0.11984 1.3743z"/><path d="m31.153 27.267 0.66237-1.4927 1.1045 1.8037-0.59593 1.3429z"/><path d="m31.816 25.775 1.4124-1.3561 0.96277 1.9398-1.2707 1.2201z"/><path d="m33.228 24.418 2.0665-1.1271 0.75546 2.0528-1.8592 1.014z"/><path d="m35.295 23.291 2.5798-0.82129 0.49666 2.1352-2.321 0.73889z"/><path d="m37.874 22.47 2.9171-0.45956 0.20403 2.1813-2.6245 0.41347z"/><path d="m40.792 22.01 3.0558-0.06647-0.10252 2.188-2.7492 0.0598z"/><path d="m43.847 21.944 2.9861 0.33124-0.40205 2.1548-2.6866-0.29803z"/><path d="m46.833 22.275 2.7131 0.70614-0.67423 2.0839-2.4409-0.6353z"/><path d="m49.546 22.981 2.2549 1.0331-0.90045 1.9803-2.0287-0.9295z"/><path d="m51.801 24.015 1.6432 1.2897-1.0653 1.8509-1.4784-1.1603z"/></g><g fill="#ffe000" stroke="#ccb300"><path d="m52.379 27.155 0.82736 1.312-0.86831 1.5309-0.75815-1.2023z"/><path d="m53.207 28.467 0.11983 1.3743-0.87834 1.4159-0.1098-1.2593z"/><path d="m53.326 29.841-0.59593 1.3429-0.82849 1.3036 0.54608-1.2306z"/><path d="m52.731 31.184-1.2707 1.2201-0.72219 1.2016 1.1644-1.118z"/><path d="m51.46 32.404-1.8592 1.014-0.56669 1.1167 1.7037-0.92923z"/><path d="m49.601 33.418-2.321 0.73891-0.37258 1.0549 2.1269-0.67711z"/><path d="m47.28 34.157-2.6245 0.41347-0.15304 1.0204 2.405-0.37889z"/><path d="m44.655 34.571-2.7492 0.05978 0.07691 1.0153 2.5192-0.05476z"/><path d="m41.906 34.631-2.6866-0.298 0.30162 1.0403 2.4618 0.27307z"/><path d="m39.219 34.333-2.4409-0.63532 0.50577 1.0934 2.2367 0.58217z"/><path d="m36.778 33.697-2.0287-0.92949 0.67545 1.1712 1.859 0.85174z"/><path d="m34.75 32.768-1.4784-1.1603 0.7991 1.2682 1.3547 1.0632z"/><path d="m33.271 31.607-0.82735-1.312 0.8683 1.3779 0.75815 1.2023z"/><path d="m32.444 30.296-0.11984-1.3743 0.87834 1.4929 0.1098 1.2593z"/><path d="m32.324 28.921 0.59593-1.3429 0.82849 1.6052-0.54608 1.2306z"/><path d="m32.92 27.578 1.2707-1.2201 0.72219 1.7073-1.1644 1.1181z"/><path d="m34.191 26.358 1.8592-1.014 0.56671 1.7921-1.7037 0.92921z"/><path d="m36.05 25.344 2.321-0.73889 0.37257 1.8539-2.1269 0.67711z"/><path d="m38.371 24.605 2.6245-0.41347 0.15304 1.8885-2.405 0.37889z"/><path d="m40.996 24.192 2.7492-0.0598-0.07691 1.8935-2.5193 0.05478z"/><path d="m43.745 24.132 2.6866 0.29803-0.30162 1.8685-2.4618-0.27309z"/><path d="m46.431 24.43 2.4409 0.6353-0.50578 1.8154-2.2367-0.58216z"/><path d="m48.872 25.065 2.0287 0.9295-0.67545 1.7376-1.859-0.85174z"/><path d="m50.901 25.995 1.4784 1.1603-0.7991 1.6406-1.3547-1.0632z"/></g><g fill="#ffd600" stroke="#ccab00"><path d="m51.58 28.796 0.75815 1.2023-0.60353 1.4-0.71004-1.126z"/><path d="m52.338 29.998 0.1098 1.2593-0.61047 1.3202-0.10286-1.1795z"/><path d="m52.448 31.257-0.54608 1.2306-0.57582 1.2421 0.51143-1.1525z"/><path d="m51.902 32.488-1.1644 1.118-0.50197 1.1712 1.0906-1.0471z"/><path d="m50.738 33.606-1.7037 0.92923-0.39389 1.1122 1.5956-0.87028z"/><path d="m49.034 34.535-2.1269 0.67711-0.25894 1.0693 1.9919-0.63416z"/><path d="m46.907 35.212-2.405 0.37889-0.10638 1.0452 2.2524-0.35483z"/><path d="m44.502 35.591-2.5192 0.05476 0.05345 1.0418 2.3594-0.05131z"/><path d="m41.983 35.646-2.4618-0.27307 0.20964 1.0591 2.3056 0.25575z"/><path d="m39.521 35.373-2.2367-0.58217 0.35153 1.096 2.0948 0.54524z"/><path d="m37.284 34.791-1.859-0.85174 0.46946 1.15 1.7411 0.79772z"/><path d="m35.425 33.939-1.3547-1.0632 0.55542 1.2175 1.2688 0.99577z"/><path d="m34.07 32.876-0.75815-1.2023 0.60352 1.2938 0.71005 1.126z"/><path d="m33.312 31.673-0.1098-1.2593 0.61047 1.3736 0.10285 1.1794z"/><path d="m33.203 30.414 0.54608-1.2306 0.57582 1.4517-0.51143 1.1525z"/><path d="m33.749 29.184 1.1644-1.1181 0.50198 1.5227-1.0906 1.0471z"/><path d="m34.913 28.065 1.7037-0.92921 0.39388 1.5816-1.5956 0.87028z"/><path d="m36.617 27.136 2.1269-0.67711 0.25894 1.6246-1.9919 0.63414z"/><path d="m38.744 26.459 2.405-0.37889 0.10639 1.6486-2.2524 0.35484z"/><path d="m41.149 26.08 2.5193-0.05478-0.05345 1.6521-2.3594 0.05132z"/><path d="m43.668 26.025 2.4618 0.27309-0.20964 1.6348-2.3056-0.25577z"/><path d="m46.13 26.299 2.2367 0.58216-0.35152 1.5978-2.0948-0.54524z"/><path d="m48.366 26.881 1.859 0.85174-0.46948 1.5438-1.7411-0.79768z"/><path d="m50.225 27.732 1.3547 1.0632-0.55542 1.4763-1.2688-0.99581z"/></g><g fill="#fc0" stroke="#cca300"><path d="m51.025 30.272 0.71004 1.126-0.35561 1.308-0.6817-1.081z"/><path d="m51.735 31.398 0.10286 1.1795-0.35971 1.2609-0.09876-1.1324z"/><path d="m51.838 32.577-0.51143 1.1525-0.33932 1.2149 0.49104-1.1065z"/><path d="m51.326 33.73-1.0906 1.0471-0.29576 1.1732 1.047-1.0053z"/><path d="m50.236 34.777-1.5956 0.87028-0.23208 1.1384 1.532-0.83554z"/><path d="m48.64 35.647-1.9919 0.63416-0.15257 1.1131 1.9124-0.60883z"/><path d="m46.648 36.282-2.2524 0.35483-0.06266 1.099 2.1625-0.34069z"/><path d="m44.396 36.636-2.3594 0.05131 0.03151 1.0969 2.2652-0.04926z"/><path d="m42.036 36.688-2.3056-0.25575 0.12352 1.1071 2.2136 0.24555z"/><path d="m39.731 36.432-2.0948-0.54524 0.20714 1.1289 2.0112 0.52347z"/><path d="m37.636 35.887-1.7411-0.79772 0.27665 1.1607 1.6716 0.76587z"/><path d="m35.895 35.089-1.2688-0.99577 0.32727 1.2004 1.2181 0.95604z"/><path d="m34.626 34.093-0.71005-1.126 0.35562 1.2454 0.6817 1.081z"/><path d="m33.916 32.967-0.10285-1.1794 0.35971 1.2925 0.09876 1.1324z"/><path d="m33.813 31.788 0.51143-1.1525 0.33933 1.3385-0.49105 1.1065z"/><path d="m34.324 30.635 1.0906-1.0471 0.29577 1.3802-1.047 1.0054z"/><path d="m35.415 29.588 1.5956-0.87028 0.23208 1.415-1.532 0.83552z"/><path d="m37.011 28.718 1.9919-0.63414 0.15258 1.4403-1.9124 0.60883z"/><path d="m39.003 28.084 2.2524-0.35484 0.06267 1.4545-2.1625 0.3407z"/><path d="m41.255 27.729 2.3594-0.05132-0.03149 1.4565-2.2653 0.04927z"/><path d="m43.614 27.678 2.3056 0.25577-0.12352 1.4463-2.2136-0.24557z"/><path d="m45.92 27.933 2.0948 0.54524-0.20715 1.4246-2.0112-0.52348z"/><path d="m48.015 28.479 1.7411 0.79768-0.27663 1.3927-1.6716-0.76587z"/><path d="m49.756 29.276 1.2688 0.99581-0.32727 1.353-1.2181-0.95603z"/></g><g fill="#ffc300" stroke="#cc9c00"><path d="m50.697 31.625 0.6817 1.081-0.11722 1.2525-0.67236-1.0662z"/><path d="m51.379 32.706 0.09876 1.1324-0.1186 1.2369-0.09738-1.1168z"/><path d="m51.478 33.838-0.49104 1.1065-0.11184 1.2218 0.48428-1.0914z"/><path d="m50.987 34.945-1.047 1.0053-0.09751 1.208 1.0327-0.99155z"/><path d="m49.94 35.95-1.532 0.83554-0.07651 1.1965 1.511-0.82408z"/><path d="m48.408 36.786-1.9124 0.60883-0.0503 1.1882 1.8862-0.6005z"/><path d="m46.496 37.395-2.1625 0.34069-0.02067 1.1835 2.1329-0.33601z"/><path d="m44.333 37.735-2.2652 0.04926 0.01036 1.1828 2.2342-0.04859z"/><path d="m42.068 37.785-2.2136-0.24555 0.04073 1.1862 2.1833 0.2422z"/><path d="m39.854 37.539-2.0112-0.52347 0.06828 1.1934 1.9837 0.51628z"/><path d="m37.843 37.016-1.6716-0.76587 0.09118 1.2039 1.6487 0.75537z"/><path d="m36.171 36.25-1.2181-0.95604 0.1079 1.217 1.2014 0.94295z"/><path d="m34.953 35.294-0.6817-1.081 0.11722 1.2318 0.67238 1.0662z"/><path d="m34.271 34.213-0.09876-1.1324 0.11859 1.2473 0.09739 1.1168z"/><path d="m34.173 33.08 0.49105-1.1065 0.11184 1.2625-0.4843 1.0914z"/><path d="m34.664 31.974 1.047-1.0054 0.0975 1.2763-1.0327 0.99155z"/><path d="m35.711 30.968 1.532-0.83552 0.07652 1.2877-1.511 0.8241z"/><path d="m37.243 30.133 1.9124-0.60883 0.0503 1.296-1.8862 0.60048z"/><path d="m39.155 29.524 2.1625-0.3407 0.02066 1.3007-2.1329 0.33601z"/><path d="m41.318 29.183 2.2653-0.04927-0.01038 1.3014-2.2342 0.0486z"/><path d="m43.583 29.134 2.2136 0.24557-0.04073 1.298-2.1833-0.24219z"/><path d="m45.797 29.38 2.0112 0.52348-0.06826 1.2909-1.9837-0.51631z"/><path d="m47.808 29.903 1.6716 0.76587-0.09118 1.2804-1.6487-0.75537z"/><path d="m49.479 30.669 1.2181 0.95603-0.10788 1.2673-1.2014-0.94293z"/></g><g fill="#ffba00" stroke="#cc9500"><path d="m50.59 32.892 0.67236 1.0662 0.11751 1.2304-0.68172-1.0811z"/><path d="m51.262 33.958 0.09738 1.1168 0.11889 1.246-0.09876-1.1324z"/><path d="m51.359 35.075-0.48428 1.0914 0.11212 1.2612 0.49105-1.1066z"/><path d="m50.875 36.167-1.0327 0.99155 0.09775 1.275 1.047-1.0054z"/><path d="m49.842 37.158-1.511 0.82408 0.07671 1.2865 1.532-0.83557z"/><path d="m48.331 37.982-1.8862 0.6005 0.05042 1.2948 1.9125-0.60885z"/><path d="m46.445 38.583-2.1329 0.33601 0.02071 1.2995 2.1626-0.3407z"/><path d="m44.312 38.919-2.2342 0.04859-0.01039 1.3002 2.2653-0.04924z"/><path d="m42.078 38.967-2.1833-0.2422-0.04084 1.2968 2.2137 0.24553z"/><path d="m39.895 38.725-1.9837-0.51628-0.06847 1.2896 2.0113 0.52351z"/><path d="m37.911 38.209-1.6487-0.75537-0.09143 1.2791 1.6717 0.7659z"/><path d="m36.262 37.454-1.2014-0.94295-0.10817 1.266 1.2182 0.95605z"/><path d="m35.061 36.511-0.67238-1.0662-0.11753 1.2511 0.68174 1.0811z"/><path d="m34.389 35.444-0.09739-1.1168-0.11889 1.2355 0.09875 1.1324z"/><path d="m34.291 34.328 0.4843-1.0914-0.11213 1.2204-0.49106 1.1066z"/><path d="m34.776 33.236 1.0327-0.99155-0.09774 1.2065-1.0471 1.0054z"/><path d="m35.808 32.245 1.511-0.8241-0.07672 1.1951-1.532 0.83556z"/><path d="m37.319 31.421 1.8862-0.60048-0.05043 1.1867-1.9125 0.60886z"/><path d="m39.205 30.82 2.1329-0.33601-0.02071 1.182-2.1626 0.34069z"/><path d="m41.338 30.484 2.2342-0.0486 0.01041 1.1813-2.2653 0.04927z"/><path d="m43.573 30.435 2.1833 0.24219 0.04084 1.1847-2.2137-0.24556z"/><path d="m45.756 30.678 1.9837 0.51631 0.06843 1.1919-2.0113-0.52348z"/><path d="m47.739 31.194 1.6487 0.75537 0.09141 1.2024-1.6717-0.7659z"/><path d="m49.388 31.949 1.2014 0.94293 0.10815 1.2156-1.2182-0.95608z"/></g><g fill="#ffb100" stroke="#cc8e00"><path d="m50.698 34.108 0.68172 1.0811 0.35512 1.2457-0.71004-1.126z"/><path d="m51.379 35.189 0.09876 1.1324 0.3592 1.2927-0.10284-1.1794z"/><path d="m51.478 36.321-0.49105 1.1066 0.33882 1.3387 0.51143-1.1525z"/><path d="m50.987 37.428-1.047 1.0054 0.29535 1.3804 1.0905-1.0471z"/><path d="m49.94 38.433-1.532 0.83557 0.23175 1.4151 1.5956-0.87024z"/><path d="m48.408 39.269-1.9125 0.60885 0.15238 1.4404 1.9919-0.63413z"/><path d="m46.496 39.878-2.1626 0.3407 0.06257 1.4545 2.2524-0.35482z"/><path d="m44.333 40.218-2.2653 0.04924-0.03147 1.4566 2.3594-0.05134z"/><path d="m42.068 40.268-2.2137-0.24553-0.12335 1.4464 2.3056 0.25576z"/><path d="m39.854 40.022-2.0113-0.52351-0.20683 1.4246 2.0948 0.54522z"/><path d="m37.843 39.499-1.6717-0.7659-0.27623 1.3928 1.7411 0.79769z"/><path d="m36.171 38.733-1.2182-0.95605-0.32682 1.3531 1.2687 0.99577z"/><path d="m34.953 37.777-0.68174-1.0811-0.3551 1.3083 0.71002 1.1259z"/><path d="m34.271 36.695-0.09875-1.1324-0.35919 1.2613 0.10284 1.1794z"/><path d="m34.172 35.563 0.49106-1.1066-0.33882 1.2153-0.51143 1.1525z"/><path d="m34.663 34.457 1.0471-1.0054-0.29537 1.1736-1.0905 1.0471z"/><path d="m35.711 33.451 1.532-0.83556-0.23175 1.1389-1.5956 0.87025z"/><path d="m37.243 32.616 1.9125-0.60886-0.15237 1.1136-1.9919 0.63413z"/><path d="m39.155 32.007 2.1626-0.34069-0.06257 1.0995-2.2524 0.35484z"/><path d="m41.318 31.666 2.2653-0.04927 0.03145 1.0974-2.3594 0.0513z"/><path d="m43.583 31.617 2.2137 0.24556 0.12335 1.1076-2.3056-0.25575z"/><path d="m45.797 31.862 2.0113 0.52348 0.20685 1.1294-2.0948-0.54521z"/><path d="m47.808 32.386 1.6717 0.7659 0.27625 1.1612-1.7411-0.7977z"/><path d="m49.48 33.152 1.2182 0.95608 0.3268 1.2008-1.2687-0.99576z"/></g><g fill="#ffa800" stroke="#cc8700"><path d="m51.025 35.309 0.71004 1.126 0.60338 1.2937-0.75812-1.2022z"/><path d="m51.735 36.435 0.10284 1.1794 0.61035 1.3736-0.10981-1.2593z"/><path d="m51.837 37.614-0.51143 1.1525 0.57572 1.4516 0.54606-1.2306z"/><path d="m51.326 38.767-1.0905 1.0471 0.50185 1.5225 1.1644-1.118z"/><path d="m50.235 39.814-1.5956 0.87024 0.3938 1.5814 1.7037-0.92918z"/><path d="m48.64 40.684-1.9919 0.63413 0.25888 1.6244 2.1268-0.67708z"/><path d="m46.648 41.318-2.2524 0.35482 0.10636 1.6485 2.4049-0.37888z"/><path d="m44.396 41.673-2.3594 0.05134-0.05345 1.6519 2.5192-0.05478z"/><path d="m42.036 41.724-2.3056-0.25576-0.20959 1.6346 2.4617 0.27307z"/><path d="m39.731 41.468-2.0948-0.54522-0.35147 1.5977 2.2366 0.58214z"/><path d="m37.636 40.923-1.7411-0.79769-0.46937 1.5436 1.859 0.85173z"/><path d="m35.895 40.125-1.2687-0.99577-0.55529 1.4762 1.3547 1.0632z"/><path d="m34.626 39.13-0.71002-1.1259-0.60338 1.3999 0.75811 1.2022z"/><path d="m33.916 38.004-0.10284-1.1794-0.61035 1.3201 0.10981 1.2593z"/><path d="m33.813 36.824 0.51143-1.1525-0.57572 1.242-0.54606 1.2306z"/><path d="m34.325 35.672 1.0905-1.0471-0.50185 1.1711-1.1644 1.118z"/><path d="m35.415 34.625 1.5956-0.87025-0.39378 1.1122-1.7037 0.92921z"/><path d="m37.011 33.754 1.9919-0.63413-0.25888 1.0692-2.1268 0.67706z"/><path d="m39.003 33.12 2.2524-0.35484-0.10636 1.0452-2.4049 0.37888z"/><path d="m41.255 32.766 2.3594-0.0513 0.05345 1.0417-2.5192 0.05478z"/><path d="m43.614 32.714 2.3056 0.25575 0.2096 1.059-2.4618-0.27306z"/><path d="m45.92 32.97 2.0948 0.54521 0.35147 1.096-2.2366-0.58217z"/><path d="m48.015 33.515 1.7411 0.7977 0.46937 1.15-1.859-0.85171z"/><path d="m49.756 34.313 1.2687 0.99576 0.5553 1.2174-1.3546-1.0632z"/></g><g fill="#ff9e00" stroke="#cc7f00"><path d="m51.58 36.526 0.75812 1.2022 0.86845 1.378-0.82735-1.312z"/><path d="m52.338 37.728 0.10981 1.2593 0.87847 1.493-0.11983-1.3742z"/><path d="m52.448 38.988-0.54606 1.2306 0.82861 1.6054 0.59592-1.3429z"/><path d="m51.902 40.218-1.1644 1.118 0.72232 1.7074 1.2707-1.2201z"/><path d="m50.737 41.336-1.7037 0.92918 0.56678 1.7923 1.8592-1.014z"/><path d="m49.034 42.265-2.1268 0.67708 0.37262 1.8541 2.321-0.73889z"/><path d="m46.907 42.942-2.4049 0.37888 0.15309 1.8886 2.6244-0.41345z"/><path d="m44.502 43.321-2.5192 0.05478-0.0769 1.8936 2.7492-0.05978z"/><path d="m41.983 43.376-2.4617-0.27307-0.30166 1.8687 2.6865 0.29798z"/><path d="m39.521 43.103-2.2366-0.58214-0.50583 1.8156 2.4408 0.6353z"/><path d="m37.284 42.521-1.859-0.85173-0.67555 1.7378 2.0287 0.92948z"/><path d="m35.425 41.669-1.3547-1.0632-0.79923 1.6408 1.4783 1.1603z"/><path d="m34.071 40.606-0.75811-1.2022-0.86844 1.531 0.82732 1.312z"/><path d="m33.313 39.404-0.10981-1.2593-0.87847 1.416 0.11984 1.3742z"/><path d="m33.203 38.144 0.54606-1.2306-0.82861 1.3037-0.59592 1.3429z"/><path d="m33.749 36.914 1.1644-1.118-0.72231 1.2016-1.2707 1.2201z"/><path d="m34.913 35.796 1.7037-0.92921-0.5668 1.1168-1.8592 1.014z"/><path d="m36.617 34.867 2.1268-0.67706-0.37262 1.055-2.321 0.73887z"/><path d="m38.744 34.19 2.4049-0.37888-0.15309 1.0204-2.6244 0.41347z"/><path d="m41.149 33.811 2.5192-0.05478 0.0769 1.0154-2.7492 0.05977z"/><path d="m43.668 33.756 2.4618 0.27306 0.30164 1.0403-2.6865-0.29799z"/><path d="m46.13 34.029 2.2366 0.58217 0.50583 1.0935-2.4408-0.6353z"/><path d="m48.366 34.611 1.859 0.85171 0.67556 1.1712-2.0287-0.92946z"/><path d="m50.225 35.463 1.3546 1.0632 0.79922 1.2683-1.4783-1.1603z"/></g><g fill="#ff9300" stroke="#cc7600"><path d="m52.379 37.794 0.82735 1.312 1.1574 1.5006-0.91957-1.4582z"/><path d="m53.206 39.106 0.11983 1.3742 1.1708 1.6538-0.13322-1.5275z"/><path d="m53.326 40.481-0.59592 1.3429 1.1043 1.8035 0.66236-1.4926z"/><path d="m52.73 41.823-1.2707 1.2201 0.96264 1.9396 1.4123-1.3561z"/><path d="m51.46 43.044-1.8592 1.014 0.75534 2.0526 2.0665-1.1271z"/><path d="m49.6 44.058-2.321 0.73889 0.4966 2.135 2.5797-0.82126z"/><path d="m47.28 44.796-2.6244 0.41345 0.20398 2.1811 2.9171-0.45956z"/><path d="m44.655 45.21-2.7492 0.05978-0.10251 2.1878 3.0556-0.06644z"/><path d="m41.906 45.27-2.6865-0.29798-0.40199 2.1545 2.986 0.33123z"/><path d="m39.219 44.972-2.4408-0.6353-0.67415 2.0837 2.713 0.70611z"/><path d="m36.779 44.336-2.0287-0.92948-0.90032 1.9801 2.2548 1.0331z"/><path d="m34.75 43.407-1.4783-1.1603-1.0651 1.8507 1.6431 1.2896z"/><path d="m33.272 42.247-0.82732-1.312-1.1574 1.7044 0.91957 1.4582z"/><path d="m32.444 40.935-0.11984-1.3742-1.1707 1.5512 0.1332 1.5275z"/><path d="m32.324 39.56 0.59592-1.3429-1.1043 1.4015-0.66234 1.4926z"/><path d="m32.92 38.218 1.2707-1.2201-0.96265 1.2655-1.4123 1.3561z"/><path d="m34.191 36.997 1.8592-1.014-0.75536 1.1524-2.0665 1.1271z"/><path d="m36.05 35.983 2.321-0.73887-0.49658 1.07-2.5797 0.82126z"/><path d="m38.371 35.245 2.6244-0.41347-0.20399 1.024-2.917 0.45956z"/><path d="m40.996 34.831 2.7492-0.05977 0.10251 1.0173-3.0557 0.06646z"/><path d="m43.745 34.771 2.6865 0.29799 0.402 1.0505-2.986-0.33123z"/><path d="m46.431 35.069 2.4408 0.6353 0.67415 1.1213-2.713-0.70613z"/><path d="m48.872 35.705 2.0287 0.92946 0.90031 1.225-2.2548-1.0331z"/><path d="m50.901 36.634 1.4783 1.1603 1.0651 1.3543-1.6431-1.2896z"/></g><g fill="#ff8700" stroke="#cc6c00"><path d="m53.444 39.149 0.91957 1.4582 1.4784 1.6649-1.0374-1.6451z"/><path d="m54.364 40.607 0.13322 1.5275 1.4955 1.8606-0.15026-1.7232z"/><path d="m54.497 42.134-0.66236 1.4926 1.4106 2.0518 0.74722-1.6839z"/><path d="m53.835 43.627-1.4123 1.3561 1.2296 2.2256 1.5933-1.5299z"/><path d="m52.422 44.983-2.0665 1.1271 0.96486 2.37 2.3313-1.2715z"/><path d="m50.356 46.11-2.5797 0.82126 0.63432 2.4752 2.9102-0.9265z"/><path d="m47.776 46.931-2.9171 0.45956 0.26057 2.5341 3.2908-0.51843z"/><path d="m44.859 47.391-3.0556 0.06644-0.13094 2.5426 3.4472-0.07498z"/><path d="m41.803 47.457-2.986-0.33123-0.51355 2.5002 3.3686 0.37369z"/><path d="m38.817 47.126-2.713-0.70611-0.86113 2.4097 3.0606 0.79658z"/><path d="m36.104 46.42-2.2548-1.0331-1.15 2.2773 2.5438 1.1655z"/><path d="m33.85 45.387-1.6431-1.2896-1.3606 2.1121 1.8537 1.4549z"/><path d="m32.206 44.097-0.91957-1.4582-1.4784 1.9252 1.0374 1.6451z"/><path d="m31.287 42.639-0.1332-1.5275-1.4955 1.7295 0.15027 1.7232z"/><path d="m31.154 41.112 0.66234-1.4926-1.4106 1.5383-0.74722 1.6839z"/><path d="m31.816 39.619 1.4123-1.3561-1.2296 1.3646-1.5933 1.5299z"/><path d="m33.228 38.263 2.0665-1.1271-0.96484 1.2201-2.3313 1.2715z"/><path d="m35.295 37.136 2.5797-0.82126-0.63434 1.1149-2.9102 0.92649z"/><path d="m37.875 36.315 2.917-0.45956-0.26056 1.056-3.2908 0.51844z"/><path d="m40.792 35.855 3.0557-0.06646 0.13094 1.0475-3.4472 0.07497z"/><path d="m43.847 35.789 2.986 0.33123 0.51355 1.09-3.3686-0.37368z"/><path d="m46.833 36.12 2.713 0.70613 0.86113 1.1804-3.0606-0.79658z"/><path d="m49.546 36.826 2.2548 1.0331 1.15 1.3128-2.5438-1.1655z"/><path d="m51.801 37.859 1.6431 1.2896 1.3606 1.478-1.8537-1.4549z"/></g><g fill="#ff7a00" stroke="#cc6100"><path d="m54.805 40.627 1.0374 1.6451 1.8412 1.8763-1.1841-1.8778z"/><path d="m55.842 42.272 0.15026 1.7232 1.8624 2.12-0.17152-1.9669z"/><path d="m55.992 43.995-0.74722 1.6839 1.7567 2.3582 0.85292-1.9221z"/><path d="m55.245 45.679-1.5933 1.5299 1.5314 2.5746 1.8187-1.7462z"/><path d="m53.652 47.209-2.3313 1.2715 1.2016 2.7544 2.661-1.4513z"/><path d="m51.321 48.48-2.9102 0.9265 0.79 2.8855 3.3219-1.0575z"/><path d="m48.41 49.407-3.2908 0.51843 0.32453 2.9588 3.7563-0.59177z"/><path d="m45.12 49.925-3.4472 0.07498-0.16307 2.9694 3.9348-0.08557z"/><path d="m41.672 50-3.3686-0.37369-0.63954 2.9166 3.8451 0.42653z"/><path d="m38.304 49.626-3.0606-0.79658-1.0724 2.8039 3.4935 0.90925z"/><path d="m35.243 48.83-2.5438-1.1655-1.4322 2.6391 2.9036 1.3303z"/><path d="m32.7 47.664-1.8537-1.4549-1.6945 2.4333 2.1159 1.6606z"/><path d="m30.846 46.209-1.0374-1.6451-1.8412 2.2006 1.1841 1.8778z"/><path d="m29.808 44.564-0.15027-1.7232-1.8624 1.9568 0.17152 1.9669z"/><path d="m29.658 42.841 0.74722-1.6839-1.7567 1.7187-0.85292 1.922z"/><path d="m30.405 41.157 1.5933-1.5299-1.5314 1.5023-1.8187 1.7463z"/><path d="m31.999 39.628 2.3313-1.2715-1.2016 1.3224-2.661 1.4513z"/><path d="m34.33 38.356 2.9102-0.92649-0.79001 1.1914-3.3219 1.0575z"/><path d="m37.24 37.43 3.2908-0.51844-0.32453 1.118-3.7563 0.59177z"/><path d="m40.531 36.911 3.4472-0.07497 0.16307 1.1074-3.9348 0.08557z"/><path d="m43.978 36.836 3.3686 0.37368 0.63954 1.1603-3.8451-0.42653z"/><path d="m47.347 37.21 3.0606 0.79658 1.0724 1.273-3.4935-0.90927z"/><path d="m50.407 38.006 2.5438 1.1655 1.4322 1.4378-2.9036-1.3303z"/><path d="m52.951 39.172 1.8537 1.4549 1.6944 1.6436-2.1159-1.6606z"/></g><g fill="#ff6a00" stroke="#c50"><path d="m56.499 42.27 1.1841 1.8778 2.2546 2.1387-1.3638-2.1627z"/><path d="m57.683 44.148 0.17152 1.9669 2.2806 2.4372-0.19754-2.2654z"/><path d="m57.855 46.115-0.85292 1.9221 2.1512 2.7288 0.98233-2.2137z"/><path d="m57.002 48.037-1.8187 1.7462 1.8752 2.9938 2.0946-2.0112z"/><path d="m55.183 49.783-2.661 1.4513 1.4714 3.214 3.0648-1.6716z"/><path d="m52.522 51.235-3.3219 1.0575 0.96735 3.3745 3.8259-1.218z"/><path d="m49.2 52.292-3.7563 0.59177 0.39736 3.4643 4.3263-0.68156z"/><path d="m45.444 52.884-3.9348 0.08557-0.19968 3.4772 4.5318-0.09854z"/><path d="m41.509 52.969-3.8451-0.42653-0.78312 3.4125 4.4285 0.49124z"/><path d="m37.664 52.543-3.4935-0.90925-1.3132 3.2746 4.0236 1.0472z"/><path d="m34.171 51.634-2.9036-1.3303-1.7538 3.0727 3.3441 1.5322z"/><path d="m31.267 50.303-2.1159-1.6606-2.0749 2.8207 2.4369 1.9126z"/><path d="m29.151 48.643-1.1841-1.8778-2.2546 2.5358 1.3638 2.1627z"/><path d="m27.967 46.765-0.17152-1.9669-2.2806 2.2373 0.19754 2.2654z"/><path d="m27.796 44.798 0.85292-1.922-2.1512 1.9457-0.98233 2.2137z"/><path d="m28.649 42.876 1.8187-1.7463-1.8752 1.6807-2.0946 2.0112z"/><path d="m30.467 41.13 2.661-1.4513-1.4714 1.4605-3.0648 1.6715z"/><path d="m33.128 39.678 3.3219-1.0575-0.96735 1.3-3.8259 1.218z"/><path d="m36.45 38.621 3.7563-0.59177-0.39737 1.2102-4.3263 0.68155z"/><path d="m40.207 38.029 3.9348-0.08557 0.19967 1.1972-4.5318 0.09856z"/><path d="m44.141 37.944 3.8451 0.42653 0.78312 1.2619-4.4285-0.49123z"/><path d="m47.986 38.37 3.4935 0.90927 1.3132 1.3999-4.0236-1.0473z"/><path d="m51.48 39.279 2.9036 1.3303 1.7538 1.6018-3.3442-1.5322z"/><path d="m54.383 40.61 2.1159 1.6606 2.0749 1.8538-2.4369-1.9126z"/></g><g fill="#ff5800" stroke="#cc4600"><path d="m58.574 44.124 1.3638 2.1627 2.731 2.4617-1.5815-2.5078z"/><path d="m59.938 46.287 0.19754 2.2654 2.7625 2.8232-0.22908-2.6269z"/><path d="m60.135 48.552-0.98233 2.2137 2.6057 3.1765 1.1391-2.567z"/><path d="m59.153 50.766-2.0946 2.0112 2.2715 3.4975 2.4289-2.3322z"/><path d="m57.058 52.777-3.0648 1.6716 1.7824 3.7642 3.5539-1.9383z"/><path d="m53.994 54.449-3.8259 1.218 1.1718 3.9586 4.4365-1.4124z"/><path d="m50.168 55.667-4.3263 0.68156 0.48135 4.0674 5.0167-0.79032z"/><path d="m45.842 56.348-4.5318 0.09854-0.24187 4.0831 5.255-0.11427z"/><path d="m41.31 56.447-4.4285-0.49124-0.94861 4.0048 5.1352 0.56961z"/><path d="m36.881 55.955-4.0236-1.0472-1.5907 3.8376 4.6657 1.2144z"/><path d="m32.858 54.908-3.3441-1.5322-2.1244 3.5931 3.8778 1.7767z"/><path d="m29.513 53.376-2.4369-1.9126-2.5133 3.2878 2.8258 2.2179z"/><path d="m27.077 51.463-1.3638-2.1627-2.731 2.9427 1.5815 2.5078z"/><path d="m25.713 49.301-0.19754-2.2654-2.7625 2.5812 0.22908 2.6269z"/><path d="m25.515 47.035 0.98233-2.2137-2.6057 2.2279-1.1391 2.567z"/><path d="m26.498 44.822 2.0946-2.0112-2.2714 1.9069-2.4289 2.3322z"/><path d="m28.592 42.81 3.0648-1.6715-1.7824 1.6402-3.5539 1.9383z"/><path d="m31.657 41.139 3.8259-1.218-1.1718 1.4458-4.4365 1.4124z"/><path d="m35.483 39.921 4.3263-0.68155-0.48134 1.337-5.0167 0.79032z"/><path d="m39.809 39.239 4.5318-0.09856 0.24188 1.3213-5.255 0.11429z"/><path d="m44.341 39.141 4.4285 0.49123 0.94861 1.3997-5.1352-0.56964z"/><path d="m48.769 39.632 4.0236 1.0473 1.5907 1.5668-4.6657-1.2144z"/><path d="m52.793 40.679 3.3442 1.5322 2.1244 1.8114-3.8779-1.7767z"/><path d="m56.137 42.211 2.4369 1.9126 2.5133 2.1166-2.8258-2.2179z"/></g><g fill="#ff4300" stroke="#cc3600"><path d="m61.087 46.241 1.5815 2.5078 3.2838 2.853-1.8432-2.9228z"/><path d="m62.669 48.748 0.22908 2.6269 3.3217 3.2877-0.26698-3.0616z"/><path d="m62.898 51.375-1.1391 2.567 3.1332 3.7125 1.3276-2.9918z"/><path d="m61.759 53.942-2.4289 2.3322 2.7312 4.0985 2.8309-2.7181z"/><path d="m59.33 56.275-3.5539 1.9383 2.1431 4.4192 4.142-2.2591z"/><path d="m55.776 58.213-4.4365 1.4124 1.409 4.653 5.1707-1.6461z"/><path d="m51.34 59.625-5.0167 0.79032 0.57881 4.7838 5.8468-0.92111z"/><path d="m46.323 60.416-5.255 0.11427-0.29083 4.8027 6.1247-0.13319z"/><path d="m41.068 60.53-5.1352-0.56961-1.1406 4.7084 5.985 0.66391z"/><path d="m35.933 59.96-4.6657-1.2144-1.9128 4.5074 5.4378 1.4153z"/><path d="m31.267 58.746-3.8778-1.7767-2.5545 4.2134 4.5196 2.0707z"/><path d="m27.389 56.969-2.8258-2.2179-3.0221 3.8464 3.2935 2.5849z"/><path d="m24.563 54.751-1.5815-2.5078-3.2838 3.4314 1.8432 2.9228z"/><path d="m22.982 52.243-0.22908-2.6269-3.3217 2.9967 0.26698 3.0616z"/><path d="m22.753 49.617 1.1391-2.567-3.1332 2.5719-1.3276 2.9918z"/><path d="m23.892 47.05 2.4289-2.3322-2.7312 2.186-2.8309 2.7181z"/><path d="m26.321 44.717 3.5539-1.9383-2.1431 1.8652-4.142 2.259z"/><path d="m29.875 42.779 4.4365-1.4124-1.409 1.6315-5.1707 1.6461z"/><path d="m34.311 41.367 5.0167-0.79032-0.5788 1.5007-5.8469 0.92113z"/><path d="m39.328 40.576 5.255-0.11429 0.29084 1.4818-6.1247 0.13319z"/><path d="m44.583 40.462 5.1352 0.56964 1.1406 1.576-5.985-0.66389z"/><path d="m49.718 41.032 4.6657 1.2144 1.9128 1.777-5.4378-1.4154z"/><path d="m54.384 42.246 3.8779 1.7767 2.5545 2.071-4.5196-2.0707z"/><path d="m58.262 44.023 2.8258 2.2179 3.0221 2.438-3.2935-2.5849z"/></g><g fill="#ff2b00" stroke="#c20"><path d="m64.11 48.679 1.8432 2.9228 3.9274 3.323-2.1562-3.4192z"/><path d="m65.953 51.602 0.26698 3.0616 3.9727 3.8429-0.31233-3.5815z"/><path d="m66.22 54.663-1.3276 2.9918 3.7472 4.3509 1.5531-3.4998z"/><path d="m64.892 57.655-2.8309 2.7181 3.2665 4.8125 3.3116-3.1797z"/><path d="m62.061 60.373-4.142 2.2591 2.5632 5.1961 4.8454-2.6427z"/><path d="m57.919 62.632-5.1707 1.6461 1.6851 5.4757 6.0488-1.9257z"/><path d="m52.748 64.278-5.8468 0.92111 0.6922 5.6321 6.8397-1.0775z"/><path d="m46.902 65.199-6.1247 0.13319-0.34785 5.6547 7.1647-0.15582z"/><path d="m40.777 65.333-5.985-0.66391-1.3642 5.542 7.0014 0.77665z"/><path d="m34.792 64.669-5.4378-1.4153-2.2876 5.3016 6.3612 1.6557z"/><path d="m29.354 63.253-4.5196-2.0707-3.0551 4.95 5.2871 2.4223z"/><path d="m24.835 61.183-3.2935-2.5849-3.6144 4.511 3.8528 3.0238z"/><path d="m21.541 58.598-1.8432-2.9228-3.9274 4.0147 2.1562 3.4192z"/><path d="m19.698 55.675-0.26698-3.0616-3.9727 3.4948 0.31232 3.5815z"/><path d="m19.431 52.613 1.3276-2.9918-3.7472 2.9867-1.553 3.4998z"/><path d="m20.759 49.622 2.8309-2.7181-3.2665 2.5252-3.3116 3.1797z"/><path d="m23.589 46.903 4.142-2.259-2.5632 2.1415-4.8454 2.6427z"/><path d="m27.731 44.644 5.1707-1.6461-1.6851 1.862-6.0488 1.9256z"/><path d="m32.902 42.998 5.8469-0.92113-0.6922 1.7056-6.8398 1.0775z"/><path d="m38.749 42.077 6.1247-0.13319 0.34784 1.683-7.1647 0.15581z"/><path d="m44.874 41.944 5.985 0.66389 1.3642 1.7957-7.0014-0.77664z"/><path d="m50.859 42.608 5.4378 1.4154 2.2876 2.036-6.3612-1.6557z"/><path d="m56.296 44.023 4.5196 2.0707 3.0551 2.3877-5.287-2.4224z"/><path d="m60.816 46.094 3.2935 2.5849 3.6144 2.8266-3.8528-3.0238z"/></g><g fill="#ff0f00" stroke="#cc0c00"><path d="m67.724 51.505 2.1562 3.4192 4.6808 3.8859-2.5292-4.0107z"/><path d="m69.88 54.925 0.31233 3.5815 4.7348 4.5055-0.36635-4.2012z"/><path d="m70.192 58.506-1.5531 3.4998 4.4661 5.111 1.8218-4.1053z"/><path d="m68.639 62.006-3.3116 3.1797 3.8932 5.6612 3.8845-3.7298z"/><path d="m65.328 65.186-4.8454 2.6427 3.0549 6.1184 5.6837-3.0999z"/><path d="m60.482 67.828-6.0488 1.9257 2.0084 6.4515 7.0953-2.2588z"/><path d="m54.434 69.754-6.8397 1.0775 0.82501 6.638 8.0231-1.264z"/><path d="m47.594 70.831-7.1647 0.15582-0.41456 6.665 8.4043-0.18279z"/><path d="m40.429 70.987-7.0014-0.77665-1.6259 6.5306 8.2127 0.91102z"/><path d="m33.428 70.211-6.3612-1.6557-2.7264 6.2441 7.4617 1.9421z"/><path d="m27.067 68.555-5.2871-2.4223-3.6412 5.825 6.2018 2.8414z"/><path d="m21.78 66.133-3.8528-3.0238-4.3077 5.3019 4.5193 3.547z"/><path d="m17.927 63.109-2.1562-3.4192-4.6808 4.7103 2.5292 4.0107z"/><path d="m15.771 59.69-0.31232-3.5815-4.7348 4.0907 0.36635 4.2012z"/><path d="m15.458 56.108 1.553-3.4998-4.4661 3.4852-1.8218 4.1053z"/><path d="m17.011 52.608 3.3116-3.1797-3.8932 2.935-3.8846 3.7298z"/><path d="m20.323 49.429 4.8454-2.6427-3.0549 2.4778-5.6837 3.0999z"/><path d="m25.168 46.786 6.0488-1.9256-2.0084 2.1446-7.0952 2.2588z"/><path d="m31.217 44.86 6.8398-1.0775-0.82502 1.9582-8.0231 1.264z"/><path d="m38.057 43.783 7.1647-0.15581 0.41456 1.9313-8.4043 0.18276z"/><path d="m45.222 43.627 7.0014 0.77664 1.6259 2.0656-8.2127-0.91101z"/><path d="m52.223 44.404 6.3612 1.6557 2.7264 2.3521-7.4618-1.9421z"/><path d="m58.584 46.059 5.287 2.4224 3.6412 2.7712-6.2018-2.8414z"/><path d="m63.871 48.482 3.8528 3.0238 4.3077 3.2943-4.5193-3.547z"/></g></g></g></g></g></g></g></svg>
