<?xml version="1.0" encoding="UTF-8" standalone="no"?>
<!-- Created with Inkscape (http://www.inkscape.org/) -->

<svg
   version="1.1"
   id="svg2"
   xml:space="preserve"
   width="182.48"
   height="182.48"
   viewBox="0 0 182.48 182.48"
   xmlns="http://www.w3.org/2000/svg"
   xmlns:svg="http://www.w3.org/2000/svg"><defs
     id="defs6"><clipPath
       clipPathUnits="userSpaceOnUse"
       id="clipPath22"><path
         d="M -68.03217,-68.03217 V 68.03217 H 68.03217 V -68.03217 Z"
         id="path20" /></clipPath><clipPath
       clipPathUnits="userSpaceOnUse"
       id="clipPath36"><path
         d="M 0,0 H 100 V 100 H 0 Z"
         id="path34" /></clipPath><linearGradient
       x1="0"
       y1="0"
       x2="0"
       y2="100.00128"
       gradientUnits="userSpaceOnUse"
       id="linearGradient48"><stop
         style="stop-opacity:1;stop-color:#ffffff"
         offset="0"
         id="stop38" /><stop
         style="stop-opacity:1;stop-color:#ffffff"
         offset="25.00032"
         id="stop40" /><stop
         style="stop-opacity:1;stop-color:#ff8080"
         offset="50.00064"
         id="stop42" /><stop
         style="stop-opacity:1;stop-color:#ff0000"
         offset="75.00096"
         id="stop44" /><stop
         style="stop-opacity:1;stop-color:#ff0000"
         offset="100.00128"
         id="stop46" /></linearGradient></defs><g
     id="g8"
     transform="matrix(1.3333333,0,0,-1.3333333,0,182.48)"><g
       id="g10"
       transform="translate(68.43,68.43)"><g
         id="g12"><g
           id="g14"><g
             id="g16"><g
               id="g18"
               clip-path="url(#clipPath22)"><g
                 id="g24"
                 transform="matrix(1.9130308,-1.9130308,1.9130308,1.9130308,0,0)"><g
                   id="g26"><g
                     id="g28"
                     transform="translate(-50,-50)"><g
                       id="g30"><g
                         id="g32"
                         clip-path="url(#clipPath36)"><path
                           d="M 0,0 H 100 V 100 H 0 Z"
                           style="fill:url(#linearGradient48);stroke:none"
                           id="path50" /></g></g></g></g></g></g></g><g
             id="g52"><path
               d="M -68.03217,-56.69362 H 68.03217 M -68.03217,-28.3468 H 68.03217 M -68.03217,0 H 68.03217 M -68.03217,28.3468 H 68.03217 M -68.03217,56.69362 H 68.03217 M -56.69362,-68.03217 V 68.03217 M -28.3468,-68.03217 V 68.03217 M 0,-68.03217 V 68.03217 M 28.3468,-68.03217 V 68.03217 M 56.69362,-68.03217 V 68.03217"
               style="fill:none;stroke:#808080;stroke-width:0.19925;stroke-linecap:butt;stroke-linejoin:miter;stroke-miterlimit:10;stroke-dasharray:none;stroke-opacity:1"
               id="path54" /></g><g
             id="g56"><path
               d="M -68.03217,0 H 67.3248"
               style="fill:none;stroke:#000000;stroke-width:0.79701;stroke-linecap:butt;stroke-linejoin:miter;stroke-miterlimit:10;stroke-dasharray:none;stroke-opacity:1"
               id="path58" /><g
               id="g60"
               transform="translate(67.3248)"><g
                 id="g62"><path
                   d="M -1.55415,2.0722 C -1.42464,1.29512 0,0.1295 0.38852,0 0,-0.1295 -1.42464,-1.29512 -1.55415,-2.0722"
                   style="fill:none;stroke:#000000;stroke-width:0.6376;stroke-linecap:round;stroke-linejoin:round;stroke-miterlimit:10;stroke-dasharray:none;stroke-opacity:1"
                   id="path64" /></g></g><g
               id="g66"><g
                 id="g68"
                 transform="translate(58.618,-8.009)"><g
                   id="g70"><g
                     id="g72"
                     transform="translate(-127.048,-60.421)"><g
                       aria-label="x"
                       transform="matrix(1,0,0,-1,127.048,60.421)"
                       id="text76"
                       style="font-size:9.9626px;font-family:CMMI10;-inkscape-font-specification:CMMI10"><path
                         d="m 0.77832811,-0.28700849 q 0.17512382,0.13620742 0.49618419,0.13620742 0.3113312,0 0.5496942,-0.29673759 0.238363,-0.30160214 0.3259249,-0.65671434 l 0.4524032,-1.7658319 q 0.1070201,-0.4815905 0.1070201,-0.6567143 0,-0.2480921 -0.141072,-0.432945 -0.1362074,-0.184853 -0.3842995,-0.184853 -0.3161957,0 -0.5934751,0.1994466 -0.2772794,0.194582 -0.4669969,0.5010487 -0.18971747,0.3016022 -0.26755028,0.6129334 -0.0194582,0.063239 -0.0778328,0.063239 H 0.65671434 q -0.0778328,0 -0.0778328,-0.092426 v -0.029187 q 0.097291,-0.3697058 0.33078944,-0.7199535 0.23349843,-0.3551122 0.56915243,-0.574017 0.3405185,-0.2189047 0.724818,-0.2189047 0.3648413,0 0.6567144,0.194582 0.2967376,0.194582 0.4183513,0.530236 0.1702593,-0.3064667 0.4329451,-0.5156424 0.2675502,-0.2091756 0.583746,-0.2091756 0.2140403,0 0.4378096,0.077833 0.2237693,0.072968 0.3648413,0.2286338 0.141072,0.1556657 0.141072,0.3891641 0,0.2529566 -0.1653948,0.4378096 -0.1605301,0.1799883 -0.4134868,0.1799883 -0.1605301,0 -0.2675503,-0.1021555 -0.1070201,-0.1021556 -0.1070201,-0.2578212 0,-0.2091757 0.141072,-0.3648413 0.1459365,-0.1605302 0.3453831,-0.1897175 -0.1799884,-0.141072 -0.4961842,-0.141072 -0.3210603,0 -0.5594233,0.2967376 -0.2334984,0.2967376 -0.3307894,0.6615789 l -0.4378096,1.7609674 q -0.1070201,0.3988931 -0.1070201,0.6567143 0,0.25295663 0.141072,0.43780956 0.1459365,0.17998837 0.3842995,0.17998837 0.4669968,0 0.8318381,-0.40862226 0.3697059,-0.4134868 0.4864551,-0.90480637 0.019458,-0.058375 0.077833,-0.058375 h 0.1216138 q 0.038916,0 0.063239,0.029187 0.024323,0.024323 0.024323,0.058375 0,0.00973 -0.00973,0.029187 -0.141072,0.59347514 -0.5934752,1.05560745 -0.4524032,0.46213232 -1.0215556,0.46213232 -0.3648413,0 -0.6615789,-0.19458203 -0.2918731,-0.19944658 -0.4134868,-0.53510057 -0.1556657,0.29187304 -0.4329451,0.51077782 -0.2724148,0.21890478 -0.583746,0.21890478 -0.2140403,0 -0.44267414,-0.07783282 -0.22376933,-0.07296826 -0.3648413,-0.22863388 -0.14107197,-0.15566562 -0.14107197,-0.3940286 0,-0.23349843 0.16053017,-0.42321587 0.16539473,-0.1945821 0.40862226,-0.1945821 0.16539468,0 0.27727938,0.1021556 0.1118847,0.097291 0.1118847,0.25782118 0,0.20917568 -0.141072,0.3648413 -0.13620742,0.15566563 -0.34538309,0.19458203 z"
                         id="path154" /></g><g
                       id="g78"
                       transform="translate(127.048,60.421)" /></g></g><g
                   id="g80"
                   transform="translate(-58.618,8.009)" /></g></g></g><g
             id="g82"><path
               d="M 0,-68.03217 V 67.3248"
               style="fill:none;stroke:#000000;stroke-width:0.79701;stroke-linecap:butt;stroke-linejoin:miter;stroke-miterlimit:10;stroke-dasharray:none;stroke-opacity:1"
               id="path84" /><g
               id="g86"
               transform="rotate(90,-33.6624,33.6624)"><g
                 id="g88"><path
                   d="M -1.55415,2.0722 C -1.42464,1.29512 0,0.1295 0.38852,0 0,-0.1295 -1.42464,-1.29512 -1.55415,-2.0722"
                   style="fill:none;stroke:#000000;stroke-width:0.6376;stroke-linecap:round;stroke-linejoin:round;stroke-miterlimit:10;stroke-dasharray:none;stroke-opacity:1"
                   id="path90" /></g></g><g
               id="g92"><g
                 id="g94"
                 transform="translate(-8.961,60.023)"><g
                   id="g96"><g
                     id="g98"
                     transform="translate(-59.469,-128.453)"><g
                       aria-label="y"
                       transform="matrix(1,0,0,-1,59.469,128.453)"
                       id="text102"
                       style="font-size:9.9626px;font-family:CMMI10;-inkscape-font-specification:CMMI10"><path
                         d="m 0.83670271,1.4253133 q 0.20917569,0.3599768 0.72968259,0.3599768 0.4718614,0 0.8172445,-0.3307895 Q 2.7290129,1.1237112 2.9381886,0.65184979 3.1522288,0.18485293 3.268978,-0.30646669 2.8263039,0.11188467 2.3106616,0.11188467 q -0.3940286,0 -0.671308,-0.13620742 Q 1.3620742,-0.16053017 1.2064086,-0.42808046 1.0556075,-0.7004953 1.0556075,-1.0847948 q 0,-0.3259249 0.087562,-0.6664434 0.087562,-0.3453831 0.2432275,-0.7637345 0.1605302,-0.4232159 0.2772794,-0.7345471 0.1313429,-0.3648413 0.1313429,-0.5983398 0,-0.2967376 -0.2189048,-0.2967376 -0.3940286,0 -0.65184977,0.4086223 -0.25295664,0.4037577 -0.37457041,0.9048064 -0.0194582,0.063239 -0.0826974,0.063239 H 0.35024765 q -0.0826974,0 -0.0826974,-0.092426 v -0.029187 q 0.16053017,-0.5934752 0.49131961,-1.0507429 0.3307894,-0.4621323 0.8367027,-0.4621323 0.3551122,0 0.5983397,0.2334984 0.2480921,0.2334984 0.2480921,0.5934752 0,0.1848529 -0.082697,0.389164 -0.043781,0.1216138 -0.1994466,0.530236 -0.1556656,0.4086223 -0.238363,0.6761726 -0.082697,0.2675503 -0.1362074,0.5253715 -0.05351,0.2578211 -0.05351,0.51564232 0,0.33078945 0.141072,0.55942333 0.141072,0.22863388 0.4475387,0.22863388 0.6177979,0 1.1091175,-0.75400535 L 4.1835136,-3.9743379 q 0.034052,-0.1313429 0.1556656,-0.2237693 0.1216138,-0.097291 0.2626857,-0.097291 0.1216138,0 0.2091757,0.077833 0.092427,0.077833 0.092427,0.2043111 0,0.058375 -0.00973,0.077833 L 3.9062342,0.0291873 Q 3.7748913,0.53996512 3.4246437,1.006962 3.074396,1.4739589 2.5782119,1.7561028 2.0868922,2.0431113 1.5517917,2.0431113 q -0.2578212,0 -0.5107779,-0.1021556 Q 0.78805721,1.8436647 0.63239159,1.6442181 0.47672596,1.4447715 0.47672596,1.1772213 q 0,-0.27241488 0.16053018,-0.47186145 0.16053017,-0.19944658 0.42808046,-0.19944658 0.1605302,0 0.2675503,0.097291 0.1118846,0.10215557 0.1118846,0.26268574 0,0.22863388 -0.1702592,0.39889318 -0.1702593,0.1702592 -0.39889318,0.1702592 -0.009729,-0.00486 -0.0194582,-0.00973 -0.009729,0 -0.0194582,0 z"
                         id="path157" /></g><g
                       id="g104"
                       transform="translate(59.469,128.453)" /></g></g><g
                   id="g106"
                   transform="translate(8.961,-60.023)" /></g></g></g><g
             id="g108"><path
               d="m 56.69362,0 c 0,31.31142 -25.3822,56.69362 -56.69362,56.69362 -31.31142,0 -56.69362,-25.3822 -56.69362,-56.69362 0,-31.31142 25.3822,-56.69362 56.69362,-56.69362 31.31142,0 56.69362,25.3822 56.69362,56.69362 z"
               style="fill:none;stroke:#000000;stroke-width:0.3985;stroke-linecap:butt;stroke-linejoin:miter;stroke-miterlimit:10;stroke-dasharray:2.98883, 2.98883;stroke-dashoffset:0;stroke-opacity:1"
               id="path110" /></g><g
             id="g112"><path
               d="m 56.69362,0 c 0,31.31142 -25.3822,56.69362 -56.69362,56.69362 -13.32733,0 -26.23343,-4.69824 -36.44217,-13.26422"
               style="fill:none;stroke:#000000;stroke-width:0.79701;stroke-linecap:butt;stroke-linejoin:miter;stroke-miterlimit:10;stroke-dasharray:none;stroke-opacity:1"
               id="path114" /><g
               id="g116"><path
                 d="m -33.6241,43.4294 c 0,1.5564 -1.26169,2.81808 -2.81807,2.81808 -1.5564,0 -2.81808,-1.26168 -2.81808,-2.81808 0,-1.5564 1.26168,-2.81809 2.81808,-2.81809 1.55638,0 2.81807,1.26169 2.81807,2.81809 z"
                 style="fill:#000000;fill-opacity:1;fill-rule:nonzero;stroke:none"
                 id="path118" /><g
                 id="g120"
                 transform="translate(-36.442,43.429)"><g
                   id="g122" /><g
                   id="g124"
                   transform="translate(36.442,-43.429)" /></g></g><g
               id="g126"><g
                 id="g128"
                 transform="translate(-32.723,32.238)"><g
                   id="g130"><g
                     id="g132"
                     transform="translate(-35.707,-100.668)"><g
                       aria-label="x"
                       transform="matrix(1,0,0,-1,35.707,100.668)"
                       id="text136"
                       style="font-size:9.9626px;font-family:CMBX10;-inkscape-font-specification:CMBX10"><path
                         d="M 5.4677549,-5.4482967 3.4976119,-2.7971166 5.5699105,0 H 4.514303 L 2.9284595,-2.1404023 1.342616,0 H 0.28700849 L 2.403088,-2.8506267 0.46699686,-5.4482967 H 1.5226044 l 1.4447715,1.9409557 1.4447715,-1.9409557 z"
                         id="path160" /></g><g
                       aria-label="("
                       transform="matrix(1,0,0,-1,41.754,100.668)"
                       id="text140"
                       style="font-size:9.9626px;font-family:CMR10;-inkscape-font-specification:CMR10"><path
                         d="M 3.0889897,2.4711917 Q 2.5344309,2.0333822 2.1306732,1.4642297 1.73178,0.89994187 1.4739589,0.25782119 1.2210022,-0.3842995 1.0945239,-1.0847948 0.96804558,-1.7852901 0.96804558,-2.4906499 q 0,-0.715089 0.12647832,-1.4155843 0.1264783,-0.7004953 0.3842995,-1.3474805 0.2626857,-0.6469853 0.6664434,-1.2112731 0.4037577,-0.5642879 0.9437229,-0.9875038 0,-0.019458 0.048646,-0.019458 h 0.092426 q 0.029187,0 0.05351,0.029187 0.024323,0.024323 0.024323,0.058375 0,0.043781 -0.019458,0.063239 -0.486455,0.4767259 -0.8123799,1.0215556 -0.3210604,0.5448297 -0.5205069,1.1626276 -0.1945821,0.6129334 -0.282144,1.2745123 -0.087562,0.6567143 -0.087562,1.3718033 0,3.16682244 1.6928636,4.8110406 0.029187,0.029187 0.029187,0.082697 0,0.024323 -0.029187,0.05351 -0.024323,0.034052 -0.048646,0.034052 h -0.092426 q -0.048646,0 -0.048646,-0.019458 z"
                         id="path163" /></g><g
                       aria-label="t"
                       transform="matrix(1,0,0,-1,45.628,100.668)"
                       id="text144"
                       style="font-size:9.9626px;font-family:CMMI10;-inkscape-font-specification:CMMI10"><path
                         d="m 0.61779793,-0.80751541 q 0,-0.14593652 0.0291873,-0.27727939 L 1.3669387,-3.9451506 H 0.32106034 q -0.10215556,0 -0.10215556,-0.1313429 0.0389164,-0.2189047 0.13134287,-0.2189047 H 1.4545006 l 0.3988932,-1.62476 q 0.038916,-0.1313428 0.1556656,-0.2237693 0.1167492,-0.092426 0.2626858,-0.092426 0.1264783,0 0.2091756,0.077833 0.087562,0.072968 0.087562,0.1994465 0,0.029187 -0.00486,0.048646 0,0.014594 -0.00486,0.034052 l -0.3988931,1.580979 h 1.0264202 q 0.1021555,0 0.1021555,0.1313428 -0.00486,0.024323 -0.019458,0.082697 -0.014594,0.058375 -0.038916,0.097291 -0.024323,0.038916 -0.072968,0.038916 H 2.0722986 l -0.715089,2.879814 q -0.072968,0.28214394 -0.072968,0.48645507 0,0.42808046 0.291873,0.42808046 0.4378096,0 0.7734636,-0.40862226 0.3405185,-0.4134868 0.5205069,-0.90480637 0.038916,-0.058375 0.077833,-0.058375 h 0.1216138 q 0.038916,0 0.063239,0.029187 0.024323,0.024323 0.024323,0.058375 0,0.019458 -0.00973,0.029187 -0.2189048,0.60320424 -0.6372562,1.060472 -0.4183513,0.45726777 -0.9583164,0.45726777 -0.3940286,0 -0.66644348,-0.25782119 Q 0.61779793,-0.4037577 0.61779793,-0.80751541 Z"
                         id="path166" /></g><g
                       aria-label=")"
                       transform="matrix(1,0,0,-1,49.226,100.668)"
                       id="text148"
                       style="font-size:9.9626px;font-family:CMR10;-inkscape-font-specification:CMR10"><path
                         d="m 0.64698524,2.4906499 q -0.0875619,0 -0.0875619,-0.087562 0,-0.043781 0.0194582,-0.063239 1.70259277,-1.66367636 1.70259277,-4.8304988 0,-3.1668225 -1.68313457,-4.8110406 -0.0389164,-0.024323 -0.0389164,-0.082697 0,-0.034052 0.0243227,-0.058375 0.0291873,-0.029187 0.0632392,-0.029187 h 0.0924265 q 0.0291873,0 0.0486455,0.019458 0.71508899,0.5642879 1.19181489,1.3718033 0.476726,0.8075154 0.6956308,1.7220509 0.2237693,0.9145355 0.2237693,1.8679875 0,0.7053598 -0.1216138,1.3912615 Q 2.6609092,-0.41835136 2.3982235,0.24322753 2.1404023,0.90967097 1.7415091,1.4690943 1.342616,2.0333822 0.78805721,2.4711917 0.768599,2.4906499 0.7394117,2.4906499 Z"
                         id="path169" /></g><g
                       id="g150"
                       transform="translate(35.707,100.668)" /></g></g><g
                   id="g152"
                   transform="translate(32.723,-32.238)" /></g></g></g></g></g></g></g></svg>
