<?xml version="1.0" encoding="UTF-8" standalone="no"?>
<!-- Created with Inkscape (http://www.inkscape.org/) -->

<svg
   version="1.1"
   id="svg2"
   xml:space="preserve"
   width="244.024"
   height="153.41733"
   viewBox="0 0 244.024 153.41733"
   xmlns="http://www.w3.org/2000/svg"
   xmlns:svg="http://www.w3.org/2000/svg"><defs
     id="defs6" /><g
     id="g8"
     transform="matrix(1.3333333,0,0,-1.3333333,0,153.41733)"><g
       id="g10"
       transform="translate(29.549,18.287)"><g
         id="g12"><g
           id="g14"><g
             id="g16"><path
               d="M -11.33855,0 H 153.07259 M -11.33855,28.3468 H 153.07259 M -11.33855,56.69362 H 153.07259 M -11.33855,85.04042 H 153.07259 M 0,-11.33855 V 96.37897 M 28.3468,-11.33855 V 96.37897 M 56.69362,-11.33855 V 96.37897 M 85.04042,-11.33855 V 96.37897 M 113.38724,-11.33855 V 96.37897 m 28.3468,-107.71752 V 96.37897"
               style="fill:none;stroke:#808080;stroke-width:0.19925;stroke-linecap:butt;stroke-linejoin:miter;stroke-miterlimit:10;stroke-dasharray:none;stroke-opacity:1"
               id="path18" /></g><g
             id="g20"><path
               d="M -11.33855,0 H 152.36522"
               style="fill:none;stroke:#000000;stroke-width:0.79701;stroke-linecap:butt;stroke-linejoin:miter;stroke-miterlimit:10;stroke-dasharray:none;stroke-opacity:1"
               id="path22" /><g
               id="g24"
               transform="translate(152.36522)"><g
                 id="g26"><path
                   d="M -1.55415,2.0722 C -1.42464,1.29512 0,0.1295 0.38852,0 0,-0.1295 -1.42464,-1.29512 -1.55415,-2.0722"
                   style="fill:none;stroke:#000000;stroke-width:0.6376;stroke-linecap:round;stroke-linejoin:round;stroke-miterlimit:10;stroke-dasharray:none;stroke-opacity:1"
                   id="path28" /></g></g></g><g
             id="g30"><path
               d="M 0,-11.33855 V 95.6716"
               style="fill:none;stroke:#000000;stroke-width:0.79701;stroke-linecap:butt;stroke-linejoin:miter;stroke-miterlimit:10;stroke-dasharray:none;stroke-opacity:1"
               id="path32" /><g
               id="g34"
               transform="rotate(90,-47.8358,47.8358)"><g
                 id="g36"><path
                   d="M -1.55415,2.0722 C -1.42464,1.29512 0,0.1295 0.38852,0 0,-0.1295 -1.42464,-1.29512 -1.55415,-2.0722"
                   style="fill:none;stroke:#000000;stroke-width:0.6376;stroke-linecap:round;stroke-linejoin:round;stroke-miterlimit:10;stroke-dasharray:none;stroke-opacity:1"
                   id="path38" /></g></g></g><g
             id="g40"><path
               d="m 28.3468,28.3468 h 85.04044 V 85.04042 H 28.3468 V 28.3468"
               style="fill:none;stroke:#000000;stroke-width:1.19553;stroke-linecap:butt;stroke-linejoin:miter;stroke-miterlimit:10;stroke-dasharray:none;stroke-opacity:1"
               id="path42" /></g><g
             id="g44"><path
               d="M 28.3468,0 V -2.83484"
               style="fill:none;stroke:#000000;stroke-width:0.79701;stroke-linecap:butt;stroke-linejoin:miter;stroke-miterlimit:10;stroke-dasharray:none;stroke-opacity:1"
               id="path46" /><g
               id="g48"><g
                 id="g50"
                 transform="translate(23.478,-10.843)"><g
                   id="g52"><g
                     id="g54"
                     transform="translate(-53.027,-7.444)"><g
                       aria-label="a"
                       transform="matrix(1,0,0,-1,53.027,7.444)"
                       id="text58"
                       style="font-size:9.9626px;font-family:CMMI10;-inkscape-font-specification:CMMI10"><path
                         d="m 1.73178,0.11188467 q -0.627527,0 -0.9923683,-0.47186142 -0.35997675,-0.47672596 -0.35997675,-1.12371125 0,-0.6372561 0.33078945,-1.3231577 0.3307894,-0.6859017 0.8902128,-1.1383049 0.5642878,-0.4572677 1.2112731,-0.4572677 0.2967376,0 0.530236,0.1605301 0.2334984,0.1605302 0.3648413,0.4378096 0.1118847,-0.3988932 0.4378096,-0.3988932 0.1264783,0 0.2091756,0.077833 0.087562,0.072968 0.087562,0.1994466 0,0.029187 -0.00486,0.043781 0,0.014594 -0.00486,0.034052 l -0.6956308,2.782523 q -0.068104,0.2967376 -0.068104,0.48645507 0,0.42808046 0.2870085,0.42808046 0.3113312,0 0.4718614,-0.3940286 0.1653947,-0.39889316 0.2772794,-0.91940003 0.019458,-0.058375 0.077833,-0.058375 h 0.1216138 q 0.038916,0 0.063239,0.034052 0.024323,0.034052 0.024323,0.063239 -0.1751238,0.6956307 -0.3842995,1.11884661 -0.2043112,0.41835136 -0.671308,0.41835136 -0.335654,0 -0.5934752,-0.19458203 Q 3.0841251,-0.28214394 3.020886,-0.60806883 2.3787653,0.11188467 1.73178,0.11188467 Z m 0.00973,-0.26268574 q 0.3599768,0 0.6956308,-0.26755029 0.3405185,-0.27241483 0.5837461,-0.63725614 0.00973,-0.00973 0.00973,-0.029187 l 0.5351005,-2.164725 0.00973,-0.029187 Q 3.5170701,-3.6338193 3.3176236,-3.886776 3.1230415,-4.1445972 2.7873875,-4.1445972 q -0.335654,0 -0.627527,0.2772794 -0.2870085,0.2724149 -0.4864551,0.6469853 -0.194582,0.3988931 -0.3745704,1.0945239 -0.1751238,0.6956307 -0.1751238,1.0799302 0,0.3453831 0.1459365,0.62266249 0.1508011,0.27241484 0.4718614,0.27241484 z"
                         id="path244" /></g><g
                       aria-label="1"
                       transform="matrix(1,0,0,-1,58.293,5.95)"
                       id="text62"
                       style="font-size:6.9738px;font-family:CMR7;-inkscape-font-specification:CMR7"><path
                         d="M 0.86491467,-0.5788799 H 1.9886227 V -4.4573752 L 0.76616457,-4.2122026 V -4.8387549 L 1.9818124,-5.0839276 h 0.6878455 v 4.5050477 h 1.123708 V 0 H 0.86491467 Z"
                         id="path247" /></g><g
                       id="g64"
                       transform="translate(53.027,7.444)" /></g></g><g
                   id="g66"
                   transform="translate(-23.478,10.843)" /></g></g></g><g
             id="g68"><path
               d="M 113.38724,0 V -2.83484"
               style="fill:none;stroke:#000000;stroke-width:0.79701;stroke-linecap:butt;stroke-linejoin:miter;stroke-miterlimit:10;stroke-dasharray:none;stroke-opacity:1"
               id="path70" /><g
               id="g72"><g
                 id="g74"
                 transform="translate(109.013,-13.472)"><g
                   id="g76"><g
                     id="g78"
                     transform="translate(-138.562,-4.815)"><g
                       aria-label="b"
                       transform="matrix(1,0,0,-1,138.562,4.815)"
                       id="text82"
                       style="font-size:9.9626px;font-family:CMMI10;-inkscape-font-specification:CMMI10"><path
                         d="m 1.7220509,0.11188467 q -0.6032042,0 -0.93885824,-0.47186142 -0.335654,-0.47186141 -0.335654,-1.10425295 0,-0.092426 0.043781,-0.3599768 0.0486455,-0.2724148 0.0486455,-0.335654 L 1.5031462,-6.0271783 q 0.038916,-0.1702592 0.048646,-0.2675503 0,-0.1605301 -0.64698528,-0.1605301 -0.097291,0 -0.097291,-0.1313429 0.004865,-0.024323 0.0194582,-0.087562 0.0194582,-0.063239 0.043781,-0.097291 0.0291873,-0.034052 0.0778328,-0.034052 L 2.2912034,-6.9125265 q 0.1216137,0 0.1216137,0.1264783 l -0.7394117,2.9381886 q 0.5642879,-0.5545587 1.1383049,-0.5545587 0.4232159,0 0.724818,0.2237693 0.3064667,0.2237693 0.4572678,0.5886106 0.1508011,0.3648413 0.1508011,0.7783281 0,0.4815905 -0.1897175,0.9972329 -0.1848529,0.5107778 -0.5156424,0.95345193 -0.3307894,0.43780956 -0.7734635,0.70535985 -0.4426741,0.26755029 -0.9437229,0.26755029 z m 0.019458,-0.26268574 q 0.3405186,0 0.6372562,-0.28214394 0.2967376,-0.28700849 0.4815905,-0.64212069 0.1994466,-0.3988932 0.3697058,-1.0799302 0.1751239,-0.6859017 0.1751239,-1.0945239 0,-0.3551122 -0.1508011,-0.6226625 -0.1459365,-0.2724149 -0.4669969,-0.2724149 -0.3599767,0 -0.6907662,0.2675503 -0.3259249,0.2626858 -0.5740169,0.6275271 L 1.245325,-2.1209441 q -0.1605302,0.627527 -0.1702593,1.006962 0,0.3745704 0.1605302,0.67130799 0.1653947,0.29187304 0.5059132,0.29187304 z"
                         id="path250" /></g><g
                       aria-label="1"
                       transform="matrix(1,0,0,-1,142.838,3.321)"
                       id="text86"
                       style="font-size:6.9738px;font-family:CMR7;-inkscape-font-specification:CMR7"><path
                         d="M 0.86491467,-0.5788799 H 1.9886227 V -4.4573752 L 0.76616457,-4.2122026 V -4.8387549 L 1.9818124,-5.0839276 h 0.6878455 v 4.5050477 h 1.123708 V 0 H 0.86491467 Z"
                         id="path253" /></g><g
                       id="g88"
                       transform="translate(138.562,4.815)" /></g></g><g
                   id="g90"
                   transform="translate(-109.013,13.472)" /></g></g></g><g
             id="g92"><path
               d="M 0,28.3468 H -2.83484"
               style="fill:none;stroke:#000000;stroke-width:0.79701;stroke-linecap:butt;stroke-linejoin:miter;stroke-miterlimit:10;stroke-dasharray:none;stroke-opacity:1"
               id="path94" /><g
               id="g96"><g
                 id="g98"
                 transform="translate(-16.29,26.949)"><g
                   id="g100"><g
                     id="g102"
                     transform="translate(-13.259,-45.236)"><g
                       aria-label="a"
                       transform="matrix(1,0,0,-1,13.259,45.236)"
                       id="text106"
                       style="font-size:9.9626px;font-family:CMMI10;-inkscape-font-specification:CMMI10"><path
                         d="m 1.73178,0.11188467 q -0.627527,0 -0.9923683,-0.47186142 -0.35997675,-0.47672596 -0.35997675,-1.12371125 0,-0.6372561 0.33078945,-1.3231577 0.3307894,-0.6859017 0.8902128,-1.1383049 0.5642878,-0.4572677 1.2112731,-0.4572677 0.2967376,0 0.530236,0.1605301 0.2334984,0.1605302 0.3648413,0.4378096 0.1118847,-0.3988932 0.4378096,-0.3988932 0.1264783,0 0.2091756,0.077833 0.087562,0.072968 0.087562,0.1994466 0,0.029187 -0.00486,0.043781 0,0.014594 -0.00486,0.034052 l -0.6956308,2.782523 q -0.068104,0.2967376 -0.068104,0.48645507 0,0.42808046 0.2870085,0.42808046 0.3113312,0 0.4718614,-0.3940286 0.1653947,-0.39889316 0.2772794,-0.91940003 0.019458,-0.058375 0.077833,-0.058375 h 0.1216138 q 0.038916,0 0.063239,0.034052 0.024323,0.034052 0.024323,0.063239 -0.1751238,0.6956307 -0.3842995,1.11884661 -0.2043112,0.41835136 -0.671308,0.41835136 -0.335654,0 -0.5934752,-0.19458203 Q 3.0841251,-0.28214394 3.020886,-0.60806883 2.3787653,0.11188467 1.73178,0.11188467 Z m 0.00973,-0.26268574 q 0.3599768,0 0.6956308,-0.26755029 0.3405185,-0.27241483 0.5837461,-0.63725614 0.00973,-0.00973 0.00973,-0.029187 l 0.5351005,-2.164725 0.00973,-0.029187 Q 3.5170701,-3.6338193 3.3176236,-3.886776 3.1230415,-4.1445972 2.7873875,-4.1445972 q -0.335654,0 -0.627527,0.2772794 -0.2870085,0.2724149 -0.4864551,0.6469853 -0.194582,0.3988931 -0.3745704,1.0945239 -0.1751238,0.6956307 -0.1751238,1.0799302 0,0.3453831 0.1459365,0.62266249 0.1508011,0.27241484 0.4718614,0.27241484 z"
                         id="path256" /></g><g
                       aria-label="2"
                       transform="matrix(1,0,0,-1,18.525,43.742)"
                       id="text110"
                       style="font-size:6.9738px;font-family:CMR7;-inkscape-font-specification:CMR7"><path
                         d="m 1.3382341,-0.5788799 h 2.400649 V 0 H 0.51077638 v -0.5788799 q 0.39159523,-0.40521593 1.06582002,-1.0862511 0.67763,-0.6844404 0.851294,-0.8819406 0.3303021,-0.3711641 0.4596987,-0.6265523 0.1328019,-0.2587934 0.1328019,-0.5073712 0,-0.4052159 -0.2860348,-0.6606041 -0.2826296,-0.2553882 -0.7389231,-0.2553882 -0.3234917,0 -0.6844404,0.1123708 -0.35754346,0.1123708 -0.76616456,0.3405176 v -0.6946559 q 0.41543146,-0.1668536 0.77638006,-0.251983 0.3609487,-0.085129 0.6606042,-0.085129 0.7900008,0 1.259915,0.3950004 0.4699143,0.3950004 0.4699143,1.0556045 0,0.3132762 -0.1191812,0.5959058 -0.1157759,0.2792244 -0.4256469,0.6606041 -0.085129,0.09875 -0.541423,0.5720695 -0.4562936,0.4699143 -1.2871565,1.3178031 z"
                         id="path259" /></g><g
                       id="g112"
                       transform="translate(13.259,45.236)" /></g></g><g
                   id="g114"
                   transform="translate(16.29,-26.949)" /></g></g></g><g
             id="g116"><path
               d="M 0,85.04042 H -2.83484"
               style="fill:none;stroke:#000000;stroke-width:0.79701;stroke-linecap:butt;stroke-linejoin:miter;stroke-miterlimit:10;stroke-dasharray:none;stroke-opacity:1"
               id="path118" /><g
               id="g120"><g
                 id="g122"
                 transform="translate(-15.299,82.328)"><g
                   id="g124"><g
                     id="g126"
                     transform="translate(-14.25,-100.615)"><g
                       aria-label="b"
                       transform="matrix(1,0,0,-1,14.25,100.615)"
                       id="text130"
                       style="font-size:9.9626px;font-family:CMMI10;-inkscape-font-specification:CMMI10"><path
                         d="m 1.7220509,0.11188467 q -0.6032042,0 -0.93885824,-0.47186142 -0.335654,-0.47186141 -0.335654,-1.10425295 0,-0.092426 0.043781,-0.3599768 0.0486455,-0.2724148 0.0486455,-0.335654 L 1.5031462,-6.0271783 q 0.038916,-0.1702592 0.048646,-0.2675503 0,-0.1605301 -0.64698528,-0.1605301 -0.097291,0 -0.097291,-0.1313429 0.004865,-0.024323 0.0194582,-0.087562 0.0194582,-0.063239 0.043781,-0.097291 0.0291873,-0.034052 0.0778328,-0.034052 L 2.2912034,-6.9125265 q 0.1216137,0 0.1216137,0.1264783 l -0.7394117,2.9381886 q 0.5642879,-0.5545587 1.1383049,-0.5545587 0.4232159,0 0.724818,0.2237693 0.3064667,0.2237693 0.4572678,0.5886106 0.1508011,0.3648413 0.1508011,0.7783281 0,0.4815905 -0.1897175,0.9972329 -0.1848529,0.5107778 -0.5156424,0.95345193 -0.3307894,0.43780956 -0.7734635,0.70535985 -0.4426741,0.26755029 -0.9437229,0.26755029 z m 0.019458,-0.26268574 q 0.3405186,0 0.6372562,-0.28214394 0.2967376,-0.28700849 0.4815905,-0.64212069 0.1994466,-0.3988932 0.3697058,-1.0799302 0.1751239,-0.6859017 0.1751239,-1.0945239 0,-0.3551122 -0.1508011,-0.6226625 -0.1459365,-0.2724149 -0.4669969,-0.2724149 -0.3599767,0 -0.6907662,0.2675503 -0.3259249,0.2626858 -0.5740169,0.6275271 L 1.245325,-2.1209441 q -0.1605302,0.627527 -0.1702593,1.006962 0,0.3745704 0.1605302,0.67130799 0.1653947,0.29187304 0.5059132,0.29187304 z"
                         id="path262" /></g><g
                       aria-label="2"
                       transform="matrix(1,0,0,-1,18.525,99.12)"
                       id="text134"
                       style="font-size:6.9738px;font-family:CMR7;-inkscape-font-specification:CMR7"><path
                         d="m 1.3382341,-0.5788799 h 2.400649 V 0 H 0.51077638 v -0.5788799 q 0.39159523,-0.40521593 1.06582002,-1.0862511 0.67763,-0.6844404 0.851294,-0.8819406 0.3303021,-0.3711641 0.4596987,-0.6265523 0.1328019,-0.2587934 0.1328019,-0.5073712 0,-0.4052159 -0.2860348,-0.6606041 -0.2826296,-0.2553882 -0.7389231,-0.2553882 -0.3234917,0 -0.6844404,0.1123708 -0.35754346,0.1123708 -0.76616456,0.3405176 v -0.6946559 q 0.41543146,-0.1668536 0.77638006,-0.251983 0.3609487,-0.085129 0.6606042,-0.085129 0.7900008,0 1.259915,0.3950004 0.4699143,0.3950004 0.4699143,1.0556045 0,0.3132762 -0.1191812,0.5959058 -0.1157759,0.2792244 -0.4256469,0.6606041 -0.085129,0.09875 -0.541423,0.5720695 -0.4562936,0.4699143 -1.2871565,1.3178031 z"
                         id="path265" /></g><g
                       id="g136"
                       transform="translate(14.25,100.615)" /></g></g><g
                   id="g138"
                   transform="translate(15.299,-82.328)" /></g></g></g><path
             d="M 153.07259,51.02432 H -2.83484"
             style="fill:none;stroke:#000000;stroke-width:0.3985;stroke-linecap:butt;stroke-linejoin:miter;stroke-miterlimit:10;stroke-dasharray:none;stroke-opacity:1"
             id="path140" /><g
             id="g142"><g
               id="g144"
               transform="translate(-16.141,49.848)"><g
                 id="g146"><g
                   id="g148"
                   transform="translate(-13.408,-68.135)"><g
                     aria-label="y"
                     transform="matrix(1,0,0,-1,13.408,68.135)"
                     id="text152"
                     style="font-size:9.9626px;font-family:CMMI10;-inkscape-font-specification:CMMI10"><path
                       d="m 0.83670271,1.4253133 q 0.20917569,0.3599768 0.72968259,0.3599768 0.4718614,0 0.8172445,-0.3307895 Q 2.7290129,1.1237112 2.9381886,0.65184979 3.1522288,0.18485293 3.268978,-0.30646669 2.8263039,0.11188467 2.3106616,0.11188467 q -0.3940286,0 -0.671308,-0.13620742 Q 1.3620742,-0.16053017 1.2064086,-0.42808046 1.0556075,-0.7004953 1.0556075,-1.0847948 q 0,-0.3259249 0.087562,-0.6664434 0.087562,-0.3453831 0.2432275,-0.7637345 0.1605302,-0.4232159 0.2772794,-0.7345471 0.1313429,-0.3648413 0.1313429,-0.5983398 0,-0.2967376 -0.2189048,-0.2967376 -0.3940286,0 -0.65184977,0.4086223 -0.25295664,0.4037577 -0.37457041,0.9048064 -0.0194582,0.063239 -0.0826974,0.063239 H 0.35024765 q -0.0826974,0 -0.0826974,-0.092426 v -0.029187 q 0.16053017,-0.5934752 0.49131961,-1.0507429 0.3307894,-0.4621323 0.8367027,-0.4621323 0.3551122,0 0.5983397,0.2334984 0.2480921,0.2334984 0.2480921,0.5934752 0,0.1848529 -0.082697,0.389164 -0.043781,0.1216138 -0.1994466,0.530236 -0.1556656,0.4086223 -0.238363,0.6761726 -0.082697,0.2675503 -0.1362074,0.5253715 -0.05351,0.2578211 -0.05351,0.51564232 0,0.33078945 0.141072,0.55942333 0.141072,0.22863388 0.4475387,0.22863388 0.6177979,0 1.1091175,-0.75400535 L 4.1835136,-3.9743379 q 0.034052,-0.1313429 0.1556656,-0.2237693 0.1216138,-0.097291 0.2626857,-0.097291 0.1216138,0 0.2091757,0.077833 0.092427,0.077833 0.092427,0.2043111 0,0.058375 -0.00973,0.077833 L 3.9062342,0.0291873 Q 3.7748913,0.53996512 3.4246437,1.006962 3.074396,1.4739589 2.5782119,1.7561028 2.0868922,2.0431113 1.5517917,2.0431113 q -0.2578212,0 -0.5107779,-0.1021556 Q 0.78805721,1.8436647 0.63239159,1.6442181 0.47672596,1.4447715 0.47672596,1.1772213 q 0,-0.27241488 0.16053018,-0.47186145 0.16053017,-0.19944658 0.42808046,-0.19944658 0.1605302,0 0.2675503,0.097291 0.1118846,0.10215557 0.1118846,0.26268574 0,0.22863388 -0.1702592,0.39889318 -0.1702593,0.1702592 -0.39889318,0.1702592 -0.009729,-0.00486 -0.0194582,-0.00973 -0.009729,0 -0.0194582,0 z"
                       id="path268" /></g><g
                     aria-label="k"
                     transform="matrix(1,0,0,-1,18.292,66.64)"
                     id="text156"
                     style="font-size:6.9738px;font-family:CMMI7;-inkscape-font-specification:CMMI7"><path
                       d="M 0.63336271,-5.2984537 H 1.2633202 v 3.1293567 l 1.8694416,-1.6447 H 3.9329781 L 1.9103037,-2.0294848 4.0181075,0 H 3.2008653 L 1.2633202,-1.8626312 V 0 H 0.63336271 Z"
                       id="path271" /></g><g
                     id="g158"
                     transform="translate(13.408,68.135)" /></g></g><g
                 id="g160"
                 transform="translate(16.141,-49.848)" /></g></g><path
             d="M 153.07259,65.19774 H -2.83484"
             style="fill:none;stroke:#000000;stroke-width:0.3985;stroke-linecap:butt;stroke-linejoin:miter;stroke-miterlimit:10;stroke-dasharray:none;stroke-opacity:1"
             id="path162" /><g
             id="g164"><g
               id="g166"
               transform="translate(-26.228,64.215)"><g
                 id="g168"><g
                   id="g170"
                   transform="translate(-3.321,-82.502)"><g
                     aria-label="y"
                     transform="matrix(1,0,0,-1,3.321,82.502)"
                     id="text174"
                     style="font-size:9.9626px;font-family:CMMI10;-inkscape-font-specification:CMMI10"><path
                       d="m 0.83670271,1.4253133 q 0.20917569,0.3599768 0.72968259,0.3599768 0.4718614,0 0.8172445,-0.3307895 Q 2.7290129,1.1237112 2.9381886,0.65184979 3.1522288,0.18485293 3.268978,-0.30646669 2.8263039,0.11188467 2.3106616,0.11188467 q -0.3940286,0 -0.671308,-0.13620742 Q 1.3620742,-0.16053017 1.2064086,-0.42808046 1.0556075,-0.7004953 1.0556075,-1.0847948 q 0,-0.3259249 0.087562,-0.6664434 0.087562,-0.3453831 0.2432275,-0.7637345 0.1605302,-0.4232159 0.2772794,-0.7345471 0.1313429,-0.3648413 0.1313429,-0.5983398 0,-0.2967376 -0.2189048,-0.2967376 -0.3940286,0 -0.65184977,0.4086223 -0.25295664,0.4037577 -0.37457041,0.9048064 -0.0194582,0.063239 -0.0826974,0.063239 H 0.35024765 q -0.0826974,0 -0.0826974,-0.092426 v -0.029187 q 0.16053017,-0.5934752 0.49131961,-1.0507429 0.3307894,-0.4621323 0.8367027,-0.4621323 0.3551122,0 0.5983397,0.2334984 0.2480921,0.2334984 0.2480921,0.5934752 0,0.1848529 -0.082697,0.389164 -0.043781,0.1216138 -0.1994466,0.530236 -0.1556656,0.4086223 -0.238363,0.6761726 -0.082697,0.2675503 -0.1362074,0.5253715 -0.05351,0.2578211 -0.05351,0.51564232 0,0.33078945 0.141072,0.55942333 0.141072,0.22863388 0.4475387,0.22863388 0.6177979,0 1.1091175,-0.75400535 L 4.1835136,-3.9743379 q 0.034052,-0.1313429 0.1556656,-0.2237693 0.1216138,-0.097291 0.2626857,-0.097291 0.1216138,0 0.2091757,0.077833 0.092427,0.077833 0.092427,0.2043111 0,0.058375 -0.00973,0.077833 L 3.9062342,0.0291873 Q 3.7748913,0.53996512 3.4246437,1.006962 3.074396,1.4739589 2.5782119,1.7561028 2.0868922,2.0431113 1.5517917,2.0431113 q -0.2578212,0 -0.5107779,-0.1021556 Q 0.78805721,1.8436647 0.63239159,1.6442181 0.47672596,1.4447715 0.47672596,1.1772213 q 0,-0.27241488 0.16053018,-0.47186145 0.16053017,-0.19944658 0.42808046,-0.19944658 0.1605302,0 0.2675503,0.097291 0.1118846,0.10215557 0.1118846,0.26268574 0,0.22863388 -0.1702592,0.39889318 -0.1702593,0.1702592 -0.39889318,0.1702592 -0.009729,-0.00486 -0.0194582,-0.00973 -0.009729,0 -0.0194582,0 z"
                       id="path274" /></g><g
                     aria-label="k"
                     transform="matrix(1,0,0,-1,8.205,81.007)"
                     id="text178"
                     style="font-size:6.9738px;font-family:CMMI7;-inkscape-font-specification:CMMI7"><path
                       d="M 0.63336271,-5.2984537 H 1.2633202 v 3.1293567 l 1.8694416,-1.6447 H 3.9329781 L 1.9103037,-2.0294848 4.0181075,0 H 3.2008653 L 1.2633202,-1.8626312 V 0 H 0.63336271 Z"
                       id="path277" /></g><g
                     aria-label="+1"
                     transform="matrix(1,0,0,-1,12.609,81.007)"
                     id="text182"
                     style="font-size:6.9738px;font-family:CMR7;-inkscape-font-specification:CMR7"><path
                       d="m 3.2076757,-4.3722458 v 1.8966829 H 5.1043586 V -1.896683 H 3.2076757 V 0 H 2.6356061 V -1.896683 H 0.73892316 V -2.4755629 H 2.6356061 v -1.8966829 z"
                       id="path280" /><path
                       d="m 6.9809373,-0.5788799 h 1.123708 v -3.8784953 l -1.2224581,0.2451726 v -0.6265523 l 1.2156477,-0.2451727 h 0.6878456 v 4.5050477 h 1.123708 V 0 H 6.9809373 Z"
                       id="path282" /></g><g
                     id="g184"
                     transform="translate(3.321,82.502)" /></g></g><g
                 id="g186"
                 transform="translate(26.228,-64.215)" /></g></g><g
             id="g188"><path
               d="m 28.3468,36.85092 h 85.04044 M 28.3468,42.5202 h 85.04044 M 28.3468,51.02432 h 85.04044"
               style="fill:none;stroke:#0000ff;stroke-width:0.3985;stroke-linecap:butt;stroke-linejoin:miter;stroke-miterlimit:10;stroke-dasharray:none;stroke-opacity:1"
               id="path190" /></g><path
             d="M 51.02432,96.37897 V -2.83484"
             style="fill:none;stroke:#000000;stroke-width:0.3985;stroke-linecap:butt;stroke-linejoin:miter;stroke-miterlimit:10;stroke-dasharray:none;stroke-opacity:1"
             id="path192" /><g
             id="g194"><g
               id="g196"
               transform="translate(46.077,-10.644)"><g
                 id="g198"><g
                   id="g200"
                   transform="translate(-75.626,-7.643)"><g
                     aria-label="x"
                     transform="matrix(1,0,0,-1,75.626,7.643)"
                     id="text204"
                     style="font-size:9.9626px;font-family:CMMI10;-inkscape-font-specification:CMMI10"><path
                       d="m 0.77832811,-0.28700849 q 0.17512382,0.13620742 0.49618419,0.13620742 0.3113312,0 0.5496942,-0.29673759 0.238363,-0.30160214 0.3259249,-0.65671434 l 0.4524032,-1.7658319 q 0.1070201,-0.4815905 0.1070201,-0.6567143 0,-0.2480921 -0.141072,-0.432945 -0.1362074,-0.184853 -0.3842995,-0.184853 -0.3161957,0 -0.5934751,0.1994466 -0.2772794,0.194582 -0.4669969,0.5010487 -0.18971747,0.3016022 -0.26755028,0.6129334 -0.0194582,0.063239 -0.0778328,0.063239 H 0.65671434 q -0.0778328,0 -0.0778328,-0.092426 v -0.029187 q 0.097291,-0.3697058 0.33078944,-0.7199535 0.23349843,-0.3551122 0.56915243,-0.574017 0.3405185,-0.2189047 0.724818,-0.2189047 0.3648413,0 0.6567144,0.194582 0.2967376,0.194582 0.4183513,0.530236 0.1702593,-0.3064667 0.4329451,-0.5156424 0.2675502,-0.2091756 0.583746,-0.2091756 0.2140403,0 0.4378096,0.077833 0.2237693,0.072968 0.3648413,0.2286338 0.141072,0.1556657 0.141072,0.3891641 0,0.2529566 -0.1653948,0.4378096 -0.1605301,0.1799883 -0.4134868,0.1799883 -0.1605301,0 -0.2675503,-0.1021555 -0.1070201,-0.1021556 -0.1070201,-0.2578212 0,-0.2091757 0.141072,-0.3648413 0.1459365,-0.1605302 0.3453831,-0.1897175 -0.1799884,-0.141072 -0.4961842,-0.141072 -0.3210603,0 -0.5594233,0.2967376 -0.2334984,0.2967376 -0.3307894,0.6615789 l -0.4378096,1.7609674 q -0.1070201,0.3988931 -0.1070201,0.6567143 0,0.25295663 0.141072,0.43780956 0.1459365,0.17998837 0.3842995,0.17998837 0.4669968,0 0.8318381,-0.40862226 0.3697059,-0.4134868 0.4864551,-0.90480637 0.019458,-0.058375 0.077833,-0.058375 h 0.1216138 q 0.038916,0 0.063239,0.029187 0.024323,0.024323 0.024323,0.058375 0,0.00973 -0.00973,0.029187 -0.141072,0.59347514 -0.5934752,1.05560745 -0.4524032,0.46213232 -1.0215556,0.46213232 -0.3648413,0 -0.6615789,-0.19458203 -0.2918731,-0.19944658 -0.4134868,-0.53510057 -0.1556657,0.29187304 -0.4329451,0.51077782 -0.2724148,0.21890478 -0.583746,0.21890478 -0.2140403,0 -0.44267414,-0.07783282 -0.22376933,-0.07296826 -0.3648413,-0.22863388 -0.14107197,-0.15566562 -0.14107197,-0.3940286 0,-0.23349843 0.16053017,-0.42321587 0.16539473,-0.1945821 0.40862226,-0.1945821 0.16539468,0 0.27727938,0.1021556 0.1118847,0.097291 0.1118847,0.25782118 0,0.20917568 -0.141072,0.3648413 -0.13620742,0.15566563 -0.34538309,0.19458203 z"
                       id="path285" /></g><g
                     aria-label="j"
                     transform="matrix(1,0,0,-1,81.32,6.149)"
                     id="text208"
                     style="font-size:6.9738px;font-family:CMMI7;-inkscape-font-specification:CMMI7"><path
                       d="M 0.65719894,-3.813797 H 1.2837513 v 3.88190052 q 0,0.72870763 -0.2792244,1.05560448 Q 0.72870764,1.4506049 0.1123708,1.4506049 H -0.12599151 V 0.91939748 h 0.16685362 q 0.35754347,0 0.48694015,-0.16685361 0.12939668,-0.16344844 0.12939668,-0.68444035 z m 0,-1.4846567 H 1.2837513 v 0.793406 H 0.65719894 Z"
                       id="path288" /></g><g
                     id="g210"
                     transform="translate(75.626,7.643)" /></g></g><g
                 id="g212"
                 transform="translate(-46.077,10.644)" /></g></g><path
             d="M 68.03217,96.37897 V -2.83484"
             style="fill:none;stroke:#000000;stroke-width:0.3985;stroke-linecap:butt;stroke-linejoin:miter;stroke-miterlimit:10;stroke-dasharray:none;stroke-opacity:1"
             id="path214" /><g
             id="g216"><g
               id="g218"
               transform="translate(58.041,-10.644)"><g
                 id="g220"><g
                   id="g222"
                   transform="translate(-87.59,-7.643)"><g
                     aria-label="x"
                     transform="matrix(1,0,0,-1,87.59,7.643)"
                     id="text226"
                     style="font-size:9.9626px;font-family:CMMI10;-inkscape-font-specification:CMMI10"><path
                       d="m 0.77832811,-0.28700849 q 0.17512382,0.13620742 0.49618419,0.13620742 0.3113312,0 0.5496942,-0.29673759 0.238363,-0.30160214 0.3259249,-0.65671434 l 0.4524032,-1.7658319 q 0.1070201,-0.4815905 0.1070201,-0.6567143 0,-0.2480921 -0.141072,-0.432945 -0.1362074,-0.184853 -0.3842995,-0.184853 -0.3161957,0 -0.5934751,0.1994466 -0.2772794,0.194582 -0.4669969,0.5010487 -0.18971747,0.3016022 -0.26755028,0.6129334 -0.0194582,0.063239 -0.0778328,0.063239 H 0.65671434 q -0.0778328,0 -0.0778328,-0.092426 v -0.029187 q 0.097291,-0.3697058 0.33078944,-0.7199535 0.23349843,-0.3551122 0.56915243,-0.574017 0.3405185,-0.2189047 0.724818,-0.2189047 0.3648413,0 0.6567144,0.194582 0.2967376,0.194582 0.4183513,0.530236 0.1702593,-0.3064667 0.4329451,-0.5156424 0.2675502,-0.2091756 0.583746,-0.2091756 0.2140403,0 0.4378096,0.077833 0.2237693,0.072968 0.3648413,0.2286338 0.141072,0.1556657 0.141072,0.3891641 0,0.2529566 -0.1653948,0.4378096 -0.1605301,0.1799883 -0.4134868,0.1799883 -0.1605301,0 -0.2675503,-0.1021555 -0.1070201,-0.1021556 -0.1070201,-0.2578212 0,-0.2091757 0.141072,-0.3648413 0.1459365,-0.1605302 0.3453831,-0.1897175 -0.1799884,-0.141072 -0.4961842,-0.141072 -0.3210603,0 -0.5594233,0.2967376 -0.2334984,0.2967376 -0.3307894,0.6615789 l -0.4378096,1.7609674 q -0.1070201,0.3988931 -0.1070201,0.6567143 0,0.25295663 0.141072,0.43780956 0.1459365,0.17998837 0.3842995,0.17998837 0.4669968,0 0.8318381,-0.40862226 0.3697059,-0.4134868 0.4864551,-0.90480637 0.019458,-0.058375 0.077833,-0.058375 h 0.1216138 q 0.038916,0 0.063239,0.029187 0.024323,0.024323 0.024323,0.058375 0,0.00973 -0.00973,0.029187 -0.141072,0.59347514 -0.5934752,1.05560745 -0.4524032,0.46213232 -1.0215556,0.46213232 -0.3648413,0 -0.6615789,-0.19458203 -0.2918731,-0.19944658 -0.4134868,-0.53510057 -0.1556657,0.29187304 -0.4329451,0.51077782 -0.2724148,0.21890478 -0.583746,0.21890478 -0.2140403,0 -0.44267414,-0.07783282 -0.22376933,-0.07296826 -0.3648413,-0.22863388 -0.14107197,-0.15566562 -0.14107197,-0.3940286 0,-0.23349843 0.16053017,-0.42321587 0.16539473,-0.1945821 0.40862226,-0.1945821 0.16539468,0 0.27727938,0.1021556 0.1118847,0.097291 0.1118847,0.25782118 0,0.20917568 -0.141072,0.3648413 -0.13620742,0.15566563 -0.34538309,0.19458203 z"
                       id="path291" /></g><g
                     aria-label="j"
                     transform="matrix(1,0,0,-1,93.284,6.149)"
                     id="text230"
                     style="font-size:6.9738px;font-family:CMMI7;-inkscape-font-specification:CMMI7"><path
                       d="M 0.65719894,-3.813797 H 1.2837513 v 3.88190052 q 0,0.72870763 -0.2792244,1.05560448 Q 0.72870764,1.4506049 0.1123708,1.4506049 H -0.12599151 V 0.91939748 h 0.16685362 q 0.35754347,0 0.48694015,-0.16685361 0.12939668,-0.16344844 0.12939668,-0.68444035 z m 0,-1.4846567 H 1.2837513 v 0.793406 H 0.65719894 Z"
                       id="path294" /></g><g
                     aria-label="+1"
                     transform="matrix(1,0,0,-1,96.984,6.149)"
                     id="text234"
                     style="font-size:6.9738px;font-family:CMR7;-inkscape-font-specification:CMR7"><path
                       d="m 3.2076757,-4.3722458 v 1.8966829 H 5.1043586 V -1.896683 H 3.2076757 V 0 H 2.6356061 V -1.896683 H 0.73892316 V -2.4755629 H 2.6356061 v -1.8966829 z"
                       id="path297" /><path
                       d="m 6.9809373,-0.5788799 h 1.123708 v -3.8784953 l -1.2224581,0.2451726 v -0.6265523 l 1.2156477,-0.2451727 h 0.6878456 v 4.5050477 h 1.123708 V 0 H 6.9809373 Z"
                       id="path299" /></g><g
                     id="g236"
                     transform="translate(87.59,7.643)" /></g></g><g
                 id="g238"
                 transform="translate(-58.041,10.644)" /></g></g><g
             id="g240"><path
               d="M 36.85092,28.3468 V 85.04042 M 51.02432,28.3468 V 85.04042 M 68.03217,28.3468 V 85.04042 M 79.37114,28.3468 V 85.04042 M 99.21382,28.3468 v 56.69362"
               style="fill:none;stroke:#0000ff;stroke-width:0.3985;stroke-linecap:butt;stroke-linejoin:miter;stroke-miterlimit:10;stroke-dasharray:none;stroke-opacity:1"
               id="path242" /></g></g></g></g></g></svg>
