<?xml version="1.0" encoding="UTF-8" standalone="no"?>
<!-- Created with Inkscape (http://www.inkscape.org/) -->

<svg
   version="1.1"
   id="svg2"
   xml:space="preserve"
   width="226.772"
   height="170.66"
   viewBox="0 0 226.772 170.66"
   xmlns="http://www.w3.org/2000/svg"
   xmlns:svg="http://www.w3.org/2000/svg"><defs
     id="defs6"><clipPath
       clipPathUnits="userSpaceOnUse"
       id="clipPath18"><path
         d="M 0,0 H 287.09845 V 216.05814 H 0 Z"
         id="path16" /></clipPath></defs><g
     id="g8"
     transform="matrix(1.3333333,0,0,-1.3333333,0,170.66)"><g
       id="g10"
       transform="scale(0.5924)"><g
         id="g12"><g
           id="g14" /><g
           id="g46"><g
             clip-path="url(#clipPath18)"
             id="g44"><g
               transform="matrix(1,0,0,-1,0,216.05814)"
               id="g42"><g
                 id="g40"><g
                   id="g22"><path
                     d="m 192.68,172.574 c -0.004,-59.961 -32.582,-112.308 -81,-140.32 -48.422,28.012 -81,80.359 -81,140.32 23.828,13.785 51.488,21.68 81,21.68 29.508,0 57.172,-7.895 81,-21.68 z"
                     style="fill:#6699ff;fill-opacity:1;fill-rule:nonzero;stroke:#231f20;stroke-width:0.75;stroke-linecap:butt;stroke-linejoin:miter;stroke-miterlimit:10;stroke-dasharray:none;stroke-opacity:1"
                     id="path20" /></g><g
                   id="g26"><path
                     d="M 0.242,56.664 253.91,1.098"
                     style="fill:none;stroke:#000000;stroke-width:2.25;stroke-linecap:butt;stroke-linejoin:miter;stroke-miterlimit:10;stroke-dasharray:none;stroke-opacity:1"
                     id="path24" /></g><g
                   id="g30"><path
                     d="M 33.188,214.961 286.859,159.395"
                     style="fill:none;stroke:#000000;stroke-width:2.25;stroke-linecap:butt;stroke-linejoin:miter;stroke-miterlimit:10;stroke-dasharray:none;stroke-opacity:1"
                     id="path28" /></g><g
                   id="g34"><path
                     d="m 188.996,25.5 29.848,136.258"
                     style="fill:none;stroke:#000000;stroke-width:0.75;stroke-linecap:butt;stroke-linejoin:miter;stroke-miterlimit:10;stroke-dasharray:none;stroke-opacity:1"
                     id="path32" /></g><path
                   d="m 188.027,21.082 c -0.316,2.25 -1.066,5.117 -2.113,7.023 l 3.207,-2.023 3.762,0.496 c -1.746,-1.293 -3.629,-3.586 -4.856,-5.496 z"
                   style="fill:#000000;fill-opacity:1;fill-rule:nonzero;stroke:none"
                   id="path36" /><path
                   d="m 219.812,166.18 c -1.23,-1.914 -3.109,-4.203 -4.855,-5.5 l 3.758,0.496 3.207,-2.024 c -1.043,1.907 -1.793,4.778 -2.11,7.028 z"
                   style="fill:#000000;fill-opacity:1;fill-rule:nonzero;stroke:none"
                   id="path38" /></g></g></g></g></g></g><g
       aria-label="width"
       transform="matrix(1,0,0,-1,122.963,74.277)"
       id="text50"
       style="font-size:9.9626px;font-family:'EB Garamond';-inkscape-font-specification:EBGaramond-Regular"><path
         d="m 5.1307389,-3.7857879 c 0.059776,0.00996 0.1693642,0.079701 0.1693642,0.1793268 0,0.069738 -0.019925,0.2092146 -0.099626,0.4084666 l -0.5579056,1.4943899 c -0.03985,0.099626 -0.1095886,0.3785788 -0.1793268,0.3785788 -0.059776,0 -0.149439,-0.2789528 -0.1892894,-0.3785788 L 3.6363489,-3.3474335 c -0.079701,-0.2092146 0.029888,-0.3387284 0.149439,-0.3885414 0.1693642,-0.079701 0.2889154,-0.1793268 0.2889154,-0.2789528 0,-0.099626 -0.089663,-0.199252 -0.249065,-0.199252 -0.149439,0 -0.6874194,0.059776 -0.8368584,0.059776 -0.149439,0 -0.4881674,-0.059776 -0.6376064,-0.059776 -0.1594016,0 -0.2391024,0.099626 -0.2391024,0.199252 0,0.099626 0.1793268,0.1793268 0.3287658,0.2291398 0.149439,0.049813 0.2889154,0.3686162 0.3885414,0.6276438 l 0.1394764,0.3586536 -0.4084666,1.0958859 c -0.03985,0.099626 -0.1095886,0.398504 -0.1793268,0.398504 -0.059776,0 -0.149439,-0.298878 -0.1892894,-0.398504 L 1.4844274,-3.5267603 c -0.03985,-0.099626 0,-0.2291398 0.049813,-0.2391024 0.2191772,-0.069738 0.3387284,-0.149439 0.3387284,-0.249065 0,-0.099626 -0.089663,-0.199252 -0.249065,-0.199252 -0.149439,0 -0.5678682,0.059776 -0.71730722,0.059776 -0.149439,0 -0.48816739,-0.059776 -0.63760639,-0.059776 -0.15940159,0 -0.23910239,0.099626 -0.23910239,0.199252 0,0.099626 0.17932679,0.1793268 0.32876579,0.2291398 0.149439,0.049813 0.28891539,0.3686162 0.38854139,0.6276438 l 1.10584862,2.89911651 c 0.059776,0.16936419 0.149439,0.39850399 0.2490649,0.39850399 0.1793268,0 0.4582796,-0.94644698 0.6276438,-1.3648762 l 0.4283918,-1.0759607 0.7770828,2.04233291 c 0.059776,0.16936419 0.149439,0.39850399 0.249065,0.39850399 0.1793268,0 0.4582796,-0.94644698 0.6276438,-1.3648762 l 0.7870454,-1.9925199 c 0.1394764,-0.348691 0.3188032,-0.5280178 0.4283918,-0.5678682 0.1494389,-0.049813 0.3387283,-0.1295138 0.3387283,-0.2291398 0,-0.099626 -0.079701,-0.199252 -0.2391024,-0.199252 -0.1494389,0 -0.3287657,0.059776 -0.4782047,0.059776 -0.149439,0 -0.398504,-0.059776 -0.547943,-0.059776 -0.1594016,0 -0.249065,0.099626 -0.249065,0.199252 0,0.099626 0.1295138,0.199252 0.2789528,0.2291398 z"
         id="path52" /><path
         d="m 8.1494066,-6.4258768 c -0.298878,0 -0.5479429,0.2391024 -0.5479429,0.5379803 0,0.3088406 0.2391023,0.5579056 0.5479429,0.5579056 0.3088406,0 0.547943,-0.249065 0.547943,-0.5579056 0,-0.2988779 -0.249065,-0.5379803 -0.547943,-0.5379803 z m -0.3586535,3.4171717 v 1.9327443 c 0,0.24906502 -0.1095886,0.55790561 -0.3785788,0.63760641 -0.2689902,0.0797008 -0.4383544,0.1594016 -0.4383544,0.25902759 0,0.099626 0.089663,0.199252 0.348691,0.199252 0.2191772,0 0.6874193,-0.0597756 0.8866713,-0.0597756 0.1594016,0 0.6575316,0.0597756 0.8767088,0.0597756 0.2590276,0 0.3387284,-0.099626 0.3387284,-0.199252 0,-0.099626 -0.1594016,-0.17932679 -0.4283918,-0.25902759 C 8.7272374,-0.51805519 8.6176488,-0.82689578 8.6176488,-1.0759608 v -2.9987425 c 0,-0.199252 0,-0.2889154 -0.1195512,-0.2889154 -0.099626,0 -0.9265217,0.3287658 -1.0361103,0.3885414 -0.1295138,0.059776 -0.2889154,0.1394764 -0.2889154,0.249065 0,0.1095886 0.099626,0.1693642 0.2092146,0.2092146 0.2391024,0.089663 0.4084666,0.3387284 0.4084666,0.5080926 z"
         id="path54" /><path
         d="m 10.410917,-2.3212857 c 0,-0.697382 0.249065,-1.5342404 0.946447,-1.5342404 0.617681,0 1.115811,0.5280178 1.115811,1.1556616 v 1.5242777 c 0,0.39850402 -0.388541,0.61768121 -0.777083,0.61768121 -0.856783,0 -1.285175,-0.86674621 -1.285175,-1.76338011 z m 2.769602,-4.4632447 c -0.09963,0 -0.657531,0.1693642 -1.056035,0.2391024 -0.139476,0.019925 -0.288915,0.099626 -0.288915,0.2092146 0,0.1095886 0.119551,0.1892894 0.229139,0.2291398 0.239103,0.089663 0.408467,0.2889153 0.408467,0.4582795 v 1.4645022 c -0.01992,0.1892894 -0.03985,0.2391024 -0.129514,0.1594016 -0.139476,-0.1394764 -0.458279,-0.2590276 -0.777083,-0.2590276 -1.255287,0 -2.0722204,1.2253998 -2.0722204,2.4707247 0,1.01618522 0.8069704,1.892894 1.8231554,1.892894 0.398504,0 0.787046,-0.1594016 1.016186,-0.48816739 0.06974,-0.099626 0.09963,-0.0896634 0.119551,0.009963 0.02989,0.149439 0.05978,0.27895279 0.08966,0.37857879 0.01,0.049813 0.05978,0.1394764 0.139476,0.1394764 0.149439,0 1.135737,-0.2391024 1.315064,-0.32876579 0.0797,-0.0398504 0.129513,-0.1195512 0.129513,-0.249065 0,-0.0697382 -0.0797,-0.15940159 -0.129513,-0.15940159 -0.0797,0 -0.408467,0.0597756 -0.537981,0.0597756 -0.09963,0 -0.159401,-0.049813 -0.159401,-0.27895279 V -6.5155402 c 0,-0.1892894 0,-0.2689902 -0.119552,-0.2689902 z"
         id="path56" /><path
         d="m 16.159336,0.0797008 c 0.597756,0 1.135736,-0.48816739 1.135736,-0.71730718 0,-0.099626 -0.04981,-0.1394764 -0.149439,-0.1394764 -0.09963,0 -0.348691,0.17932679 -0.717307,0.17932679 -0.348691,0 -0.518055,-0.21917719 -0.518055,-0.91655921 v -1.8630061 c 0,-0.1394764 0.03985,-0.1892894 0.159402,-0.1892894 h 0.986297 c 0.139476,0 0.239102,-0.2590276 0.239102,-0.3586536 0,-0.099626 -0.03985,-0.2291398 -0.199252,-0.2291398 h -0.966372 c -0.129514,0 -0.219177,-0.049813 -0.219177,-0.149439 v -0.2789528 c 0,-0.1693642 -0.01993,-0.249065 -0.139476,-0.249065 -0.129514,0 -0.508093,0.3785788 -0.647569,0.49813 -0.249065,0.2092146 -0.667494,0.4881674 -0.667494,0.6276438 0,0.099626 0.229139,0.1394764 0.318803,0.1394764 0.368616,0 0.30884,0.049813 0.30884,0.1394764 v 2.3710987 c 0,0.84682101 0.488168,1.1357364 1.075961,1.1357364 z"
         id="path58" /><path
         d="m 21.907757,-1.095886 v -1.8032305 c 0,-0.7272698 -0.547943,-1.3848014 -1.245325,-1.3848014 -0.518056,0 -0.906597,0.1195512 -1.235363,0.3885414 -0.0797,0.069738 -0.199252,0.2191772 -0.199252,-0.03985 v -2.5803133 c 0,-0.1892894 0,-0.2689902 -0.119551,-0.2689902 -0.09963,0 -0.637606,0.1693642 -1.03611,0.2391024 -0.139477,0.019925 -0.288916,0.099626 -0.288916,0.2092146 0,0.1095886 0.119552,0.1892894 0.22914,0.2291398 0.239103,0.089663 0.388542,0.2889153 0.388542,0.4582795 v 4.5728333 c 0,0.24906502 -0.109589,0.55790561 -0.378579,0.63760641 -0.26899,0.0797008 -0.388542,0.1594016 -0.388542,0.25902759 0,0.099626 0.03985,0.199252 0.298878,0.199252 0.219178,0 0.68742,-0.0597756 0.886672,-0.0597756 0.159401,0 0.508092,0.0597756 0.727269,0.0597756 0.259028,0 0.288916,-0.099626 0.288916,-0.199252 0,-0.099626 -0.109589,-0.17932679 -0.378579,-0.25902759 -0.189289,-0.0597756 -0.22914,-0.38854139 -0.22914,-0.63760641 l 0.01,-1.5940159 c 0,-0.7571576 0.398504,-1.095886 0.976335,-1.095886 0.518055,0 0.866746,0.5778308 0.866746,1.1656242 v 1.5242777 c 0,0.24906502 -0.04981,0.58779341 -0.22914,0.63760641 -0.26899,0.0797008 -0.388541,0.1594016 -0.388541,0.25902759 0,0.099626 0.03985,0.199252 0.298878,0.199252 0.219177,0 0.53798,-0.0597756 0.737232,-0.0597756 0.159402,0 0.657532,0.0597756 0.876709,0.0597756 0.259027,0 0.26899,-0.099626 0.26899,-0.199252 0,-0.099626 -0.08966,-0.17932679 -0.358654,-0.25902759 -0.26899,-0.0797008 -0.368616,-0.39850399 -0.378578,-0.65753161 z"
         id="path60" /></g></g></svg>
