<?xml version="1.0" encoding="UTF-8" standalone="no"?>
<!-- Created with Inkscape (http://www.inkscape.org/) -->

<svg
   version="1.1"
   id="svg2"
   xml:space="preserve"
   width="259.55734"
   height="215.72667"
   viewBox="0 0 259.55734 215.72667"
   xmlns="http://www.w3.org/2000/svg"
   xmlns:svg="http://www.w3.org/2000/svg"><defs
     id="defs6"><clipPath
       clipPathUnits="userSpaceOnUse"
       id="clipPath146"><path
         d="M 0,0 H 194.27216 V 161.39844 H 0 Z"
         id="path144" /></clipPath></defs><g
     id="g8"
     transform="matrix(1.3333333,0,0,-1.3333333,0,215.72667)"><g
       id="g10"
       transform="translate(0.199,0.199)"><g
         id="g12"><g
           id="g14"><g
             id="g16" /><g
             id="g18" /><g
             id="g20"><g
               id="g22" /></g><g
             id="g24" /><g
             id="g26" /><g
             id="g28" /><g
             id="g30" /><g
             id="g32"
             transform="translate(-0.199,-0.199)"><g
               id="g34"
               transform="translate(0.199,0.199)"><g
                 id="g36"><g
                   id="g38"><g
                     id="g40"><g
                       id="g42"><g
                         id="g44"><path
                           d="m 64.75739,78.57204 v 4.25221 m 64.75738,-4.25221 v 4.25221"
                           style="fill:none;stroke:#808080;stroke-width:0.19925;stroke-linecap:butt;stroke-linejoin:miter;stroke-miterlimit:10;stroke-dasharray:none;stroke-opacity:1"
                           id="path46" /></g></g><g
                       id="g48"><g
                         id="g50"><path
                           d="m 95.01018,27.44257 h 4.25177 m -4.25177,106.51115 h 4.25177"
                           style="fill:none;stroke:#808080;stroke-width:0.19925;stroke-linecap:butt;stroke-linejoin:miter;stroke-miterlimit:10;stroke-dasharray:none;stroke-opacity:1"
                           id="path52" /></g></g><path
                       d="M 0,80.69815 H 192.27963"
                       style="fill:none;stroke:#000000;stroke-width:0.3985;stroke-linecap:butt;stroke-linejoin:miter;stroke-miterlimit:10;stroke-dasharray:none;stroke-opacity:1"
                       id="path54" /><g
                       id="g56"
                       transform="translate(192.27963,80.69815)"><g
                         id="g58"><path
                           d="M 1.99252,0 -1.19551,1.59401 0,0 -1.19551,-1.59401"
                           style="fill:#000000;fill-opacity:1;fill-rule:nonzero;stroke:none"
                           id="path60" /></g></g><path
                       d="M 97.13608,0 V 159.40591"
                       style="fill:none;stroke:#000000;stroke-width:0.3985;stroke-linecap:butt;stroke-linejoin:miter;stroke-miterlimit:10;stroke-dasharray:none;stroke-opacity:1"
                       id="path62" /><g
                       id="g64"
                       transform="rotate(90,-31.134915,128.27099)"><g
                         id="g66"><path
                           d="M 1.99252,0 -1.19551,1.59401 0,0 -1.19551,-1.59401"
                           style="fill:#000000;fill-opacity:1;fill-rule:nonzero;stroke:none"
                           id="path68" /></g></g><g
                       id="g70"><g
                         id="g72"
                         transform="translate(58.392,68.631)"><g
                           id="g74"><g
                             id="g76"
                             transform="translate(-58.591,-68.83)"><g
                               aria-label="−"
                               transform="matrix(1,0,0,-1,58.591,68.83)"
                               id="text80"
                               style="font-size:9.9626px;font-family:CMSY10;-inkscape-font-specification:CMSY10"><path
                                 d="m 1.0556075,-3.5365283 h 6.2363539 v 0.8269736 H 1.0556075 Z"
                                 id="path360" /></g><g
                               aria-label="1"
                               transform="matrix(1,0,0,-1,66.34,68.83)"
                               id="text84"
                               style="font-size:9.9626px;font-family:CMR10;-inkscape-font-specification:CMR10"><path
                                 d="m 0.92426463,0 v -0.35024765 q 1.24532497,0 1.24532497,-0.31619579 V -5.8958354 Q 1.6539472,-5.6477433 0.86589002,-5.6477433 V -5.997991 q 1.22100218,0 1.84366468,-0.6372561 h 0.141072 q 0.034052,0 0.063239,0.029187 0.034052,0.024323 0.034052,0.058375 v 5.88124176 q 0,0.31619579 1.245325,0.31619579 V 0 Z"
                                 id="path363" /></g><g
                               id="g86"
                               transform="translate(58.591,68.83)" /></g></g><g
                           id="g88"
                           transform="translate(-58.392,-68.631)" /></g></g><g
                       id="g90"><g
                         id="g92"
                         transform="translate(127.023,68.631)"><g
                           id="g94"><g
                             id="g96"
                             transform="translate(-127.222,-68.83)"><g
                               aria-label="1"
                               transform="matrix(1,0,0,-1,127.222,68.83)"
                               id="text100"
                               style="font-size:9.9626px;font-family:CMR10;-inkscape-font-specification:CMR10"><path
                                 d="m 0.92426463,0 v -0.35024765 q 1.24532497,0 1.24532497,-0.31619579 V -5.8958354 Q 1.6539472,-5.6477433 0.86589002,-5.6477433 V -5.997991 q 1.22100218,0 1.84366468,-0.6372561 h 0.141072 q 0.034052,0 0.063239,0.029187 0.034052,0.024323 0.034052,0.058375 v 5.88124176 q 0,0.31619579 1.245325,0.31619579 V 0 Z"
                                 id="path366" /></g><g
                               id="g102"
                               transform="translate(127.222,68.83)" /></g></g><g
                           id="g104"
                           transform="translate(-127.023,-68.631)" /></g></g><g
                       id="g106"><g
                         id="g108"
                         transform="translate(78.759,24.647)"><g
                           id="g110"><g
                             id="g112"
                             transform="translate(-78.958,-24.846)"><g
                               aria-label="−"
                               transform="matrix(1,0,0,-1,78.958,24.846)"
                               id="text116"
                               style="font-size:9.9626px;font-family:CMSY10;-inkscape-font-specification:CMSY10"><path
                                 d="m 1.0556075,-3.5365283 h 6.2363539 v 0.8269736 H 1.0556075 Z"
                                 id="path369" /></g><g
                               aria-label="1"
                               transform="matrix(1,0,0,-1,86.707,24.846)"
                               id="text120"
                               style="font-size:9.9626px;font-family:CMR10;-inkscape-font-specification:CMR10"><path
                                 d="m 0.92426463,0 v -0.35024765 q 1.24532497,0 1.24532497,-0.31619579 V -5.8958354 Q 1.6539472,-5.6477433 0.86589002,-5.6477433 V -5.997991 q 1.22100218,0 1.84366468,-0.6372561 h 0.141072 q 0.034052,0 0.063239,0.029187 0.034052,0.024323 0.034052,0.058375 v 5.88124176 q 0,0.31619579 1.245325,0.31619579 V 0 Z"
                                 id="path372" /></g><g
                               id="g122"
                               transform="translate(78.958,24.846)" /></g></g><g
                           id="g124"
                           transform="translate(-78.759,-24.647)" /></g></g><g
                       id="g126"><g
                         id="g128"
                         transform="translate(86.508,130.742)"><g
                           id="g130"><g
                             id="g132"
                             transform="translate(-86.707,-130.941)"><g
                               aria-label="1"
                               transform="matrix(1,0,0,-1,86.707,130.941)"
                               id="text136"
                               style="font-size:9.9626px;font-family:CMR10;-inkscape-font-specification:CMR10"><path
                                 d="m 0.92426463,0 v -0.35024765 q 1.24532497,0 1.24532497,-0.31619579 V -5.8958354 Q 1.6539472,-5.6477433 0.86589002,-5.6477433 V -5.997991 q 1.22100218,0 1.84366468,-0.6372561 h 0.141072 q 0.034052,0 0.063239,0.029187 0.034052,0.024323 0.034052,0.058375 v 5.88124176 q 0,0.31619579 1.245325,0.31619579 V 0 Z"
                                 id="path375" /></g><g
                               id="g138"
                               transform="translate(86.707,130.941)" /></g></g><g
                           id="g140"
                           transform="translate(-86.508,-130.742)" /></g></g><g
                       id="g142"
                       clip-path="url(#clipPath146)"><g
                         id="g148"><path
                           d="m 0,14.17981 1.22182,0.20345 1.22183,0.21034 1.22183,0.21356 1.22183,0.21356 1.22184,0.22687 1.22183,0.22739 1.22183,0.23592 1.22183,0.23913 1.22184,0.24286 1.22182,0.25189 1.22184,0.25987 1.22185,0.26309 1.22181,0.27159 1.22184,0.28014 1.22183,0.28812 1.22185,0.29503 1.22181,0.30248 1.22184,0.3073 1.22184,0.32219 1.22184,0.32593 1.22181,0.33604 1.22184,0.34882 1.22184,0.35842 1.22183,0.36639 1.22182,0.38025 1.22185,0.39036 1.22183,0.40102 1.22183,0.41378 1.22184,0.42817 1.22183,0.44044 1.22183,0.4532 1.22183,0.46919 1.22184,0.48516 1.22183,0.5038 1.22183,0.51869 1.22183,0.5315 1.22185,0.55545 1.22182,0.57142 1.22183,0.59381 1.22183,0.61031 1.22185,0.638 1.22182,0.65559 1.22183,0.68273 1.22185,0.70457 1.22183,0.73439 1.22181,0.75943 1.22184,0.78658 1.22184,0.81854 1.22184,0.84889 1.22181,0.87926 1.22185,0.91652 1.22184,0.94902 1.22183,0.98149 1.22181,1.02412 1.22185,1.06298 1.22183,1.10452 1.22183,1.14659 1.22184,1.18866 1.22181,1.235 1.22185,1.28026 1.22183,1.32767 1.22184,1.37506 1.22183,1.42351 1.22183,1.47215 1.22183,1.5222 1.22184,1.57083 1.22183,1.61992 1.22183,1.66739 1.22183,1.71434 1.22185,1.75925 1.22181,1.80142 1.22184,1.84137 1.22183,1.87858 1.22185,1.91113 1.22182,1.94112 1.22183,1.96486 1.22185,1.98372 1.22183,1.9982 1.22182,2.00623 1.22183,2.00959 1.22184,2.00668 1.22184,1.99773 1.22182,1.98372 1.22183,1.96492 1.22184,1.94011 1.22183,1.91164 1.22184,1.87813 1.22183,1.84188 1.22183,1.80144 1.22184,1.75929 1.22183,1.71399 1.22181,1.66779 1.22185,1.61955 1.22183,1.57138 1.22185,1.52176 1.22182,1.47269 1.22183,1.42404 1.22184,1.37508 1.22183,1.32765 1.22183,1.27972 1.22191,1.23555 1.22172,1.18918 1.22191,1.14607 1.22171,1.10451 1.22191,1.06352 1.22191,1.02411 1.22172,0.98149 1.2219,0.94902 1.22172,0.91332 1.22193,0.88244 1.22189,0.84891 1.22171,0.81854 1.22192,0.78658 1.22171,0.75943 1.22193,0.73439 1.22189,0.70457 1.22173,0.68274 1.2219,0.65558 1.22173,0.638 1.22191,0.61029 1.22189,0.59381 1.22173,0.57144 1.22191,0.55546 1.22172,0.53149 1.22189,0.51871 1.22193,0.50378 1.22172,0.48038 1.22191,0.47398 1.22171,0.4532 1.22191,0.44042 1.22191,0.42818 1.22173,0.41378 1.22189,0.40102 1.22173,0.39038 1.2219,0.38023 1.22191,0.3664 1.22171,0.35841 1.22193,0.34883 1.22171,0.33603 1.22192,0.32592 1.22189,0.32221 1.22173,0.30729 1.2219,0.30247 1.22173,0.29504 1.22191,0.28812 1.22189,0.27533 1.22173,0.2764 1.22191,0.26308 1.22173,0.25988 1.22189,0.25189 1.22191,0.24286 1.22172,0.23913 1.22191,0.23593 1.22171,0.22738 1.22192,0.22687 1.22191,0.21356 1.22173,0.21355 1.22189,0.21036 1.22173,0.20184"
                           style="fill:none;stroke:#0000ff;stroke-width:0.79701;stroke-linecap:butt;stroke-linejoin:miter;stroke-miterlimit:10;stroke-dasharray:none;stroke-opacity:1"
                           id="path150" /><g
                           id="g152"><g
                             id="g154"
                             transform="translate(176.515,139.094)"><g
                               id="g156" /><g
                               id="g158"
                               transform="translate(-176.515,-139.094)" /></g></g></g><g
                         id="g160"><g
                           id="g162" /><g
                           id="g164"
                           transform="translate(164.393,135.884)"><g
                             id="g166"><g
                               id="g168"
                               transform="translate(-164.592,-136.083)"><g
                                 aria-label="n"
                                 transform="matrix(1,0,0,-1,164.592,136.083)"
                                 id="text172"
                                 style="font-size:9.9626px;font-family:CMMI10;-inkscape-font-specification:CMMI10"><path
                                   d="m 0.768599,-0.17025927 q 0,-0.0583746 0.009729,-0.0875619 L 1.5226044,-3.2300616 q 0.072968,-0.2772794 0.072968,-0.4864551 0,-0.4280805 -0.291873,-0.4280805 -0.31133127,0 -0.46213234,0.3745704 -0.15080107,0.3697059 -0.29187304,0.9388583 0,0.029187 -0.0291873,0.048646 -0.0291873,0.014594 -0.0535101,0.014594 H 0.35024765 q -0.0340519,0 -0.0583746,-0.034052 -0.0243227,-0.038916 -0.0243227,-0.068104 0.10702011,-0.432945 0.20431112,-0.7345471 0.10215557,-0.3016022 0.31133125,-0.5496943 0.21404023,-0.248092 0.53023604,-0.248092 0.3745704,0 0.6615789,0.2383629 0.2870085,0.2334985 0.2870085,0.5983398 0.2967375,-0.3891641 0.6956307,-0.6129334 0.3988932,-0.2237693 0.8464318,-0.2237693 0.3551122,0 0.6129334,0.1216137 0.2578212,0.1216138 0.3988932,0.3697059 0.1459365,0.2432275 0.1459365,0.583746 0,0.4086223 -0.184853,0.9875038 -0.1799883,0.5788816 -0.4524032,1.2939705 -0.1410719,0.3259249 -0.1410719,0.59833974 0,0.29673759 0.2286338,0.29673759 0.3891641,0 0.6469853,-0.41835136 0.2626857,-0.41835135 0.3697058,-0.89507727 0.019458,-0.058375 0.082697,-0.058375 h 0.1167492 q 0.038916,0 0.063239,0.024323 0.029187,0.024323 0.029187,0.063239 0,0.00973 -0.00973,0.029187 -0.1362074,0.56428784 -0.476726,1.0410138 -0.335654,0.47672597 -0.8415673,0.47672597 -0.3502476,0 -0.5983397,-0.23836299 -0.2480921,-0.24322753 -0.2480921,-0.58861063 0,-0.18485292 0.077833,-0.38916405 0.1264784,-0.3259249 0.2870085,-0.7783281 0.1653948,-0.4524032 0.2675503,-0.86589 0.1070201,-0.4134868 0.1070201,-0.7296826 0,-0.2772794 -0.1167492,-0.4718614 -0.1118846,-0.1945821 -0.3842995,-0.1945821 -0.3648413,0 -0.671308,0.1605302 -0.3064667,0.1605302 -0.5351005,0.4280805 -0.2286339,0.2626857 -0.4183514,0.627527 L 1.483688,-0.21890478 q -0.034052,0.13620742 -0.1556657,0.23349843 -0.1167492,0.09729102 -0.2626857,0.09729102 -0.12161377,0 -0.20917568,-0.07783282 Q 0.768599,-0.04378096 0.768599,-0.17025927 Z"
                                   id="path378" /></g><g
                                 aria-label="=1"
                                 transform="matrix(1,0,0,-1,173.339,136.083)"
                                 id="text176"
                                 style="font-size:9.9626px;font-family:CMR10;-inkscape-font-specification:CMR10"><path
                                   d="m 0.7491408,-1.3231578 q -0.0826974,0 -0.13620742,-0.063239 -0.05351,-0.063239 -0.05351,-0.1362075 0,-0.082697 0.05351,-0.1410719 0.0535101,-0.058375 0.13620742,-0.058375 H 7.004953 q 0.072968,0 0.1264783,0.058375 0.05351,0.058375 0.05351,0.1410719 0,0.072968 -0.05351,0.1362075 -0.05351,0.063239 -0.1264783,0.063239 z m 0,-1.9360911 q -0.0826974,0 -0.13620742,-0.058375 -0.05351,-0.058375 -0.05351,-0.1410719 0,-0.072968 0.05351,-0.1362074 0.0535101,-0.063239 0.13620742,-0.063239 H 7.004953 q 0.072968,0 0.1264783,0.063239 0.05351,0.063239 0.05351,0.1362074 0,0.082697 -0.05351,0.1410719 -0.05351,0.058375 -0.1264783,0.058375 z"
                                   id="path381" /><path
                                   d="m 11.442777,0 v -0.35024765 q 1.245325,0 1.245325,-0.31619579 V -5.8958354 q -0.515642,0.2480921 -1.303699,0.2480921 V -5.997991 q 1.221002,0 1.843664,-0.6372561 h 0.141072 q 0.03405,0 0.06324,0.029187 0.03405,0.024323 0.03405,0.058375 v 5.88124176 q 0,0.31619579 1.245325,0.31619579 V 0 Z"
                                   id="path383" /></g><g
                                 id="g178"
                                 transform="translate(164.592,136.083)" /></g></g><g
                             id="g180"
                             transform="translate(-164.393,-135.884)" /></g></g><g
                         id="g182"><path
                           d="m 0,5.84 1.22182,0.1065 1.22183,0.1145 1.22183,0.11876 1.22183,0.11344 1.22184,0.12462 1.22183,0.12355 1.22183,0.12887 1.22183,0.13367 1.22184,0.13473 1.22182,0.13794 1.22184,0.14434 1.22185,0.14378 1.22181,0.15337 1.22184,0.15338 1.22183,0.16456 1.22185,0.16295 1.22181,0.1731 1.22184,0.17308 1.22184,0.18373 1.22184,0.18266 1.22181,0.1928 1.22184,0.20236 1.22184,0.20715 1.22183,0.21198 1.22182,0.22099 1.22185,0.22689 1.22183,0.23538 1.22183,0.24498 1.22184,0.25509 1.22183,0.26308 1.22183,0.27319 1.22183,0.28705 1.22184,0.29663 1.22183,0.30943 1.22183,0.31847 1.22183,0.3323 1.22185,0.35042 1.22182,0.36321 1.22183,0.38077 1.22183,0.39941 1.22185,0.41542 1.22182,0.43616 1.22183,0.45853 1.22185,0.4777 1.22183,0.50272 1.22181,0.53256 1.22184,0.55385 1.22184,0.59274 1.22184,0.62097 1.22181,0.65505 1.22185,0.69604 1.22184,0.73546 1.22183,0.77701 1.22181,0.83292 1.22185,0.88084 1.22183,0.93942 1.22183,0.9996 1.22184,1.07097 1.22181,1.14553 1.22185,1.22595 1.22183,1.31754 1.22184,1.41233 1.22183,1.51992 1.22183,1.63496 1.22183,1.76062 1.22184,1.90015 1.22183,2.04343 1.22183,2.20904 1.22183,2.37892 1.22185,2.5616 1.22181,2.75064 1.22184,2.94504 1.22183,3.14207 1.22185,3.33477 1.22182,3.51747 1.22183,3.68235 1.22185,3.82221 1.22183,3.92755 1.22182,3.99449 1.22183,4.01835 1.22184,3.99455 1.22184,3.92801 1.22182,3.82188 1.22183,3.68248 1.22184,3.51756 1.22183,3.33487 1.22184,3.14214 1.22183,2.94549 1.22183,2.75067 1.22184,2.56054 1.22183,2.37999 1.22181,2.20904 1.22185,2.04181 1.22183,1.90015 1.22185,1.76382 1.22182,1.63496 1.22183,1.51992 1.22184,1.41234 1.22183,1.31488 1.22183,1.2286 1.22191,1.14551 1.22172,1.06726 1.22191,1.00333 1.22171,0.93942 1.22191,0.88085 1.22191,0.82813 1.22172,0.78179 1.2219,0.73546 1.22172,0.69605 1.22193,0.65504 1.22189,0.62096 1.22171,0.59274 1.22192,0.55384 1.22171,0.53257 1.22193,0.50275 1.22189,0.47769 1.22173,0.45852 1.2219,0.43616 1.22173,0.4154 1.22191,0.39942 1.22189,0.38078 1.22173,0.36321 1.22191,0.34509 1.22172,0.33763 1.22189,0.31848 1.22193,0.3094 1.22172,0.29664 1.22191,0.28706 1.22171,0.27319 1.22191,0.26308 1.22191,0.2551 1.22173,0.24498 1.22189,0.23537 1.22173,0.22689 1.2219,0.22101 1.22191,0.21196 1.22171,0.20715 1.22193,0.20236 1.22171,0.1928 1.22192,0.18266 1.22189,0.18373 1.22173,0.17308 1.2219,0.1731 1.22173,0.16295 1.22191,0.16455 1.22189,0.15338 1.22173,0.15338 1.22191,0.14378 1.22173,0.14434 1.22189,0.13794 1.22191,0.13472 1.22172,0.13368 1.22191,0.12887 1.22171,0.12356 1.22192,0.12461 1.22191,0.11344 1.22173,0.11876 1.22189,0.1145 1.22173,0.10812"
                           style="fill:none;stroke:#3333ff;stroke-width:0.79701;stroke-linecap:butt;stroke-linejoin:miter;stroke-miterlimit:10;stroke-dasharray:none;stroke-opacity:1"
                           id="path184" /><g
                           id="g186"><g
                             id="g188"
                             transform="translate(174.968,149.176)"><g
                               id="g190" /><g
                               id="g192"
                               transform="translate(-174.968,-149.176)" /></g></g></g><g
                         id="g194"><g
                           id="g196" /><g
                           id="g198"
                           transform="translate(162.846,145.966)"><g
                             id="g200"><g
                               id="g202"
                               transform="translate(-163.045,-146.165)"><g
                                 aria-label="n"
                                 transform="matrix(1,0,0,-1,163.045,146.165)"
                                 id="text206"
                                 style="font-size:9.9626px;font-family:CMMI10;-inkscape-font-specification:CMMI10"><path
                                   d="m 0.768599,-0.17025927 q 0,-0.0583746 0.009729,-0.0875619 L 1.5226044,-3.2300616 q 0.072968,-0.2772794 0.072968,-0.4864551 0,-0.4280805 -0.291873,-0.4280805 -0.31133127,0 -0.46213234,0.3745704 -0.15080107,0.3697059 -0.29187304,0.9388583 0,0.029187 -0.0291873,0.048646 -0.0291873,0.014594 -0.0535101,0.014594 H 0.35024765 q -0.0340519,0 -0.0583746,-0.034052 -0.0243227,-0.038916 -0.0243227,-0.068104 0.10702011,-0.432945 0.20431112,-0.7345471 0.10215557,-0.3016022 0.31133125,-0.5496943 0.21404023,-0.248092 0.53023604,-0.248092 0.3745704,0 0.6615789,0.2383629 0.2870085,0.2334985 0.2870085,0.5983398 0.2967375,-0.3891641 0.6956307,-0.6129334 0.3988932,-0.2237693 0.8464318,-0.2237693 0.3551122,0 0.6129334,0.1216137 0.2578212,0.1216138 0.3988932,0.3697059 0.1459365,0.2432275 0.1459365,0.583746 0,0.4086223 -0.184853,0.9875038 -0.1799883,0.5788816 -0.4524032,1.2939705 -0.1410719,0.3259249 -0.1410719,0.59833974 0,0.29673759 0.2286338,0.29673759 0.3891641,0 0.6469853,-0.41835136 0.2626857,-0.41835135 0.3697058,-0.89507727 0.019458,-0.058375 0.082697,-0.058375 h 0.1167492 q 0.038916,0 0.063239,0.024323 0.029187,0.024323 0.029187,0.063239 0,0.00973 -0.00973,0.029187 -0.1362074,0.56428784 -0.476726,1.0410138 -0.335654,0.47672597 -0.8415673,0.47672597 -0.3502476,0 -0.5983397,-0.23836299 -0.2480921,-0.24322753 -0.2480921,-0.58861063 0,-0.18485292 0.077833,-0.38916405 0.1264784,-0.3259249 0.2870085,-0.7783281 0.1653948,-0.4524032 0.2675503,-0.86589 0.1070201,-0.4134868 0.1070201,-0.7296826 0,-0.2772794 -0.1167492,-0.4718614 -0.1118846,-0.1945821 -0.3842995,-0.1945821 -0.3648413,0 -0.671308,0.1605302 -0.3064667,0.1605302 -0.5351005,0.4280805 -0.2286339,0.2626857 -0.4183514,0.627527 L 1.483688,-0.21890478 q -0.034052,0.13620742 -0.1556657,0.23349843 -0.1167492,0.09729102 -0.2626857,0.09729102 -0.12161377,0 -0.20917568,-0.07783282 Q 0.768599,-0.04378096 0.768599,-0.17025927 Z"
                                   id="path386" /></g><g
                                 aria-label="=2"
                                 transform="matrix(1,0,0,-1,171.792,146.165)"
                                 id="text210"
                                 style="font-size:9.9626px;font-family:CMR10;-inkscape-font-specification:CMR10"><path
                                   d="m 0.7491408,-1.3231578 q -0.0826974,0 -0.13620742,-0.063239 -0.05351,-0.063239 -0.05351,-0.1362075 0,-0.082697 0.05351,-0.1410719 0.0535101,-0.058375 0.13620742,-0.058375 H 7.004953 q 0.072968,0 0.1264783,0.058375 0.05351,0.058375 0.05351,0.1410719 0,0.072968 -0.05351,0.1362075 -0.05351,0.063239 -0.1264783,0.063239 z m 0,-1.9360911 q -0.0826974,0 -0.13620742,-0.058375 -0.05351,-0.058375 -0.05351,-0.1410719 0,-0.072968 0.05351,-0.1362074 0.0535101,-0.063239 0.13620742,-0.063239 H 7.004953 q 0.072968,0 0.1264783,0.063239 0.05351,0.063239 0.05351,0.1362074 0,0.082697 -0.05351,0.1410719 -0.05351,0.058375 -0.1264783,0.058375 z"
                                   id="path389" /><path
                                   d="m 11.014697,0 v -0.26755029 q 0,-0.0243227 0.01946,-0.05351 l 1.546927,-1.71232186 q 0.350248,-0.3794349 0.569153,-0.6372561 0.218904,-0.2578212 0.432945,-0.5934752 0.21404,-0.335654 0.335654,-0.6810371 0.126478,-0.3502476 0.126478,-0.7394117 0,-0.4086222 -0.150801,-0.7783281 -0.150801,-0.3745704 -0.452403,-0.5983397 -0.296738,-0.2237694 -0.719954,-0.2237694 -0.432945,0 -0.778328,0.2626858 -0.345383,0.2578212 -0.486455,0.671308 0.03892,-0.00973 0.10702,-0.00973 0.223769,0 0.379435,0.150801 0.16053,0.1508011 0.16053,0.3891641 0,0.2286339 -0.16053,0.389164 -0.155666,0.1556657 -0.379435,0.1556657 -0.233498,0 -0.394028,-0.1605302 -0.155666,-0.1653947 -0.155666,-0.3842995 0,-0.3745704 0.141072,-0.7004953 0.141072,-0.3307894 0.403758,-0.5837461 0.26755,-0.2578212 0.598339,-0.3940286 0.335654,-0.1362074 0.710225,-0.1362074 0.569152,0 1.060472,0.2432275 0.491319,0.238363 0.778328,0.6810371 0.287008,0.4378096 0.287008,1.0264202 0,0.432945 -0.189717,0.8221091 -0.189718,0.389164 -0.486455,0.7102244 -0.296738,0.3161958 -0.75887,0.7199535 -0.462132,0.4037577 -0.608069,0.5399651 l -1.128576,1.08479479 h 0.958317 q 0.70536,0 1.177221,-0.009729 0.476726,-0.0145937 0.505913,-0.0389164 0.11675,-0.12647831 0.238363,-0.91940008 h 0.291873 L 14.711755,0 Z"
                                   id="path391" /></g><g
                                 id="g212"
                                 transform="translate(163.045,146.165)" /></g></g><g
                             id="g214"
                             transform="translate(-162.846,-145.966)" /></g></g><g
                         id="g216"><path
                           d="m 0,2.93756 1.22182,0.07457 1.22183,0.07402 1.22183,0.0788 1.22183,0.07829 1.22184,0.08416 1.22183,0.0836 1.22183,0.09054 1.22183,0.0884 1.22184,0.08946 1.22182,0.09427 1.22184,0.09906 1.22185,0.10012 1.22181,0.10439 1.22184,0.1049 1.22183,0.10971 1.22185,0.11556 1.22181,0.1145 1.22184,0.12036 1.22184,0.12516 1.22184,0.12408 1.22181,0.13048 1.22184,0.14111 1.22184,0.14061 1.22183,0.14539 1.22182,0.15017 1.22185,0.16083 1.22183,0.16136 1.22183,0.17043 1.22184,0.17573 1.22183,0.18108 1.22183,0.19014 1.22183,0.19649 1.22184,0.20557 1.22183,0.21623 1.22183,0.22526 1.22183,0.23059 1.22185,0.24552 1.22182,0.25456 1.22183,0.26947 1.22183,0.28065 1.22185,0.29292 1.22182,0.30834 1.22183,0.32753 1.22185,0.3419 1.22183,0.36107 1.22181,0.37865 1.22184,0.40261 1.22184,0.43084 1.22184,0.45267 1.22181,0.48089 1.22185,0.51126 1.22184,0.54801 1.22183,0.58154 1.22181,0.62575 1.22185,0.66782 1.22183,0.71791 1.22183,0.77485 1.22184,0.83985 1.22181,0.90481 1.22185,0.98416 1.22183,1.07363 1.22184,1.17163 1.22183,1.28239 1.22183,1.40755 1.22183,1.55399 1.22184,1.72068 1.22183,1.9039 1.22183,2.12169 1.22183,2.36455 1.22185,2.64467 1.22181,2.9541 1.22184,3.31302 1.22183,3.70445 1.22185,4.12624 1.22182,4.56587 1.22183,5.00111 1.22185,5.40247 1.22183,5.72978 1.22182,5.94678 1.22183,6.02199 1.22184,5.94688 1.22184,5.73094 1.22182,5.40261 1.22183,5.0014 1.22184,4.56569 1.22183,4.12625 1.22184,3.70498 1.22183,3.31357 1.22183,2.95569 1.22184,2.64467 1.22183,2.36455 1.22181,2.1217 1.22185,1.90387 1.22183,1.71698 1.22185,1.55345 1.22182,1.41182 1.22183,1.28238 1.22184,1.17163 1.22183,1.06884 1.22183,0.98471 1.22191,0.90905 1.22172,0.83558 1.22191,0.77912 1.22171,0.71792 1.22191,0.66781 1.22191,0.62575 1.22172,0.58154 1.2219,0.54801 1.22172,0.51126 1.22193,0.4809 1.22189,0.45266 1.22171,0.43085 1.22192,0.4026 1.22171,0.37865 1.22193,0.36107 1.22189,0.3419 1.22173,0.32753 1.2219,0.30835 1.22173,0.29291 1.22191,0.28065 1.22189,0.26947 1.22173,0.25456 1.22191,0.24552 1.22172,0.23059 1.22189,0.22527 1.22193,0.21623 1.22172,0.20556 1.22191,0.19651 1.22171,0.19012 1.22191,0.18108 1.22191,0.17573 1.22173,0.17041 1.22189,0.16136 1.22173,0.16085 1.2219,0.15017 1.22191,0.1454 1.22171,0.14058 1.22193,0.14115 1.22171,0.13047 1.22192,0.12408 1.22189,0.12516 1.22173,0.12035 1.2219,0.11449 1.22173,0.11557 1.22191,0.10971 1.22189,0.1049 1.22173,0.1044 1.22191,0.10011 1.22173,0.0991 1.22189,0.0943 1.22191,0.0895 1.22172,0.0884 1.22191,0.0905 1.22171,0.0836 1.22192,0.0842 1.22191,0.0783 1.22173,0.0788 1.22189,0.074 1.22173,0.074"
                           style="fill:none;stroke:#6666ff;stroke-width:0.79701;stroke-linecap:butt;stroke-linejoin:miter;stroke-miterlimit:10;stroke-dasharray:none;stroke-opacity:1"
                           id="path218" /><g
                           id="g220"><g
                             id="g222"
                             transform="translate(174.047,152.834)"><g
                               id="g224" /><g
                               id="g226"
                               transform="translate(-174.047,-152.834)" /></g></g></g><g
                         id="g228"><g
                           id="g230" /><g
                           id="g232"
                           transform="translate(161.924,149.624)"><g
                             id="g234"><g
                               id="g236"
                               transform="translate(-162.123,-149.823)"><g
                                 aria-label="n"
                                 transform="matrix(1,0,0,-1,162.123,149.823)"
                                 id="text240"
                                 style="font-size:9.9626px;font-family:CMMI10;-inkscape-font-specification:CMMI10"><path
                                   d="m 0.768599,-0.17025927 q 0,-0.0583746 0.009729,-0.0875619 L 1.5226044,-3.2300616 q 0.072968,-0.2772794 0.072968,-0.4864551 0,-0.4280805 -0.291873,-0.4280805 -0.31133127,0 -0.46213234,0.3745704 -0.15080107,0.3697059 -0.29187304,0.9388583 0,0.029187 -0.0291873,0.048646 -0.0291873,0.014594 -0.0535101,0.014594 H 0.35024765 q -0.0340519,0 -0.0583746,-0.034052 -0.0243227,-0.038916 -0.0243227,-0.068104 0.10702011,-0.432945 0.20431112,-0.7345471 0.10215557,-0.3016022 0.31133125,-0.5496943 0.21404023,-0.248092 0.53023604,-0.248092 0.3745704,0 0.6615789,0.2383629 0.2870085,0.2334985 0.2870085,0.5983398 0.2967375,-0.3891641 0.6956307,-0.6129334 0.3988932,-0.2237693 0.8464318,-0.2237693 0.3551122,0 0.6129334,0.1216137 0.2578212,0.1216138 0.3988932,0.3697059 0.1459365,0.2432275 0.1459365,0.583746 0,0.4086223 -0.184853,0.9875038 -0.1799883,0.5788816 -0.4524032,1.2939705 -0.1410719,0.3259249 -0.1410719,0.59833974 0,0.29673759 0.2286338,0.29673759 0.3891641,0 0.6469853,-0.41835136 0.2626857,-0.41835135 0.3697058,-0.89507727 0.019458,-0.058375 0.082697,-0.058375 h 0.1167492 q 0.038916,0 0.063239,0.024323 0.029187,0.024323 0.029187,0.063239 0,0.00973 -0.00973,0.029187 -0.1362074,0.56428784 -0.476726,1.0410138 -0.335654,0.47672597 -0.8415673,0.47672597 -0.3502476,0 -0.5983397,-0.23836299 -0.2480921,-0.24322753 -0.2480921,-0.58861063 0,-0.18485292 0.077833,-0.38916405 0.1264784,-0.3259249 0.2870085,-0.7783281 0.1653948,-0.4524032 0.2675503,-0.86589 0.1070201,-0.4134868 0.1070201,-0.7296826 0,-0.2772794 -0.1167492,-0.4718614 -0.1118846,-0.1945821 -0.3842995,-0.1945821 -0.3648413,0 -0.671308,0.1605302 -0.3064667,0.1605302 -0.5351005,0.4280805 -0.2286339,0.2626857 -0.4183514,0.627527 L 1.483688,-0.21890478 q -0.034052,0.13620742 -0.1556657,0.23349843 -0.1167492,0.09729102 -0.2626857,0.09729102 -0.12161377,0 -0.20917568,-0.07783282 Q 0.768599,-0.04378096 0.768599,-0.17025927 Z"
                                   id="path394" /></g><g
                                 aria-label="=3"
                                 transform="matrix(1,0,0,-1,170.871,149.823)"
                                 id="text244"
                                 style="font-size:9.9626px;font-family:CMR10;-inkscape-font-specification:CMR10"><path
                                   d="m 0.7491408,-1.3231578 q -0.0826974,0 -0.13620742,-0.063239 -0.05351,-0.063239 -0.05351,-0.1362075 0,-0.082697 0.05351,-0.1410719 0.0535101,-0.058375 0.13620742,-0.058375 H 7.004953 q 0.072968,0 0.1264783,0.058375 0.05351,0.058375 0.05351,0.1410719 0,0.072968 -0.05351,0.1362075 -0.05351,0.063239 -0.1264783,0.063239 z m 0,-1.9360911 q -0.0826974,0 -0.13620742,-0.058375 -0.05351,-0.058375 -0.05351,-0.1410719 0,-0.072968 0.05351,-0.1362074 0.0535101,-0.063239 0.13620742,-0.063239 H 7.004953 q 0.072968,0 0.1264783,0.063239 0.05351,0.063239 0.05351,0.1362074 0,0.082697 -0.05351,0.1410719 -0.05351,0.058375 -0.1264783,0.058375 z"
                                   id="path397" /><path
                                   d="m 11.4671,-0.768599 q 0.233499,0.34051854 0.627527,0.50591326 0.394029,0.16539473 0.846432,0.16539473 0.578881,0 0.822109,-0.49131962 0.243228,-0.49618417 0.243228,-1.12371117 0,-0.282144 -0.05351,-0.5642879 -0.04865,-0.2821439 -0.170259,-0.5253715 -0.121614,-0.2432275 -0.335654,-0.389164 -0.209175,-0.1459366 -0.515642,-0.1459366 h -0.661579 q -0.08756,0 -0.08756,-0.092426 v -0.087562 q 0,-0.077833 0.08756,-0.077833 l 0.549694,-0.043781 q 0.350248,0 0.578882,-0.2626857 0.233498,-0.2626858 0.340518,-0.6372562 0.10702,-0.3794349 0.10702,-0.7199535 0,-0.4767259 -0.223769,-0.7831926 -0.223769,-0.3064667 -0.681037,-0.3064667 -0.379435,0 -0.724818,0.1459365 -0.345383,0.141072 -0.549694,0.432945 0.01946,-0.00486 0.03405,-0.00486 0.01459,-0.00486 0.03405,-0.00486 0.22377,0 0.374571,0.1556656 0.150801,0.1556657 0.150801,0.3745704 0,0.2140403 -0.150801,0.3697059 -0.150801,0.1556656 -0.374571,0.1556656 -0.218904,0 -0.37457,-0.1556656 -0.155666,-0.1556656 -0.155666,-0.3697059 0,-0.4280804 0.257822,-0.7442762 0.257821,-0.3161958 0.661578,-0.476726 0.408623,-0.1653947 0.817245,-0.1653947 0.301602,0 0.637256,0.092427 0.335654,0.087562 0.608069,0.2578211 0.272415,0.1653948 0.442674,0.4280805 0.175124,0.2626857 0.175124,0.5983397 0,0.4183514 -0.189718,0.7734636 -0.184853,0.3551122 -0.510777,0.6129334 -0.325925,0.2578212 -0.715089,0.3842995 0.432945,0.082697 0.822109,0.3259249 0.389164,0.2432275 0.622662,0.6226625 0.238363,0.3794349 0.238363,0.8172445 0,0.5496942 -0.301602,0.99723285 -0.301602,0.44267411 -0.792922,0.69563075 -0.491319,0.24809208 -1.036149,0.24809208 -0.466997,0 -0.938858,-0.17998837 -0.466997,-0.17512383 -0.768599,-0.53023603 -0.296738,-0.3551122 -0.296738,-0.85129638 0,-0.2480921 0.165395,-0.4134868 0.165395,-0.1653947 0.413487,-0.1653947 0.16053,0 0.291873,0.077833 0.136207,0.072968 0.209175,0.2091757 0.07783,0.1362074 0.07783,0.291873 0,0.2432276 -0.170259,0.40862227 -0.170259,0.16539473 -0.408622,0.16539473 z"
                                   id="path399" /></g><g
                                 id="g246"
                                 transform="translate(162.123,149.823)" /></g></g><g
                             id="g248"
                             transform="translate(-161.924,-149.624)" /></g></g><g
                         id="g250"><path
                           d="M 0,1.47197 1.22182,1.52309 2.44365,1.58275 3.66548,1.64612 4.88731,1.70416 6.10915,1.767 7.33098,1.83144 8.55281,1.89375 9.77464,1.963 l 1.22184,0.06921 1.22182,0.07404 1.22184,0.07295 1.22185,0.07403 1.22181,0.07882 1.22184,0.07934 1.22183,0.08467 1.22185,0.08467 1.22181,0.08364 1.22184,0.09479 1.22184,0.09426 1.22184,0.09533 1.22181,0.10012 1.22184,0.10544 1.22184,0.10491 1.22183,0.11024 1.22182,0.11557 1.22185,0.12088 1.22183,0.12036 1.22183,0.13101 1.22184,0.13102 1.22183,0.14113 1.22183,0.14164 1.22183,0.15073 1.22184,0.15817 1.22183,0.16615 1.22183,0.16669 1.22183,0.17734 1.22185,0.18692 1.22182,0.19813 1.22183,0.20235 1.22183,0.21675 1.22185,0.22368 1.22182,0.23805 1.22183,0.25191 1.22185,0.26308 1.22183,0.27746 1.22181,0.29345 1.22184,0.31205 1.22184,0.33234 1.22184,0.35095 1.22181,0.37119 1.22185,0.39994 1.22184,0.42818 1.22183,0.45267 1.22181,0.49473 1.22185,0.52724 1.22183,0.56986 1.22183,0.61454 1.22184,0.66944 1.22181,0.72639 1.22185,0.79618 1.22183,0.87393 1.22184,0.957 1.22183,1.06404 1.22183,1.17642 1.22183,1.31061 1.22184,1.47412 1.22183,1.65627 1.22183,1.88043 1.22183,2.14354 1.22185,2.45402 1.22181,2.82733 1.22184,3.27736 1.22183,3.79447 1.22185,4.42019 1.22182,5.12426 1.22183,5.89064 1.22185,6.66697 1.22183,7.3588 1.22182,7.84599 1.22183,8.023 1.22184,7.84618 1.22184,7.35877 1.22182,6.66833 1.22183,5.8912 1.22184,5.12423 1.22183,4.41968 1.22184,3.79819 1.22183,3.27363 1.22183,2.83106 1.22184,2.45401 1.22183,2.13928 1.22181,1.88046 1.22185,1.66051 1.22183,1.47092 1.22185,1.31381 1.22182,1.17642 1.22183,1.06404 1.22184,0.957 1.22183,0.87394 1.22183,0.79617 1.22191,0.72639 1.22172,0.66944 1.22191,0.61455 1.22171,0.56985 1.22191,0.52724 1.22191,0.48994 1.22172,0.45746 1.2219,0.42818 1.22172,0.39994 1.22193,0.37119 1.22189,0.35095 1.22171,0.33234 1.22192,0.31206 1.22171,0.29344 1.22193,0.27746 1.22189,0.26308 1.22173,0.25191 1.2219,0.23805 1.22173,0.22366 1.22191,0.21675 1.22189,0.20238 1.22173,0.19811 1.22191,0.18161 1.22172,0.18266 1.22189,0.16669 1.22193,0.16615 1.22172,0.15819 1.22191,0.15071 1.22171,0.14165 1.22191,0.14112 1.22191,0.13102 1.22173,0.13101 1.22189,0.12036 1.22173,0.12088 1.2219,0.11557 1.22191,0.11024 1.22171,0.10491 1.22193,0.10544 1.22171,0.10013 1.22192,0.0953 1.22189,0.0943 1.22173,0.0889 1.2219,0.0895 1.22173,0.0846 1.22191,0.0847 1.22189,0.0793 1.22173,0.0788 1.22191,0.074 1.22173,0.073 1.22189,0.074 1.22191,0.0692 1.22172,0.0693 1.22191,0.0623 1.22171,0.0644 1.22192,0.0628 1.22191,0.058 1.22173,0.0634 1.22189,0.0597 1.22173,0.0517"
                           style="fill:none;stroke:#9999ff;stroke-width:0.79701;stroke-linecap:butt;stroke-linejoin:miter;stroke-miterlimit:10;stroke-dasharray:none;stroke-opacity:1"
                           id="path252" /><g
                           id="g254"><g
                             id="g256"
                             transform="translate(173.424,154.716)"><g
                               id="g258" /><g
                               id="g260"
                               transform="translate(-173.424,-154.716)" /></g></g></g><g
                         id="g262"><g
                           id="g264" /><g
                           id="g266"
                           transform="translate(161.302,151.506)"><g
                             id="g268"><g
                               id="g270"
                               transform="translate(-161.501,-151.705)"><g
                                 aria-label="n"
                                 transform="matrix(1,0,0,-1,161.501,151.705)"
                                 id="text274"
                                 style="font-size:9.9626px;font-family:CMMI10;-inkscape-font-specification:CMMI10"><path
                                   d="m 0.768599,-0.17025927 q 0,-0.0583746 0.009729,-0.0875619 L 1.5226044,-3.2300616 q 0.072968,-0.2772794 0.072968,-0.4864551 0,-0.4280805 -0.291873,-0.4280805 -0.31133127,0 -0.46213234,0.3745704 -0.15080107,0.3697059 -0.29187304,0.9388583 0,0.029187 -0.0291873,0.048646 -0.0291873,0.014594 -0.0535101,0.014594 H 0.35024765 q -0.0340519,0 -0.0583746,-0.034052 -0.0243227,-0.038916 -0.0243227,-0.068104 0.10702011,-0.432945 0.20431112,-0.7345471 0.10215557,-0.3016022 0.31133125,-0.5496943 0.21404023,-0.248092 0.53023604,-0.248092 0.3745704,0 0.6615789,0.2383629 0.2870085,0.2334985 0.2870085,0.5983398 0.2967375,-0.3891641 0.6956307,-0.6129334 0.3988932,-0.2237693 0.8464318,-0.2237693 0.3551122,0 0.6129334,0.1216137 0.2578212,0.1216138 0.3988932,0.3697059 0.1459365,0.2432275 0.1459365,0.583746 0,0.4086223 -0.184853,0.9875038 -0.1799883,0.5788816 -0.4524032,1.2939705 -0.1410719,0.3259249 -0.1410719,0.59833974 0,0.29673759 0.2286338,0.29673759 0.3891641,0 0.6469853,-0.41835136 0.2626857,-0.41835135 0.3697058,-0.89507727 0.019458,-0.058375 0.082697,-0.058375 h 0.1167492 q 0.038916,0 0.063239,0.024323 0.029187,0.024323 0.029187,0.063239 0,0.00973 -0.00973,0.029187 -0.1362074,0.56428784 -0.476726,1.0410138 -0.335654,0.47672597 -0.8415673,0.47672597 -0.3502476,0 -0.5983397,-0.23836299 -0.2480921,-0.24322753 -0.2480921,-0.58861063 0,-0.18485292 0.077833,-0.38916405 0.1264784,-0.3259249 0.2870085,-0.7783281 0.1653948,-0.4524032 0.2675503,-0.86589 0.1070201,-0.4134868 0.1070201,-0.7296826 0,-0.2772794 -0.1167492,-0.4718614 -0.1118846,-0.1945821 -0.3842995,-0.1945821 -0.3648413,0 -0.671308,0.1605302 -0.3064667,0.1605302 -0.5351005,0.4280805 -0.2286339,0.2626857 -0.4183514,0.627527 L 1.483688,-0.21890478 q -0.034052,0.13620742 -0.1556657,0.23349843 -0.1167492,0.09729102 -0.2626857,0.09729102 -0.12161377,0 -0.20917568,-0.07783282 Q 0.768599,-0.04378096 0.768599,-0.17025927 Z"
                                   id="path402" /></g><g
                                 aria-label="=4"
                                 transform="matrix(1,0,0,-1,170.248,151.705)"
                                 id="text278"
                                 style="font-size:9.9626px;font-family:CMR10;-inkscape-font-specification:CMR10"><path
                                   d="m 0.7491408,-1.3231578 q -0.0826974,0 -0.13620742,-0.063239 -0.05351,-0.063239 -0.05351,-0.1362075 0,-0.082697 0.05351,-0.1410719 0.0535101,-0.058375 0.13620742,-0.058375 H 7.004953 q 0.072968,0 0.1264783,0.058375 0.05351,0.058375 0.05351,0.1410719 0,0.072968 -0.05351,0.1362075 -0.05351,0.063239 -0.1264783,0.063239 z m 0,-1.9360911 q -0.0826974,0 -0.13620742,-0.058375 -0.05351,-0.058375 -0.05351,-0.1410719 0,-0.072968 0.05351,-0.1362074 0.0535101,-0.063239 0.13620742,-0.063239 H 7.004953 q 0.072968,0 0.1264783,0.063239 0.05351,0.063239 0.05351,0.1362074 0,0.082697 -0.05351,0.1410719 -0.05351,0.058375 -0.1264783,0.058375 z"
                                   id="path405" /><path
                                   d="m 10.795792,-1.6442181 v -0.3502477 l 3.079261,-4.5921358 q 0.03405,-0.048646 0.102155,-0.048646 h 0.145937 q 0.111884,0 0.111884,0.1118847 v 4.5288966 h 0.977775 v 0.3502477 h -0.977775 v 0.97777466 q 0,0.20431113 0.291873,0.26268574 0.291874,0.05351 0.676173,0.05351 V 0 h -2.743607 v -0.35024765 q 0.3843,0 0.676173,-0.05351 0.291873,-0.0583746 0.291873,-0.26268574 V -1.6442181 Z m 0.33079,-0.3502477 h 2.359307 V -5.521265 Z"
                                   id="path407" /></g><g
                                 id="g280"
                                 transform="translate(161.501,151.705)" /></g></g><g
                             id="g282"
                             transform="translate(-161.302,-151.506)" /></g></g><g
                         id="g284"><path
                           d="m 0,0.59059 1.22182,0.04366 1.22183,0.04315 1.22183,0.04686 1.22183,0.04793 1.22184,0.05325 1.22183,0.05272 1.22183,0.05274 1.22183,0.05378 1.22184,0.0522 1.22182,0.0591 1.22184,0.05859 1.22185,0.0623 1.22181,0.05805 1.22184,0.06976 1.22183,0.06232 1.22185,0.06923 1.22181,0.06976 1.22184,0.07297 1.22184,0.07988 1.22184,0.07402 1.22181,0.07989 1.22184,0.08414 1.22184,0.08946 1.22183,0.08469 1.22182,0.09479 1.22185,0.09478 1.22183,0.10067 1.22183,0.10545 1.22184,0.10544 1.22183,0.11078 1.22183,0.11555 1.22183,0.1209 1.22184,0.12675 1.22183,0.13048 1.22183,0.14271 1.22183,0.1422 1.22185,0.15178 1.22182,0.15656 1.22183,0.16297 1.22183,0.17202 1.22185,0.18373 1.22182,0.19331 1.22183,0.20343 1.22185,0.20877 1.22183,0.22899 1.22181,0.23912 1.22184,0.24818 1.22184,0.27106 1.22184,0.2844 1.22181,0.30462 1.22185,0.32485 1.22184,0.34937 1.22183,0.37012 1.22181,0.40368 1.22185,0.43296 1.22183,0.46653 1.22183,0.50645 1.22184,0.55385 1.22181,0.60181 1.22185,0.6561 1.22183,0.7264 1.22184,0.80416 1.22183,0.89311 1.22183,0.99373 1.22183,1.1173 1.22184,1.25684 1.22183,1.43364 1.22183,1.644 1.22183,1.89644 1.22185,2.20478 1.22181,2.5946 1.22184,3.06913 1.22183,3.6677 1.22185,4.41009 1.22182,5.32024 1.22183,6.40664 1.22185,7.6081 1.22183,8.78387 1.22182,9.67929 1.22183,10.01802 1.22184,9.6791 1.22184,8.78419 1.22182,7.61 1.22183,6.40718 1.22184,5.32129 1.22183,4.40903 1.22184,3.66717 1.22183,3.07286 1.22183,2.58982 1.22184,2.20956 1.22183,1.89644 1.22181,1.64028 1.22185,1.43309 1.22183,1.26111 1.22185,1.11729 1.22182,0.99374 1.22183,0.89311 1.22184,0.80416 1.22183,0.72214 1.22183,0.66036 1.22191,0.60181 1.22172,0.55385 1.22191,0.50645 1.22171,0.46653 1.22191,0.43296 1.22191,0.39889 1.22172,0.37492 1.2219,0.34936 1.22172,0.32485 1.22193,0.30462 1.22189,0.28438 1.22171,0.27108 1.22192,0.24818 1.22171,0.2391 1.22193,0.22901 1.22189,0.20875 1.22173,0.20345 1.2219,0.19331 1.22173,0.18373 1.22191,0.17203 1.22189,0.16297 1.22173,0.15655 1.22191,0.15178 1.22172,0.1422 1.22189,0.14271 1.22193,0.13048 1.22172,0.12675 1.22191,0.1209 1.22171,0.11557 1.22191,0.11075 1.22191,0.10547 1.22173,0.10544 1.22189,0.10064 1.22173,0.0948 1.2219,0.0948 1.22191,0.0847 1.22171,0.0895 1.22193,0.0841 1.22171,0.0799 1.22192,0.074 1.22189,0.0799 1.22173,0.0682 1.2219,0.0746 1.22173,0.0692 1.22191,0.0623 1.22189,0.0698 1.22173,0.0581 1.22191,0.0623 1.22173,0.0586 1.22189,0.0591 1.22191,0.0522 1.22172,0.0538 1.22191,0.0527 1.22171,0.0527 1.22192,0.0532 1.22191,0.0479 1.22173,0.0469 1.22189,0.0431 1.22173,0.0479"
                           style="fill:none;stroke:#ccccff;stroke-width:0.79701;stroke-linecap:butt;stroke-linejoin:miter;stroke-miterlimit:10;stroke-dasharray:none;stroke-opacity:1"
                           id="path286" /><g
                           id="g288"><g
                             id="g290"
                             transform="translate(172.969,155.864)"><g
                               id="g292" /><g
                               id="g294"
                               transform="translate(-172.969,-155.864)" /></g></g></g><g
                         id="g296"><g
                           id="g298" /><g
                           id="g300"
                           transform="translate(160.846,152.654)"><g
                             id="g302"><g
                               id="g304"
                               transform="translate(-161.045,-152.853)"><g
                                 aria-label="n"
                                 transform="matrix(1,0,0,-1,161.045,152.853)"
                                 id="text308"
                                 style="font-size:9.9626px;font-family:CMMI10;-inkscape-font-specification:CMMI10"><path
                                   d="m 0.768599,-0.17025927 q 0,-0.0583746 0.009729,-0.0875619 L 1.5226044,-3.2300616 q 0.072968,-0.2772794 0.072968,-0.4864551 0,-0.4280805 -0.291873,-0.4280805 -0.31133127,0 -0.46213234,0.3745704 -0.15080107,0.3697059 -0.29187304,0.9388583 0,0.029187 -0.0291873,0.048646 -0.0291873,0.014594 -0.0535101,0.014594 H 0.35024765 q -0.0340519,0 -0.0583746,-0.034052 -0.0243227,-0.038916 -0.0243227,-0.068104 0.10702011,-0.432945 0.20431112,-0.7345471 0.10215557,-0.3016022 0.31133125,-0.5496943 0.21404023,-0.248092 0.53023604,-0.248092 0.3745704,0 0.6615789,0.2383629 0.2870085,0.2334985 0.2870085,0.5983398 0.2967375,-0.3891641 0.6956307,-0.6129334 0.3988932,-0.2237693 0.8464318,-0.2237693 0.3551122,0 0.6129334,0.1216137 0.2578212,0.1216138 0.3988932,0.3697059 0.1459365,0.2432275 0.1459365,0.583746 0,0.4086223 -0.184853,0.9875038 -0.1799883,0.5788816 -0.4524032,1.2939705 -0.1410719,0.3259249 -0.1410719,0.59833974 0,0.29673759 0.2286338,0.29673759 0.3891641,0 0.6469853,-0.41835136 0.2626857,-0.41835135 0.3697058,-0.89507727 0.019458,-0.058375 0.082697,-0.058375 h 0.1167492 q 0.038916,0 0.063239,0.024323 0.029187,0.024323 0.029187,0.063239 0,0.00973 -0.00973,0.029187 -0.1362074,0.56428784 -0.476726,1.0410138 -0.335654,0.47672597 -0.8415673,0.47672597 -0.3502476,0 -0.5983397,-0.23836299 -0.2480921,-0.24322753 -0.2480921,-0.58861063 0,-0.18485292 0.077833,-0.38916405 0.1264784,-0.3259249 0.2870085,-0.7783281 0.1653948,-0.4524032 0.2675503,-0.86589 0.1070201,-0.4134868 0.1070201,-0.7296826 0,-0.2772794 -0.1167492,-0.4718614 -0.1118846,-0.1945821 -0.3842995,-0.1945821 -0.3648413,0 -0.671308,0.1605302 -0.3064667,0.1605302 -0.5351005,0.4280805 -0.2286339,0.2626857 -0.4183514,0.627527 L 1.483688,-0.21890478 q -0.034052,0.13620742 -0.1556657,0.23349843 -0.1167492,0.09729102 -0.2626857,0.09729102 -0.12161377,0 -0.20917568,-0.07783282 Q 0.768599,-0.04378096 0.768599,-0.17025927 Z"
                                   id="path410" /></g><g
                                 aria-label="=5"
                                 transform="matrix(1,0,0,-1,169.793,152.853)"
                                 id="text312"
                                 style="font-size:9.9626px;font-family:CMR10;-inkscape-font-specification:CMR10"><path
                                   d="m 0.7491408,-1.3231578 q -0.0826974,0 -0.13620742,-0.063239 -0.05351,-0.063239 -0.05351,-0.1362075 0,-0.082697 0.05351,-0.1410719 0.0535101,-0.058375 0.13620742,-0.058375 H 7.004953 q 0.072968,0 0.1264783,0.058375 0.05351,0.058375 0.05351,0.1410719 0,0.072968 -0.05351,0.1362075 -0.05351,0.063239 -0.1264783,0.063239 z m 0,-1.9360911 q -0.0826974,0 -0.13620742,-0.058375 -0.05351,-0.058375 -0.05351,-0.1410719 0,-0.072968 0.05351,-0.1362074 0.0535101,-0.063239 0.13620742,-0.063239 H 7.004953 q 0.072968,0 0.1264783,0.063239 0.05351,0.063239 0.05351,0.1362074 0,0.082697 -0.05351,0.1410719 -0.05351,0.058375 -0.1264783,0.058375 z"
                                   id="path413" /><path
                                   d="m 11.384403,-1.1334403 q 0.102155,0.29187304 0.311331,0.53023602 0.21404,0.23836298 0.501049,0.3745704 0.291873,0.13134287 0.603204,0.13134287 0.719953,0 0.992368,-0.55942333 0.272415,-0.55942336 0.272415,-1.35720966 0,-0.3453831 -0.01459,-0.5788815 -0.0097,-0.238363 -0.06324,-0.4572678 -0.09243,-0.3502476 -0.325925,-0.6129333 -0.228633,-0.2626858 -0.564287,-0.2626858 -0.335654,0 -0.578882,0.1021556 -0.238363,0.1021555 -0.389164,0.238363 -0.150801,0.1362074 -0.26755,0.2870085 -0.11675,0.150801 -0.145937,0.1605301 h -0.111884 q -0.02432,0 -0.06324,-0.029187 -0.03405,-0.034052 -0.03405,-0.063239 v -3.3273527 q 0,-0.024323 0.02919,-0.048646 0.03405,-0.029187 0.0681,-0.029187 h 0.02919 q 0.671308,0.3210603 1.425313,0.3210603 0.739412,0 1.425314,-0.3210603 h 0.02919 q 0.03405,0 0.06324,0.024323 0.02919,0.024323 0.02919,0.05351 v 0.092426 q 0,0.048646 -0.01946,0.048646 -0.340518,0.4524032 -0.856161,0.7053598 -0.510778,0.2529567 -1.060472,0.2529567 -0.398893,0 -0.817244,-0.1118847 v 1.8825811 q 0.330789,-0.2675503 0.58861,-0.379435 0.262686,-0.1167492 0.666444,-0.1167492 0.549694,0 0.982639,0.3161958 0.437809,0.3161958 0.671308,0.8269736 0.233498,0.5059133 0.233498,1.0361493 0,0.5983398 -0.296737,1.10911758 -0.291873,0.51077782 -0.797787,0.81237996 -0.505913,0.30160214 -1.099388,0.30160214 -0.49132,0 -0.904806,-0.25295663 -0.408623,-0.25295664 -0.646986,-0.6810371 -0.233498,-0.42808045 -0.233498,-0.90967095 0,-0.2237694 0.145936,-0.3648413 0.145937,-0.141072 0.364842,-0.141072 0.218904,0 0.364841,0.1459365 0.150801,0.141072 0.150801,0.3599768 0,0.2140402 -0.150801,0.3648413 -0.145937,0.1459365 -0.364841,0.1459365 -0.03405,0 -0.07783,-0.00486 -0.04378,-0.00973 -0.06324,-0.014594 z"
                                   id="path415" /></g><g
                                 id="g314"
                                 transform="translate(161.045,152.853)" /></g></g><g
                             id="g316"
                             transform="translate(-160.846,-152.654)" /></g></g><g
                         id="g318"><path
                           d="m 0,0 1.22182,0.0346 1.22183,0.03728 1.22183,0.04314 1.22183,0.03674 1.22184,0.04207 1.22183,0.04312 1.22183,0.04796 1.22183,0.04154 1.22184,0.04792 1.22182,0.04793 1.22184,0.0474 1.22185,0.05325 1.22181,0.05273 1.22184,0.05378 1.22183,0.0522 1.22185,0.05857 1.22181,0.0586 1.22184,0.06389 1.22184,0.06338 1.22184,0.06337 1.22181,0.06339 1.22184,0.07454 1.22184,0.0687 1.22183,0.07456 1.22182,0.07881 1.22185,0.08042 1.22183,0.08255 1.22183,0.08574 1.22184,0.09001 1.22183,0.09533 1.22183,0.09478 1.22183,0.10012 1.22184,0.10546 1.22183,0.1113 1.22183,0.11558 1.22183,0.12194 1.22185,0.12621 1.22182,0.13155 1.22183,0.13739 1.22183,0.14752 1.22185,0.1523 1.22182,0.15765 1.22183,0.1736 1.22185,0.17842 1.22183,0.18799 1.22181,0.19917 1.22184,0.20983 1.22184,0.23007 1.22184,0.23964 1.22181,0.25616 1.22185,0.27054 1.22184,0.29665 1.22183,0.31101 1.22181,0.34136 1.22185,0.36161 1.22183,0.39727 1.22183,0.42606 1.22184,0.47131 1.22181,0.50913 1.22185,0.55919 1.22183,0.62149 1.22184,0.68326 1.22183,0.76315 1.22183,0.85687 1.22183,0.9602 1.22184,1.0944 1.22183,1.25099 1.22183,1.43895 1.22183,1.67915 1.22185,1.97206 1.22181,2.34111 1.22184,2.82414 1.22183,3.44245 1.22185,4.24606 1.22182,5.29946 1.22183,6.6298 1.22185,8.25737 1.22183,9.99384 1.22182,11.43194 1.22183,12.0069 1.22184,11.43265 1.22184,9.99489 1.22182,8.25711 1.22183,6.63246 1.22184,5.29893 1.22183,4.24714 1.22184,3.44137 1.22183,2.8236 1.22183,2.34538 1.22184,1.97205 1.22183,1.67915 1.22181,1.43896 1.22185,1.25098 1.22183,1.08908 1.22185,0.96551 1.22182,0.85689 1.22183,0.76316 1.22184,0.68327 1.22183,0.61616 1.22183,0.5645 1.22191,0.50913 1.22172,0.46653 1.22191,0.43084 1.22171,0.39727 1.22191,0.36161 1.22191,0.34138 1.22172,0.31099 1.2219,0.29665 1.22172,0.27052 1.22193,0.25618 1.22189,0.23964 1.22171,0.23007 1.22192,0.20983 1.22171,0.19918 1.22193,0.18798 1.22189,0.17842 1.22173,0.1736 1.2219,0.15764 1.22173,0.15229 1.22191,0.14754 1.22189,0.13741 1.22173,0.13153 1.22191,0.12621 1.22172,0.12196 1.22189,0.11557 1.22193,0.11129 1.22172,0.10546 1.22191,0.10012 1.22171,0.0948 1.22191,0.0953 1.22191,0.09 1.22173,0.0857 1.22189,0.0825 1.22173,0.0804 1.2219,0.0788 1.22191,0.0746 1.22171,0.0687 1.22193,0.0745 1.22171,0.0634 1.22192,0.0634 1.22189,0.0634 1.22173,0.0639 1.2219,0.0586 1.22173,0.0586 1.22191,0.0522 1.22189,0.0538 1.22173,0.0527 1.22191,0.0533 1.22173,0.0474 1.22189,0.0479 1.22191,0.0479 1.22172,0.0415 1.22191,0.0479 1.22171,0.0431 1.22192,0.0421 1.22191,0.0367 1.22173,0.0431 1.22189,0.0373 1.22173,0.0367"
                           style="fill:none;stroke:#ffffff;stroke-width:0.79701;stroke-linecap:butt;stroke-linejoin:miter;stroke-miterlimit:10;stroke-dasharray:none;stroke-opacity:1"
                           id="path320" /><g
                           id="g322"><g
                             id="g324"
                             transform="translate(172.617,156.637)"><g
                               id="g326" /><g
                               id="g328"
                               transform="translate(-172.617,-156.637)" /></g></g></g><g
                         id="g330"><g
                           id="g332" /><g
                           id="g334"
                           transform="translate(160.495,153.427)"><g
                             id="g336"><g
                               id="g338"
                               transform="translate(-160.694,-153.626)"><g
                                 aria-label="n"
                                 transform="matrix(1,0,0,-1,160.694,153.626)"
                                 id="text342"
                                 style="font-size:9.9626px;font-family:CMMI10;-inkscape-font-specification:CMMI10"><path
                                   d="m 0.768599,-0.17025927 q 0,-0.0583746 0.009729,-0.0875619 L 1.5226044,-3.2300616 q 0.072968,-0.2772794 0.072968,-0.4864551 0,-0.4280805 -0.291873,-0.4280805 -0.31133127,0 -0.46213234,0.3745704 -0.15080107,0.3697059 -0.29187304,0.9388583 0,0.029187 -0.0291873,0.048646 -0.0291873,0.014594 -0.0535101,0.014594 H 0.35024765 q -0.0340519,0 -0.0583746,-0.034052 -0.0243227,-0.038916 -0.0243227,-0.068104 0.10702011,-0.432945 0.20431112,-0.7345471 0.10215557,-0.3016022 0.31133125,-0.5496943 0.21404023,-0.248092 0.53023604,-0.248092 0.3745704,0 0.6615789,0.2383629 0.2870085,0.2334985 0.2870085,0.5983398 0.2967375,-0.3891641 0.6956307,-0.6129334 0.3988932,-0.2237693 0.8464318,-0.2237693 0.3551122,0 0.6129334,0.1216137 0.2578212,0.1216138 0.3988932,0.3697059 0.1459365,0.2432275 0.1459365,0.583746 0,0.4086223 -0.184853,0.9875038 -0.1799883,0.5788816 -0.4524032,1.2939705 -0.1410719,0.3259249 -0.1410719,0.59833974 0,0.29673759 0.2286338,0.29673759 0.3891641,0 0.6469853,-0.41835136 0.2626857,-0.41835135 0.3697058,-0.89507727 0.019458,-0.058375 0.082697,-0.058375 h 0.1167492 q 0.038916,0 0.063239,0.024323 0.029187,0.024323 0.029187,0.063239 0,0.00973 -0.00973,0.029187 -0.1362074,0.56428784 -0.476726,1.0410138 -0.335654,0.47672597 -0.8415673,0.47672597 -0.3502476,0 -0.5983397,-0.23836299 -0.2480921,-0.24322753 -0.2480921,-0.58861063 0,-0.18485292 0.077833,-0.38916405 0.1264784,-0.3259249 0.2870085,-0.7783281 0.1653948,-0.4524032 0.2675503,-0.86589 0.1070201,-0.4134868 0.1070201,-0.7296826 0,-0.2772794 -0.1167492,-0.4718614 -0.1118846,-0.1945821 -0.3842995,-0.1945821 -0.3648413,0 -0.671308,0.1605302 -0.3064667,0.1605302 -0.5351005,0.4280805 -0.2286339,0.2626857 -0.4183514,0.627527 L 1.483688,-0.21890478 q -0.034052,0.13620742 -0.1556657,0.23349843 -0.1167492,0.09729102 -0.2626857,0.09729102 -0.12161377,0 -0.20917568,-0.07783282 Q 0.768599,-0.04378096 0.768599,-0.17025927 Z"
                                   id="path418" /></g><g
                                 aria-label="=6"
                                 transform="matrix(1,0,0,-1,169.441,153.626)"
                                 id="text346"
                                 style="font-size:9.9626px;font-family:CMR10;-inkscape-font-specification:CMR10"><path
                                   d="m 0.7491408,-1.3231578 q -0.0826974,0 -0.13620742,-0.063239 -0.05351,-0.063239 -0.05351,-0.1362075 0,-0.082697 0.05351,-0.1410719 0.0535101,-0.058375 0.13620742,-0.058375 H 7.004953 q 0.072968,0 0.1264783,0.058375 0.05351,0.058375 0.05351,0.1410719 0,0.072968 -0.05351,0.1362075 -0.05351,0.063239 -0.1264783,0.063239 z m 0,-1.9360911 q -0.0826974,0 -0.13620742,-0.058375 -0.05351,-0.058375 -0.05351,-0.1410719 0,-0.072968 0.05351,-0.1362074 0.0535101,-0.063239 0.13620742,-0.063239 H 7.004953 q 0.072968,0 0.1264783,0.063239 0.05351,0.063239 0.05351,0.1362074 0,0.082697 -0.05351,0.1410719 -0.05351,0.058375 -0.1264783,0.058375 z"
                                   id="path421" /><path
                                   d="m 13.009163,0.21890478 q -0.617798,0 -1.031285,-0.32592489 -0.413487,-0.33078945 -0.642121,-0.85129637 -0.223769,-0.52537152 -0.311331,-1.09938842 -0.08756,-0.574017 -0.08756,-1.1626276 0,-0.7880572 0.306467,-1.580979 0.306466,-0.7929218 0.899942,-1.3134287 0.598339,-0.5205069 1.415584,-0.5205069 0.340518,0 0.632391,0.1313429 0.296738,0.1264783 0.462133,0.3794349 0.170259,0.2480921 0.170259,0.6032043 0,0.2043111 -0.141072,0.3453831 -0.136207,0.1362074 -0.340518,0.1362074 -0.194582,0 -0.335654,-0.141072 -0.141072,-0.1410719 -0.141072,-0.3405185 0,-0.194582 0.141072,-0.335654 0.141072,-0.141072 0.335654,-0.141072 h 0.05351 q -0.126479,-0.1799883 -0.359977,-0.2626857 -0.228634,-0.087562 -0.476726,-0.087562 -0.301602,0 -0.559423,0.1313429 -0.252957,0.1313428 -0.457268,0.3551122 -0.204311,0.2237693 -0.340519,0.4961841 -0.136207,0.2675503 -0.21404,0.6129334 -0.07297,0.3453831 -0.09243,0.6469852 -0.01946,0.3016022 -0.01946,0.7588699 0.175124,-0.4086222 0.496185,-0.6664434 0.32106,-0.2626857 0.724818,-0.2626857 0.442674,0 0.807515,0.1799883 0.364841,0.1799884 0.627527,0.5010488 0.262686,0.3161958 0.398893,0.724818 0.141072,0.4086223 0.141072,0.8269736 0,0.5837461 -0.262686,1.11398212 -0.257821,0.52537148 -0.729682,0.83670272 -0.471862,0.31133124 -1.070201,0.31133124 z m 0,-0.31619579 q 0.384299,0 0.617798,-0.17512383 0.233498,-0.17512382 0.340518,-0.46213231 0.111885,-0.29187305 0.136208,-0.58374605 0.02919,-0.2967376 0.02919,-0.7248181 0,-0.5642879 -0.05351,-0.963181 -0.05351,-0.3988932 -0.291873,-0.7004953 -0.238363,-0.3064667 -0.729683,-0.3064667 -0.403758,0 -0.666443,0.2724148 -0.257821,0.2724149 -0.379435,0.6907662 -0.116749,0.4134868 -0.116749,0.7977863 0,0.1313429 0.0097,0.1994466 0,0.014594 -0.0049,0.024323 0,0.00973 -0.0049,0.024323 0,0.4280805 0.08756,0.86589 0.08756,0.4378096 0.335654,0.73941175 0.248093,0.30160214 0.690767,0.30160214 z"
                                   id="path423" /></g><g
                                 id="g348"
                                 transform="translate(160.694,153.626)" /></g></g><g
                             id="g350"
                             transform="translate(-160.495,-153.427)" /></g></g></g></g></g></g><g
                 id="g352"
                 transform="translate(-0.199,-0.199)" /></g><g
               id="g354"
               transform="translate(0.199,0.199)" /></g><g
             id="g356" /><g
             id="g358" /></g></g></g></g></svg>
