<?xml version="1.0" encoding="UTF-8" standalone="no"?>
<!-- Created with Inkscape (http://www.inkscape.org/) -->

<svg
   version="1.1"
   id="svg2"
   xml:space="preserve"
   width="214.10933"
   height="144.84933"
   viewBox="0 0 214.10933 144.84933"
   xmlns="http://www.w3.org/2000/svg"
   xmlns:svg="http://www.w3.org/2000/svg"><defs
     id="defs6" /><g
     id="g8"
     transform="matrix(1.3333333,0,0,-1.3333333,0,144.84933)"><g
       id="g10"
       transform="translate(23.598,15.732)"><g
         id="g12"><g
           id="g14"><g
             id="g16"><path
               d="M 28.3468,85.04042 C 44.07907,92.90656 40.96135,28.3468 56.69362,28.3468 c 15.73227,0 12.61453,56.69362 28.3468,56.69362 15.73227,0 51.94521,-33.09522 28.34682,-56.69362 C 89.78883,4.74841 23.59839,-15.73225 0,0 -23.59839,15.73225 12.61453,77.1743 28.3468,85.04042 Z"
               style="fill:#e6e6ff;fill-opacity:1;fill-rule:nonzero;stroke:none"
               id="path18" /></g><g
             id="g20"><path
               d="M 28.3468,56.69362 V 22.67752 H 70.867 V 42.5202 H 90.7097 V 14.17339 H 14.17339 v 42.52023 h 13.46604"
               style="fill:none;stroke:#000000;stroke-width:0.79701;stroke-linecap:butt;stroke-linejoin:miter;stroke-miterlimit:10;stroke-dasharray:none;stroke-opacity:1"
               id="path22" /><g
               id="g24"
               transform="translate(27.63943,56.69362)"><g
                 id="g26"><path
                   d="M -1.55415,2.0722 C -1.42464,1.29512 0,0.1295 0.38852,0 0,-0.1295 -1.42464,-1.29512 -1.55415,-2.0722"
                   style="fill:none;stroke:#000000;stroke-width:0.6376;stroke-linecap:round;stroke-linejoin:round;stroke-miterlimit:10;stroke-dasharray:none;stroke-opacity:1"
                   id="path28" /></g></g></g><g
             id="g30"><g
               id="g32"
               transform="translate(93.036,67.462)"><g
                 id="g34"><g
                   id="g36"
                   transform="translate(-116.634,-83.194)"><g
                     aria-label="S"
                     transform="matrix(1,0,0,-1,116.634,83.194)"
                     id="text40"
                     style="font-size:9.9626px;font-family:CMMI10;-inkscape-font-specification:CMMI10"><path
                       d="m 0.60806883,0.21890478 q -0.0291873,0 -0.05351,-0.0340518 -0.0243228,-0.0340519 -0.0243228,-0.0632392 L 1.104253,-2.2036414 q 0.019458,-0.058375 0.082697,-0.058375 h 0.1167492 q 0.038916,0 0.058375,0.029187 0.024323,0.029187 0.024323,0.072968 -0.082697,0.3405186 -0.082697,0.6080688 0,0.71995354 0.4961841,1.07020118 0.4961842,0.35024765 1.2501896,0.35024765 0.3259249,0 0.6421207,-0.16053017 0.3161957,-0.16053017 0.5496942,-0.41835136 0.238363,-0.25782118 0.3794349,-0.574017 0.141072,-0.3210603 0.141072,-0.6469852 0,-0.3502477 -0.1848529,-0.6226625 -0.184853,-0.2772794 -0.5107778,-0.3551122 L 2.8506267,-3.2300616 Q 2.3593071,-3.3614045 2.067434,-3.7554331 1.775561,-4.1543263 1.775561,-4.6505104 q 0,-0.5983398 0.3551122,-1.1528985 0.3551122,-0.5545588 0.9242646,-0.8853483 0.574017,-0.335654 1.1674922,-0.335654 0.4572677,0 0.8367027,0.1702593 0.3842995,0.1653947 0.5886106,0.530236 l 0.5691524,-0.671308 q 0.058375,-0.029187 0.068104,-0.029187 h 0.063239 q 0.038916,0 0.063239,0.034052 0.024323,0.034052 0.024323,0.068104 L 5.856919,-4.611594 q -0.014594,0.068104 -0.077833,0.068104 H 5.6574724 q -0.087562,0 -0.087562,-0.1070201 0.048646,-0.3161958 0.048646,-0.5496943 0,-0.4621323 -0.1605302,-0.8026508 -0.1556656,-0.3453831 -0.4767259,-0.5205069 -0.3161958,-0.1799884 -0.7880572,-0.1799884 -0.3988932,0 -0.7929218,0.2286339 -0.3940286,0.2286339 -0.6372561,0.6080688 -0.2432276,0.379435 -0.2432276,0.7880572 0,0.3210604 0.184853,0.5691524 0.1897174,0.2480921 0.5010487,0.335654 l 1.2161377,0.3161958 q 0.3307894,0.087562 0.5740169,0.3113313 0.2480921,0.2189047 0.3745704,0.5253714 0.1264783,0.3016022 0.1264783,0.6615789 0,0.4718614 -0.1994465,0.9339938 -0.1994466,0.45726772 -0.5594234,0.83670267 -0.3551122,0.37943495 -0.8075154,0.59347518 -0.4524032,0.21404023 -0.9242646,0.21404023 -1.1869504,0 -1.7025927,-0.69563074 L 0.7491408,0.18971748 q -0.0583746,0.0291873 -0.0729683,0.0291873 z"
                       id="path62" /></g><g
                     id="g42"
                     transform="translate(116.634,83.194)" /></g></g><g
                 id="g44"
                 transform="translate(-93.036,-67.462)" /></g></g><g
             id="g46"><g
               id="g48"
               transform="translate(38.731,6.29)"><g
                 id="g50"><g
                   id="g52"
                   transform="translate(-62.329,-22.022)"><g
                     aria-label="α"
                     transform="matrix(1,0,0,-1,62.329,22.022)"
                     id="text56"
                     style="font-size:9.9626px;font-family:CMMIB10;-inkscape-font-specification:CMMIB10"><path
                       d="M 4.1154099,-2.5344309 3.9013696,-3.6581421 q -0.2189047,-1.1528985 -1.0847948,-1.1528985 -0.6518498,0 -0.9485873,0.5351006 -0.3745704,0.671308 -0.3745704,1.5566562 0,1.0702011 0.3648413,1.5809789 0.3697058,0.52050697 0.9583164,0.52050697 0.6518498,0 1.0020975,-1.03614927 z m 0.5010487,-1.4885525 0.4815905,-1.4253133 h 0.7977863 l -0.9972329,2.9527822 0.194582,1.0653366 q 0.043781,0.238363 0.2140403,0.43780957 0.1994465,0.23349843 0.3551122,0.23349843 H 6.0904174 V 0 H 5.5553169 Q 5.0980491,0 4.6894268,-0.40862226 4.4899803,-0.61293338 4.4072829,-1.0410138 4.1835136,-0.50104872 3.7262458,-0.07783281 3.5122056,0.12161377 2.8165748,0.12161377 q -1.1431694,0 -1.6977281,-0.7394117 -0.56915248,-0.76373447 -0.56915248,-2.10148587 0,-1.4301779 0.61779798,-2.1014859 0.6859016,-0.7491408 1.6490826,-0.7491408 1.5128753,0 1.7998838,1.5469271 z"
                       id="path65" /></g><g
                     id="g58"
                     transform="translate(62.329,22.022)" /></g></g><g
                 id="g60"
                 transform="translate(-38.731,-6.29)" /></g></g></g></g></g></g></svg>
