<?xml version="1.0" encoding="UTF-8"?>
<svg version="1.1" viewBox="0 0 82.813 82.395" xml:space="preserve" xmlns="http://www.w3.org/2000/svg"><defs><clipPath id="clipPath46"><path d="m138.43 19.811v64.589l-132.49 30.887-61.78-66.243v-64.589l132.49-30.887z"/></clipPath></defs><g transform="matrix(1.3333 0 0 -1.3333 0 82.395)"><g transform="translate(-66.077,-49.96)"><g transform="translate(66.077,49.96)"><g transform="translate(-10.24,-3.528)"><g clip-path="url(#clipPath46)"><g fill-opacity=".5" stroke-miterlimit="10" stroke-opacity=".5" stroke-width=".3985"><g fill="#d3d32c" stroke="#a9a923"><path d="m44.897 40.778-4.6336 0.10084 0.15408-9.708 3.9415-0.08577z"/><path d="m40.264 40.879-4.6073-0.26254 0.84221-9.6688 3.9192 0.22331z"/><path d="m49.442 40.316-4.5445 0.46241-0.538-9.6929 3.8658-0.39333z"/><path d="m35.657 40.617-4.469-0.61987 1.5097-9.5762 3.8015 0.52731z"/></g><g fill="#74748b" stroke="#5c5c70"><path d="m44.359 31.085-3.9415 0.08577 0.23994-9.3888 2.8637-0.06231z"/><path d="m40.418 31.171-3.9192-0.22331 1.3117-9.3278 2.8474 0.16228z"/><path d="m48.225 30.692-3.8658 0.39333-0.83792-9.3653 2.8086-0.28579z"/></g><path d="m53.786 39.504-4.3438 0.81195-1.2168-9.6238 3.695-0.6907z" fill="#d3d32c" stroke="#a9a923"/><path d="m36.499 30.948-3.8015-0.52731 2.3513-9.1835 2.7619 0.38308z" fill="#74748b" stroke="#5c5c70"/><path d="m45.083 49.848-4.8719 0.10603 0.05305-9.0753 4.6336-0.10084z" fill="#ffdc00" stroke="#ccb000"/><path d="m31.187 39.997-4.2203-0.96158 2.14-9.4326 3.59 0.81796z" fill="#d3d32c" stroke="#a9a923"/><path d="m40.211 49.954-4.8442-0.27605 0.28997-9.0618 4.6073 0.26254z" fill="#ffdc00" stroke="#ccb000"/><path d="m51.92 30.001-3.695 0.6907-1.8951-9.2578 2.6845-0.5018z" fill="#74748b" stroke="#5c5c70"/><path d="m49.861 49.362-4.7783 0.48618-0.18522-9.0701 4.5445-0.46241z" fill="#ffdc00" stroke="#ccb000"/><path d="m32.697 30.421-3.59-0.81796 3.333-8.9598 2.6082 0.59426z" fill="#74748b" stroke="#5c5c70"/><path d="m35.367 49.678-4.6988-0.65174 0.51978-9.0299 4.469 0.61987z" fill="#ffdc00" stroke="#ccb000"/><path d="m57.822 38.362-4.0362 1.1417-1.8655-9.5026 3.4334-0.97116z" fill="#d3d32c" stroke="#a9a923"/><path d="m55.354 29.03-3.4334 0.97116-2.9056-9.0689 2.4945-0.7056z" fill="#74748b" stroke="#5c5c70"/><path d="m54.428 48.509-4.5671 0.85373-0.41896-9.0463 4.3438-0.81195z" fill="#ffdc00" stroke="#ccb000"/><path d="m26.967 39.035-3.8668-1.2797 2.7175-9.2414 3.2893 1.0886z" fill="#d3d32c" stroke="#a9a923"/><path d="m29.107 29.603-3.2893-1.0886 4.2326-8.6622 2.3898 0.79091z" fill="#74748b" stroke="#5c5c70"/><path d="m30.668 49.027-4.4374-1.011 0.73686-8.9804 4.2203 0.96158z" fill="#ffdc00" stroke="#ccb000"/><path d="m43.522 21.72-2.8637 0.06231 0.30235-8.1516 1.5055-0.03276z" fill="#2e2ed1" stroke="#2525a7"/><path d="m40.658 21.782-2.8474-0.16228 1.6528-8.0746 1.497 0.08529z" fill="#2e2ed1" stroke="#2525a7"/><path d="m58.441 27.803-3.0876 1.2277-3.8445-8.8033 2.2433-0.89196z" fill="#74748b" stroke="#5c5c70"/><path d="m46.33 21.434-2.8086 0.28579-1.0558-8.122 1.4766-0.15025z" fill="#2e2ed1" stroke="#2525a7"/><path d="m61.452 36.919-3.6297 1.4433-2.4684-9.332 3.0876-1.2277z" fill="#d3d32c" stroke="#a9a923"/><path d="m37.81 21.62-2.7619-0.38308 2.9626-7.893 1.4521 0.20142z" fill="#2e2ed1" stroke="#2525a7"/><path d="m58.672 47.308-4.2438 1.2004-0.64232-9.0045 4.0362-1.1417z" fill="#ffdc00" stroke="#ccb000"/><path d="m49.015 20.933-2.6845 0.5018-2.3878-7.9865 1.4114-0.26381z" fill="#2e2ed1" stroke="#2525a7"/><path d="m25.818 28.514-2.909-1.3326 5.0281-8.2977 2.1136 0.96815z" fill="#74748b" stroke="#5c5c70"/><path d="m35.048 21.237-2.6082-0.59426 4.1996-7.6111 1.3712 0.31242z" fill="#2e2ed1" stroke="#2525a7"/><path d="m23.1 37.755-3.4198-1.5666 3.2284-9.0074 2.909 1.3326z" fill="#d3d32c" stroke="#a9a923"/><path d="m26.23 48.016-4.0657-1.3456 0.9357-8.9146 3.8668 1.2797z" fill="#ffdc00" stroke="#ccb000"/><path d="m51.509 20.227-2.4945 0.7056-3.6609-7.7485 1.3114-0.37097z" fill="#2e2ed1" stroke="#2525a7"/><path d="m44.897 57.41-4.6335 0.10081-0.05307-7.5566 4.8719-0.10603z" fill="#ffa100" stroke="#cc8100"/><path d="m32.44 20.643-2.3898-0.79091 5.333-7.236 1.2564 0.41582z" fill="#2e2ed1" stroke="#2525a7"/><path d="m40.264 57.511-4.6072-0.26251-0.2901-7.5701 4.8442 0.27605z" fill="#ffa100" stroke="#cc8100"/><path d="m61.106 26.348-2.6651 1.4544-4.6888-8.4676 1.9363-1.0567z" fill="#74748b" stroke="#5c5c70"/><path d="m49.442 56.948-4.5444 0.46241 0.1853-7.5618 4.7783-0.48618z" fill="#ffa100" stroke="#cc8100"/><path d="m53.752 19.335-2.2433 0.89196-4.844-7.4139 1.1794-0.46893z" fill="#2e2ed1" stroke="#2525a7"/><path d="m64.585 35.209-3.133 1.7098-3.0105-9.1165 2.6651-1.4544z" fill="#d3d32c" stroke="#a9a923"/><path d="m62.488 45.791-3.8164 1.5175-0.84992-8.9458 3.6297-1.4433z" fill="#ffdc00" stroke="#ccb000"/><path d="m35.657 57.249-4.469-0.61989-0.52-7.602 4.6988 0.65174z" fill="#ffa100" stroke="#cc8100"/><path d="m30.05 19.852-2.1136-0.96815 6.3354-6.7769 1.1112 0.50902z" fill="#2e2ed1" stroke="#2525a7"/><path d="m22.909 27.181-2.4556-1.5438 5.6996-7.8756 1.7841 1.1217z" fill="#74748b" stroke="#5c5c70"/><path d="m53.785 56.136-4.3437 0.81193 0.41913-7.5856 4.5671-0.85373z" fill="#ffa100" stroke="#cc8100"/><path d="m55.689 18.278-1.9363 1.0567-5.9079-6.9909 1.018-0.55556z" fill="#2e2ed1" stroke="#2525a7"/><path d="m22.165 46.67-3.5957-1.6471 1.1116-8.8341 3.4198 1.5666z" fill="#ffdc00" stroke="#ccb000"/><path d="m19.681 36.189-2.8868-1.8149 3.6595-8.7364 2.4556 1.5438z" fill="#d3d32c" stroke="#a9a923"/><path d="m31.188 56.629-4.2202-0.96153-0.73715-7.6515 4.4374 1.011z" fill="#ffa100" stroke="#cc8100"/><path d="m63.283 24.704-2.1771 1.6445-5.4176-8.0698 1.5817-1.1948z" fill="#74748b" stroke="#5c5c70"/><path d="m27.937 18.884-1.7841-1.1217 7.1814-6.2449 0.93798 0.58967z" fill="#2e2ed1" stroke="#2525a7"/><path d="m57.822 54.994-4.0362 1.1417 0.64259-7.6274 4.2438-1.2004z" fill="#ffa100" stroke="#cc8100"/><path d="m57.27 17.083-1.5817 1.1948-6.8262-6.4897 0.83159-0.62816z" fill="#2e2ed1" stroke="#2525a7"/><path d="m65.782 43.993-3.2942 1.7978-1.0366-8.8716 3.133-1.7098z" fill="#ffdc00" stroke="#ccb000"/><path d="m20.453 25.638-1.9425-1.7167 6.2308-7.4061 1.4113 1.2472z" fill="#74748b" stroke="#5c5c70"/><path d="m67.144 33.276-2.5594 1.9333-3.4785-8.8611 2.1771-1.6445z" fill="#d3d32c" stroke="#a9a923"/><path d="m26.153 17.762-1.4113-1.2472 7.8508-5.6534 0.74199 0.65574z" fill="#2e2ed1" stroke="#2525a7"/><path d="m26.968 55.667-3.8667-1.2797-0.93608-7.7173 4.0657 1.3456z" fill="#ffa100" stroke="#cc8100"/><g fill="#0909f6" stroke="#0707c5"><path d="m42.466 13.598-1.5055 0.03276 0.33515-6.1148h9e-5z"/><path d="m40.96 13.631-1.497-0.08529 1.832-6.0295 1.1e-4 2e-5z"/><path d="m43.942 13.448-1.4766 0.15025-1.1703-6.082 9e-5 -2e-5z"/><path d="m39.463 13.546-1.4521-0.20142 3.284-5.8281 1.1e-4 1e-5z"/><path d="m45.354 13.184-1.4114 0.26381-2.6468-5.9318 1e-4 -1e-5z"/><path d="m38.011 13.344-1.3712-0.31242 4.6552-5.5157 7e-5 1e-5z"/><path d="m46.665 12.813-1.3114 0.37097-4.0581-5.668 7e-5 -3e-5z"/></g><path d="m18.569 45.023-3.0352-1.9082 1.26-8.7407 2.8868 1.8149z" fill="#ffdc00" stroke="#ccb000"/><path d="m58.459 15.779-1.1884 1.3041-7.5763-5.923 0.6248-0.68559z" fill="#2e2ed1" stroke="#2525a7"/><path d="m64.919 22.909-1.6358 1.7949-6.013-7.6201 1.1884-1.3041z" fill="#74748b" stroke="#5c5c70"/><path d="m36.64 13.032-1.2564-0.41582 5.9115-5.0999 9e-5 3e-5z" fill="#0909f6" stroke="#0707c5"/><path d="m16.794 34.374-2.2836-2.0181 4.0006-8.4349 1.9425 1.7167z" fill="#d3d32c" stroke="#a9a923"/><path d="m47.844 12.344-1.1794 0.46893-5.3695-5.2971 9e-5 -3e-5z" fill="#0909f6" stroke="#0707c5"/><path d="m35.383 12.616-1.1112-0.50902 7.0226-4.5909 6e-5 4e-5z" fill="#0909f6" stroke="#0707c5"/><path d="m61.451 53.551-3.6297 1.4433 0.85027-7.6861 3.8164-1.5175z" fill="#ffa100" stroke="#cc8100"/><path d="m48.862 11.789-1.018 0.55556-6.5487-4.8282 6e-5 -3e-5z" fill="#0909f6" stroke="#0707c5"/><path d="m32.593 10.861-0.52769-0.70562-8.3268 5.016 1.0037 1.3422z" fill="#2e2ed1" stroke="#2525a7"/><path d="m34.272 12.107-0.93798-0.58967 7.9605-4.0013 6e-5 3e-5z" fill="#0909f6" stroke="#0707c5"/><path d="m49.694 11.16-0.83159 0.62816-7.5666-4.2726 5e-5 -5e-5z" fill="#0909f6" stroke="#0707c5"/><path d="m24.742 16.514-1.0037-1.3422-6.6086 6.9014 1.3815 1.8474z" fill="#74748b" stroke="#5c5c70"/><path d="m33.334 11.517-0.74199-0.65574 8.7024-3.3456 7e-5 4e-5z" fill="#0909f6" stroke="#0707c5"/><path d="m23.101 54.387-3.4198-1.5665-1.112-7.7979 3.5957 1.6471z" fill="#ffa100" stroke="#cc8100"/><path d="m59.225 14.398-0.76608 1.3809-8.14-5.3046 0.40276-0.72602z" fill="#2e2ed1" stroke="#2525a7"/><path d="m50.319 10.475-0.6248 0.68559-8.3982-3.6445 4e-5 -4e-5z" fill="#0909f6" stroke="#0707c5"/><path d="m68.473 41.96-2.691 2.0327-1.1977-8.7837 2.5594-1.9333z" fill="#ffdc00" stroke="#ccb000"/><path d="m69.067 31.166-1.923 2.11-3.8607-8.5723 1.6358-1.7949z" fill="#d3d32c" stroke="#a9a923"/><path d="m44.359 62.721-3.9414 0.08577-0.15409-5.2961 4.6335-0.10081z" fill="#ff6900" stroke="#cc5400"/><path d="m41.296 7.5156 3e-5 7e-5 -9.2304 2.64 0.52769 0.70562z" fill="#0909f6" stroke="#0707c5"/><path d="m40.418 62.807-3.9191-0.22331-0.84219-5.3353 4.6072 0.26251z" fill="#ff6900" stroke="#cc5400"/><path d="m50.722 9.7488-0.40276 0.72602-9.023-2.959 2e-5 -5e-5z" fill="#0909f6" stroke="#0707c5"/><path d="m48.225 62.328-3.8657 0.39333 0.53801-5.3111 4.5444-0.46241z" fill="#ff6900" stroke="#cc5400"/><path d="m32.066 10.156-0.3005-0.73822-8.598 4.35 0.57167 1.4042z" fill="#2e2ed1" stroke="#2525a7"/><path d="m41.296 7.5156 3e-5 4e-5 -9.531 1.9017 0.3005 0.73822z" fill="#0909f6" stroke="#0707c5"/><path d="m65.974 21.008-1.0545 1.9007-6.4603-7.1293 0.76608-1.3809z" fill="#74748b" stroke="#5c5c70"/><path d="m36.499 62.584-3.8014-0.5273-1.5097-5.4279 4.469 0.61989z" fill="#ff6900" stroke="#cc5400"/><path d="m50.892 9.0003-0.17055 0.74849-9.4257-2.233 3e-5 -6e-5z" fill="#0909f6" stroke="#0707c5"/><path d="m41.296 7.5157v3e-5l-9.5966 1.149 0.0656 0.75268z" fill="#0909f6" stroke="#0707c5"/><path d="m15.534 43.115-2.401-2.1219 1.3775-8.6369 2.2836 2.0181z" fill="#ffdc00" stroke="#ccb000"/><path d="m64.584 51.841-3.133 1.7098 1.037-7.7603 3.2942-1.7978z" fill="#ffa100" stroke="#cc8100"/><path d="m18.512 23.92-1.3815-1.8474-4.2429 8.1102 1.6241 2.1718z" fill="#d3d32c" stroke="#a9a923"/><path d="m51.92 61.637-3.6949 0.69067 1.2168-5.3802 4.3437-0.81193z" fill="#ff6900" stroke="#cc5400"/><path d="m59.549 12.975-0.32439 1.4237-8.5033-4.6497 0.17055-0.74849z" fill="#2e2ed1" stroke="#2525a7"/><path d="m50.827 8.2475 0.06559 0.75274-9.5962-1.4846v-3e-5z" fill="#0909f6" stroke="#0707c5"/><path d="m41.296 7.5157-3e-5 6e-5 -9.426 0.40056-0.17052 0.7484z" fill="#0909f6" stroke="#0707c5"/><path d="m23.739 15.172-0.57167-1.4042-6.8238 6.3728 0.78684 1.9328z" fill="#74748b" stroke="#5c5c70"/><path d="m32.697 62.056-3.5899-0.81793-2.14-5.5715 4.2202 0.96153z" fill="#ff6900" stroke="#cc5400"/><path d="m50.526 7.5092 0.30056 0.73831-9.5306-0.73186-3e-5 -4e-5z" fill="#0909f6" stroke="#0707c5"/><path d="m31.765 9.4174-0.0656-0.75268-8.6571 3.671 0.12475 1.4317z" fill="#2e2ed1" stroke="#2525a7"/><path d="m41.296 7.5158-2e-5 5e-5 -9.0232-0.32543-0.40274 0.72594z" fill="#0909f6" stroke="#0707c5"/><path d="m19.681 52.821-2.8867-1.8148-1.2605-7.8913 3.0352 1.9082z" fill="#ffa100" stroke="#cc8100"/><path d="m49.998 6.8035 0.52772 0.70568-9.2301 0.00641-3e-5 -7e-5z" fill="#0909f6" stroke="#0707c5"/><path d="m55.353 60.666-3.4333 0.97115 1.8656-5.5014 4.0362-1.1417z" fill="#ff6900" stroke="#cc5400"/><path d="m41.296 7.5158-4e-5 4e-5 -8.3984-1.011-0.62476 0.68554z" fill="#0909f6" stroke="#0707c5"/><path d="m70.307 28.931-1.2396 2.2344-4.1479-8.2572 1.0545-1.9007z" fill="#d3d32c" stroke="#a9a923"/><path d="m70.495 39.742-2.0219 2.2186-1.3293-8.6843 1.923-2.11z" fill="#ffdc00" stroke="#ccb000"/><path d="m59.425 11.543 0.12476 1.4318-8.6571-3.9745-0.06559-0.75274z" fill="#2e2ed1" stroke="#2525a7"/><path d="m41.295 7.5159-7e-5 -4e-5 8.7027-0.7121-0.74192-0.65565z" fill="#0909f6" stroke="#0707c5"/><path d="m66.42 19.048-0.44647 1.9595-6.7487-6.6095 0.32439-1.4237z" fill="#74748b" stroke="#5c5c70"/><path d="m41.296 7.5158-5e-5 5e-5 -7.5669-1.6392-0.83149 0.6281z" fill="#0909f6" stroke="#0707c5"/><path d="m29.108 61.239-3.2892-1.0886-2.7176-5.7626 3.8667 1.2797z" fill="#ff6900" stroke="#cc5400"/><path d="m41.295 7.5159-6e-5 -3e-5 7.9607-1.3678-0.93786-0.58965z" fill="#0909f6" stroke="#0707c5"/><path d="m41.296 7.5159-6e-5 3e-5 -6.549-2.1947-1.0179 0.5555z" fill="#0909f6" stroke="#0707c5"/><path d="m31.699 8.6647 0.17052-0.7484-8.5032 2.9958-0.32438 1.4236z" fill="#2e2ed1" stroke="#2525a7"/><path d="m41.295 7.516-6e-5 -4e-5 7.0228-1.9575-1.1111-0.50894z" fill="#0909f6" stroke="#0707c5"/><path d="m67.144 49.908-2.5593 1.9333 1.1982-7.8483 2.691-2.0327z" fill="#ffa100" stroke="#cc8100"/><path d="m41.296 7.5159-9e-5 3e-5 -5.3696-2.6636-1.1793 0.4689z" fill="#0909f6" stroke="#0707c5"/><path d="m41.295 7.516-9e-5 -3e-5 5.9117-2.4664-1.2563-0.41577z" fill="#0909f6" stroke="#0707c5"/><path d="m17.13 22.073-0.78684-1.9328-4.381 7.7709 0.92498 2.2722z" fill="#d3d32c" stroke="#a9a923"/><path d="m23.167 13.767-0.12475-1.4317-6.8708 5.8339 0.17171 1.9706z" fill="#74748b" stroke="#5c5c70"/><path d="m14.511 32.355-1.6241-2.1718-1.4622 8.5254 1.7077 2.2836z" fill="#ffdc00" stroke="#ccb000"/><path d="m41.296 7.516-7e-5 3e-5 -4.0582-3.0346-1.3113 0.37091z" fill="#0909f6" stroke="#0707c5"/><path d="m58.441 59.438-3.0875 1.2277 2.4684-5.672 3.6297-1.4433z" fill="#ff6900" stroke="#cc5400"/><path d="m41.295 7.516-7e-5 -1e-5 4.6553-2.8822-1.3711-0.3124z" fill="#0909f6" stroke="#0707c5"/><path d="m41.296 7.516-1e-4 1e-5 -2.6469-3.2984-1.4112 0.26379z" fill="#0909f6" stroke="#0707c5"/><path d="m58.853 10.139 0.57169 1.4043-8.598-3.2954-0.30056-0.73831z" fill="#2e2ed1" stroke="#2525a7"/><g fill="#0909f6" stroke="#0707c5"><path d="m41.295 7.516-1.1e-4 -1e-5 3.2841-3.1947-1.4519-0.20141z"/><path d="m41.296 7.516-9e-5 2e-5 -1.1704-3.4486-1.4765 0.15024z"/><path d="m41.295 7.516-1.1e-4 -2e-5 1.8321-3.3961-1.4968-0.08528z"/><path d="m41.295 7.516h-9e-5l0.33514-3.4814-1.5054 0.03276z"/></g><path d="m16.794 51.006-2.2836-2.0181-1.378-7.9951 2.401 2.1219z" fill="#ffa100" stroke="#cc8100"/><path d="m31.87 7.9163 0.40274-0.72594-8.1399 2.3409-0.76604 1.3808z" fill="#2e2ed1" stroke="#2525a7"/><path d="m25.818 60.15-2.909-1.3326-3.2284-5.9966 3.4198 1.5665z" fill="#ff6900" stroke="#cc5400"/><path d="m66.248 17.078 0.17172 1.9707-6.8708-6.0736-0.12476-1.4318z" fill="#74748b" stroke="#5c5c70"/><path d="m70.832 26.628-0.52487 2.3036-4.3331-7.9235 0.44647-1.9595z" fill="#d3d32c" stroke="#a9a923"/><path d="m57.849 8.7964 1.0038 1.3422-8.3268-2.6294-0.52772-0.70568z" fill="#2e2ed1" stroke="#2525a7"/><path d="m71.799 37.392-1.3033 2.3494-1.4282-8.5758 1.2396-2.2344z" fill="#ffdc00" stroke="#ccb000"/><path d="m61.106 57.984-2.665 1.4544 3.0105-5.8875 3.133-1.7098z" fill="#ff6900" stroke="#cc5400"/><path d="m23.042 12.336 0.32438-1.4236-6.7487 5.298-0.44648 1.9595z" fill="#74748b" stroke="#5c5c70"/><path d="m32.273 7.1904 0.62476-0.68554-7.5763 1.7224-1.1884 1.304z" fill="#2e2ed1" stroke="#2525a7"/><path d="m69.066 47.798-1.9229 2.11 1.3299-7.9478 2.0219-2.2186z" fill="#ffa100" stroke="#cc8100"/><path d="m16.343 20.14-0.17171-1.9706-4.4112 7.4249 0.20187 2.3167z" fill="#d3d32c" stroke="#a9a923"/><path d="m43.521 65.263-2.8636 0.06232-0.23993-2.5186 3.9414-0.08577z" fill="#ff3900" stroke="#cc2e00"/><path d="m40.658 65.326-2.8474-0.16225-1.3116-2.5797 3.9191 0.22331z" fill="#ff3900" stroke="#cc2e00"/><path d="m49.256 6.1481 0.74192 0.65565 7.8508 1.9921-1.4112-1.2472z" fill="#2e2ed1" stroke="#2525a7"/><path d="m22.909 58.817-2.4556-1.5438-3.6595-6.2677 2.8867 1.8148z" fill="#ff6900" stroke="#cc5400"/><path d="m12.887 30.183-0.92498-2.2722-1.5098 8.4085 0.97258 2.3891z" fill="#ffdc00" stroke="#ccb000"/><path d="m46.33 64.978-2.8086 0.28576 0.83788-2.542 3.8657-0.39333z" fill="#ff3900" stroke="#cc2e00"/><path d="m37.81 65.163-2.7619-0.38309-2.3512-2.7239 3.8014 0.5273z" fill="#ff3900" stroke="#cc2e00"/><path d="m65.461 15.145 0.78687 1.9329-6.8238-5.5347-0.57169-1.4043z" fill="#74748b" stroke="#5c5c70"/><path d="m32.897 6.5048 0.83149-0.6281-6.8262 1.1558-1.5817 1.1948z" fill="#2e2ed1" stroke="#2525a7"/><path d="m13.133 40.992-1.7077-2.2836 1.461 8.1064 1.6241 2.1719z" fill="#ffa100" stroke="#cc8100"/><path d="m49.014 64.476-2.6845 0.50181 1.895-2.6496 3.6949-0.69067z" fill="#ff3900" stroke="#cc2e00"/><path d="m35.049 64.78-2.6082-0.59425-3.3329-2.9476 3.5899 0.81793z" fill="#ff3900" stroke="#cc2e00"/><path d="m48.318 5.5584 0.93786 0.58965 7.1814 1.4005-1.784-1.1216z" fill="#2e2ed1" stroke="#2525a7"/><path d="m63.283 56.34-2.177 1.6445 3.4785-6.1429 2.5593-1.9333z" fill="#ff6900" stroke="#cc5400"/><path d="m70.63 24.311 0.20189 2.3168-4.4115-7.5794-0.17172-1.9707z" fill="#d3d32c" stroke="#a9a923"/><path d="m23.367 10.912 0.76604-1.3808-6.4603 4.7782-1.0544 1.9006z" fill="#74748b" stroke="#5c5c70"/><path d="m33.729 5.8767 1.0179-0.5555-5.9079 0.65461-1.9362 1.0566z" fill="#2e2ed1" stroke="#2525a7"/><path d="m51.509 63.77-2.4944 0.70558 2.9054-2.8385 3.4333-0.97115z" fill="#ff3900" stroke="#cc2e00"/><path d="m72.35 34.97-0.55188 2.422-1.4919-8.4608 0.52487-2.3036z" fill="#ffdc00" stroke="#ccb000"/><path d="m47.207 5.0495 1.1111 0.50894 6.3353 0.86859-2.1134-0.96809z" fill="#2e2ed1" stroke="#2525a7"/><path d="m32.44 64.186-2.3897-0.79091-4.2324-3.2452 3.2892 1.0886z" fill="#ff3900" stroke="#cc2e00"/><path d="m20.454 57.274-1.9425-1.7167-4.0006-6.5691 2.2836 2.0181z" fill="#ff6900" stroke="#cc5400"/><path d="m70.306 45.563-1.2396 2.2344 1.4288-8.0563 1.3033-2.3494z" fill="#ffa100" stroke="#cc8100"/><path d="m16.172 18.17 0.44648-1.9595-4.3328 7.0809-0.52487 2.3035z" fill="#d3d32c" stroke="#a9a923"/><path d="m64.08 13.297 1.3816 1.8475-6.6086-5.0061-1.0038-1.3422z" fill="#74748b" stroke="#5c5c70"/><path d="m34.747 5.3212 1.1793-0.4689-4.844 0.23157-2.2431 0.89194z" fill="#2e2ed1" stroke="#2525a7"/><path d="m53.752 62.878-2.2432 0.89195 3.8443-3.104 3.0875-1.2277z" fill="#ff3900" stroke="#cc2e00"/><path d="m45.95 4.6337 1.2563 0.41577 5.333 0.40944-2.3897-0.79088z" fill="#2e2ed1" stroke="#2525a7"/><path d="m11.962 27.911-0.20187-2.3167-1.5202 8.2892 0.21227 2.4359z" fill="#ffdc00" stroke="#ccb000"/><path d="m35.926 4.8523 1.3113-0.37091-3.661-0.10307-2.4943 0.70555z" fill="#2e2ed1" stroke="#2525a7"/><path d="m24.133 9.5312 1.1884-1.304-6.013 4.2874-1.6357 1.7948z" fill="#74748b" stroke="#5c5c70"/><path d="m30.051 63.395-2.1135-0.96814-5.0278-3.6096 2.909 1.3326z" fill="#ff3900" stroke="#cc2e00"/><path d="m64.919 54.545-1.6357 1.7949 3.8607-6.4317 1.9229-2.11z" fill="#ff6900" stroke="#cc5400"/><path d="m11.425 38.709-0.97258-2.3891 1.5085 8.2232 0.92505 2.2723z" fill="#ffa100" stroke="#cc8100"/><path d="m44.579 4.3213 1.3711 0.3124 4.1996 0.03433-2.6081-0.59422z" fill="#2e2ed1" stroke="#2525a7"/><path d="m37.237 4.4814 1.4112-0.26379-2.3878-0.34105-2.6844 0.50177z" fill="#2e2ed1" stroke="#2525a7"/><path d="m69.705 22.039 0.92501 2.2722-4.3813-7.2334-0.78687-1.9329z" fill="#d3d32c" stroke="#a9a923"/><path d="m43.127 4.1199 1.4519 0.20141 2.9626-0.24749-2.7618-0.38307z" fill="#2e2ed1" stroke="#2525a7"/><path d="m38.649 4.2176 1.4765-0.15024-1.0558-0.47658-2.8085 0.28577z" fill="#2e2ed1" stroke="#2525a7"/><path d="m55.688 61.822-1.9362 1.0567 4.6886-3.4398 2.665-1.4544z" fill="#ff3900" stroke="#cc2e00"/><path d="m41.63 4.0346 1.4968 0.08528 1.6528-0.42915-2.8472-0.16227z" fill="#2e2ed1" stroke="#2525a7"/><path d="m40.125 4.0674 1.5054-0.03276 0.30233-0.50614-2.8635 0.06232z" fill="#2e2ed1" stroke="#2525a7"/><path d="m56.437 7.5486 1.4112 1.2472 6.2308 4.5014-1.9424-1.7167z" fill="#74748b" stroke="#5c5c70"/><path d="m14.51 48.987-1.6241-2.1719 4.2431 6.894 1.3816 1.8475z" fill="#ff6900" stroke="#cc5400"/><path d="m72.138 32.534 0.21227 2.4359-1.5189-8.3424-0.20189-2.3168z" fill="#ffdc00" stroke="#ccb000"/><path d="m27.937 62.427-1.7841-1.1216-5.6993-4.0318 2.4556 1.5438z" fill="#ff3900" stroke="#cc2e00"/><path d="m16.618 16.21 1.0544-1.9006-4.1476 6.7471-1.2395 2.2344z" fill="#d3d32c" stroke="#a9a923"/><path d="m70.831 43.26-0.52487 2.3035 1.4926-8.1713 0.55188-2.422z" fill="#ffa100" stroke="#cc8100"/><path d="m25.321 8.2273 1.5817-1.1948-5.4176 3.8377-2.177 1.6445z" fill="#74748b" stroke="#5c5c70"/><path d="m57.27 60.627-1.5817 1.1948 5.4174-3.8375 2.177-1.6445z" fill="#ff3900" stroke="#cc2e00"/><path d="m11.76 25.594 0.52487-2.3035-1.4932 8.1707-0.55187 2.422z" fill="#ffdc00" stroke="#ccb000"/><path d="m65.973 52.644-1.0544 1.9006 4.1479-6.7468 1.2396-2.2344z" fill="#ff6900" stroke="#cc5400"/><path d="m54.653 6.427 1.784 1.1216 5.6996 4.0319-2.4555-1.5438z" fill="#74748b" stroke="#5c5c70"/><path d="m10.452 36.32-0.21227-2.4359 1.519 8.3424 0.20186 2.3168z" fill="#ffa100" stroke="#cc8100"/><path d="m68.08 19.867 1.6242 2.1719-4.2432-6.894-1.3816-1.8475z" fill="#d3d32c" stroke="#a9a923"/><path d="m26.153 61.305-1.4113-1.2472-6.2306-4.5012 1.9425 1.7167z" fill="#ff3900" stroke="#cc2e00"/><path d="m42.466 64.787-1.5054 0.03276-0.30235 0.50575 2.8636-0.06232z" fill="#ff1600" stroke="#cc1200"/><path d="m40.96 64.82-1.4969-0.0853-1.6528 0.4288 2.8474 0.16225z" fill="#ff1600" stroke="#cc1200"/><path d="m26.903 7.0325 1.9362-1.0566-4.6888 3.4399-2.665 1.4544z" fill="#74748b" stroke="#5c5c70"/><path d="m43.942 64.637-1.4765 0.15024 1.0558 0.47619 2.8086-0.28576z" fill="#ff1600" stroke="#cc1200"/><path d="m39.463 64.735-1.452-0.20139-2.9627 0.2471 2.7619 0.38309z" fill="#ff1600" stroke="#cc1200"/><path d="m12.886 46.815-0.92505-2.2723 4.3813 7.2334 0.78687 1.9329z" fill="#ff6900" stroke="#cc5400"/><path d="m45.353 64.373-1.4113 0.2638 2.3879 0.34067 2.6845-0.50181z" fill="#ff1600" stroke="#cc1200"/><path d="m38.011 64.533-1.3712-0.31242-4.1997-0.03473 2.6082 0.59425z" fill="#ff1600" stroke="#cc1200"/><path d="m71.166 30.145 0.97259 2.3891-1.5086-8.2232-0.92501-2.2722z" fill="#ffdc00" stroke="#ccb000"/><path d="m17.672 14.31 1.6357-1.7948-3.8604 6.432-1.9229 2.11z" fill="#d3d32c" stroke="#a9a923"/><path d="m52.54 5.4589 2.1134 0.96809 5.0281 3.6098-2.909-1.3325z" fill="#74748b" stroke="#5c5c70"/><path d="m58.459 59.323-1.1884 1.304 6.0127-4.2872 1.6357-1.7949z" fill="#ff3900" stroke="#cc2e00"/><path d="m46.665 64.002-1.3114 0.37094 3.6611 0.10266 2.4944-0.70558z" fill="#ff1600" stroke="#cc1200"/><path d="m70.629 40.943 0.20186 2.3167 1.5196-8.2898-0.21227-2.4359z" fill="#ffa100" stroke="#cc8100"/><path d="m36.64 64.221-1.2563-0.41579-5.3332-0.40985 2.3897 0.79091z" fill="#ff1600" stroke="#cc1200"/><path d="m28.839 5.9758 2.2431-0.89194-3.8445 3.1042-3.0875 1.2277z" fill="#74748b" stroke="#5c5c70"/><path d="m47.844 63.533-1.1793 0.46891 4.8442-0.23198 2.2432-0.89195z" fill="#ff1600" stroke="#cc1200"/><path d="m18.511 55.557-1.3816-1.8475 6.6086 5.0066 1.0037 1.3423z" fill="#ff3900" stroke="#cc2e00"/><path d="m66.419 50.685-0.44648 1.9595 4.3331-7.0806 0.52487-2.3035z" fill="#ff6900" stroke="#cc5400"/><path d="m12.285 23.291 1.2395-2.2344-1.4294 8.0557-1.3033 2.3493z" fill="#ffdc00" stroke="#ccb000"/><path d="m62.137 11.581 1.9424 1.7167 4.0003 6.5694-2.2835-2.018z" fill="#d3d32c" stroke="#a9a923"/><path d="m50.15 4.6681 2.3897 0.79088 4.2325 3.2453-3.2891-1.0886z" fill="#74748b" stroke="#5c5c70"/><path d="m35.384 63.805-1.1111-0.50895-6.3356-0.86904 2.1135 0.96814z" fill="#ff1600" stroke="#cc1200"/><path d="m10.24 33.884 0.55187-2.422 1.492 8.4608-0.52488 2.3036z" fill="#ffa100" stroke="#cc8100"/><path d="m31.082 5.0839 2.4943-0.70555-2.9055 2.8386-3.4333 0.97112z" fill="#74748b" stroke="#5c5c70"/><path d="m48.862 62.978-1.0179 0.55552 5.9081-0.65502 1.9362-1.0567z" fill="#ff1600" stroke="#cc1200"/><path d="m59.225 57.942-0.76607 1.3809 6.46-4.7781 1.0544-1.9006z" fill="#ff3900" stroke="#cc2e00"/><path d="m11.961 44.543-0.20186-2.3168 4.4115 7.5794 0.17172 1.9707z" fill="#ff6900" stroke="#cc5400"/><path d="m19.308 12.515 2.177-1.6445-3.4782 6.1433-2.5592 1.9332z" fill="#d3d32c" stroke="#a9a923"/><path d="m34.273 63.296-0.93791-0.58968-7.1817-1.401 1.7841 1.1216z" fill="#ff1600" stroke="#cc1200"/><path d="m47.542 4.0738 2.6081 0.59422 3.3331 2.9477-3.5898-0.81792z" fill="#74748b" stroke="#5c5c70"/><path d="m33.576 4.3784 2.6844-0.50177-1.8951 2.6497-3.6948 0.69068z" fill="#74748b" stroke="#5c5c70"/><path d="m69.458 27.862 1.7077 2.2836-1.461-8.1064-1.6242-2.1719z" fill="#ffdc00" stroke="#ccb000"/><path d="m49.694 62.35-0.83153 0.62812 6.8264-1.1562 1.5817-1.1948z" fill="#ff1600" stroke="#cc1200"/><path d="m17.129 53.709-0.78687-1.9329 6.8238 5.5352 0.5717 1.4043z" fill="#ff3900" stroke="#cc2e00"/><path d="m44.78 3.6908 2.7618 0.38307 2.3513 2.724-3.8014-0.52726z" fill="#74748b" stroke="#5c5c70"/><path d="m36.261 3.8766 2.8085-0.28577-0.83795 2.5422-3.8656 0.39332z" fill="#74748b" stroke="#5c5c70"/><path d="m69.704 38.671 0.92503 2.2722 1.5092-8.409-0.97259-2.3891z" fill="#ffa100" stroke="#cc8100"/><path d="m59.681 10.037 2.4555 1.5438 3.6592 6.268-2.8866-1.8148z" fill="#d3d32c" stroke="#a9a923"/><path d="m33.335 62.706-0.74194-0.65567-7.851-1.9925 1.4113 1.2472z" fill="#ff1600" stroke="#cc1200"/><path d="m41.933 3.5285 2.8472 0.16227 1.3117 2.5798-3.919-0.22333z" fill="#74748b" stroke="#5c5c70"/><path d="m39.069 3.5908 2.8635-0.06232 0.23995 2.5187-3.9414 0.08577z" fill="#74748b" stroke="#5c5c70"/><path d="m66.248 48.714 0.17172 1.9707 4.4115-7.4246-0.20186-2.3167z" fill="#ff6900" stroke="#cc5400"/><path d="m13.525 21.057 1.9229-2.11-1.3304 7.9471-2.0219 2.2186z" fill="#ffdc00" stroke="#ccb000"/><path d="m50.318 61.664-0.62477 0.68555 7.5766-1.7229 1.1884-1.304z" fill="#ff1600" stroke="#cc1200"/><path d="m59.549 56.518-0.32438 1.4236 6.7484-5.2978 0.44648-1.9595z" fill="#ff3900" stroke="#cc2e00"/><path d="m21.485 10.87 2.665-1.4544-3.0103 5.8879-3.1329 1.7098z" fill="#d3d32c" stroke="#a9a923"/><path d="m10.792 31.462 1.3033-2.3493 1.4282 8.5757-1.2396 2.2344z" fill="#ffa100" stroke="#cc8100"/><path d="m24.742 60.058-1.0037-1.3423 8.3262 2.629 0.52773 0.70575z" fill="#ff1600" stroke="#cc1200"/><path d="m11.759 42.226 0.52488-2.3036 4.3331 7.9235-0.4465 1.9596z" fill="#ff6900" stroke="#cc5400"/><path d="m16.342 51.776-0.17172-1.9707 6.8708 6.0741 0.12475 1.4318z" fill="#ff3900" stroke="#cc2e00"/><path d="m56.772 8.7043 2.909 1.3325 3.2281 5.997-3.4197-1.5665z" fill="#d3d32c" stroke="#a9a923"/><path d="m50.721 60.938-0.40274 0.72597 8.1402-2.3413 0.76607-1.3809z" fill="#ff1600" stroke="#cc1200"/><path d="m65.796 17.849 2.2835 2.018 1.3786 7.9944-2.401-2.1219z" fill="#ffdc00" stroke="#ccb000"/><g fill="#ff0400" stroke="#cc0300"><path d="m41.295 61.339-0.33513 3.4807 1.5054-0.03276z"/><path d="m41.295 61.339-1.832 3.3954 1.4969 0.0853z"/><path d="m41.295 61.339 1.1703 3.4479 1.4765-0.15024z"/><path d="m41.295 61.339-3.284 3.194 1.452 0.20139z"/></g><path d="m23.738 58.716-0.5717-1.4043 8.5973 3.2949 0.3006 0.73833z" fill="#ff1600" stroke="#cc1200"/><path d="m41.295 61.339 2.6468 3.2977 1.4113-0.2638z" fill="#ff0400" stroke="#cc0300"/><path d="m41.295 61.339-4.6552 2.8816 1.3712 0.31242z" fill="#ff0400" stroke="#cc0300"/><path d="m24.15 9.4158 3.0875-1.2277-2.4682 5.6724-3.6296 1.4432z" fill="#d3d32c" stroke="#a9a923"/><path d="m41.295 61.339 4.0581 3.0339 1.3114-0.37094z" fill="#ff0400" stroke="#cc0300"/><path d="m68.08 36.499 1.6241 2.1718 1.4616-8.5259-1.7077-2.2836z" fill="#ffa100" stroke="#cc8100"/><path d="m59.424 55.086 0.12476 1.4318 6.8705-5.8337-0.17172-1.9707z" fill="#ff3900" stroke="#cc2e00"/><path d="m65.461 46.781 0.78688 1.9328 4.3813-7.7706-0.92503-2.2722z" fill="#ff6900" stroke="#cc5400"/><path d="m41.295 61.339-5.9115 2.4658 1.2563 0.41579z" fill="#ff0400" stroke="#cc0300"/><path d="m41.295 61.339 5.3695 2.6629 1.1793-0.46891z" fill="#ff0400" stroke="#cc0300"/><path d="m15.448 18.947 2.5592-1.9332-1.1987 7.8476-2.691 2.0327z" fill="#ffdc00" stroke="#ccb000"/><path d="m41.295 61.339-7.0226 1.9568 1.1111 0.50895z" fill="#ff0400" stroke="#cc0300"/><path d="m50.892 60.19-0.17054 0.74843 8.5036-2.9963 0.32438-1.4236z" fill="#ff1600" stroke="#cc1200"/><path d="m41.295 61.339 6.5488 2.194 1.0179-0.55552z" fill="#ff0400" stroke="#cc0300"/><path d="m41.295 61.339-7.9605 1.3671 0.93791 0.58968z" fill="#ff0400" stroke="#cc0300"/><path d="m53.483 7.6157 3.2891 1.0886 2.7174 5.763-3.8666-1.2797z" fill="#d3d32c" stroke="#a9a923"/><path d="m41.295 61.339 7.5667 1.6385 0.83153-0.62812z" fill="#ff0400" stroke="#cc0300"/><path d="m16.171 49.806 0.4465-1.9596 6.7487 6.61-0.32438 1.4236z" fill="#ff3900" stroke="#cc2e00"/><path d="m41.295 61.339-8.7024 0.71147 0.74194 0.65567z" fill="#ff0400" stroke="#cc0300"/><path d="m23.166 57.311-0.12475-1.4318 8.6565 3.9739 0.06559 0.75281z" fill="#ff1600" stroke="#cc1200"/><path d="m12.095 29.112 2.0219-2.2186 1.3293 8.6843-1.923 2.1101z" fill="#ffa100" stroke="#cc8100"/><path d="m12.284 39.923 1.2396-2.2344 4.148 8.2572-1.0544 1.9007z" fill="#ff6900" stroke="#cc5400"/><path d="m41.295 61.339 8.3982 1.0104 0.62477-0.68555z" fill="#ff0400" stroke="#cc0300"/><path d="m27.238 8.1881 3.4333-0.97112-1.8654 5.5019-4.0361 1.1416z" fill="#d3d32c" stroke="#a9a923"/><path d="m32.592 62.05-0.52773-0.70575 9.2304-0.0058 5e-5 6e-5 -8.7027 0.71154z" fill="#ff0400" stroke="#cc0300"/><path d="m62.909 16.034 2.8866 1.8148 1.261 7.8906-3.0352-1.9082z" fill="#ffdc00" stroke="#ccb000"/><path d="m41.295 61.339 9.023 0.32483 0.40274-0.72597z" fill="#ff0400" stroke="#cc0300"/><path d="m50.826 59.437 0.06557 0.7527 8.6574-3.6715-0.12476-1.4318z" fill="#ff1600" stroke="#cc1200"/><path d="m32.064 61.345-0.3006-0.73833 9.531 0.73239 3e-5 9e-5 -9.2304 0.0058z" fill="#ff0400" stroke="#cc0300"/><path d="m49.893 6.7978 3.5898 0.81792 2.1399 5.5719-4.2201-0.96153z" fill="#d3d32c" stroke="#a9a923"/><path d="m58.853 53.682 0.57168 1.4043 6.8235-6.3725-0.78688-1.9328z" fill="#ff3900" stroke="#cc2e00"/><path d="m41.295 61.339 9.4257-0.40114 0.17054-0.74843z" fill="#ff0400" stroke="#cc0300"/><path d="m31.763 60.606-0.06559-0.75281 9.5965 1.4851 1e-5 6e-5z" fill="#ff0400" stroke="#cc0300"/><path d="m23.041 55.88 0.32438-1.4236 8.5027 4.6491-0.17056 0.74852z" fill="#ff1600" stroke="#cc1200"/><path d="m30.671 7.217 3.6948-0.69068-1.2167 5.3806-4.3436 0.81194z" fill="#d3d32c" stroke="#a9a923"/><path d="m64.079 44.934 1.3815 1.8474 4.2432-8.11-1.6241-2.1718z" fill="#ff6900" stroke="#cc5400"/><path d="m18.007 17.013 3.1329-1.7098-1.0374 7.7596-3.2941 1.7977z" fill="#ffdc00" stroke="#ccb000"/><path d="m67.057 25.739 2.401 2.1219-1.3774 8.637-2.2836-2.0181z" fill="#ffa100" stroke="#cc8100"/><path d="m41.295 61.339 9.5962-1.1496-0.06557-0.7527z" fill="#ff0400" stroke="#cc0300"/><path d="m31.698 59.854 0.17056-0.74852 9.426 2.2336-3e-5 6e-5z" fill="#ff0400" stroke="#cc0300"/><path d="m46.092 6.2705 3.8014 0.52726 1.5096 5.4283-4.4688-0.61984z" fill="#d3d32c" stroke="#a9a923"/><path d="m16.617 47.846 1.0544-1.9007 6.4603 7.1298-0.76609 1.3809z" fill="#ff3900" stroke="#cc2e00"/><path d="m41.295 61.339 9.5307-1.9023-0.30055-0.73826z" fill="#ff0400" stroke="#cc0300"/><path d="m50.525 58.699 0.30055 0.73826 8.5982-4.3506-0.57168-1.4043z" fill="#ff1600" stroke="#cc1200"/><path d="m34.366 6.5263 3.8656-0.39332-0.53795 5.3115-4.5444 0.46238z" fill="#d3d32c" stroke="#a9a923"/><path d="m31.868 59.105 0.40279-0.72606 9.0232 2.9596-3e-5 9e-5z" fill="#ff0400" stroke="#cc0300"/><path d="m42.173 6.0472 3.919 0.22333 0.84215 5.3357-4.6071-0.26254z" fill="#d3d32c" stroke="#a9a923"/><path d="m41.295 61.339 9.2301-2.6405-0.5277-0.70563z" fill="#ff0400" stroke="#cc0300"/><path d="m38.231 6.133 3.9414-0.08577 0.15406 5.2965-4.6334 0.10083z" fill="#d3d32c" stroke="#a9a923"/><path d="m13.524 37.688 1.923-2.1101 3.8607 8.5724-1.6358 1.7949z" fill="#ff6900" stroke="#cc5400"/><path d="m14.117 26.894 2.691-2.0327 1.1977 8.7837-2.5594 1.9333z" fill="#ffa100" stroke="#cc8100"/><path d="m32.271 58.379 0.62484-0.68564 8.3985 3.6452-6e-5 5e-5z" fill="#ff0400" stroke="#cc0300"/><path d="m23.366 54.456 0.76609-1.3809 8.1394 5.3039-0.40279 0.72606z" fill="#ff1600" stroke="#cc1200"/><path d="m59.49 14.467 3.4197 1.5665 1.1125 7.7972-3.5957-1.6471z" fill="#ffdc00" stroke="#ccb000"/><path d="m49.257 57.337 0.74202 0.65576-8.7027 3.3462-7e-5 -6e-5z" fill="#ff0400" stroke="#cc0300"/><path d="m57.849 52.34 1.0037 1.3422 6.6083-6.9011-1.3815-1.8474z" fill="#ff3900" stroke="#cc2e00"/><path d="m32.896 57.693 0.83164-0.62821 7.5669 4.2733-8e-5 7e-5z" fill="#ff0400" stroke="#cc0300"/><path d="m48.319 56.747 0.93803 0.58972-7.9608 4.0019-1e-4 -7e-5z" fill="#ff0400" stroke="#cc0300"/><path d="m49.998 57.993 0.5277 0.70563 8.3271-5.0166-1.0037-1.3422z" fill="#ff1600" stroke="#cc1200"/><path d="m33.728 57.065 1.018-0.55559 6.549 4.8288-1.1e-4 5e-5z" fill="#ff0400" stroke="#cc0300"/><path d="m21.14 15.304 3.6296-1.4432-0.85058 7.6853-3.8164 1.5175z" fill="#ffdc00" stroke="#ccb000"/><path d="m47.208 56.238 1.1112 0.50907-7.0228 4.5916-1e-4 -4e-5z" fill="#ff0400" stroke="#cc0300"/><path d="m34.746 56.51 1.1794-0.46898 5.3696 5.2978-1.2e-4 5e-5z" fill="#ff0400" stroke="#cc0300"/><path d="m65.797 34.48 2.2836 2.0181-4.0006 8.4349-1.9425-1.7167z" fill="#ff6900" stroke="#cc5400"/><path d="m45.951 55.822 1.2565 0.41581-5.9117 5.1006-1.2e-4 -3e-5z" fill="#ff0400" stroke="#cc0300"/><path d="m17.672 45.945 1.6358-1.7949 6.013 7.6206-1.1884 1.3041z" fill="#ff3900" stroke="#cc2e00"/><path d="m24.132 53.075 1.1884-1.3041 7.5758 5.9224-0.62484 0.68564z" fill="#ff1600" stroke="#cc1200"/><path d="m64.022 23.831 3.0352 1.9082-1.26 8.7407-2.8868-1.8149z" fill="#ffa100" stroke="#cc8100"/><g fill="#ff0400" stroke="#cc0300"><path d="m35.925 56.041 1.3115-0.37099 4.0582 5.6687-1e-4 4e-5z"/><path d="m44.58 55.509 1.3714 0.31246-4.6553 5.5164-1.3e-4 -5e-5z"/><path d="m37.237 55.67 1.4114-0.26382 2.6469 5.9325-1.5e-4 2e-5z"/><path d="m43.128 55.308 1.4522 0.20142-3.2841 5.8288-1.5e-4 -1e-5z"/><path d="m38.648 55.406 1.4767-0.15026 1.1704 6.0828-1.6e-4 1e-5z"/><path d="m41.631 55.223 1.4971 0.08531-1.8321 6.0302-1.4e-4 -2e-5z"/><path d="m40.125 55.256 1.5056-0.03276-0.33515 6.1155-1.3e-4 2e-5z"/></g><path d="m55.623 13.188 3.8666 1.2797 0.93645 7.7165-4.0657-1.3455z" fill="#ffdc00" stroke="#ccb000"/><path d="m56.438 51.092 1.4113 1.2472-7.8502 5.6527-0.74202-0.65576z" fill="#ff1600" stroke="#cc1200"/><path d="m15.447 35.578 2.5594-1.9333 3.4785 8.8611-2.1771 1.6446z" fill="#ff6900" stroke="#cc5400"/><path d="m62.137 43.216 1.9425 1.7167-6.2308 7.4066-1.4113-1.2472z" fill="#ff3900" stroke="#cc2e00"/><path d="m16.808 24.861 3.2941-1.7977 1.0366 8.8716-3.133 1.7098z" fill="#ffa100" stroke="#cc8100"/><path d="m25.32 51.771 1.5817-1.1948 6.8257 6.489-0.83164 0.62821z" fill="#ff1600" stroke="#cc1200"/><path d="m24.769 13.86 4.0361-1.1416-0.64285 7.6265-4.2438 1.2004z" fill="#ffdc00" stroke="#ccb000"/><path d="m54.654 49.971 1.7841 1.1216-7.1809 6.2442-0.93803-0.58972z" fill="#ff1600" stroke="#cc1200"/><path d="m19.307 44.15 2.1771-1.6446 5.4176 8.0704-1.5817 1.1948z" fill="#ff3900" stroke="#cc2e00"/><path d="m51.403 12.226 4.2201 0.96153 0.73744 7.6507-4.4373-1.011z" fill="#ffdc00" stroke="#ccb000"/><path d="m62.91 32.665 2.8868 1.8149-3.6595 8.7364-2.4556-1.5438z" fill="#ff6900" stroke="#cc5400"/><path d="m60.426 22.184 3.5957 1.6471-1.1116 8.8341-3.4198-1.5666z" fill="#ffa100" stroke="#cc8100"/><path d="m26.902 50.576 1.9363-1.0567 5.9074 6.9901-1.018 0.55559z" fill="#ff1600" stroke="#cc1200"/><path d="m28.805 12.719 4.3436-0.81194-0.41928 7.5848-4.5672 0.85373z" fill="#ffdc00" stroke="#ccb000"/><path d="m59.682 41.672 2.4556 1.5438-5.6996 7.8761-1.7841-1.1216z" fill="#ff3900" stroke="#cc2e00"/><path d="m52.54 49.003 2.1135 0.96815-6.3349 6.7761-1.1112-0.50907z" fill="#ff1600" stroke="#cc1200"/><path d="m46.934 11.606 4.4688 0.61984 0.52024 7.6012-4.6988-0.65177z" fill="#ffdc00" stroke="#ccb000"/><path d="m20.102 23.063 3.8164-1.5175 0.84988 8.9458-3.6298 1.4433z" fill="#ffa100" stroke="#cc8100"/><path d="m18.006 33.645 3.133-1.7098 3.0106 9.1165-2.6651 1.4544z" fill="#ff6900" stroke="#cc5400"/><path d="m28.838 49.52 2.2432-0.89198 4.8436 7.4131-1.1794 0.46898z" fill="#ff1600" stroke="#cc1200"/><path d="m33.149 11.907 4.5444-0.46238-0.18541 7.561-4.7782 0.48617z" fill="#ffdc00" stroke="#ccb000"/><path d="m21.484 42.506 2.6651-1.4544 4.6888 8.4681-1.9363 1.0567z" fill="#ff3900" stroke="#cc2e00"/><path d="m42.327 11.344 4.6071 0.26254 0.29022 7.5693-4.8442-0.27605z" fill="#ffdc00" stroke="#ccb000"/><path d="m50.15 48.212 2.3898 0.7909-5.3326 7.2352-1.2565-0.41581z" fill="#ff1600" stroke="#cc1200"/><path d="m37.693 11.445 4.6334-0.10083 0.0531 7.5558-4.8719 0.10604z" fill="#ffdc00" stroke="#ccb000"/><path d="m31.082 48.628 2.4945-0.7056 3.6607 7.7477-1.3115 0.37099z" fill="#ff1600" stroke="#cc1200"/><path d="m56.36 20.838 4.0657 1.3455-0.93567 8.9146-3.8668-1.2797z" fill="#ffa100" stroke="#cc8100"/><path d="m59.49 31.098 3.4198 1.5666-3.2283 9.0074-2.9091-1.3326z" fill="#ff6900" stroke="#cc5400"/><path d="m47.542 47.617 2.6082 0.59428-4.1993 7.6103-1.3714-0.31246z" fill="#ff1600" stroke="#cc1200"/><path d="m56.773 40.34 2.9091 1.3326-5.0281 8.2983-2.1135-0.96815z" fill="#ff3900" stroke="#cc2e00"/><path d="m33.576 47.922 2.6845-0.5018 2.3876 7.9857-1.4114 0.26382z" fill="#ff1600" stroke="#cc1200"/><path d="m23.919 21.546 4.2438-1.2004 0.64233 9.0045-4.0362 1.1417z" fill="#ffa100" stroke="#cc8100"/><path d="m44.78 47.234 2.762 0.38309-2.9624 7.8921-1.4522-0.20142z" fill="#ff1600" stroke="#cc1200"/><path d="m21.139 31.935 3.6298-1.4433 2.4684 9.332-3.0876 1.2277z" fill="#ff6900" stroke="#cc5400"/><path d="m36.261 47.42 2.8086-0.28577 1.0557 8.1212-1.4767 0.15026z" fill="#ff1600" stroke="#cc1200"/><path d="m24.149 41.051 3.0876-1.2277 3.8444 8.8039-2.2432 0.89198z" fill="#ff3900" stroke="#cc2e00"/><path d="m41.933 47.072 2.8474 0.16224-1.6526 8.0738-1.4971-0.08531z" fill="#ff1600" stroke="#cc1200"/><path d="m39.069 47.134 2.8637-0.06231-0.30232 8.1507-1.5056 0.03276z" fill="#ff1600" stroke="#cc1200"/><path d="m51.923 19.827 4.4373 1.011-0.73683 8.9804-4.2203-0.96156z" fill="#ffa100" stroke="#cc8100"/><path d="m53.483 39.251 3.2893 1.0886-4.2325 8.6627-2.3898-0.7909z" fill="#ff3900" stroke="#cc2e00"/><path d="m55.623 29.819 3.8668 1.2797-2.7176 9.2414-3.2893-1.0886z" fill="#ff6900" stroke="#cc5400"/><path d="m28.163 20.345 4.5672-0.85373 0.41895 9.0463-4.3438 0.81195z" fill="#ffa100" stroke="#cc8100"/><path d="m27.237 39.824 3.4334-0.97115 2.9055 9.0694-2.4945 0.7056z" fill="#ff3900" stroke="#cc2e00"/><path d="m24.769 30.492 4.0362-1.1417 1.8655 9.5026-3.4334 0.97115z" fill="#ff6900" stroke="#cc5400"/><path d="m47.224 19.175 4.6988 0.65177-0.51982 9.0299-4.469-0.61989z" fill="#ffa100" stroke="#cc8100"/><path d="m49.893 38.433 3.59 0.81795-3.3331 8.9604-2.6082-0.59428z" fill="#ff3900" stroke="#cc2e00"/><path d="m32.73 19.492 4.7782-0.48617 0.18526 9.0701-4.5445 0.46241z" fill="#ffa100" stroke="#cc8100"/><path d="m30.67 38.852 3.695-0.6907 1.8951 9.2583-2.6845 0.5018z" fill="#ff3900" stroke="#cc2e00"/><path d="m42.38 18.899 4.8442 0.27605-0.28998 9.0618-4.6073-0.26254z" fill="#ffa100" stroke="#cc8100"/><path d="m51.403 28.857 4.2203 0.96156-2.14 9.4326-3.59-0.81795z" fill="#ff6900" stroke="#cc5400"/><path d="m37.508 19.005 4.8719-0.10604-0.05306 9.0753-4.6336 0.10083z" fill="#ffa100" stroke="#cc8100"/><path d="m46.092 37.906 3.8015 0.5273-2.3513 9.184-2.762-0.38309z" fill="#ff3900" stroke="#cc2e00"/><path d="m28.805 29.35 4.3438-0.81195 1.2168 9.6238-3.695 0.6907z" fill="#ff6900" stroke="#cc5400"/><g fill="#ff3900" stroke="#cc2e00"><path d="m34.365 38.162 3.8658-0.39332 0.83794 9.3659-2.8086 0.28577z"/><path d="m42.173 37.683 3.9191 0.22332-1.3117 9.3283-2.8474-0.16224z"/><path d="m38.231 37.768 3.9416-0.08578-0.23995 9.3893-2.8637 0.06231z"/></g><g fill="#ff6900" stroke="#cc5400"><path d="m46.934 28.237 4.469 0.61989-1.5097 9.5762-3.8015-0.5273z"/><path d="m33.149 28.538 4.5445-0.46241 0.53799 9.6929-3.8658 0.39332z"/><path d="m42.327 27.975 4.6073 0.26254-0.84222 9.6688-3.9191-0.22332z"/><path d="m37.693 28.076 4.6336-0.10083-0.15406 9.708-3.9416 0.08578z"/></g></g></g></g></g></g></g></svg>
