<?xml version="1.0" encoding="UTF-8" standalone="no"?>
<!-- Created with Inkscape (http://www.inkscape.org/) -->

<svg
   version="1.1"
   id="svg2"
   xml:space="preserve"
   width="225.64267"
   height="241.008"
   viewBox="0 0 225.64267 241.008"
   xmlns="http://www.w3.org/2000/svg"
   xmlns:svg="http://www.w3.org/2000/svg"><defs
     id="defs6"><clipPath
       clipPathUnits="userSpaceOnUse"
       id="clipPath94"><path
         d="M 230.12134,-7.05861 V 161.41335 L 145.89888,200.48625 0,177.92583 V 9.45386 l 84.22244,-39.07288 z"
         id="path92" /></clipPath></defs><g
     id="g8"
     transform="matrix(1.3333333,0,0,-1.3333333,0,241.008)"><g
       id="g10"
       transform="translate(-30.442,-18.721)"><g
         id="g12"><g
           id="g14"><g
             id="g16" /><g
             id="g18" /><g
             id="g20"><g
               id="g22" /></g><g
             id="g24" /><g
             id="g26" /><g
             id="g28" /><g
             id="g30" /><g
             id="g32"
             transform="translate(30.442,18.721)"><g
               id="g34"
               transform="translate(-30.442,10.897)"><g
                 id="g36"><g
                   id="g38"><g
                     id="g40"><g
                       id="g42"><g
                         id="g44" /></g><g
                       id="g46"><g
                         id="g48" /></g><path
                       d="M 72.85556,85.51648 155.2706,47.28207"
                       style="fill:none;stroke:#000000;stroke-width:0.3985;stroke-linecap:butt;stroke-linejoin:miter;stroke-miterlimit:10;stroke-dasharray:none;stroke-opacity:1"
                       id="path50" /><g
                       id="g52"
                       transform="matrix(0.9071,-0.42082,0.42082,0.9071,155.2706,47.28207)"><g
                         id="g54"><path
                           d="M 1.99252,0 -1.19551,1.59401 0,0 -1.19551,-1.59401"
                           style="fill:#000000;fill-opacity:1;fill-rule:nonzero;stroke:none"
                           id="path56" /></g></g><path
                       d="M 42.09688,54.72098 186.02672,76.97694"
                       style="fill:none;stroke:#000000;stroke-width:0.3985;stroke-linecap:butt;stroke-linejoin:miter;stroke-miterlimit:10;stroke-dasharray:none;stroke-opacity:1"
                       id="path58" /><g
                       id="g60"
                       transform="matrix(0.98822,0.1528,-0.1528,0.98822,186.02672,76.97693)"><g
                         id="g62"><path
                           d="M 1.99252,0 -1.19551,1.59401 0,0 -1.19551,-1.59401"
                           style="fill:#000000;fill-opacity:1;fill-rule:nonzero;stroke:none"
                           id="path64" /></g></g><g
                       id="g66"><g
                         id="g68" /></g><g
                       id="g70"><g
                         id="g72" /></g><path
                       d="M 114.95245,1.18976 V 167.6692"
                       style="fill:none;stroke:#000000;stroke-width:0.3985;stroke-linecap:butt;stroke-linejoin:miter;stroke-miterlimit:10;stroke-dasharray:none;stroke-opacity:1"
                       id="path74" /><g
                       id="g76"
                       transform="rotate(90,-26.358375,141.31082)"><g
                         id="g78"><path
                           d="M 1.99252,0 -1.19551,1.59401 0,0 -1.19551,-1.59401"
                           style="fill:#000000;fill-opacity:1;fill-rule:nonzero;stroke:none"
                           id="path80" /></g></g><g
                       id="g82"><g
                         id="g84" /></g><g
                       id="g86"><g
                         id="g88" /></g><g
                       id="g90"
                       clip-path="url(#clipPath94)"><g
                         id="g96"><path
                           d="m 31.03642,-10.49886 -0.19562,5.23479 2.23305,5.19014 4.59392,5.034 6.82138,4.77374 8.8504,4.41774 10.62926,3.9727 12.09711,3.45459 13.22046,2.87786 13.95811,2.25807 14.29897,1.61255 14.22026,0.96165 13.73854,0.32442 12.85784,-0.2816 11.60455,-0.84058 10.02047,-1.33423 8.14423,-1.74918 6.03511,-2.07244 3.75012,-2.2965 1.35805,-2.41366 -1.0708,-2.42029 -3.47106,-2.31834 -5.77398,-2.10558 -7.90561,-1.7959 -9.8087,-1.3907 -11.43584,-0.90726 -12.72494,-0.35472 -13.65525,0.24581 -14.18539,0.87986 -14.30982,1.53135 -14.02092,2.17749 -13.3283,2.80104 -12.25199,3.3843 -10.81913,3.91236 -9.0746,4.36593 -7.07331,4.73366 -4.8665,5.00665 -2.51503,5.1763 -0.0955,5.236 2.32808,5.18542 4.6845,5.02626 6.90764,4.76148 8.9282,4.40078 10.69354,3.9542 12.14691,3.43246 13.25894,2.85245 13.98015,2.23224 14.30228,1.58737 14.21125,0.93628 13.70871,0.29929 12.81406,-0.30599 11.54901,-0.86114 9.95087,-1.35286 8.0627,-1.76369 5.94487,-2.08334 3.65986,-2.3037 1.25998,-2.41579 -1.17074,-2.41801 -3.56392,-2.31087 -5.85941,-2.09634 -7.98973,-1.78018 -9.88258,-1.37348 -11.49236,-0.886 -12.76982,-0.33292 -13.68401,0.27126 -14.19824,0.90706 -14.3056,1.55638 -14.00153,2.20259 -13.29084,2.8261 -12.19973,3.40739 -10.75674,3.93097 -9.00153,4.382 -6.98567,4.74735 -4.77292,5.01567 -2.42293,5.18016 0.0023,5.23605 2.4253,5.18158 4.77913,5.01711 6.98899,4.74913 9.00541,4.38487 10.7604,3.93384 12.19913,3.41006 13.29047,2.82971 14.00377,2.20569 14.30781,1.56104 14.19772,0.91023 13.68199,0.27539 12.7703,-0.33021 11.48846,-0.88253 9.88002,-1.37092 7.98542,-1.77764 5.85403,-2.09483 3.56185,-2.30948 1.16609,-2.41794 -1.26638,-2.4165 -3.66183,-2.30481 -5.95028,-2.08502 -8.06722,-1.76679 -9.9516,-1.35443 -11.55156,-0.86404 -12.81412,-0.30921"
                           style="fill:none;stroke:#0000ff;stroke-width:0.79701;stroke-linecap:butt;stroke-linejoin:miter;stroke-miterlimit:10;stroke-dasharray:none;stroke-opacity:1"
                           id="path98" /></g><g
                         id="g100"><path
                           d="m 72.81259,124.41455 72.35178,14.39688"
                           style="fill:none;stroke:#000000;stroke-width:0.79701;stroke-linecap:butt;stroke-linejoin:miter;stroke-miterlimit:10;stroke-dasharray:none;stroke-opacity:1"
                           id="path102" /><g
                           id="g104"
                           transform="matrix(0.98073,0.19514,-0.19514,0.98073,145.16437,138.81143)"><g
                             id="g106"><path
                               d="M -1.55415,2.0722 C -1.42464,1.29512 0,0.1295 0.38852,0 0,-0.1295 -1.42464,-1.29512 -1.55415,-2.0722"
                               style="fill:none;stroke:#000000;stroke-width:0.6376;stroke-linecap:round;stroke-linejoin:round;stroke-miterlimit:10;stroke-dasharray:none;stroke-opacity:1"
                               id="path108" /></g></g><g
                           id="g110"><g
                             id="g112"
                             transform="translate(134.997,145.158)"><g
                               id="g114"><g
                                 id="g116"
                                 transform="translate(-104.555,-156.055)"><g
                                   aria-label="α"
                                   transform="matrix(1,0,0,-1,104.555,156.055)"
                                   id="text120"
                                   style="font-size:9.9626px;font-family:CMMIB10;-inkscape-font-specification:CMMIB10"><path
                                   d="M 4.1154099,-2.5344309 3.9013696,-3.6581421 q -0.2189047,-1.1528985 -1.0847948,-1.1528985 -0.6518498,0 -0.9485873,0.5351006 -0.3745704,0.671308 -0.3745704,1.5566562 0,1.0702011 0.3648413,1.5809789 0.3697058,0.52050697 0.9583164,0.52050697 0.6518498,0 1.0020975,-1.03614927 z m 0.5010487,-1.4885525 0.4815905,-1.4253133 h 0.7977863 l -0.9972329,2.9527822 0.194582,1.0653366 q 0.043781,0.238363 0.2140403,0.43780957 0.1994465,0.23349843 0.3551122,0.23349843 H 6.0904174 V 0 H 5.5553169 Q 5.0980491,0 4.6894268,-0.40862226 4.4899803,-0.61293338 4.4072829,-1.0410138 4.1835136,-0.50104872 3.7262458,-0.07783281 3.5122056,0.12161377 2.8165748,0.12161377 q -1.1431694,0 -1.6977281,-0.7394117 -0.56915248,-0.76373447 -0.56915248,-2.10148587 0,-1.4301779 0.61779798,-2.1014859 0.6859016,-0.7491408 1.6490826,-0.7491408 1.5128753,0 1.7998838,1.5469271 z"
                                   id="path212" /></g><g
                                   aria-label="′"
                                   transform="matrix(1,0,0,-1,112.133,159.67)"
                                   id="text124"
                                   style="font-size:6.9738px;font-family:CMSY7;-inkscape-font-specification:CMSY7"><path
                                   d="M 0.13620703,-3.813797 0.72530246,-5.0839276 H 1.4165532 L 0.43245734,-3.813797 Z"
                                   id="path215" /></g><g
                                   aria-label="("
                                   transform="matrix(1,0,0,-1,114.928,156.055)"
                                   id="text128"
                                   style="font-size:9.9626px;font-family:CMR10;-inkscape-font-specification:CMR10"><path
                                   d="M 3.0889897,2.4711917 Q 2.5344309,2.0333822 2.1306732,1.4642297 1.73178,0.89994187 1.4739589,0.25782119 1.2210022,-0.3842995 1.0945239,-1.0847948 0.96804558,-1.7852901 0.96804558,-2.4906499 q 0,-0.715089 0.12647832,-1.4155843 0.1264783,-0.7004953 0.3842995,-1.3474805 0.2626857,-0.6469853 0.6664434,-1.2112731 0.4037577,-0.5642879 0.9437229,-0.9875038 0,-0.019458 0.048646,-0.019458 h 0.092426 q 0.029187,0 0.05351,0.029187 0.024323,0.024323 0.024323,0.058375 0,0.043781 -0.019458,0.063239 -0.486455,0.4767259 -0.8123799,1.0215556 -0.3210604,0.5448297 -0.5205069,1.1626276 -0.1945821,0.6129334 -0.282144,1.2745123 -0.087562,0.6567143 -0.087562,1.3718033 0,3.16682244 1.6928636,4.8110406 0.029187,0.029187 0.029187,0.082697 0,0.024323 -0.029187,0.05351 -0.024323,0.034052 -0.048646,0.034052 h -0.092426 q -0.048646,0 -0.048646,-0.019458 z"
                                   id="path218" /></g><g
                                   aria-label="t"
                                   transform="matrix(1,0,0,-1,118.802,156.055)"
                                   id="text132"
                                   style="font-size:9.9626px;font-family:CMMI10;-inkscape-font-specification:CMMI10"><path
                                   d="m 0.61779793,-0.80751541 q 0,-0.14593652 0.0291873,-0.27727939 L 1.3669387,-3.9451506 H 0.32106034 q -0.10215556,0 -0.10215556,-0.1313429 0.0389164,-0.2189047 0.13134287,-0.2189047 H 1.4545006 l 0.3988932,-1.62476 q 0.038916,-0.1313428 0.1556656,-0.2237693 0.1167492,-0.092426 0.2626858,-0.092426 0.1264783,0 0.2091756,0.077833 0.087562,0.072968 0.087562,0.1994465 0,0.029187 -0.00486,0.048646 0,0.014594 -0.00486,0.034052 l -0.3988931,1.580979 h 1.0264202 q 0.1021555,0 0.1021555,0.1313428 -0.00486,0.024323 -0.019458,0.082697 -0.014594,0.058375 -0.038916,0.097291 -0.024323,0.038916 -0.072968,0.038916 H 2.0722986 l -0.715089,2.879814 q -0.072968,0.28214394 -0.072968,0.48645507 0,0.42808046 0.291873,0.42808046 0.4378096,0 0.7734636,-0.40862226 0.3405185,-0.4134868 0.5205069,-0.90480637 0.038916,-0.058375 0.077833,-0.058375 h 0.1216138 q 0.038916,0 0.063239,0.029187 0.024323,0.024323 0.024323,0.058375 0,0.019458 -0.00973,0.029187 -0.2189048,0.60320424 -0.6372562,1.060472 -0.4183513,0.45726777 -0.9583164,0.45726777 -0.3940286,0 -0.66644348,-0.25782119 Q 0.61779793,-0.4037577 0.61779793,-0.80751541 Z"
                                   id="path221" /></g><g
                                   aria-label=")"
                                   transform="matrix(1,0,0,-1,122.4,156.055)"
                                   id="text136"
                                   style="font-size:9.9626px;font-family:CMR10;-inkscape-font-specification:CMR10"><path
                                   d="m 0.64698524,2.4906499 q -0.0875619,0 -0.0875619,-0.087562 0,-0.043781 0.0194582,-0.063239 1.70259277,-1.66367636 1.70259277,-4.8304988 0,-3.1668225 -1.68313457,-4.8110406 -0.0389164,-0.024323 -0.0389164,-0.082697 0,-0.034052 0.0243227,-0.058375 0.0291873,-0.029187 0.0632392,-0.029187 h 0.0924265 q 0.0291873,0 0.0486455,0.019458 0.71508899,0.5642879 1.19181489,1.3718033 0.476726,0.8075154 0.6956308,1.7220509 0.2237693,0.9145355 0.2237693,1.8679875 0,0.7053598 -0.1216138,1.3912615 Q 2.6609092,-0.41835136 2.3982235,0.24322753 2.1404023,0.90967097 1.7415091,1.4690943 1.342616,2.0333822 0.78805721,2.4711917 0.768599,2.4906499 0.7394117,2.4906499 Z"
                                   id="path224" /></g><g
                                   id="g138"
                                   transform="translate(104.555,156.055)" /></g></g><g
                               id="g140"
                               transform="translate(-134.997,-145.158)" /></g></g></g><g
                         id="g142"><path
                           d="m 75.63068,124.41455 c 0,1.5564 -1.26169,2.81809 -2.81809,2.81809 -1.55639,0 -2.81809,-1.26169 -2.81809,-2.81809 0,-1.5564 1.2617,-2.81808 2.81809,-2.81808 1.5564,0 2.81809,1.26168 2.81809,2.81808 z"
                           style="fill:#000000;fill-opacity:1;fill-rule:nonzero;stroke:none"
                           id="path144" /><g
                           id="g146"
                           transform="translate(72.812,124.413)"><g
                             id="g148" /><g
                             id="g150"
                             transform="translate(-72.812,-124.413)" /></g></g><g
                         id="g152"><g
                           id="g154"
                           transform="translate(63.35,130.424)"><g
                             id="g156"><g
                               id="g158"
                               transform="translate(-32.908,-141.321)"><g
                                 aria-label="α"
                                 transform="matrix(1,0,0,-1,32.908,141.321)"
                                 id="text162"
                                 style="font-size:9.9626px;font-family:CMMIB10;-inkscape-font-specification:CMMIB10"><path
                                   d="M 4.1154099,-2.5344309 3.9013696,-3.6581421 q -0.2189047,-1.1528985 -1.0847948,-1.1528985 -0.6518498,0 -0.9485873,0.5351006 -0.3745704,0.671308 -0.3745704,1.5566562 0,1.0702011 0.3648413,1.5809789 0.3697058,0.52050697 0.9583164,0.52050697 0.6518498,0 1.0020975,-1.03614927 z m 0.5010487,-1.4885525 0.4815905,-1.4253133 h 0.7977863 l -0.9972329,2.9527822 0.194582,1.0653366 q 0.043781,0.238363 0.2140403,0.43780957 0.1994465,0.23349843 0.3551122,0.23349843 H 6.0904174 V 0 H 5.5553169 Q 5.0980491,0 4.6894268,-0.40862226 4.4899803,-0.61293338 4.4072829,-1.0410138 4.1835136,-0.50104872 3.7262458,-0.07783281 3.5122056,0.12161377 2.8165748,0.12161377 q -1.1431694,0 -1.6977281,-0.7394117 -0.56915248,-0.76373447 -0.56915248,-2.10148587 0,-1.4301779 0.61779798,-2.1014859 0.6859016,-0.7491408 1.6490826,-0.7491408 1.5128753,0 1.7998838,1.5469271 z"
                                   id="path227" /></g><g
                                 aria-label="("
                                 transform="matrix(1,0,0,-1,40.486,141.321)"
                                 id="text166"
                                 style="font-size:9.9626px;font-family:CMR10;-inkscape-font-specification:CMR10"><path
                                   d="M 3.0889897,2.4711917 Q 2.5344309,2.0333822 2.1306732,1.4642297 1.73178,0.89994187 1.4739589,0.25782119 1.2210022,-0.3842995 1.0945239,-1.0847948 0.96804558,-1.7852901 0.96804558,-2.4906499 q 0,-0.715089 0.12647832,-1.4155843 0.1264783,-0.7004953 0.3842995,-1.3474805 0.2626857,-0.6469853 0.6664434,-1.2112731 0.4037577,-0.5642879 0.9437229,-0.9875038 0,-0.019458 0.048646,-0.019458 h 0.092426 q 0.029187,0 0.05351,0.029187 0.024323,0.024323 0.024323,0.058375 0,0.043781 -0.019458,0.063239 -0.486455,0.4767259 -0.8123799,1.0215556 -0.3210604,0.5448297 -0.5205069,1.1626276 -0.1945821,0.6129334 -0.282144,1.2745123 -0.087562,0.6567143 -0.087562,1.3718033 0,3.16682244 1.6928636,4.8110406 0.029187,0.029187 0.029187,0.082697 0,0.024323 -0.029187,0.05351 -0.024323,0.034052 -0.048646,0.034052 h -0.092426 q -0.048646,0 -0.048646,-0.019458 z"
                                   id="path230" /></g><g
                                 aria-label="t"
                                 transform="matrix(1,0,0,-1,44.36,141.321)"
                                 id="text170"
                                 style="font-size:9.9626px;font-family:CMMI10;-inkscape-font-specification:CMMI10"><path
                                   d="m 0.61779793,-0.80751541 q 0,-0.14593652 0.0291873,-0.27727939 L 1.3669387,-3.9451506 H 0.32106034 q -0.10215556,0 -0.10215556,-0.1313429 0.0389164,-0.2189047 0.13134287,-0.2189047 H 1.4545006 l 0.3988932,-1.62476 q 0.038916,-0.1313428 0.1556656,-0.2237693 0.1167492,-0.092426 0.2626858,-0.092426 0.1264783,0 0.2091756,0.077833 0.087562,0.072968 0.087562,0.1994465 0,0.029187 -0.00486,0.048646 0,0.014594 -0.00486,0.034052 l -0.3988931,1.580979 h 1.0264202 q 0.1021555,0 0.1021555,0.1313428 -0.00486,0.024323 -0.019458,0.082697 -0.014594,0.058375 -0.038916,0.097291 -0.024323,0.038916 -0.072968,0.038916 H 2.0722986 l -0.715089,2.879814 q -0.072968,0.28214394 -0.072968,0.48645507 0,0.42808046 0.291873,0.42808046 0.4378096,0 0.7734636,-0.40862226 0.3405185,-0.4134868 0.5205069,-0.90480637 0.038916,-0.058375 0.077833,-0.058375 h 0.1216138 q 0.038916,0 0.063239,0.029187 0.024323,0.024323 0.024323,0.058375 0,0.019458 -0.00973,0.029187 -0.2189048,0.60320424 -0.6372562,1.060472 -0.4183513,0.45726777 -0.9583164,0.45726777 -0.3940286,0 -0.66644348,-0.25782119 Q 0.61779793,-0.4037577 0.61779793,-0.80751541 Z"
                                   id="path233" /></g><g
                                 aria-label=")"
                                 transform="matrix(1,0,0,-1,47.958,141.321)"
                                 id="text174"
                                 style="font-size:9.9626px;font-family:CMR10;-inkscape-font-specification:CMR10"><path
                                   d="m 0.64698524,2.4906499 q -0.0875619,0 -0.0875619,-0.087562 0,-0.043781 0.0194582,-0.063239 1.70259277,-1.66367636 1.70259277,-4.8304988 0,-3.1668225 -1.68313457,-4.8110406 -0.0389164,-0.024323 -0.0389164,-0.082697 0,-0.034052 0.0243227,-0.058375 0.0291873,-0.029187 0.0632392,-0.029187 h 0.0924265 q 0.0291873,0 0.0486455,0.019458 0.71508899,0.5642879 1.19181489,1.3718033 0.476726,0.8075154 0.6956308,1.7220509 0.2237693,0.9145355 0.2237693,1.8679875 0,0.7053598 -0.1216138,1.3912615 Q 2.6609092,-0.41835136 2.3982235,0.24322753 2.1404023,0.90967097 1.7415091,1.4690943 1.342616,2.0333822 0.78805721,2.4711917 0.768599,2.4906499 0.7394117,2.4906499 Z"
                                   id="path236" /></g><g
                                 id="g176"
                                 transform="translate(32.908,141.321)" /></g></g><g
                             id="g178"
                             transform="translate(-63.35,-130.424)" /></g></g></g></g><g
                     id="g180"><g
                       id="g182"
                       transform="translate(155.559,52.3)"><g
                         id="g184" /><g
                         id="g186"
                         transform="translate(-155.559,-52.3)" /></g></g><g
                     id="g188"><g
                       id="g190"
                       transform="translate(182.428,80.484)"><g
                         id="g192" /><g
                         id="g194"
                         transform="translate(-182.428,-80.484)" /></g></g><g
                     id="g196"><g
                       id="g198"
                       transform="translate(118.471,165.642)"><g
                         id="g200" /><g
                         id="g202"
                         transform="translate(-118.471,-165.642)" /></g></g></g></g><g
                 id="g204"
                 transform="translate(30.442,-10.897)" /></g><g
               id="g206"
               transform="translate(-30.442,-18.721)" /></g><g
             id="g208" /><g
             id="g210" /></g></g></g></g></svg>
