<?xml version="1.0" encoding="UTF-8"?>
<svg version="1.0" viewBox="0 0 640 440" xmlns="http://www.w3.org/2000/svg" xmlns:xlink="http://www.w3.org/1999/xlink">
 <title>Tangentialvektor</title>
 <defs>
  <marker id="Arrow1Mend" overflow="visible" orient="auto">
   <path transform="scale(.4) rotate(180) translate(10)" d="m0 0 5-5-17.5 5 17.5 5-5-5z" fill-rule="evenodd" stroke="#000" stroke-width="1pt"/>
  </marker>
  <linearGradient id="linearGradient5934" x1="19.254" x2="611.7" y1="184.99" y2="184.99" gradientUnits="userSpaceOnUse">
   <stop stop-color="#e1e1e1" offset="0"/>
   <stop stop-color="#e1e1e1" stop-opacity="0" offset="1"/>
  </linearGradient>
  <marker id="Arrow1Mend-3" overflow="visible" orient="auto">
   <path transform="matrix(-.4 0 0 -.4 -4 0)" d="m0 0 5-5-17.5 5 17.5 5z" fill-rule="evenodd" stroke="#000" stroke-width="1pt"/>
  </marker>
  <radialGradient id="radialGradient7301" cx="222.23" cy="128.8" r="290" gradientTransform="matrix(1.2515 .3437 -.23463 .85437 -25.678 4.2787)" gradientUnits="userSpaceOnUse">
   <stop stop-color="#666" offset="0"/>
   <stop stop-color="#666" stop-opacity="0" offset="1"/>
  </radialGradient>
 </defs>
 <path d="m120 420c-48.14-179.86-80.544-251.49-100-240 196.6-127.05 414.11-89.842 580 120-127.12-68.368-274.11-23.719-480 120z" fill="url(#radialGradient7301)"/>
 <path d="m50 300c120-146.67 240.39-201.19 353.72-159.86-112-38.667-232.05 17.86-352.72 165.86l-1-6z" fill="#5b5b5b"/>
 <ellipse cx="255" cy="140" rx="15" ry="6" fill="#fff" opacity=".5"/>
 <g>
  <polyline points="110 300 20 110 330 70 610 170 110 300" fill="url(#linearGradient5934)" stroke="#e1e1e1" stroke-opacity=".25909"/>
  <path d="m258.15 137.92 1.6135-73.311" fill="none" marker-end="url(#Arrow1Mend-3)" stroke="#000" stroke-linecap="round" stroke-miterlimit="3.7" stroke-width="3"/>
  <path d="m257.94 139.43-152.66 49.024" fill="none" marker-end="url(#Arrow1Mend)" stroke="#000" stroke-linecap="round" stroke-miterlimit="3.7" stroke-width="3"/>
 </g>
</svg>
