<?xml version="1.0" encoding="UTF-8" standalone="no"?>
<!-- Created with Inkscape (http://www.inkscape.org/) -->

<svg
   version="1.1"
   id="svg2"
   xml:space="preserve"
   width="458.30801"
   height="290.83066"
   viewBox="0 0 458.30801 290.83066"
   xmlns="http://www.w3.org/2000/svg"
   xmlns:svg="http://www.w3.org/2000/svg"><defs
     id="defs6"><clipPath
       clipPathUnits="userSpaceOnUse"
       id="clipPath30"><path
         d="M 0,0 H 444.33289 V 270.97327 H 0 Z"
         id="path28" /></clipPath><clipPath
       clipPathUnits="userSpaceOnUse"
       id="clipPath34"><path
         d="m 75.559,270.973 c -36.106,-134.895 -60.407,-188.618 -75,-180 147.449,-95.289 310.582,-67.383 435,90 -95.34,-51.278 -205.579,-17.789 -360,90 z"
         id="path32" /></clipPath><clipPath
       clipPathUnits="userSpaceOnUse"
       id="clipPath38"><path
         d="M 54.282333,-75.709588 H 550.13725 V 439.06642 H 54.282333 Z"
         id="path36" /></clipPath><radialGradient
       fx="222.23305"
       fy="128.80183"
       cx="222.23305"
       cy="128.80183"
       r="290"
       gradientUnits="userSpaceOnUse"
       spreadMethod="pad"
       id="radialGradient44"><stop
         style="stop-opacity:1;stop-color:#ffffff"
         offset="0"
         id="stop40" /><stop
         style="stop-opacity:0;stop-color:#ffffff"
         offset="1"
         id="stop42" /></radialGradient><mask
       maskUnits="userSpaceOnUse"
       x="0"
       y="0"
       width="1"
       height="1"
       id="mask46"><g
         id="g52"><g
           clip-path="url(#clipPath38)"
           id="g50"><path
             d="M 54.282333,-75.709588 H 550.13725 V 439.06642 H 54.282333 Z"
             style="fill:url(#radialGradient44);stroke:none"
             id="path48" /></g></g></mask><radialGradient
       fx="222.23305"
       fy="128.80183"
       cx="222.23305"
       cy="128.80183"
       r="290"
       gradientUnits="userSpaceOnUse"
       spreadMethod="pad"
       id="radialGradient58"><stop
         style="stop-opacity:1;stop-color:#666666"
         offset="0"
         id="stop54" /><stop
         style="stop-opacity:1;stop-color:#666666"
         offset="1"
         id="stop56" /></radialGradient><clipPath
       clipPathUnits="userSpaceOnUse"
       id="clipPath62"><path
         d="M 0,0 H 445 V 271 H 0 Z"
         id="path60" /></clipPath><clipPath
       clipPathUnits="userSpaceOnUse"
       id="clipPath66"><path
         d="m 68.059,180.973 -67.5,-142.5 232.5,-30 210,75 -375,97.5"
         id="path64" /></clipPath><clipPath
       clipPathUnits="userSpaceOnUse"
       id="clipPath70"><path
         d="M 19.253559,69.368973 H 611.25356 V 300.03564 H 19.253559 Z"
         id="path68" /></clipPath><linearGradient
       x1="19.253559"
       y1="184.98633"
       x2="611.69745"
       y2="184.98633"
       gradientUnits="userSpaceOnUse"
       spreadMethod="pad"
       id="linearGradient76"><stop
         style="stop-opacity:1;stop-color:#ffffff"
         offset="0"
         id="stop72" /><stop
         style="stop-opacity:0;stop-color:#ffffff"
         offset="1"
         id="stop74" /></linearGradient><mask
       maskUnits="userSpaceOnUse"
       x="0"
       y="0"
       width="1"
       height="1"
       id="mask78"><g
         id="g84"><g
           clip-path="url(#clipPath70)"
           id="g82"><path
             d="M 19.253559,69.368973 H 611.25356 V 300.03564 H 19.253559 Z"
             style="fill:url(#linearGradient76);stroke:none"
             id="path80" /></g></g></mask><linearGradient
       x1="19.253559"
       y1="184.98633"
       x2="611.69745"
       y2="184.98633"
       gradientUnits="userSpaceOnUse"
       spreadMethod="pad"
       id="linearGradient90"><stop
         style="stop-opacity:1;stop-color:#e1e1e1"
         offset="0"
         id="stop86" /><stop
         style="stop-opacity:1;stop-color:#e1e1e1"
         offset="1"
         id="stop88" /></linearGradient></defs><g
     id="g8"
     transform="matrix(1.3333333,0,0,-1.3333333,0,290.83067)"><g
       id="g10"
       transform="translate(-0.199,-0.199)"><g
         id="g12"><g
           id="g14"><g
             id="g16"><g
               id="g18"
               transform="translate(0.199,0.199)"><g
                 id="g20"><g
                   id="g22"
                   transform="scale(0.77359)"><g
                     id="g24"><g
                       id="g26" /><g
                       id="g156"><g
                         clip-path="url(#clipPath30)"
                         id="g154"><g
                           transform="matrix(1,0,0,-1,0,270.97327)"
                           id="g152"><g
                             id="g150"><g
                               id="g102"><g
                                 clip-path="url(#clipPath34)"
                                 id="g100"><g
                                   transform="matrix(0.93865,0.257774,-0.175972,0.64078,-33.698956,-40.81774)"
                                   id="g98"><g
                                   id="g92" /><g
                                   mask="url(#mask46)"
                                   id="g96"><path
                                   d="m 75.559,270.973 c -36.106,-134.895 -60.407,-188.618 -75,-180 147.449,-95.289 310.582,-67.383 435,90 -95.34,-51.278 -205.579,-17.789 -360,90 z"
                                   style="fill:url(#radialGradient58);stroke:none"
                                   id="path94" /></g></g></g></g><path
                               d="m 23.059,180.973 c 90,-110 180.289,-150.895 265.289,-119.895 -84,-29 -174.039,13.395 -264.539,124.395 z"
                               style="fill:#5b5b5b;fill-opacity:1;fill-rule:nonzero;stroke:none"
                               id="path104" /><g
                               id="g116"><g
                                 id="g106" /><g
                                 id="g114"><g
                                   clip-path="url(#clipPath62)"
                                   opacity="0.5"
                                   id="g112"><g
                                   id="g110"><path
                                   d="m 188.059,60.973 c 0,2.484 -5.036,4.5 -11.25,4.5 -6.211,0 -11.25,-2.016 -11.25,-4.5 0,-2.485 5.039,-4.5 11.25,-4.5 6.214,0 11.25,2.015 11.25,4.5 z"
                                   style="fill:#ffffff;fill-opacity:1;fill-rule:nonzero;stroke:none"
                                   id="path108" /></g></g></g></g><g
                               id="g128"><g
                                 clip-path="url(#clipPath66)"
                                 id="g126"><g
                                   transform="matrix(0.75,0,0,0.75,-14.44017,-44.02673)"
                                   id="g124"><g
                                   id="g118" /><g
                                   mask="url(#mask78)"
                                   id="g122"><path
                                   d="m 68.059,180.973 -67.5,-142.5 232.5,-30 210,75 -375,97.5"
                                   style="fill:url(#linearGradient90);stroke:none"
                                   id="path120" /></g></g></g></g><g
                               id="g132"><path
                                 d="m 68.059,180.973 -67.5,-142.5 232.5,-30 210,75 -375,97.5"
                                 style="fill:none;stroke:#e1e1e1;stroke-width:0.75;stroke-linecap:butt;stroke-linejoin:miter;stroke-miterlimit:4;stroke-dasharray:none;stroke-opacity:0.259091"
                                 id="path130" /></g><g
                               id="g136"><path
                                 d="M 179.168,59.418 180.379,4.434"
                                 style="fill:none;stroke:#000000;stroke-width:2.25;stroke-linecap:round;stroke-linejoin:miter;stroke-miterlimit:3.7;stroke-dasharray:none;stroke-opacity:1"
                                 id="path134" /></g><g
                               transform="matrix(-0.0220095,1,-1,-0.0220095,0,0)"
                               id="g140"><path
                                 d="m 9.459,-180.388 4.499,-4.501 -15.745,4.499 15.748,4.501 z"
                                 style="fill:#000000;fill-opacity:1;fill-rule:evenodd;stroke:#000000;stroke-width:1.19971;stroke-linecap:butt;stroke-linejoin:miter;stroke-miterlimit:4;stroke-dasharray:none;stroke-opacity:1"
                                 id="path138" /></g><g
                               id="g144"><path
                                 d="M 179.012,60.543 64.516,97.312"
                                 style="fill:none;stroke:#000000;stroke-width:2.25;stroke-linecap:round;stroke-linejoin:miter;stroke-miterlimit:3.7;stroke-dasharray:none;stroke-opacity:1"
                                 id="path142" /></g><g
                               transform="matrix(1,-0.321123,0.321123,1,0,0)"
                               id="g148"><path
                                 d="m 38.724,106.994 4.286,-4.284 -14.998,4.285 14.996,4.285 z"
                                 style="fill:#000000;fill-opacity:1;fill-rule:evenodd;stroke:#000000;stroke-width:1.14254;stroke-linecap:butt;stroke-linejoin:miter;stroke-miterlimit:4;stroke-dasharray:none;stroke-opacity:1"
                                 id="path146" /></g></g></g></g></g></g></g></g><g
                 id="g158"
                 transform="translate(-0.199,-0.199)" /></g></g><g
             id="g160"><g
               id="g162"><g
                 id="g164"
                 transform="translate(158.279,207.529)"><g
                   id="g166"><g
                     id="g168"
                     transform="translate(-158.08,-207.33)"><g
                       aria-label="∇"
                       transform="matrix(1,0,0,-1,158.08,207.33)"
                       id="text172"
                       style="font-size:9.9626px;font-family:CMSY10;-inkscape-font-specification:CMSY10"><path
                         d="M 3.3273527,-1.0264202 5.3607348,-6.2995931 H 1.2939705 Z M 2.7873875,0 -0.0291873,-7.1654831 h 6.722809 L 3.8770469,0 Z"
                         id="path298" /></g><g
                       aria-label="f"
                       transform="matrix(1,0,0,-1,166.382,207.33)"
                       id="text176"
                       style="font-size:9.9626px;font-family:CMMI10;-inkscape-font-specification:CMMI10"><path
                         d="m 0.96804558,1.6442181 q 0.18485292,0.141072 0.44753862,0.141072 0.3551122,0 0.5788816,-0.78805721 Q 2.0868922,0.61779793 2.500379,-1.5031462 L 2.9576468,-3.9451506 H 2.1014859 q -0.097291,0 -0.097291,-0.1313429 0.038916,-0.2189047 0.1264783,-0.2189047 H 3.020886 l 0.1167492,-0.6469853 q 0.058375,-0.3016021 0.1070201,-0.5156423 0.048646,-0.2189048 0.1021556,-0.4037577 0.058375,-0.184853 0.1702592,-0.4134869 0.1702593,-0.3259248 0.4572678,-0.5351005 0.291873,-0.2140403 0.627527,-0.2140403 0.2189048,0 0.4232159,0.082697 0.2091757,0.077833 0.3405186,0.238363 0.1313428,0.1605302 0.1313428,0.3794349 0,0.2529567 -0.1702592,0.4426742 -0.1653947,0.1848529 -0.4037577,0.1848529 -0.1605302,0 -0.2772794,-0.097291 -0.1118847,-0.1021556 -0.1118847,-0.2626858 0,-0.2189048 0.1459365,-0.3794349 Q 4.8304988,-6.6011952 5.0494036,-6.625518 4.8645507,-6.76659 4.5921358,-6.76659 q -0.150801,0 -0.2870085,0.141072 -0.1313428,0.141072 -0.1702592,0.3016021 -0.063239,0.2529567 -0.2772794,1.3718033 l -0.1216138,0.6567144 h 1.0264202 q 0.097291,0 0.097291,0.1313428 -0.00486,0.024323 -0.019458,0.087562 -0.014594,0.058375 -0.043781,0.097291 -0.024323,0.034052 -0.063239,0.034052 H 3.6678712 L 3.2057389,-1.5128753 Q 3.118177,-0.98263923 3.0014278,-0.43294501 2.8895431,0.11188467 2.6803674,0.68590164 2.4760563,1.2647832 2.1549959,1.6539472 1.8339356,2.0431113 1.396126,2.0431113 q -0.335654,0 -0.60320424,-0.194582 Q 0.53023602,1.6588118 0.53023602,1.342616 q 0,-0.2529567 0.16053017,-0.44267413 0.16539473,-0.18485292 0.41348681,-0.18485292 0.1653947,0 0.2772794,0.097291 0.1118847,0.10215556 0.1118847,0.26268574 0,0.2140402 -0.1605302,0.389164 -0.1556656,0.1799884 -0.36484132,0.1799884 z"
                         id="path301" /></g><g
                       aria-label="("
                       transform="matrix(1,0,0,-1,172.332,207.33)"
                       id="text180"
                       style="font-size:9.9626px;font-family:CMR10;-inkscape-font-specification:CMR10"><path
                         d="M 3.0889897,2.4711917 Q 2.5344309,2.0333822 2.1306732,1.4642297 1.73178,0.89994187 1.4739589,0.25782119 1.2210022,-0.3842995 1.0945239,-1.0847948 0.96804558,-1.7852901 0.96804558,-2.4906499 q 0,-0.715089 0.12647832,-1.4155843 0.1264783,-0.7004953 0.3842995,-1.3474805 0.2626857,-0.6469853 0.6664434,-1.2112731 0.4037577,-0.5642879 0.9437229,-0.9875038 0,-0.019458 0.048646,-0.019458 h 0.092426 q 0.029187,0 0.05351,0.029187 0.024323,0.024323 0.024323,0.058375 0,0.043781 -0.019458,0.063239 -0.486455,0.4767259 -0.8123799,1.0215556 -0.3210604,0.5448297 -0.5205069,1.1626276 -0.1945821,0.6129334 -0.282144,1.2745123 -0.087562,0.6567143 -0.087562,1.3718033 0,3.16682244 1.6928636,4.8110406 0.029187,0.029187 0.029187,0.082697 0,0.024323 -0.029187,0.05351 -0.024323,0.034052 -0.048646,0.034052 h -0.092426 q -0.048646,0 -0.048646,-0.019458 z"
                         id="path304" /></g><g
                       aria-label="a"
                       transform="matrix(1,0,0,-1,176.207,207.33)"
                       id="text184"
                       style="font-size:9.9626px;font-family:CMBX10;-inkscape-font-specification:CMBX10"><path
                         d="m 3.4149146,-2.738742 q -1.0847948,0 -1.5031462,0.2480921 -0.4183513,0.248092 -0.4183513,0.8464318 0,0.4767259 0.3113312,0.75886988 0.3161958,0.27727939 0.8561609,0.27727939 0.7442763,0 1.1918149,-0.52537147 0.4524032,-0.530236 0.4524032,-1.4058551 V -2.738742 Z M 5.2002047,-3.1084479 V 0 H 4.3051273 v -0.82697361 q -0.3064667,0.49618417 -0.7637344,0.73454715 -0.4572678,0.23349843 -1.1188467,0.23349843 -0.8367027,0 -1.3328869,-0.46699686 -0.49131957,-0.47186142 -0.49131957,-1.25991861 0,-0.9194001 0.61293337,-1.386397 0.6177979,-0.4669968 1.8388002,-0.4669968 h 1.255054 v -0.087562 q 0,-0.617798 -0.4086222,-0.953452 -0.4037577,-0.3405185 -1.1383049,-0.3405185 -0.4669968,0 -0.9096709,0.1118847 -0.4426742,0.1118846 -0.85129641,0.335654 v -0.8269737 q 0.49131961,-0.1897174 0.95345191,-0.2821439 0.4621323,-0.097291 0.8999419,-0.097291 1.1820858,0 1.7658319,0.6129334 0.5837461,0.6129334 0.5837461,1.8582583 z"
                         id="path307" /></g><g
                       aria-label=")"
                       transform="matrix(1,0,0,-1,181.776,207.33)"
                       id="text188"
                       style="font-size:9.9626px;font-family:CMR10;-inkscape-font-specification:CMR10"><path
                         d="m 0.64698524,2.4906499 q -0.0875619,0 -0.0875619,-0.087562 0,-0.043781 0.0194582,-0.063239 1.70259277,-1.66367636 1.70259277,-4.8304988 0,-3.1668225 -1.68313457,-4.8110406 -0.0389164,-0.024323 -0.0389164,-0.082697 0,-0.034052 0.0243227,-0.058375 0.0291873,-0.029187 0.0632392,-0.029187 h 0.0924265 q 0.0291873,0 0.0486455,0.019458 0.71508899,0.5642879 1.19181489,1.3718033 0.476726,0.8075154 0.6956308,1.7220509 0.2237693,0.9145355 0.2237693,1.8679875 0,0.7053598 -0.1216138,1.3912615 Q 2.6609092,-0.41835136 2.3982235,0.24322753 2.1404023,0.90967097 1.7415091,1.4690943 1.342616,2.0333822 0.78805721,2.4711917 0.768599,2.4906499 0.7394117,2.4906499 Z"
                         id="path310" /></g><g
                       id="g190"
                       transform="translate(158.08,207.33)" /></g></g><g
                   id="g192"
                   transform="translate(-158.279,-207.529)" /></g></g><g
               id="g194"><g
                 id="g196"
                 transform="translate(145.188,155.301)"><g
                   id="g198"><g
                     id="g200"
                     transform="translate(-144.989,-155.102)"><g
                       aria-label="a"
                       transform="matrix(1,0,0,-1,144.989,155.102)"
                       id="text204"
                       style="font-size:9.9626px;font-family:CMBX10;-inkscape-font-specification:CMBX10"><path
                         d="m 3.4149146,-2.738742 q -1.0847948,0 -1.5031462,0.2480921 -0.4183513,0.248092 -0.4183513,0.8464318 0,0.4767259 0.3113312,0.75886988 0.3161958,0.27727939 0.8561609,0.27727939 0.7442763,0 1.1918149,-0.52537147 0.4524032,-0.530236 0.4524032,-1.4058551 V -2.738742 Z M 5.2002047,-3.1084479 V 0 H 4.3051273 v -0.82697361 q -0.3064667,0.49618417 -0.7637344,0.73454715 -0.4572678,0.23349843 -1.1188467,0.23349843 -0.8367027,0 -1.3328869,-0.46699686 -0.49131957,-0.47186142 -0.49131957,-1.25991861 0,-0.9194001 0.61293337,-1.386397 0.6177979,-0.4669968 1.8388002,-0.4669968 h 1.255054 v -0.087562 q 0,-0.617798 -0.4086222,-0.953452 -0.4037577,-0.3405185 -1.1383049,-0.3405185 -0.4669968,0 -0.9096709,0.1118847 -0.4426742,0.1118846 -0.85129641,0.335654 v -0.8269737 q 0.49131961,-0.1897174 0.95345191,-0.2821439 0.4621323,-0.097291 0.8999419,-0.097291 1.1820858,0 1.7658319,0.6129334 0.5837461,0.6129334 0.5837461,1.8582583 z"
                         id="path313" /></g><g
                       id="g206"
                       transform="translate(144.989,155.102)" /></g></g><g
                   id="g208"
                   transform="translate(-145.188,-155.301)" /></g></g><g
               id="g210"><g
                 id="g212"
                 transform="translate(265.884,98.318)"><g
                   id="g214"><g
                     id="g216"
                     transform="translate(-265.685,-98.119)"><g
                       aria-label="L"
                       transform="matrix(1,0,0,-1,265.685,98.119)"
                       id="text220"
                       style="font-size:9.9626px;font-family:CMMI10;-inkscape-font-specification:CMMI10"><path
                         d="m 0.46699686,0 q -0.097291,0 -0.097291,-0.13134287 0.004865,-0.0243228 0.0194582,-0.0826974 0.0145937,-0.0632392 0.0389164,-0.097291 0.0291873,-0.0389164 0.0681037,-0.0389164 0.60806883,0 0.84643183,-0.0681037 0.1313429,-0.0437809 0.1897175,-0.26755028 L 2.8992722,-6.1585211 q 0.019458,-0.097291 0.019458,-0.1362075 0,-0.1070201 -0.1216138,-0.1216137 -0.1848529,-0.038916 -0.7150889,-0.038916 -0.097291,0 -0.097291,-0.1313429 0.034052,-0.1264783 0.05351,-0.1702593 0.019458,-0.048645 0.1118847,-0.048645 h 2.9430531 q 0.087562,0 0.087562,0.1313429 -0.014594,0.1021556 -0.034052,0.1605302 -0.019458,0.058375 -0.097291,0.058375 -0.7345472,0 -0.9826392,0.048646 -0.2432276,0.043781 -0.3016022,0.291873 L 2.403088,-0.64698524 q -0.043781,0.12161377 -0.043781,0.21890478 0,0.0778328 0.3405185,0.0778328 h 0.9242646 q 0.7831927,0 1.2696478,-0.31133124 0.486455,-0.31133124 0.7199535,-0.70049531 0.2334984,-0.3940286 0.389164,-0.8123799 0.1605302,-0.423216 0.2334984,-0.4378096 h 0.087562 q 0.1021555,0 0.1021555,0.1313429 L 5.5407232,-0.06810371 Q 5.5261296,0 5.4482967,0 Z"
                         id="path316" /></g><g
                       aria-label="("
                       transform="matrix(1,0,0,-1,272.465,98.119)"
                       id="text224"
                       style="font-size:9.9626px;font-family:CMR10;-inkscape-font-specification:CMR10"><path
                         d="M 3.0889897,2.4711917 Q 2.5344309,2.0333822 2.1306732,1.4642297 1.73178,0.89994187 1.4739589,0.25782119 1.2210022,-0.3842995 1.0945239,-1.0847948 0.96804558,-1.7852901 0.96804558,-2.4906499 q 0,-0.715089 0.12647832,-1.4155843 0.1264783,-0.7004953 0.3842995,-1.3474805 0.2626857,-0.6469853 0.6664434,-1.2112731 0.4037577,-0.5642879 0.9437229,-0.9875038 0,-0.019458 0.048646,-0.019458 h 0.092426 q 0.029187,0 0.05351,0.029187 0.024323,0.024323 0.024323,0.058375 0,0.043781 -0.019458,0.063239 -0.486455,0.4767259 -0.8123799,1.0215556 -0.3210604,0.5448297 -0.5205069,1.1626276 -0.1945821,0.6129334 -0.282144,1.2745123 -0.087562,0.6567143 -0.087562,1.3718033 0,3.16682244 1.6928636,4.8110406 0.029187,0.029187 0.029187,0.082697 0,0.024323 -0.029187,0.05351 -0.024323,0.034052 -0.048646,0.034052 h -0.092426 q -0.048646,0 -0.048646,-0.019458 z"
                         id="path319" /></g><g
                       aria-label="c"
                       transform="matrix(1,0,0,-1,276.339,98.119)"
                       id="text228"
                       style="font-size:9.9626px;font-family:CMMI10;-inkscape-font-specification:CMMI10"><path
                         d="m 1.1674922,-1.1869504 q 0,0.43294505 0.2189047,0.73454719 0.2237694,0.30160214 0.6372562,0.30160214 0.5934752,0 1.1383048,-0.27241484 0.5496943,-0.27241483 0.8950774,-0.75400539 0.029187,-0.029187 0.077833,-0.029187 0.048646,0 0.097291,0.058375 0.05351,0.05351 0.05351,0.1021556 0,0.038916 -0.019458,0.0583746 -0.3648413,0.51077782 -0.9826392,0.80751541 -0.6177979,0.29187304 -1.2793768,0.29187304 -0.476726,0 -0.8415673,-0.22376934 Q 0.79778631,-0.34051855 0.59833973,-0.7199535 0.39889315,-1.0993884 0.39889315,-1.5761144 q 0,-0.671308 0.37457041,-1.3328869 0.37457044,-0.6615789 0.99723284,-1.0750657 0.6226625,-0.4183513 1.3085642,-0.4183513 0.4475386,0 0.8026508,0.2189047 0.3599768,0.2140403 0.3599768,0.6372562 0,0.2724148 -0.1605302,0.4669968 -0.1556656,0.1897175 -0.4232159,0.1897175 -0.1605302,0 -0.2724148,-0.097291 -0.1070202,-0.1021556 -0.1070202,-0.2626857 0,-0.2334985 0.1702593,-0.3988932 0.1702593,-0.1653947 0.3988932,-0.1653947 h 0.019458 Q 3.7505686,-3.984067 3.5267992,-4.0618998 q -0.2189048,-0.082697 -0.4572677,-0.082697 -0.5837461,0 -1.0215557,0.5010488 -0.4378095,0.4961841 -0.6615789,1.1918149 -0.2189047,0.6907662 -0.2189047,1.2647831 z"
                         id="path322" /></g><g
                       aria-label=")"
                       transform="matrix(1,0,0,-1,280.651,98.119)"
                       id="text232"
                       style="font-size:9.9626px;font-family:CMR10;-inkscape-font-specification:CMR10"><path
                         d="m 0.64698524,2.4906499 q -0.0875619,0 -0.0875619,-0.087562 0,-0.043781 0.0194582,-0.063239 1.70259277,-1.66367636 1.70259277,-4.8304988 0,-3.1668225 -1.68313457,-4.8110406 -0.0389164,-0.024323 -0.0389164,-0.082697 0,-0.034052 0.0243227,-0.058375 0.0291873,-0.029187 0.0632392,-0.029187 h 0.0924265 q 0.0291873,0 0.0486455,0.019458 0.71508899,0.5642879 1.19181489,1.3718033 0.476726,0.8075154 0.6956308,1.7220509 0.2237693,0.9145355 0.2237693,1.8679875 0,0.7053598 -0.1216138,1.3912615 Q 2.6609092,-0.41835136 2.3982235,0.24322753 2.1404023,0.90967097 1.7415091,1.4690943 1.342616,2.0333822 0.78805721,2.4711917 0.768599,2.4906499 0.7394117,2.4906499 Z"
                         id="path325" /></g><g
                       id="g234"
                       transform="translate(265.685,98.119)" /></g></g><g
                   id="g236"
                   transform="translate(-265.884,-98.318)" /></g></g><g
               id="g238"><g
                 id="g240"
                 transform="translate(24.953,54.215)"><g
                   id="g242"><g
                     id="g244"
                     transform="translate(-24.754,-54.016)"><g
                       aria-label="α"
                       transform="matrix(1,0,0,-1,24.754,54.016)"
                       id="text248"
                       style="font-size:9.9626px;font-family:CMMIB10;-inkscape-font-specification:CMMIB10"><path
                         d="M 4.1154099,-2.5344309 3.9013696,-3.6581421 q -0.2189047,-1.1528985 -1.0847948,-1.1528985 -0.6518498,0 -0.9485873,0.5351006 -0.3745704,0.671308 -0.3745704,1.5566562 0,1.0702011 0.3648413,1.5809789 0.3697058,0.52050697 0.9583164,0.52050697 0.6518498,0 1.0020975,-1.03614927 z m 0.5010487,-1.4885525 0.4815905,-1.4253133 h 0.7977863 l -0.9972329,2.9527822 0.194582,1.0653366 q 0.043781,0.238363 0.2140403,0.43780957 0.1994465,0.23349843 0.3551122,0.23349843 H 6.0904174 V 0 H 5.5553169 Q 5.0980491,0 4.6894268,-0.40862226 4.4899803,-0.61293338 4.4072829,-1.0410138 4.1835136,-0.50104872 3.7262458,-0.07783281 3.5122056,0.12161377 2.8165748,0.12161377 q -1.1431694,0 -1.6977281,-0.7394117 -0.56915248,-0.76373447 -0.56915248,-2.10148587 0,-1.4301779 0.61779798,-2.1014859 0.6859016,-0.7491408 1.6490826,-0.7491408 1.5128753,0 1.7998838,1.5469271 z"
                         id="path328" /></g><g
                       aria-label="("
                       transform="matrix(1,0,0,-1,32.332,54.016)"
                       id="text252"
                       style="font-size:9.9626px;font-family:CMR10;-inkscape-font-specification:CMR10"><path
                         d="M 3.0889897,2.4711917 Q 2.5344309,2.0333822 2.1306732,1.4642297 1.73178,0.89994187 1.4739589,0.25782119 1.2210022,-0.3842995 1.0945239,-1.0847948 0.96804558,-1.7852901 0.96804558,-2.4906499 q 0,-0.715089 0.12647832,-1.4155843 0.1264783,-0.7004953 0.3842995,-1.3474805 0.2626857,-0.6469853 0.6664434,-1.2112731 0.4037577,-0.5642879 0.9437229,-0.9875038 0,-0.019458 0.048646,-0.019458 h 0.092426 q 0.029187,0 0.05351,0.029187 0.024323,0.024323 0.024323,0.058375 0,0.043781 -0.019458,0.063239 -0.486455,0.4767259 -0.8123799,1.0215556 -0.3210604,0.5448297 -0.5205069,1.1626276 -0.1945821,0.6129334 -0.282144,1.2745123 -0.087562,0.6567143 -0.087562,1.3718033 0,3.16682244 1.6928636,4.8110406 0.029187,0.029187 0.029187,0.082697 0,0.024323 -0.029187,0.05351 -0.024323,0.034052 -0.048646,0.034052 h -0.092426 q -0.048646,0 -0.048646,-0.019458 z"
                         id="path331" /></g><g
                       aria-label="t"
                       transform="matrix(1,0,0,-1,36.206,54.016)"
                       id="text256"
                       style="font-size:9.9626px;font-family:CMMI10;-inkscape-font-specification:CMMI10"><path
                         d="m 0.61779793,-0.80751541 q 0,-0.14593652 0.0291873,-0.27727939 L 1.3669387,-3.9451506 H 0.32106034 q -0.10215556,0 -0.10215556,-0.1313429 0.0389164,-0.2189047 0.13134287,-0.2189047 H 1.4545006 l 0.3988932,-1.62476 q 0.038916,-0.1313428 0.1556656,-0.2237693 0.1167492,-0.092426 0.2626858,-0.092426 0.1264783,0 0.2091756,0.077833 0.087562,0.072968 0.087562,0.1994465 0,0.029187 -0.00486,0.048646 0,0.014594 -0.00486,0.034052 l -0.3988931,1.580979 h 1.0264202 q 0.1021555,0 0.1021555,0.1313428 -0.00486,0.024323 -0.019458,0.082697 -0.014594,0.058375 -0.038916,0.097291 -0.024323,0.038916 -0.072968,0.038916 H 2.0722986 l -0.715089,2.879814 q -0.072968,0.28214394 -0.072968,0.48645507 0,0.42808046 0.291873,0.42808046 0.4378096,0 0.7734636,-0.40862226 0.3405185,-0.4134868 0.5205069,-0.90480637 0.038916,-0.058375 0.077833,-0.058375 h 0.1216138 q 0.038916,0 0.063239,0.029187 0.024323,0.024323 0.024323,0.058375 0,0.019458 -0.00973,0.029187 -0.2189048,0.60320424 -0.6372562,1.060472 -0.4183513,0.45726777 -0.9583164,0.45726777 -0.3940286,0 -0.66644348,-0.25782119 Q 0.61779793,-0.4037577 0.61779793,-0.80751541 Z"
                         id="path334" /></g><g
                       aria-label=")"
                       transform="matrix(1,0,0,-1,39.804,54.016)"
                       id="text260"
                       style="font-size:9.9626px;font-family:CMR10;-inkscape-font-specification:CMR10"><path
                         d="m 0.64698524,2.4906499 q -0.0875619,0 -0.0875619,-0.087562 0,-0.043781 0.0194582,-0.063239 1.70259277,-1.66367636 1.70259277,-4.8304988 0,-3.1668225 -1.68313457,-4.8110406 -0.0389164,-0.024323 -0.0389164,-0.082697 0,-0.034052 0.0243227,-0.058375 0.0291873,-0.029187 0.0632392,-0.029187 h 0.0924265 q 0.0291873,0 0.0486455,0.019458 0.71508899,0.5642879 1.19181489,1.3718033 0.476726,0.8075154 0.6956308,1.7220509 0.2237693,0.9145355 0.2237693,1.8679875 0,0.7053598 -0.1216138,1.3912615 Q 2.6609092,-0.41835136 2.3982235,0.24322753 2.1404023,0.90967097 1.7415091,1.4690943 1.342616,2.0333822 0.78805721,2.4711917 0.768599,2.4906499 0.7394117,2.4906499 Z"
                         id="path337" /></g><g
                       id="g262"
                       transform="translate(24.754,54.016)" /></g></g><g
                   id="g264"
                   transform="translate(-24.953,-54.215)" /></g></g><g
               id="g266"><g
                 id="g268"
                 transform="translate(47.641,155.015)"><g
                   id="g270"><g
                     id="g272"
                     transform="translate(-47.442,-154.816)"><g
                       aria-label="α"
                       transform="matrix(1,0,0,-1,47.442,154.816)"
                       id="text276"
                       style="font-size:9.9626px;font-family:CMMIB10;-inkscape-font-specification:CMMIB10"><path
                         d="M 4.1154099,-2.5344309 3.9013696,-3.6581421 q -0.2189047,-1.1528985 -1.0847948,-1.1528985 -0.6518498,0 -0.9485873,0.5351006 -0.3745704,0.671308 -0.3745704,1.5566562 0,1.0702011 0.3648413,1.5809789 0.3697058,0.52050697 0.9583164,0.52050697 0.6518498,0 1.0020975,-1.03614927 z m 0.5010487,-1.4885525 0.4815905,-1.4253133 h 0.7977863 l -0.9972329,2.9527822 0.194582,1.0653366 q 0.043781,0.238363 0.2140403,0.43780957 0.1994465,0.23349843 0.3551122,0.23349843 H 6.0904174 V 0 H 5.5553169 Q 5.0980491,0 4.6894268,-0.40862226 4.4899803,-0.61293338 4.4072829,-1.0410138 4.1835136,-0.50104872 3.7262458,-0.07783281 3.5122056,0.12161377 2.8165748,0.12161377 q -1.1431694,0 -1.6977281,-0.7394117 -0.56915248,-0.76373447 -0.56915248,-2.10148587 0,-1.4301779 0.61779798,-2.1014859 0.6859016,-0.7491408 1.6490826,-0.7491408 1.5128753,0 1.7998838,1.5469271 z"
                         id="path340" /></g><g
                       aria-label="′"
                       transform="matrix(1,0,0,-1,55.02,158.432)"
                       id="text280"
                       style="font-size:6.9738px;font-family:CMSY7;-inkscape-font-specification:CMSY7"><path
                         d="M 0.13620703,-3.813797 0.72530246,-5.0839276 H 1.4165532 L 0.43245734,-3.813797 Z"
                         id="path343" /></g><g
                       aria-label="("
                       transform="matrix(1,0,0,-1,57.815,154.816)"
                       id="text284"
                       style="font-size:9.9626px;font-family:CMR10;-inkscape-font-specification:CMR10"><path
                         d="M 3.0889897,2.4711917 Q 2.5344309,2.0333822 2.1306732,1.4642297 1.73178,0.89994187 1.4739589,0.25782119 1.2210022,-0.3842995 1.0945239,-1.0847948 0.96804558,-1.7852901 0.96804558,-2.4906499 q 0,-0.715089 0.12647832,-1.4155843 0.1264783,-0.7004953 0.3842995,-1.3474805 0.2626857,-0.6469853 0.6664434,-1.2112731 0.4037577,-0.5642879 0.9437229,-0.9875038 0,-0.019458 0.048646,-0.019458 h 0.092426 q 0.029187,0 0.05351,0.029187 0.024323,0.024323 0.024323,0.058375 0,0.043781 -0.019458,0.063239 -0.486455,0.4767259 -0.8123799,1.0215556 -0.3210604,0.5448297 -0.5205069,1.1626276 -0.1945821,0.6129334 -0.282144,1.2745123 -0.087562,0.6567143 -0.087562,1.3718033 0,3.16682244 1.6928636,4.8110406 0.029187,0.029187 0.029187,0.082697 0,0.024323 -0.029187,0.05351 -0.024323,0.034052 -0.048646,0.034052 h -0.092426 q -0.048646,0 -0.048646,-0.019458 z"
                         id="path346" /></g><g
                       aria-label="t"
                       transform="matrix(1,0,0,-1,61.69,154.816)"
                       id="text288"
                       style="font-size:9.9626px;font-family:CMMI10;-inkscape-font-specification:CMMI10"><path
                         d="m 0.61779793,-0.80751541 q 0,-0.14593652 0.0291873,-0.27727939 L 1.3669387,-3.9451506 H 0.32106034 q -0.10215556,0 -0.10215556,-0.1313429 0.0389164,-0.2189047 0.13134287,-0.2189047 H 1.4545006 l 0.3988932,-1.62476 q 0.038916,-0.1313428 0.1556656,-0.2237693 0.1167492,-0.092426 0.2626858,-0.092426 0.1264783,0 0.2091756,0.077833 0.087562,0.072968 0.087562,0.1994465 0,0.029187 -0.00486,0.048646 0,0.014594 -0.00486,0.034052 l -0.3988931,1.580979 h 1.0264202 q 0.1021555,0 0.1021555,0.1313428 -0.00486,0.024323 -0.019458,0.082697 -0.014594,0.058375 -0.038916,0.097291 -0.024323,0.038916 -0.072968,0.038916 H 2.0722986 l -0.715089,2.879814 q -0.072968,0.28214394 -0.072968,0.48645507 0,0.42808046 0.291873,0.42808046 0.4378096,0 0.7734636,-0.40862226 0.3405185,-0.4134868 0.5205069,-0.90480637 0.038916,-0.058375 0.077833,-0.058375 h 0.1216138 q 0.038916,0 0.063239,0.029187 0.024323,0.024323 0.024323,0.058375 0,0.019458 -0.00973,0.029187 -0.2189048,0.60320424 -0.6372562,1.060472 -0.4183513,0.45726777 -0.9583164,0.45726777 -0.3940286,0 -0.66644348,-0.25782119 Q 0.61779793,-0.4037577 0.61779793,-0.80751541 Z"
                         id="path349" /></g><g
                       aria-label=")"
                       transform="matrix(1,0,0,-1,65.287,154.816)"
                       id="text292"
                       style="font-size:9.9626px;font-family:CMR10;-inkscape-font-specification:CMR10"><path
                         d="m 0.64698524,2.4906499 q -0.0875619,0 -0.0875619,-0.087562 0,-0.043781 0.0194582,-0.063239 1.70259277,-1.66367636 1.70259277,-4.8304988 0,-3.1668225 -1.68313457,-4.8110406 -0.0389164,-0.024323 -0.0389164,-0.082697 0,-0.034052 0.0243227,-0.058375 0.0291873,-0.029187 0.0632392,-0.029187 h 0.0924265 q 0.0291873,0 0.0486455,0.019458 0.71508899,0.5642879 1.19181489,1.3718033 0.476726,0.8075154 0.6956308,1.7220509 0.2237693,0.9145355 0.2237693,1.8679875 0,0.7053598 -0.1216138,1.3912615 Q 2.6609092,-0.41835136 2.3982235,0.24322753 2.1404023,0.90967097 1.7415091,1.4690943 1.342616,2.0333822 0.78805721,2.4711917 0.768599,2.4906499 0.7394117,2.4906499 Z"
                         id="path352" /></g><g
                       id="g294"
                       transform="translate(47.442,154.816)" /></g></g><g
                   id="g296"
                   transform="translate(-47.641,-155.015)" /></g></g></g></g></g></g></g></svg>
