<?xml version="1.0" encoding="UTF-8" standalone="no"?>
<!-- Created with Inkscape (http://www.inkscape.org/) -->

<svg
   version="1.1"
   id="svg2"
   xml:space="preserve"
   width="231.34267"
   height="149.912"
   viewBox="0 0 231.34267 149.912"
   xmlns="http://www.w3.org/2000/svg"
   xmlns:svg="http://www.w3.org/2000/svg"><defs
     id="defs6" /><g
     id="g8"
     transform="matrix(1.3333333,0,0,-1.3333333,0,149.912)"><g
       id="g10"
       transform="translate(20.038,15.658)"><g
         id="g12"><g
           id="g14"><g
             id="g16"><path
               d="M -11.33855,0 H 153.07259 M -11.33855,28.3468 H 153.07259 M -11.33855,56.69362 H 153.07259 M -11.33855,85.04042 H 153.07259 M 0,-11.33855 V 96.37897 M 28.3468,-11.33855 V 96.37897 M 56.69362,-11.33855 V 96.37897 M 85.04042,-11.33855 V 96.37897 M 113.38724,-11.33855 V 96.37897 m 28.3468,-107.71752 V 96.37897"
               style="fill:none;stroke:#808080;stroke-width:0.19925;stroke-linecap:butt;stroke-linejoin:miter;stroke-miterlimit:10;stroke-dasharray:none;stroke-opacity:1"
               id="path18" /></g><g
             id="g20"><path
               d="M -11.33855,0 H 152.36522"
               style="fill:none;stroke:#000000;stroke-width:0.79701;stroke-linecap:butt;stroke-linejoin:miter;stroke-miterlimit:10;stroke-dasharray:none;stroke-opacity:1"
               id="path22" /><g
               id="g24"
               transform="translate(152.36522)"><g
                 id="g26"><path
                   d="M -1.55415,2.0722 C -1.42464,1.29512 0,0.1295 0.38852,0 0,-0.1295 -1.42464,-1.29512 -1.55415,-2.0722"
                   style="fill:none;stroke:#000000;stroke-width:0.6376;stroke-linecap:round;stroke-linejoin:round;stroke-miterlimit:10;stroke-dasharray:none;stroke-opacity:1"
                   id="path28" /></g></g></g><g
             id="g30"><path
               d="M 0,-11.33855 V 95.6716"
               style="fill:none;stroke:#000000;stroke-width:0.79701;stroke-linecap:butt;stroke-linejoin:miter;stroke-miterlimit:10;stroke-dasharray:none;stroke-opacity:1"
               id="path32" /><g
               id="g34"
               transform="rotate(90,-47.8358,47.8358)"><g
                 id="g36"><path
                   d="M -1.55415,2.0722 C -1.42464,1.29512 0,0.1295 0.38852,0 0,-0.1295 -1.42464,-1.29512 -1.55415,-2.0722"
                   style="fill:none;stroke:#000000;stroke-width:0.6376;stroke-linecap:round;stroke-linejoin:round;stroke-miterlimit:10;stroke-dasharray:none;stroke-opacity:1"
                   id="path38" /></g></g></g><g
             id="g40"><path
               d="m 29.84122,28.3468 c 0,0.82535 -0.66907,1.49442 -1.49442,1.49442 -0.82535,0 -1.49441,-0.66907 -1.49441,-1.49442 0,-0.82535 0.66906,-1.49441 1.49441,-1.49441 0.82535,0 1.49442,0.66906 1.49442,1.49441 z"
               style="fill:#0000ff;fill-opacity:1;fill-rule:nonzero;stroke:#0000ff;stroke-width:0.3985;stroke-linecap:butt;stroke-linejoin:miter;stroke-miterlimit:10;stroke-dasharray:none;stroke-opacity:1"
               id="path42" /></g><g
             id="g44"><g
               id="g46"
               transform="translate(25.561,20.399)"><g
                 id="g48"><g
                   id="g50"
                   transform="translate(-45.599,-36.057)"><g
                     aria-label="a"
                     transform="matrix(1,0,0,-1,45.599,36.057)"
                     id="text54"
                     style="font-size:9.9626px;font-family:CMBX10;-inkscape-font-specification:CMBX10"><path
                       d="m 3.4149146,-2.738742 q -1.0847948,0 -1.5031462,0.2480921 -0.4183513,0.248092 -0.4183513,0.8464318 0,0.4767259 0.3113312,0.75886988 0.3161958,0.27727939 0.8561609,0.27727939 0.7442763,0 1.1918149,-0.52537147 0.4524032,-0.530236 0.4524032,-1.4058551 V -2.738742 Z M 5.2002047,-3.1084479 V 0 H 4.3051273 v -0.82697361 q -0.3064667,0.49618417 -0.7637344,0.73454715 -0.4572678,0.23349843 -1.1188467,0.23349843 -0.8367027,0 -1.3328869,-0.46699686 -0.49131957,-0.47186142 -0.49131957,-1.25991861 0,-0.9194001 0.61293337,-1.386397 0.6177979,-0.4669968 1.8388002,-0.4669968 h 1.255054 v -0.087562 q 0,-0.617798 -0.4086222,-0.953452 -0.4037577,-0.3405185 -1.1383049,-0.3405185 -0.4669968,0 -0.9096709,0.1118847 -0.4426742,0.1118846 -0.85129641,0.335654 v -0.8269737 q 0.49131961,-0.1897174 0.95345191,-0.2821439 0.4621323,-0.097291 0.8999419,-0.097291 1.1820858,0 1.7658319,0.6129334 0.5837461,0.6129334 0.5837461,1.8582583 z"
                       id="path240" /></g><g
                     id="g56"
                     transform="translate(45.599,36.057)" /></g></g><g
                 id="g58"
                 transform="translate(-25.561,-20.399)" /></g></g><g
             id="g60"><path
               d="m 114.88165,85.04042 c 0,0.82535 -0.66908,1.49442 -1.49441,1.49442 -0.82535,0 -1.49442,-0.66907 -1.49442,-1.49442 0,-0.82535 0.66907,-1.49442 1.49442,-1.49442 0.82533,0 1.49441,0.66907 1.49441,1.49442 z"
               style="fill:#0000ff;fill-opacity:1;fill-rule:nonzero;stroke:#0000ff;stroke-width:0.3985;stroke-linecap:butt;stroke-linejoin:miter;stroke-miterlimit:10;stroke-dasharray:none;stroke-opacity:1"
               id="path62" /></g><g
             id="g64"><g
               id="g66"
               transform="translate(116.905,82.826)"><g
                 id="g68"><g
                   id="g70"
                   transform="translate(-136.943,-98.484)"><g
                     aria-label="x"
                     transform="matrix(1,0,0,-1,136.943,98.484)"
                     id="text74"
                     style="font-size:9.9626px;font-family:CMBX10;-inkscape-font-specification:CMBX10"><path
                       d="M 5.4677549,-5.4482967 3.4976119,-2.7971166 5.5699105,0 H 4.514303 L 2.9284595,-2.1404023 1.342616,0 H 0.28700849 L 2.403088,-2.8506267 0.46699686,-5.4482967 H 1.5226044 l 1.4447715,1.9409557 1.4447715,-1.9409557 z"
                       id="path243" /></g><g
                     id="g76"
                     transform="translate(136.943,98.484)" /></g></g><g
                 id="g78"
                 transform="translate(-116.905,-82.826)" /></g></g><g
             id="g80"><path
               d="m 28.3468,28.3468 h 84.08402"
               style="fill:none;stroke:#000000;stroke-width:1.19553;stroke-linecap:butt;stroke-linejoin:miter;stroke-miterlimit:10;stroke-dasharray:none;stroke-opacity:1"
               id="path82" /><g
               id="g84"
               transform="translate(112.43082,28.3468)"><g
                 id="g86"><path
                   d="M -1.91284,2.55046 C -1.75343,1.59402 0,0.15938 0.4782,0 0,-0.15938 -1.75343,-1.59402 -1.91284,-2.55046"
                   style="fill:none;stroke:#000000;stroke-width:0.9564;stroke-linecap:round;stroke-linejoin:round;stroke-miterlimit:10;stroke-dasharray:none;stroke-opacity:1"
                   id="path88" /></g></g><g
               id="g90"><g
                 id="g92" /><g
                 id="g94"
                 transform="translate(64.842,20.001)"><g
                   id="g96"><g
                     id="g98"
                     transform="translate(-84.88,-35.659)"><g
                       aria-label="α"
                       transform="matrix(1,0,0,-1,84.88,35.659)"
                       id="text102"
                       style="font-size:9.9626px;font-family:CMMIB10;-inkscape-font-specification:CMMIB10"><path
                         d="M 4.1154099,-2.5344309 3.9013696,-3.6581421 q -0.2189047,-1.1528985 -1.0847948,-1.1528985 -0.6518498,0 -0.9485873,0.5351006 -0.3745704,0.671308 -0.3745704,1.5566562 0,1.0702011 0.3648413,1.5809789 0.3697058,0.52050697 0.9583164,0.52050697 0.6518498,0 1.0020975,-1.03614927 z m 0.5010487,-1.4885525 0.4815905,-1.4253133 h 0.7977863 l -0.9972329,2.9527822 0.194582,1.0653366 q 0.043781,0.238363 0.2140403,0.43780957 0.1994465,0.23349843 0.3551122,0.23349843 H 6.0904174 V 0 H 5.5553169 Q 5.0980491,0 4.6894268,-0.40862226 4.4899803,-0.61293338 4.4072829,-1.0410138 4.1835136,-0.50104872 3.7262458,-0.07783281 3.5122056,0.12161377 2.8165748,0.12161377 q -1.1431694,0 -1.6977281,-0.7394117 -0.56915248,-0.76373447 -0.56915248,-2.10148587 0,-1.4301779 0.61779798,-2.1014859 0.6859016,-0.7491408 1.6490826,-0.7491408 1.5128753,0 1.7998838,1.5469271 z"
                         id="path246" /></g><g
                       aria-label="1"
                       transform="matrix(1,0,0,-1,92.458,34.164)"
                       id="text106"
                       style="font-size:6.9738px;font-family:CMR7;-inkscape-font-specification:CMR7"><path
                         d="M 0.86491467,-0.5788799 H 1.9886227 V -4.4573752 L 0.76616457,-4.2122026 V -4.8387549 L 1.9818124,-5.0839276 h 0.6878455 v 4.5050477 h 1.123708 V 0 H 0.86491467 Z"
                         id="path249" /></g><g
                       id="g108"
                       transform="translate(84.88,35.659)" /></g></g><g
                   id="g110"
                   transform="translate(-64.842,-20.001)" /></g></g></g><g
             id="g112"><path
               d="M 113.38724,28.3468 V 84.084"
               style="fill:none;stroke:#000000;stroke-width:1.19553;stroke-linecap:butt;stroke-linejoin:miter;stroke-miterlimit:10;stroke-dasharray:none;stroke-opacity:1"
               id="path114" /><g
               id="g116"
               transform="rotate(90,14.65162,98.73562)"><g
                 id="g118"><path
                   d="M -1.91284,2.55046 C -1.75343,1.59402 0,0.15938 0.4782,0 0,-0.15938 -1.75343,-1.59402 -1.91284,-2.55046"
                   style="fill:none;stroke:#000000;stroke-width:0.9564;stroke-linecap:round;stroke-linejoin:round;stroke-miterlimit:10;stroke-dasharray:none;stroke-opacity:1"
                   id="path120" /></g></g><g
               id="g122"><g
                 id="g124" /><g
                 id="g126"
                 transform="translate(97.42,55.226)"><g
                   id="g128"><g
                     id="g130"
                     transform="translate(-117.458,-70.884)"><g
                       aria-label="α"
                       transform="matrix(1,0,0,-1,117.458,70.884)"
                       id="text134"
                       style="font-size:9.9626px;font-family:CMMIB10;-inkscape-font-specification:CMMIB10"><path
                         d="M 4.1154099,-2.5344309 3.9013696,-3.6581421 q -0.2189047,-1.1528985 -1.0847948,-1.1528985 -0.6518498,0 -0.9485873,0.5351006 -0.3745704,0.671308 -0.3745704,1.5566562 0,1.0702011 0.3648413,1.5809789 0.3697058,0.52050697 0.9583164,0.52050697 0.6518498,0 1.0020975,-1.03614927 z m 0.5010487,-1.4885525 0.4815905,-1.4253133 h 0.7977863 l -0.9972329,2.9527822 0.194582,1.0653366 q 0.043781,0.238363 0.2140403,0.43780957 0.1994465,0.23349843 0.3551122,0.23349843 H 6.0904174 V 0 H 5.5553169 Q 5.0980491,0 4.6894268,-0.40862226 4.4899803,-0.61293338 4.4072829,-1.0410138 4.1835136,-0.50104872 3.7262458,-0.07783281 3.5122056,0.12161377 2.8165748,0.12161377 q -1.1431694,0 -1.6977281,-0.7394117 -0.56915248,-0.76373447 -0.56915248,-2.10148587 0,-1.4301779 0.61779798,-2.1014859 0.6859016,-0.7491408 1.6490826,-0.7491408 1.5128753,0 1.7998838,1.5469271 z"
                         id="path252" /></g><g
                       aria-label="2"
                       transform="matrix(1,0,0,-1,125.036,69.39)"
                       id="text138"
                       style="font-size:6.9738px;font-family:CMR7;-inkscape-font-specification:CMR7"><path
                         d="m 1.3382341,-0.5788799 h 2.400649 V 0 H 0.51077638 v -0.5788799 q 0.39159523,-0.40521593 1.06582002,-1.0862511 0.67763,-0.6844404 0.851294,-0.8819406 0.3303021,-0.3711641 0.4596987,-0.6265523 0.1328019,-0.2587934 0.1328019,-0.5073712 0,-0.4052159 -0.2860348,-0.6606041 -0.2826296,-0.2553882 -0.7389231,-0.2553882 -0.3234917,0 -0.6844404,0.1123708 -0.35754346,0.1123708 -0.76616456,0.3405176 v -0.6946559 q 0.41543146,-0.1668536 0.77638006,-0.251983 0.3609487,-0.085129 0.6606042,-0.085129 0.7900008,0 1.259915,0.3950004 0.4699143,0.3950004 0.4699143,1.0556045 0,0.3132762 -0.1191812,0.5959058 -0.1157759,0.2792244 -0.4256469,0.6606041 -0.085129,0.09875 -0.541423,0.5720695 -0.4562936,0.4699143 -1.2871565,1.3178031 z"
                         id="path255" /></g><g
                       id="g140"
                       transform="translate(117.458,70.884)" /></g></g><g
                   id="g142"
                   transform="translate(-97.42,-55.226)" /></g></g></g><g
             id="g144"><path
               d="M 28.3468,0 V -2.83484"
               style="fill:none;stroke:#000000;stroke-width:0.79701;stroke-linecap:butt;stroke-linejoin:miter;stroke-miterlimit:10;stroke-dasharray:none;stroke-opacity:1"
               id="path146" /><g
               id="g148"><g
                 id="g150"
                 transform="translate(23.478,-10.843)"><g
                   id="g152"><g
                     id="g154"
                     transform="translate(-43.516,-4.815)"><g
                       aria-label="a"
                       transform="matrix(1,0,0,-1,43.516,4.815)"
                       id="text158"
                       style="font-size:9.9626px;font-family:CMMI10;-inkscape-font-specification:CMMI10"><path
                         d="m 1.73178,0.11188467 q -0.627527,0 -0.9923683,-0.47186142 -0.35997675,-0.47672596 -0.35997675,-1.12371125 0,-0.6372561 0.33078945,-1.3231577 0.3307894,-0.6859017 0.8902128,-1.1383049 0.5642878,-0.4572677 1.2112731,-0.4572677 0.2967376,0 0.530236,0.1605301 0.2334984,0.1605302 0.3648413,0.4378096 0.1118847,-0.3988932 0.4378096,-0.3988932 0.1264783,0 0.2091756,0.077833 0.087562,0.072968 0.087562,0.1994466 0,0.029187 -0.00486,0.043781 0,0.014594 -0.00486,0.034052 l -0.6956308,2.782523 q -0.068104,0.2967376 -0.068104,0.48645507 0,0.42808046 0.2870085,0.42808046 0.3113312,0 0.4718614,-0.3940286 0.1653947,-0.39889316 0.2772794,-0.91940003 0.019458,-0.058375 0.077833,-0.058375 h 0.1216138 q 0.038916,0 0.063239,0.034052 0.024323,0.034052 0.024323,0.063239 -0.1751238,0.6956307 -0.3842995,1.11884661 -0.2043112,0.41835136 -0.671308,0.41835136 -0.335654,0 -0.5934752,-0.19458203 Q 3.0841251,-0.28214394 3.020886,-0.60806883 2.3787653,0.11188467 1.73178,0.11188467 Z m 0.00973,-0.26268574 q 0.3599768,0 0.6956308,-0.26755029 0.3405185,-0.27241483 0.5837461,-0.63725614 0.00973,-0.00973 0.00973,-0.029187 l 0.5351005,-2.164725 0.00973,-0.029187 Q 3.5170701,-3.6338193 3.3176236,-3.886776 3.1230415,-4.1445972 2.7873875,-4.1445972 q -0.335654,0 -0.627527,0.2772794 -0.2870085,0.2724149 -0.4864551,0.6469853 -0.194582,0.3988931 -0.3745704,1.0945239 -0.1751238,0.6956307 -0.1751238,1.0799302 0,0.3453831 0.1459365,0.62266249 0.1508011,0.27241484 0.4718614,0.27241484 z"
                         id="path258" /></g><g
                       aria-label="1"
                       transform="matrix(1,0,0,-1,48.782,3.321)"
                       id="text162"
                       style="font-size:6.9738px;font-family:CMR7;-inkscape-font-specification:CMR7"><path
                         d="M 0.86491467,-0.5788799 H 1.9886227 V -4.4573752 L 0.76616457,-4.2122026 V -4.8387549 L 1.9818124,-5.0839276 h 0.6878455 v 4.5050477 h 1.123708 V 0 H 0.86491467 Z"
                         id="path261" /></g><g
                       id="g164"
                       transform="translate(43.516,4.815)" /></g></g><g
                   id="g166"
                   transform="translate(-23.478,10.843)" /></g></g></g><g
             id="g168"><path
               d="M 113.38724,0 V -2.83484"
               style="fill:none;stroke:#000000;stroke-width:0.79701;stroke-linecap:butt;stroke-linejoin:miter;stroke-miterlimit:10;stroke-dasharray:none;stroke-opacity:1"
               id="path170" /><g
               id="g172"><g
                 id="g174"
                 transform="translate(108.304,-10.843)"><g
                   id="g176"><g
                     id="g178"
                     transform="translate(-128.342,-4.815)"><g
                       aria-label="x"
                       transform="matrix(1,0,0,-1,128.342,4.815)"
                       id="text182"
                       style="font-size:9.9626px;font-family:CMMI10;-inkscape-font-specification:CMMI10"><path
                         d="m 0.77832811,-0.28700849 q 0.17512382,0.13620742 0.49618419,0.13620742 0.3113312,0 0.5496942,-0.29673759 0.238363,-0.30160214 0.3259249,-0.65671434 l 0.4524032,-1.7658319 q 0.1070201,-0.4815905 0.1070201,-0.6567143 0,-0.2480921 -0.141072,-0.432945 -0.1362074,-0.184853 -0.3842995,-0.184853 -0.3161957,0 -0.5934751,0.1994466 -0.2772794,0.194582 -0.4669969,0.5010487 -0.18971747,0.3016022 -0.26755028,0.6129334 -0.0194582,0.063239 -0.0778328,0.063239 H 0.65671434 q -0.0778328,0 -0.0778328,-0.092426 v -0.029187 q 0.097291,-0.3697058 0.33078944,-0.7199535 0.23349843,-0.3551122 0.56915243,-0.574017 0.3405185,-0.2189047 0.724818,-0.2189047 0.3648413,0 0.6567144,0.194582 0.2967376,0.194582 0.4183513,0.530236 0.1702593,-0.3064667 0.4329451,-0.5156424 0.2675502,-0.2091756 0.583746,-0.2091756 0.2140403,0 0.4378096,0.077833 0.2237693,0.072968 0.3648413,0.2286338 0.141072,0.1556657 0.141072,0.3891641 0,0.2529566 -0.1653948,0.4378096 -0.1605301,0.1799883 -0.4134868,0.1799883 -0.1605301,0 -0.2675503,-0.1021555 -0.1070201,-0.1021556 -0.1070201,-0.2578212 0,-0.2091757 0.141072,-0.3648413 0.1459365,-0.1605302 0.3453831,-0.1897175 -0.1799884,-0.141072 -0.4961842,-0.141072 -0.3210603,0 -0.5594233,0.2967376 -0.2334984,0.2967376 -0.3307894,0.6615789 l -0.4378096,1.7609674 q -0.1070201,0.3988931 -0.1070201,0.6567143 0,0.25295663 0.141072,0.43780956 0.1459365,0.17998837 0.3842995,0.17998837 0.4669968,0 0.8318381,-0.40862226 0.3697059,-0.4134868 0.4864551,-0.90480637 0.019458,-0.058375 0.077833,-0.058375 h 0.1216138 q 0.038916,0 0.063239,0.029187 0.024323,0.024323 0.024323,0.058375 0,0.00973 -0.00973,0.029187 -0.141072,0.59347514 -0.5934752,1.05560745 -0.4524032,0.46213232 -1.0215556,0.46213232 -0.3648413,0 -0.6615789,-0.19458203 -0.2918731,-0.19944658 -0.4134868,-0.53510057 -0.1556657,0.29187304 -0.4329451,0.51077782 -0.2724148,0.21890478 -0.583746,0.21890478 -0.2140403,0 -0.44267414,-0.07783282 -0.22376933,-0.07296826 -0.3648413,-0.22863388 -0.14107197,-0.15566562 -0.14107197,-0.3940286 0,-0.23349843 0.16053017,-0.42321587 0.16539473,-0.1945821 0.40862226,-0.1945821 0.16539468,0 0.27727938,0.1021556 0.1118847,0.097291 0.1118847,0.25782118 0,0.20917568 -0.141072,0.3648413 -0.13620742,0.15566563 -0.34538309,0.19458203 z"
                         id="path264" /></g><g
                       aria-label="1"
                       transform="matrix(1,0,0,-1,134.036,3.321)"
                       id="text186"
                       style="font-size:6.9738px;font-family:CMR7;-inkscape-font-specification:CMR7"><path
                         d="M 0.86491467,-0.5788799 H 1.9886227 V -4.4573752 L 0.76616457,-4.2122026 V -4.8387549 L 1.9818124,-5.0839276 h 0.6878455 v 4.5050477 h 1.123708 V 0 H 0.86491467 Z"
                         id="path267" /></g><g
                       id="g188"
                       transform="translate(128.342,4.815)" /></g></g><g
                   id="g190"
                   transform="translate(-108.304,10.843)" /></g></g></g><g
             id="g192"><path
               d="M 0,28.3468 H -2.83484"
               style="fill:none;stroke:#000000;stroke-width:0.79701;stroke-linecap:butt;stroke-linejoin:miter;stroke-miterlimit:10;stroke-dasharray:none;stroke-opacity:1"
               id="path194" /><g
               id="g196"><g
                 id="g198"
                 transform="translate(-16.29,26.949)"><g
                   id="g200"><g
                     id="g202"
                     transform="translate(-3.748,-42.607)"><g
                       aria-label="a"
                       transform="matrix(1,0,0,-1,3.748,42.607)"
                       id="text206"
                       style="font-size:9.9626px;font-family:CMMI10;-inkscape-font-specification:CMMI10"><path
                         d="m 1.73178,0.11188467 q -0.627527,0 -0.9923683,-0.47186142 -0.35997675,-0.47672596 -0.35997675,-1.12371125 0,-0.6372561 0.33078945,-1.3231577 0.3307894,-0.6859017 0.8902128,-1.1383049 0.5642878,-0.4572677 1.2112731,-0.4572677 0.2967376,0 0.530236,0.1605301 0.2334984,0.1605302 0.3648413,0.4378096 0.1118847,-0.3988932 0.4378096,-0.3988932 0.1264783,0 0.2091756,0.077833 0.087562,0.072968 0.087562,0.1994466 0,0.029187 -0.00486,0.043781 0,0.014594 -0.00486,0.034052 l -0.6956308,2.782523 q -0.068104,0.2967376 -0.068104,0.48645507 0,0.42808046 0.2870085,0.42808046 0.3113312,0 0.4718614,-0.3940286 0.1653947,-0.39889316 0.2772794,-0.91940003 0.019458,-0.058375 0.077833,-0.058375 h 0.1216138 q 0.038916,0 0.063239,0.034052 0.024323,0.034052 0.024323,0.063239 -0.1751238,0.6956307 -0.3842995,1.11884661 -0.2043112,0.41835136 -0.671308,0.41835136 -0.335654,0 -0.5934752,-0.19458203 Q 3.0841251,-0.28214394 3.020886,-0.60806883 2.3787653,0.11188467 1.73178,0.11188467 Z m 0.00973,-0.26268574 q 0.3599768,0 0.6956308,-0.26755029 0.3405185,-0.27241483 0.5837461,-0.63725614 0.00973,-0.00973 0.00973,-0.029187 l 0.5351005,-2.164725 0.00973,-0.029187 Q 3.5170701,-3.6338193 3.3176236,-3.886776 3.1230415,-4.1445972 2.7873875,-4.1445972 q -0.335654,0 -0.627527,0.2772794 -0.2870085,0.2724149 -0.4864551,0.6469853 -0.194582,0.3988931 -0.3745704,1.0945239 -0.1751238,0.6956307 -0.1751238,1.0799302 0,0.3453831 0.1459365,0.62266249 0.1508011,0.27241484 0.4718614,0.27241484 z"
                         id="path270" /></g><g
                       aria-label="2"
                       transform="matrix(1,0,0,-1,9.014,41.113)"
                       id="text210"
                       style="font-size:6.9738px;font-family:CMR7;-inkscape-font-specification:CMR7"><path
                         d="m 1.3382341,-0.5788799 h 2.400649 V 0 H 0.51077638 v -0.5788799 q 0.39159523,-0.40521593 1.06582002,-1.0862511 0.67763,-0.6844404 0.851294,-0.8819406 0.3303021,-0.3711641 0.4596987,-0.6265523 0.1328019,-0.2587934 0.1328019,-0.5073712 0,-0.4052159 -0.2860348,-0.6606041 -0.2826296,-0.2553882 -0.7389231,-0.2553882 -0.3234917,0 -0.6844404,0.1123708 -0.35754346,0.1123708 -0.76616456,0.3405176 v -0.6946559 q 0.41543146,-0.1668536 0.77638006,-0.251983 0.3609487,-0.085129 0.6606042,-0.085129 0.7900008,0 1.259915,0.3950004 0.4699143,0.3950004 0.4699143,1.0556045 0,0.3132762 -0.1191812,0.5959058 -0.1157759,0.2792244 -0.4256469,0.6606041 -0.085129,0.09875 -0.541423,0.5720695 -0.4562936,0.4699143 -1.2871565,1.3178031 z"
                         id="path273" /></g><g
                       id="g212"
                       transform="translate(3.748,42.607)" /></g></g><g
                   id="g214"
                   transform="translate(16.29,-26.949)" /></g></g></g><g
             id="g216"><path
               d="M 0,85.04042 H -2.83484"
               style="fill:none;stroke:#000000;stroke-width:0.79701;stroke-linecap:butt;stroke-linejoin:miter;stroke-miterlimit:10;stroke-dasharray:none;stroke-opacity:1"
               id="path218" /><g
               id="g220"><g
                 id="g222"
                 transform="translate(-16.717,83.642)"><g
                   id="g224"><g
                     id="g226"
                     transform="translate(-3.321,-99.3)"><g
                       aria-label="x"
                       transform="matrix(1,0,0,-1,3.321,99.3)"
                       id="text230"
                       style="font-size:9.9626px;font-family:CMMI10;-inkscape-font-specification:CMMI10"><path
                         d="m 0.77832811,-0.28700849 q 0.17512382,0.13620742 0.49618419,0.13620742 0.3113312,0 0.5496942,-0.29673759 0.238363,-0.30160214 0.3259249,-0.65671434 l 0.4524032,-1.7658319 q 0.1070201,-0.4815905 0.1070201,-0.6567143 0,-0.2480921 -0.141072,-0.432945 -0.1362074,-0.184853 -0.3842995,-0.184853 -0.3161957,0 -0.5934751,0.1994466 -0.2772794,0.194582 -0.4669969,0.5010487 -0.18971747,0.3016022 -0.26755028,0.6129334 -0.0194582,0.063239 -0.0778328,0.063239 H 0.65671434 q -0.0778328,0 -0.0778328,-0.092426 v -0.029187 q 0.097291,-0.3697058 0.33078944,-0.7199535 0.23349843,-0.3551122 0.56915243,-0.574017 0.3405185,-0.2189047 0.724818,-0.2189047 0.3648413,0 0.6567144,0.194582 0.2967376,0.194582 0.4183513,0.530236 0.1702593,-0.3064667 0.4329451,-0.5156424 0.2675502,-0.2091756 0.583746,-0.2091756 0.2140403,0 0.4378096,0.077833 0.2237693,0.072968 0.3648413,0.2286338 0.141072,0.1556657 0.141072,0.3891641 0,0.2529566 -0.1653948,0.4378096 -0.1605301,0.1799883 -0.4134868,0.1799883 -0.1605301,0 -0.2675503,-0.1021555 -0.1070201,-0.1021556 -0.1070201,-0.2578212 0,-0.2091757 0.141072,-0.3648413 0.1459365,-0.1605302 0.3453831,-0.1897175 -0.1799884,-0.141072 -0.4961842,-0.141072 -0.3210603,0 -0.5594233,0.2967376 -0.2334984,0.2967376 -0.3307894,0.6615789 l -0.4378096,1.7609674 q -0.1070201,0.3988931 -0.1070201,0.6567143 0,0.25295663 0.141072,0.43780956 0.1459365,0.17998837 0.3842995,0.17998837 0.4669968,0 0.8318381,-0.40862226 0.3697059,-0.4134868 0.4864551,-0.90480637 0.019458,-0.058375 0.077833,-0.058375 h 0.1216138 q 0.038916,0 0.063239,0.029187 0.024323,0.024323 0.024323,0.058375 0,0.00973 -0.00973,0.029187 -0.141072,0.59347514 -0.5934752,1.05560745 -0.4524032,0.46213232 -1.0215556,0.46213232 -0.3648413,0 -0.6615789,-0.19458203 -0.2918731,-0.19944658 -0.4134868,-0.53510057 -0.1556657,0.29187304 -0.4329451,0.51077782 -0.2724148,0.21890478 -0.583746,0.21890478 -0.2140403,0 -0.44267414,-0.07783282 -0.22376933,-0.07296826 -0.3648413,-0.22863388 -0.14107197,-0.15566562 -0.14107197,-0.3940286 0,-0.23349843 0.16053017,-0.42321587 0.16539473,-0.1945821 0.40862226,-0.1945821 0.16539468,0 0.27727938,0.1021556 0.1118847,0.097291 0.1118847,0.25782118 0,0.20917568 -0.141072,0.3648413 -0.13620742,0.15566563 -0.34538309,0.19458203 z"
                         id="path276" /></g><g
                       aria-label="2"
                       transform="matrix(1,0,0,-1,9.014,97.806)"
                       id="text234"
                       style="font-size:6.9738px;font-family:CMR7;-inkscape-font-specification:CMR7"><path
                         d="m 1.3382341,-0.5788799 h 2.400649 V 0 H 0.51077638 v -0.5788799 q 0.39159523,-0.40521593 1.06582002,-1.0862511 0.67763,-0.6844404 0.851294,-0.8819406 0.3303021,-0.3711641 0.4596987,-0.6265523 0.1328019,-0.2587934 0.1328019,-0.5073712 0,-0.4052159 -0.2860348,-0.6606041 -0.2826296,-0.2553882 -0.7389231,-0.2553882 -0.3234917,0 -0.6844404,0.1123708 -0.35754346,0.1123708 -0.76616456,0.3405176 v -0.6946559 q 0.41543146,-0.1668536 0.77638006,-0.251983 0.3609487,-0.085129 0.6606042,-0.085129 0.7900008,0 1.259915,0.3950004 0.4699143,0.3950004 0.4699143,1.0556045 0,0.3132762 -0.1191812,0.5959058 -0.1157759,0.2792244 -0.4256469,0.6606041 -0.085129,0.09875 -0.541423,0.5720695 -0.4562936,0.4699143 -1.2871565,1.3178031 z"
                         id="path279" /></g><g
                       id="g236"
                       transform="translate(3.321,99.3)" /></g></g><g
                   id="g238"
                   transform="translate(16.717,-83.642)" /></g></g></g></g></g></g></g></svg>
