<?xml version="1.0" encoding="UTF-8" standalone="no"?>
<!-- Created with Inkscape (http://www.inkscape.org/) -->

<svg
   version="1.1"
   id="svg2"
   xml:space="preserve"
   width="214.69467"
   height="190.14532"
   viewBox="0 0 214.69467 190.14532"
   xmlns="http://www.w3.org/2000/svg"
   xmlns:svg="http://www.w3.org/2000/svg"><defs
     id="defs6"><clipPath
       clipPathUnits="userSpaceOnUse"
       id="clipPath60"><path
         d="M 0,0 H 139.41278 V 114.0878 H 0 Z"
         id="path58" /></clipPath><clipPath
       clipPathUnits="userSpaceOnUse"
       id="clipPath152"><path
         d="M 0,0 H 139.41278 V 114.0878 H 0 Z"
         id="path150" /></clipPath></defs><g
     id="g8"
     transform="matrix(1.3333333,0,0,-1.3333333,0,190.14533)"><g
       id="g10"
       transform="translate(21.41,25.202)"><g
         id="g12"><g
           id="g14" /><g
           id="g16" /><g
           id="g18"><g
             id="g20"><g
               id="g22"><path
                 d="M 15.93288,-2.12587 V 2.12587 M 123.47989,-2.12587 V 2.12587"
                 style="fill:none;stroke:#808080;stroke-width:0.19925;stroke-linecap:butt;stroke-linejoin:miter;stroke-miterlimit:10;stroke-dasharray:none;stroke-opacity:1"
                 id="path24" /></g></g><g
             id="g26"><g
               id="g28"><path
                 d="M -2.12596,0 H 2.12596 M -2.12596,38.02927 H 2.12596 M -2.12596,76.05853 H 2.12596 M -2.12596,114.0878 H 2.12596"
                 style="fill:none;stroke:#808080;stroke-width:0.19925;stroke-linecap:butt;stroke-linejoin:miter;stroke-miterlimit:10;stroke-dasharray:none;stroke-opacity:1"
                 id="path30" /></g></g></g><g
           id="g32"><path
             d="M 0,0 H 137.42026"
             style="fill:none;stroke:#000000;stroke-width:0.3985;stroke-linecap:butt;stroke-linejoin:miter;stroke-miterlimit:10;stroke-dasharray:none;stroke-opacity:1"
             id="path34" /><g
             id="g36"
             transform="translate(137.42026)"><g
               id="g38"><path
                 d="M 1.99252,0 -1.19551,1.59401 0,0 -1.19551,-1.59401"
                 style="fill:#000000;fill-opacity:1;fill-rule:nonzero;stroke:none"
                 id="path40" /></g></g><path
             d="M 0,0 V 112.09528"
             style="fill:none;stroke:#000000;stroke-width:0.3985;stroke-linecap:butt;stroke-linejoin:miter;stroke-miterlimit:10;stroke-dasharray:none;stroke-opacity:1"
             id="path42" /><g
             id="g44"
             transform="rotate(90,-56.04764,56.04764)"><g
               id="g46"><path
                 d="M 1.99252,0 -1.19551,1.59401 0,0 -1.19551,-1.59401"
                 style="fill:#000000;fill-opacity:1;fill-rule:nonzero;stroke:none"
                 id="path48" /></g></g></g><g
           id="g50" /><g
           id="g52"><g
             id="g54"><g
               id="g56"
               clip-path="url(#clipPath60)"><g
                 id="g62"><path
                   d="m 15.93288,57.92609 0.67639,-0.45606 0.67639,-0.41812 0.67639,-0.38066 0.67639,-0.3438 0.67639,-0.30767 0.6764,-0.27201 0.6764,-0.23703 0.67638,-0.20254 0.67639,-0.16875 0.67641,-0.13551 0.67639,-0.10284 0.67638,-0.07082 0.6764,-0.03938 0.67639,-0.0085 0.6764,0.02172 0.67639,0.05141 0.67639,0.08047 0.67641,0.10894 0.67639,0.13682 0.67637,0.1641 0.67641,0.19076 0.67639,0.21689 0.67639,0.24234 0.67639,0.26725 0.6764,0.29156 0.67639,0.31524 0.67641,0.33838 0.67637,0.36086 0.67639,0.38278 0.67641,0.4041 0.67639,0.42483 0.67638,0.44496 0.67641,0.46449 0.67639,0.48344 0.67639,0.50175 0.67639,0.51951 0.67639,0.53667 0.67639,0.55321 0.6764,0.56917 0.67639,0.58452 0.67639,0.59929 0.6764,0.61346 0.67638,0.62705 0.67639,0.64 0.67641,0.65242 0.67639,0.66415 0.67638,0.67537 0.6764,0.68596 0.6764,0.69597 0.6764,0.70535 0.67638,0.71417 0.67639,0.72238 0.67641,0.73001 0.67639,0.73699 0.67638,0.74344 0.6764,0.74926 0.67639,0.75451 0.6764,0.75911 0.67639,0.76315 0.67639,0.76662 0.67639,0.76945 0.67641,0.77172 0.67637,0.77335 0.6764,0.77443 0.6764,0.775 0.67639,0.77467 0.67638,0.774 0.67641,0.77278 0.67639,0.7707 0.67639,0.76825 0.67639,0.76513 0.67639,0.76148 0.6764,0.75723 0.6764,0.75223 0.67638,0.74678 0.67639,0.74064 0.67641,0.734 0.67637,0.72661 0.67639,0.71879 0.67641,0.71037 0.67639,0.70121 0.6764,0.69166 0.67639,0.68123 0.67639,0.67053 0.6764,0.65898 0.67638,0.64704 0.67639,0.63432 0.67641,0.62103 0.67639,0.6073 0.67638,0.59284 0.6764,0.57776 0.6764,0.56219 0.67639,0.54593 0.67639,0.52913 0.67639,0.51172 0.6764,0.49359 0.6764,0.47513 0.67638,0.4559 0.67639,0.43707 0.6764,0.41559 0.67643,0.39375 0.67633,0.37298 0.67643,0.35127 0.67634,0.32818 0.67643,0.30498 0.67644,0.28143 0.67633,0.25609 0.67642,0.23136 0.67635,0.20521 0.67642,0.17824 0.67644,0.15317 0.67633,0.12401 0.67644,0.097 0.67633,0.0663 0.67643,0.0385 0.67643,0.008 0.67634,-0.0218 0.67642,-0.0526 0.67633,-0.0856 0.67646,-0.11789 0.67642,-0.14899 0.67633,-0.18431 0.67644,-0.21734 0.67633,-0.25266 0.67642,-0.28796 0.67645,-0.32291 0.67633,-0.36052 0.67642,-0.39734 0.67635,-0.43496 0.67642,-0.47332 0.67642,-0.51197 0.67635,-0.55118 0.67644,-0.59175 0.67631,-0.63173 0.67646,-0.6731 0.67642,-0.71553 0.67633,-0.75776 0.67644,-0.80077 0.67633,-0.84433 0.67643,-0.88881 0.67644,-0.93366 0.67633,-0.97883 0.67642,-1.02477 0.67635,-1.0708 0.67642,-1.11976 0.67644,-1.16614 0.67633,-1.2151 0.67644,-1.26342 0.67633,-1.31393 0.67644,-1.36365 0.67642,-1.41371 0.67634,-1.46593 0.67642,-1.51859 0.67634,-1.57009 0.67645,-1.62348 0.67642,-1.6766 0.67633,-1.73186 0.67644,-1.7876 0.67633,-1.84132 V 41.38318 l -0.67633,-0.61455 -0.67644,-0.59553 -0.67633,-0.57731 -0.67642,-0.56055 -0.67645,-0.54076 -0.67634,-0.52405 -0.67642,-0.50579 -0.67634,-0.4883 -0.67642,-0.4708 -0.67644,-0.45407 -0.67633,-0.43886 -0.67644,-0.42212 -0.67633,-0.4054 -0.67644,-0.39016 -0.67642,-0.37346 -0.67635,-0.35747 -0.67642,-0.34378 -0.67633,-0.32782 -0.67644,-0.31336 -0.67643,-0.29891 -0.67633,-0.28219 -0.67644,-0.27076 -0.67633,-0.25556 -0.67642,-0.24263 -0.67646,-0.22969 -0.67631,-0.216 -0.67644,-0.20232 -0.67635,-0.18863 -0.67642,-0.17797 -0.67642,-0.16504 -0.67635,-0.15189 -0.67642,-0.14058 -0.67633,-0.12897 -0.67645,-0.11715 -0.67642,-0.10602 -0.67633,-0.09522 -0.67644,-0.08413 -0.67633,-0.07393 -0.67642,-0.06281 -0.67646,-0.05331 -0.67633,-0.04321 -0.67642,-0.03295 -0.67634,-0.02426 -0.67643,-0.01529 -0.67643,-0.0053 -0.67633,0.0034 -0.67644,0.0108 -0.67633,0.0209 -0.67644,0.02815 -0.67642,0.03543 -0.67635,0.04398 -0.67642,0.05041 -0.67633,0.05919 -0.67644,0.0658 -0.67643,0.07126 -0.67634,0.07918 -0.67643,0.08587 -0.67633,0.09058 -0.67643,0.09705 -0.6764,0.10358 -0.67639,0.10871 -0.67638,0.11354 -0.6764,0.1185 -0.6764,0.12338 -0.67639,0.12798 -0.67639,0.13237 -0.67639,0.13621 -0.6764,0.14032 -0.6764,0.14391 -0.67638,0.1474 -0.67639,0.15045 -0.67641,0.15355 -0.67639,0.15645 -0.67638,0.15896 -0.6764,0.16126 -0.67639,0.1633 -0.67639,0.16511 -0.6764,0.16693 -0.67639,0.16826 -0.67641,0.16954 -0.67639,0.17052 -0.67637,0.17128 -0.67641,0.17175 -0.67639,0.17212 -0.67638,0.17227 -0.6764,0.17203 -0.6764,0.17175 -0.67639,0.17096 -0.67639,0.17047 -0.67639,0.16922 -0.67639,0.16809 -0.67641,0.16643 -0.67638,0.16489 -0.67639,0.16315 -0.6764,0.16076 -0.6764,0.15845 -0.67637,0.15587 -0.67641,0.15303 -0.67639,0.15001 -0.67639,0.14673 -0.67639,0.14328 -0.6764,0.13955 -0.67639,0.13562 -0.6764,0.13147 -0.67638,0.12709 -0.67639,0.12249 -0.67641,0.11767 -0.67639,0.11261 -0.67638,0.10735 -0.6764,0.10185 -0.6764,0.09613 -0.6764,0.09018 -0.67638,0.08402 -0.67639,0.07763 -0.67641,0.071 -0.67639,0.06421 -0.67638,0.05711 -0.6764,0.04984 -0.67639,0.04233 -0.67639,0.0346 -0.6764,0.02666 -0.67639,0.01846 -0.67639,0.01007 -0.67639,0.0014 -0.67639,-0.0074 L 38.25385,38.00457 37.57744,37.9788 36.90106,37.94352 36.22467,37.8985 35.54826,37.84351 34.87187,37.77834 34.1955,37.70275 33.51909,37.61654 32.8427,37.51945 32.1663,37.41129 31.48991,37.29181 30.81352,37.16082 30.13713,37.01809 29.46072,36.86335 28.78435,36.69643 28.10796,36.51708 27.43155,36.32511 26.75516,36.12023 26.07877,35.90229 25.40237,35.67101 24.72598,35.42618 24.04958,35.16761 23.3732,34.89507 22.69681,34.6083 22.0204,34.30709 21.34401,33.99123 20.66763,33.6605 l -0.6764,-0.34587 -0.6764,-0.36109 -0.67639,-0.37672 -0.67639,-0.39245 -0.67639,-0.40859 -0.67639,-0.42464 -0.67639,-0.44115 v 27.01577 z"
                   style="fill:#ffa64c;fill-opacity:1;fill-rule:nonzero;stroke:none"
                   id="path64" /></g></g></g></g><g
           id="g66"><g
             id="g68"><g
               id="g70" /><g
               id="g72" /><g
               id="g74"><g
                 id="g76" /></g><g
               id="g78" /><g
               id="g80" /><g
               id="g82"><g
                 id="g84"><g
                   id="g86"
                   transform="translate(13.684,-9.077)"><g
                     id="g88"><g
                       id="g90"
                       transform="translate(-35.094,-16.125)"><g
                         aria-label="a"
                         transform="matrix(1,0,0,-1,35.094,16.125)"
                         id="text94"
                         style="font-size:7.9701px;font-family:CMMI8;-inkscape-font-specification:CMMI8"><path
                           d="m 2.7319385,-2.1909991 q -0.867838,0 -1.2025199,0.1984741 -0.3346819,0.1984742 -0.3346819,0.6771472 0,0.38138171 0.2490656,0.60709744 0.2529573,0.22182407 0.6849304,0.22182407 0.5954225,0 0.9534544,-0.42029824 Q 3.4441106,-1.3309444 3.4441106,-2.0314415 V -2.1909991 Z M 4.1601742,-2.4867646 V 0 H 3.4441106 v -0.66158056 q -0.245174,0.39694834 -0.6109891,0.5876392 -0.3658152,0.18679922 -0.8950796,0.18679922 -0.6693639,0 -1.06631222,-0.37359843 -0.39305669,-0.37749009 -0.39305669,-1.00793743 0,-0.7355219 0.49034795,-1.1091204 0.49423956,-0.3735984 1.47104386,-0.3735984 h 1.0040458 v -0.07005 q 0,-0.4942396 -0.3268987,-0.7627635 -0.3230069,-0.2724155 -0.9106461,-0.2724155 -0.3735985,0 -0.7277387,0.089508 -0.3541401,0.089508 -0.68103878,0.2685238 V -4.1601742 Q 1.190845,-4.3119486 1.5605518,-4.3858899 q 0.3697068,-0.077833 0.7199553,-0.077833 0.945671,0 1.4126691,0.490348 0.466998,0.4903479 0.466998,1.4866104 z"
                           id="path252" /></g><g
                         id="g96"
                         transform="translate(35.094,16.125)" /></g></g><g
                     id="g98"
                     transform="translate(-13.684,9.077)" /></g></g><g
                 id="g100"><g
                   id="g102"
                   transform="translate(121.667,-11.181)"><g
                     id="g104"><g
                       id="g106"
                       transform="translate(-143.077,-14.021)"><g
                         aria-label="b"
                         transform="matrix(1,0,0,-1,143.077,14.021)"
                         id="text110"
                         style="font-size:7.9701px;font-family:CMMI8;-inkscape-font-specification:CMMI8"><path
                           d="m 3.8799754,-2.1754325 q 0,-0.7900051 -0.3268986,-1.2375449 -0.323007,-0.4514314 -0.891188,-0.4514314 -0.5681809,0 -0.8950795,0.4514314 -0.323007,0.4475398 -0.323007,1.2375449 0,0.790005 0.323007,1.24143641 0.3268986,0.4475398 0.8950795,0.4475398 0.568181,0 0.891188,-0.4475398 Q 3.8799754,-1.3854275 3.8799754,-2.1754325 Z M 1.4438023,-3.6970678 Q 1.669518,-4.0862329 2.0119832,-4.2730321 2.3583401,-4.463723 2.8370131,-4.463723 q 0.7938967,0 1.2881363,0.6304474 0.4981312,0.6304474 0.4981312,1.6578431 0,1.0273956 -0.4981312,1.657843 -0.4942396,0.63044736 -1.2881363,0.63044736 -0.478673,0 -0.8250299,-0.18679922 Q 1.669518,-0.26463222 1.4438023,-0.65379726 V 0 H 0.72384697 V -6.055408 H 1.4438023 Z"
                           id="path255" /></g><g
                         id="g112"
                         transform="translate(143.077,14.021)" /></g></g><g
                     id="g114"
                     transform="translate(-121.667,11.181)" /></g></g><g
                 id="g116"><g
                   id="g118"
                   transform="translate(-5.645)"><g
                     id="g120" /><g
                     id="g122"
                     transform="translate(5.645)" /></g></g><g
                 id="g124"><g
                   id="g126"
                   transform="translate(-5.645,38.029)"><g
                     id="g128" /><g
                     id="g130"
                     transform="translate(5.645,-38.029)" /></g></g><g
                 id="g132"><g
                   id="g134"
                   transform="translate(-5.645,76.057)"><g
                     id="g136" /><g
                     id="g138"
                     transform="translate(5.645,-76.057)" /></g></g><g
                 id="g140"><g
                   id="g142"
                   transform="translate(-5.645,114.086)"><g
                     id="g144" /><g
                     id="g146"
                     transform="translate(5.645,-114.086)" /></g></g><g
                 id="g148"
                 clip-path="url(#clipPath152)"><g
                   id="g154"><path
                     d="m 15.93288,57.92609 0.67639,-0.45606 0.67639,-0.41812 0.67639,-0.38066 0.67639,-0.3438 0.67639,-0.30767 0.6764,-0.27201 0.6764,-0.23703 0.67638,-0.20254 0.67639,-0.16875 0.67641,-0.13551 0.67639,-0.10284 0.67638,-0.07082 0.6764,-0.03938 0.67639,-0.0085 0.6764,0.02172 0.67639,0.05141 0.67639,0.08047 0.67641,0.10894 0.67639,0.13682 0.67637,0.1641 0.67641,0.19076 0.67639,0.21689 0.67639,0.24234 0.67639,0.26725 0.6764,0.29156 0.67639,0.31524 0.67641,0.33838 0.67637,0.36086 0.67639,0.38278 0.67641,0.4041 0.67639,0.42483 0.67638,0.44496 0.67641,0.46449 0.67639,0.48344 0.67639,0.50175 0.67639,0.51951 0.67639,0.53667 0.67639,0.55321 0.6764,0.56917 0.67639,0.58452 0.67639,0.59929 0.6764,0.61346 0.67638,0.62705 0.67639,0.64 0.67641,0.65242 0.67639,0.66415 0.67638,0.67537 0.6764,0.68596 0.6764,0.69597 0.6764,0.70535 0.67638,0.71417 0.67639,0.72238 0.67641,0.73001 0.67639,0.73699 0.67638,0.74344 0.6764,0.74926 0.67639,0.75451 0.6764,0.75911 0.67639,0.76315 0.67639,0.76662 0.67639,0.76945 0.67641,0.77172 0.67637,0.77335 0.6764,0.77443 0.6764,0.775 0.67639,0.77467 0.67638,0.774 0.67641,0.77278 0.67639,0.7707 0.67639,0.76825 0.67639,0.76513 0.67639,0.76148 0.6764,0.75723 0.6764,0.75223 0.67638,0.74678 0.67639,0.74064 0.67641,0.734 0.67637,0.72661 0.67639,0.71879 0.67641,0.71037 0.67639,0.70121 0.6764,0.69166 0.67639,0.68123 0.67639,0.67053 0.6764,0.65898 0.67638,0.64704 0.67639,0.63432 0.67641,0.62103 0.67639,0.6073 0.67638,0.59284 0.6764,0.57776 0.6764,0.56219 0.67639,0.54593 0.67639,0.52913 0.67639,0.51172 0.6764,0.49359 0.6764,0.47513 0.67638,0.4559 0.67639,0.43707 0.6764,0.41559 0.67643,0.39375 0.67633,0.37298 0.67643,0.35127 0.67634,0.32818 0.67643,0.30498 0.67644,0.28143 0.67633,0.25609 0.67642,0.23136 0.67635,0.20521 0.67642,0.17824 0.67644,0.15317 0.67633,0.12401 0.67644,0.097 0.67633,0.0663 0.67643,0.0385 0.67643,0.008 0.67634,-0.0218 0.67642,-0.0526 0.67633,-0.0856 0.67646,-0.11789 0.67642,-0.14899 0.67633,-0.18431 0.67644,-0.21734 0.67633,-0.25266 0.67642,-0.28796 0.67645,-0.32291 0.67633,-0.36052 0.67642,-0.39734 0.67635,-0.43496 0.67642,-0.47332 0.67642,-0.51197 0.67635,-0.55118 0.67644,-0.59175 0.67631,-0.63173 0.67646,-0.6731 0.67642,-0.71553 0.67633,-0.75776 0.67644,-0.80077 0.67633,-0.84433 0.67643,-0.88881 0.67644,-0.93366 0.67633,-0.97883 0.67642,-1.02477 0.67635,-1.0708 0.67642,-1.11976 0.67644,-1.16614 0.67633,-1.2151 0.67644,-1.26342 0.67633,-1.31393 0.67644,-1.36365 0.67642,-1.41371 0.67634,-1.46593 0.67642,-1.51859 0.67634,-1.57009 0.67645,-1.62348 0.67642,-1.6766 0.67633,-1.73186 0.67644,-1.7876 0.67633,-1.84132"
                     style="fill:none;stroke:#000000;stroke-width:0.79701;stroke-linecap:butt;stroke-linejoin:miter;stroke-miterlimit:10;stroke-dasharray:none;stroke-opacity:1"
                     id="path156" /><g
                     id="g158"><g
                       id="g160"
                       transform="translate(127.197,69.894)"><g
                         id="g162"><g
                           id="g164"
                           transform="translate(-148.607,-95.096)"><g
                             aria-label="φ"
                             transform="matrix(1,0,0,-1,148.607,95.096)"
                             id="text168"
                             style="font-size:9.9626px;font-family:CMMI10;-inkscape-font-specification:CMMI10"><path
                               d="m 4.0327125,-4.7234787 q -0.3161958,0 -0.3161958,0.7053599 v 3.33708171 q 0.4621323,0 0.9242646,-0.50591331 0.4134868,-0.4524032 0.4134868,-1.537198 0,-1.0118265 -0.4183513,-1.5566562 -0.3405186,-0.4426741 -0.6032043,-0.4426741 z m 0,-0.7637344 q 0.6810371,0 1.298835,0.6421206 0.6664435,0.6859017 0.6664435,2.1209441 0,1.3182933 -0.6664435,2.10148592 -0.627527,0.7394117 -1.6150308,0.7394117 V 2.0722986 H 2.8263039 V 0.12161377 q -0.9680455,0 -1.6198953,-0.74427625 -0.66157893,-0.75886992 -0.66157893,-2.09662132 0,-1.3912615 0.66157893,-2.1014859 0.4961841,-0.530236 1.3036995,-0.6664434 v 0.7929217 q -0.3210603,0.1118847 -0.6032042,0.4913196 -0.4183514,0.5594234 -0.4183514,1.483688 0,0.9826392 0.4183514,1.5420625 0.3745704,0.50104876 0.9194,0.50104876 V -4.0181188 q 0,-1.4690943 1.2064086,-1.4690943 z"
                               id="path258" /></g><g
                             aria-label="2"
                             transform="matrix(1,0,0,-1,155.124,93.602)"
                             id="text172"
                             style="font-size:6.9738px;font-family:CMR7;-inkscape-font-specification:CMR7"><path
                               d="m 1.3382341,-0.5788799 h 2.400649 V 0 H 0.51077638 v -0.5788799 q 0.39159523,-0.40521593 1.06582002,-1.0862511 0.67763,-0.6844404 0.851294,-0.8819406 0.3303021,-0.3711641 0.4596987,-0.6265523 0.1328019,-0.2587934 0.1328019,-0.5073712 0,-0.4052159 -0.2860348,-0.6606041 -0.2826296,-0.2553882 -0.7389231,-0.2553882 -0.3234917,0 -0.6844404,0.1123708 -0.35754346,0.1123708 -0.76616456,0.3405176 v -0.6946559 q 0.41543146,-0.1668536 0.77638006,-0.251983 0.3609487,-0.085129 0.6606042,-0.085129 0.7900008,0 1.259915,0.3950004 0.4699143,0.3950004 0.4699143,1.0556045 0,0.3132762 -0.1191812,0.5959058 -0.1157759,0.2792244 -0.4256469,0.6606041 -0.085129,0.09875 -0.541423,0.5720695 -0.4562936,0.4699143 -1.2871565,1.3178031 z"
                               id="path261" /></g><g
                             id="g174"
                             transform="translate(148.607,95.096)" /></g></g><g
                         id="g176"
                         transform="translate(-127.197,-69.894)" /></g></g></g><g
                   id="g178"><path
                     d="m 15.93288,30.91032 0.67639,0.44115 0.67639,0.42464 0.67639,0.40859 0.67639,0.39245 0.67639,0.37672 0.6764,0.36109 0.6764,0.34587 0.67638,0.33073 0.67639,0.31586 0.67641,0.30121 0.67639,0.28677 0.67638,0.27254 0.6764,0.25857 0.67639,0.24483 0.6764,0.23128 0.67639,0.21794 0.67639,0.20488 0.67641,0.19197 0.67639,0.17935 0.67637,0.16692 0.67641,0.15474 0.67639,0.14273 0.67639,0.13099 0.67639,0.11948 0.6764,0.10816 0.67639,0.09709 0.67641,0.08621 0.67637,0.07559 0.67639,0.06517 0.67641,0.05499 0.67639,0.04502 0.67638,0.03528 0.67641,0.02577 0.67639,0.01646 0.67639,0.0074 0.67639,-0.0014 0.67639,-0.01007 0.67639,-0.01846 0.6764,-0.02666 0.67639,-0.0346 0.67639,-0.04233 0.6764,-0.04984 0.67638,-0.05711 0.67639,-0.06421 0.67641,-0.071 0.67639,-0.07763 0.67638,-0.08402 0.6764,-0.09018 0.6764,-0.09613 0.6764,-0.10185 0.67638,-0.10735 0.67639,-0.11261 0.67641,-0.11767 0.67639,-0.12249 0.67638,-0.12709 0.6764,-0.13147 0.67639,-0.13562 0.6764,-0.13955 0.67639,-0.14328 0.67639,-0.14673 0.67639,-0.15001 0.67641,-0.15303 0.67637,-0.15587 0.6764,-0.15845 0.6764,-0.16076 0.67639,-0.16315 0.67638,-0.16489 0.67641,-0.16643 0.67639,-0.16809 0.67639,-0.16922 0.67639,-0.17047 0.67639,-0.17096 0.6764,-0.17175 0.6764,-0.17203 0.67638,-0.17227 0.67639,-0.17212 0.67641,-0.17175 0.67637,-0.17128 0.67639,-0.17052 0.67641,-0.16954 0.67639,-0.16826 0.6764,-0.16693 0.67639,-0.16511 0.67639,-0.1633 0.6764,-0.16126 0.67638,-0.15896 0.67639,-0.15645 0.67641,-0.15355 0.67639,-0.15045 0.67638,-0.1474 0.6764,-0.14391 0.6764,-0.14032 0.67639,-0.13621 0.67639,-0.13237 0.67639,-0.12798 0.6764,-0.12338 0.6764,-0.1185 0.67638,-0.11354 0.67639,-0.10871 0.6764,-0.10358 0.67643,-0.09705 0.67633,-0.09058 0.67643,-0.08587 0.67634,-0.07918 0.67643,-0.07126 0.67644,-0.0658 0.67633,-0.05919 0.67642,-0.05041 0.67635,-0.04398 0.67642,-0.03543 0.67644,-0.02815 0.67633,-0.0209 0.67644,-0.0108 0.67633,-0.0034 0.67643,0.0053 0.67643,0.01529 0.67634,0.02426 0.67642,0.03295 0.67633,0.04321 0.67646,0.05331 0.67642,0.06281 0.67633,0.07393 0.67644,0.08413 0.67633,0.09522 0.67642,0.10602 0.67645,0.11715 0.67633,0.12897 0.67642,0.14058 0.67635,0.15189 0.67642,0.16504 0.67642,0.17797 0.67635,0.18863 0.67644,0.20232 0.67631,0.216 0.67646,0.22969 0.67642,0.24263 0.67633,0.25556 0.67644,0.27076 0.67633,0.28219 0.67643,0.29891 0.67644,0.31336 0.67633,0.32782 0.67642,0.34378 0.67635,0.35747 0.67642,0.37346 0.67644,0.39016 0.67633,0.4054 0.67644,0.42212 0.67633,0.43886 0.67644,0.45407 0.67642,0.4708 0.67634,0.4883 0.67642,0.50579 0.67634,0.52405 0.67645,0.54076 0.67642,0.56055 0.67633,0.57731 0.67644,0.59553 0.67633,0.61455"
                     style="fill:none;stroke:#000000;stroke-width:0.99628;stroke-linecap:butt;stroke-linejoin:miter;stroke-miterlimit:10;stroke-dasharray:none;stroke-opacity:1"
                     id="path180" /><g
                     id="g182"><g
                       id="g184"
                       transform="translate(127.297,40.207)"><g
                         id="g186"><g
                           id="g188"
                           transform="translate(-148.707,-65.409)"><g
                             aria-label="φ"
                             transform="matrix(1,0,0,-1,148.707,65.409)"
                             id="text192"
                             style="font-size:9.9626px;font-family:CMMI10;-inkscape-font-specification:CMMI10"><path
                               d="m 4.0327125,-4.7234787 q -0.3161958,0 -0.3161958,0.7053599 v 3.33708171 q 0.4621323,0 0.9242646,-0.50591331 0.4134868,-0.4524032 0.4134868,-1.537198 0,-1.0118265 -0.4183513,-1.5566562 -0.3405186,-0.4426741 -0.6032043,-0.4426741 z m 0,-0.7637344 q 0.6810371,0 1.298835,0.6421206 0.6664435,0.6859017 0.6664435,2.1209441 0,1.3182933 -0.6664435,2.10148592 -0.627527,0.7394117 -1.6150308,0.7394117 V 2.0722986 H 2.8263039 V 0.12161377 q -0.9680455,0 -1.6198953,-0.74427625 -0.66157893,-0.75886992 -0.66157893,-2.09662132 0,-1.3912615 0.66157893,-2.1014859 0.4961841,-0.530236 1.3036995,-0.6664434 v 0.7929217 q -0.3210603,0.1118847 -0.6032042,0.4913196 -0.4183514,0.5594234 -0.4183514,1.483688 0,0.9826392 0.4183514,1.5420625 0.3745704,0.50104876 0.9194,0.50104876 V -4.0181188 q 0,-1.4690943 1.2064086,-1.4690943 z"
                               id="path264" /></g><g
                             aria-label="1"
                             transform="matrix(1,0,0,-1,155.224,63.914)"
                             id="text196"
                             style="font-size:6.9738px;font-family:CMR7;-inkscape-font-specification:CMR7"><path
                               d="M 0.86491467,-0.5788799 H 1.9886227 V -4.4573752 L 0.76616457,-4.2122026 V -4.8387549 L 1.9818124,-5.0839276 h 0.6878455 v 4.5050477 h 1.123708 V 0 H 0.86491467 Z"
                               id="path267" /></g><g
                             id="g198"
                             transform="translate(148.707,65.409)" /></g></g><g
                         id="g200"
                         transform="translate(-127.297,-40.207)" /></g></g></g></g></g><g
               id="g202"><g
                 id="g204"
                 transform="translate(67.094,-21.881)"><g
                   id="g206"><g
                     id="g208"
                     transform="translate(-88.504,-3.321)"><g
                       aria-label="x"
                       transform="matrix(1,0,0,-1,88.504,3.321)"
                       id="text212"
                       style="font-size:8.9664px;font-family:CMMI9;-inkscape-font-specification:CMMI9"><path
                         d="M 4.9210126,-4.9035001 3.1478719,-2.5174219 5.0129532,0 H 4.0629001 L 2.6356313,-1.926375 1.2083625,0 H 0.25830938 L 2.1627938,-2.5655813 0.42030001,-4.9035001 H 1.3703531 l 1.3003032,1.7468719 1.3003031,-1.7468719 z"
                         id="path270" /></g><g
                       id="g214"
                       transform="translate(88.504,3.321)" /></g></g><g
                   id="g216"
                   transform="translate(-67.094,21.881)" /></g></g><g
               id="g218"><g
                 id="g220"
                 transform="rotate(90,-34.421,20.192)"><g
                   id="g222"><g
                     id="g224"
                     transform="translate(-7.181,-79.815)"><g
                       aria-label="y"
                       transform="matrix(1,0,0,-1,7.181,79.815)"
                       id="text228"
                       style="font-size:8.9664px;font-family:CMMI9;-inkscape-font-specification:CMMI9"><path
                         d="M 2.8851844,0.45532501 Q 2.5436907,1.33095 2.2197094,1.5980157 1.8957282,1.8650813 1.3528406,1.8650813 H 0.70925626 V 1.19085 H 1.1820938 q 0.3327375,0 0.5166187,-0.1576125 Q 1.8825938,0.87562501 2.1058782,0.28895625 L 2.2503563,-0.07880625 0.26706563,-4.9035001 H 1.1208 l 1.5323438,3.8352376 1.5323438,-3.8352376 H 5.039222 Z"
                         id="path273" /></g><g
                       id="g230"
                       transform="translate(7.181,79.815)" /></g></g><g
                   id="g232"
                   transform="translate(14.229,-54.613)" /></g></g></g><g
             id="g234" /><g
             id="g236" /><g
             id="g238"
             transform="translate(-21.41,-25.202)"><g
               id="g240" /><g
               id="g242"
               transform="translate(21.41,25.202)" /></g><g
             id="g244" /><g
             id="g246" /></g><g
           id="g248" /><g
           id="g250" /></g></g></g></svg>
