<?xml version="1.0" encoding="UTF-8" standalone="no"?>
<!-- Created with Inkscape (http://www.inkscape.org/) -->

<svg
   version="1.1"
   id="svg2"
   xml:space="preserve"
   width="271.23599"
   height="236.64133"
   viewBox="0 0 271.23599 236.64133"
   xmlns="http://www.w3.org/2000/svg"
   xmlns:svg="http://www.w3.org/2000/svg"><defs
     id="defs6"><clipPath
       clipPathUnits="userSpaceOnUse"
       id="clipPath60"><path
         d="M 0,0 H 194.26425 V 161.3994 H 0 Z"
         id="path58" /></clipPath><clipPath
       clipPathUnits="userSpaceOnUse"
       id="clipPath160"><path
         d="M 0,0 H 194.26425 V 161.3994 H 0 Z"
         id="path158" /></clipPath></defs><g
     id="g8"
     transform="matrix(1.3333333,0,0,-1.3333333,0,236.64133)"><g
       id="g10"
       transform="translate(8.966,15.885)"><g
         id="g12"><g
           id="g14" /><g
           id="g16" /><g
           id="g18"><g
             id="g20"><g
               id="g22"><path
                 d="m 18.9526,-2.12595 v 4.2519 m 118.45382,-4.2519 v 4.2519"
                 style="fill:none;stroke:#808080;stroke-width:0.19925;stroke-linecap:butt;stroke-linejoin:miter;stroke-miterlimit:10;stroke-dasharray:none;stroke-opacity:1"
                 id="path24" /></g></g><g
             id="g26"><g
               id="g28"><path
                 d="m -2.12585,16.13994 h 4.2517 m -4.2517,32.27988 h 4.2517 m -4.2517,32.27987 h 4.2517 m -4.2517,32.27988 h 4.2517 m -4.2517,32.27989 h 4.2517"
                 style="fill:none;stroke:#808080;stroke-width:0.19925;stroke-linecap:butt;stroke-linejoin:miter;stroke-miterlimit:10;stroke-dasharray:none;stroke-opacity:1"
                 id="path30" /></g></g></g><g
           id="g32"><path
             d="M 0,0 H 192.27173"
             style="fill:none;stroke:#000000;stroke-width:0.3985;stroke-linecap:butt;stroke-linejoin:miter;stroke-miterlimit:10;stroke-dasharray:none;stroke-opacity:1"
             id="path34" /><g
             id="g36"
             transform="translate(192.27173)"><g
               id="g38"><path
                 d="M 1.99252,0 -1.19551,1.59401 0,0 -1.19551,-1.59401"
                 style="fill:#000000;fill-opacity:1;fill-rule:nonzero;stroke:none"
                 id="path40" /></g></g><path
             d="M 0,0 V 159.40688"
             style="fill:none;stroke:#000000;stroke-width:0.3985;stroke-linecap:butt;stroke-linejoin:miter;stroke-miterlimit:10;stroke-dasharray:none;stroke-opacity:1"
             id="path42" /><g
             id="g44"
             transform="rotate(90,-79.70344,79.70344)"><g
               id="g46"><path
                 d="M 1.99252,0 -1.19551,1.59401 0,0 -1.19551,-1.59401"
                 style="fill:#000000;fill-opacity:1;fill-rule:nonzero;stroke:none"
                 id="path48" /></g></g></g><g
           id="g50" /><g
           id="g52"><g
             id="g54"><g
               id="g56"
               clip-path="url(#clipPath60)"><g
                 id="g62"><path
                   d="m 18.9526,84.96097 0.74499,0.86799 0.74499,0.83799 0.74498,0.80845 0.745,0.77924 0.74498,0.75082 0.74499,0.72177 0.745,0.69385 0.74497,0.66632 0.745,0.63898 0.74498,0.61202 0.745,0.58549 0.74498,0.55928 0.74499,0.53349 0.74498,0.50806 0.745,0.48302 0.74497,0.45834 0.745,0.43401 0.745,0.41008 0.74498,0.38655 0.74501,0.36335 0.74498,0.3406 0.74499,0.31817 0.74498,0.29611 0.745,0.27442 0.74498,0.25317 0.74499,0.23224 0.74498,0.21173 0.745,0.19154 0.74499,0.17175 0.74498,0.15234 0.745,0.13333 0.74498,0.11465 0.74501,0.09639 0.74498,0.07848 0.74499,0.06096 0.74498,0.04379 0.745,0.027 0.74498,0.0106 0.74499,-0.005 0.745,-0.021 0.74498,-0.0363 0.74499,-0.0512 0.74498,-0.0657 0.745,-0.07985 0.74498,-0.09359 0.745,-0.10701 0.74499,-0.11998 0.74499,-0.13265 0.74498,-0.14487 0.745,-0.15676 0.74498,-0.16828 0.74499,-0.17941 0.745,-0.19016 0.74497,-0.20051 0.745,-0.21051 0.74498,-0.22019 0.745,-0.22937 0.74498,-0.23829 0.74499,-0.24672 0.74498,-0.25489 0.745,-0.2626 0.74497,-0.26996 0.745,-0.27694 0.745,-0.28356 0.74498,-0.28982 0.74501,-0.29566 0.74498,-0.30113 0.74499,-0.30624 0.74498,-0.31096 0.745,-0.31534 0.74498,-0.31926 0.74499,-0.32312 0.74498,-0.32585 0.745,-0.3291 0.74499,-0.33152 0.74498,-0.33345 0.745,-0.33505 0.74498,-0.3367 0.74501,-0.33748 0.74498,-0.33812 0.74499,-0.33845 0.74498,-0.33831 0.745,-0.33749 0.74498,-0.33699 0.74499,-0.33539 0.745,-0.3336 0.74498,-0.33168 0.74499,-0.32927 0.74498,-0.32634 0.745,-0.32376 0.74498,-0.31958 0.745,-0.31571 0.74497,-0.31149 0.745,-0.30666 0.74499,-0.30197 0.745,-0.29634 0.74498,-0.29052 0.74499,-0.28422 0.745,-0.27777 0.74497,-0.27082 0.74505,-0.26357 0.7449,-0.25583 0.74505,-0.24774 0.74491,-0.23918 0.74504,-0.23049 0.74503,-0.22145 0.74493,-0.21272 0.74503,-0.20288 0.74492,-0.19125 0.74504,-0.18158 0.74502,-0.16995 0.74494,-0.15703 0.74502,-0.1456 0.74494,-0.13217 0.74502,-0.1225 0.74504,-0.1096 0.74491,-0.09441 0.74504,-0.0833 0.74492,-0.06682 0.74504,-0.05229 0.74504,-0.03937 0.74492,-0.02261 0.74504,-0.0048 0.7449,0.0065 0.74504,0.02629 0.74503,0.0407 0.74494,0.05905 0.74502,0.07666 0.74493,0.09459 0.74503,0.11267 0.74504,0.1304 0.74492,0.1501 0.74502,0.16786 0.74494,0.19109 0.74502,0.20853 0.74504,0.22805 0.74492,0.25147 0.74504,0.27373 0.74491,0.29116 0.74504,0.31797 0.74503,0.33571 0.74493,0.36152 0.74502,0.38412 0.74492,0.40835 0.74506,0.43095 0.74502,0.45354 0.74492,0.48096 0.74503,0.50357 0.74493,0.531 0.74503,0.55844 0.74504,0.58103 0.7449,0.6101 0.74506,0.6343 0.7449,0.66496 0.74504,0.6908 0.74504,0.71661 0.74492,0.74727 0.74504,0.77633 0.74492,0.80539 V 55.50566 l -0.74492,-0.80539 -0.74504,-0.77634 -0.74492,-0.74727 -0.74504,-0.71661 -0.74504,-0.6908 -0.7449,-0.66496 -0.74506,-0.63429 -0.7449,-0.61011 -0.74504,-0.58102 -0.74503,-0.55846 -0.74493,-0.531 -0.74503,-0.50356 -0.74492,-0.48096 -0.74502,-0.45353 -0.74506,-0.43096 -0.74492,-0.40834 -0.74502,-0.38412 -0.74493,-0.36153 -0.74503,-0.33571 -0.74504,-0.31796 -0.74491,-0.29117 -0.74504,-0.27373 -0.74492,-0.25146 -0.74504,-0.22806 -0.74502,-0.20853 -0.74494,-0.19108 -0.74502,-0.16786 -0.74492,-0.15012 -0.74504,-0.1304 -0.74503,-0.11266 -0.74493,-0.09459 -0.74502,-0.07666 -0.74494,-0.05906 -0.74503,-0.04068 -0.74504,-0.02629 -0.7449,-0.0065 -0.74504,0.0048 -0.74492,0.02262 -0.74504,0.03936 -0.74504,0.0523 -0.74492,0.06681 -0.74504,0.08329 -0.74491,0.09442 -0.74504,0.10959 -0.74502,0.12249 -0.74494,0.13219 -0.74502,0.14559 -0.74494,0.15704 -0.74502,0.16995 -0.74504,0.18158 -0.74492,0.19125 -0.74503,0.20288 -0.74493,0.21273 -0.74503,0.22145 -0.74504,0.23048 -0.74491,0.23918 -0.74505,0.24775 -0.7449,0.25583 -0.74505,0.26356 -0.74497,0.27083 -0.745,0.27777 -0.74499,0.28421 -0.74498,0.29053 -0.745,0.29632 -0.74499,0.30197 -0.745,0.30668 -0.74497,0.31149 -0.745,0.3157 -0.74498,0.31957 -0.745,0.32377 -0.74498,0.32634 -0.74499,0.32927 -0.74498,0.33167 -0.745,0.33362 -0.74499,0.33538 -0.74498,0.337 -0.745,0.33749 -0.74498,0.33829 -0.74499,0.33847 -0.74498,0.33812 -0.74501,0.33747 -0.74498,0.33671 -0.745,0.33505 -0.74498,0.33345 -0.74499,0.33151 -0.745,0.3291 -0.74498,0.32585 -0.74499,0.32312 -0.74498,0.31927 -0.745,0.31533 -0.74498,0.31096 -0.74499,0.30624 -0.74498,0.30114 -0.74501,0.29563 -0.74498,0.28985 -0.745,0.28355 -0.745,0.27695 -0.74497,0.26995 -0.745,0.26261 -0.74498,0.25488 -0.74499,0.24672 -0.74498,0.2383 -0.745,0.22935 -0.74498,0.22019 -0.745,0.21052 -0.74497,0.20052 -0.745,0.19015 -0.74499,0.17942 -0.74498,0.16827 -0.745,0.15677 -0.74498,0.14487 -0.74499,0.13264 -0.74499,0.11998 -0.745,0.10701 -0.74498,0.0936 -0.745,0.07985 -0.74498,0.0657 -0.74499,0.05119 -0.74498,0.03629 -0.745,0.02104 -0.74499,0.0054 -0.74498,-0.01064 -0.745,-0.02704 -0.74498,-0.04379 -0.74499,-0.06096 -0.74498,-0.07847 -0.74501,-0.09641 -0.74498,-0.11465 -0.745,-0.13332 -0.74498,-0.15236 -0.74499,-0.17174 -0.745,-0.19154 -0.74498,-0.21171 -0.74499,-0.23224 -0.74498,-0.25318 -0.745,-0.27441 -0.74498,-0.29611 -0.74499,-0.31818 -0.74498,-0.34059 -0.74501,-0.36336 -0.74498,-0.38655 -0.745,-0.41008 -0.745,-0.43401 -0.74497,-0.45834 -0.745,-0.48302 -0.74498,-0.50806 -0.74499,-0.53349 -0.74498,-0.55928 -0.745,-0.58549 -0.74498,-0.61203 -0.745,-0.63896 -0.74497,-0.66632 -0.745,-0.69385 -0.74499,-0.72178 -0.74498,-0.75082 -0.745,-0.77923 -0.74498,-0.80846 -0.74499,-0.83798 -0.74499,-0.86801 v 38.73587 z"
                   style="fill:#ffa64c;fill-opacity:1;fill-rule:nonzero;stroke:none"
                   id="path64" /></g></g></g></g><g
           id="g66"><g
             id="g68"><g
               id="g70" /><g
               id="g72" /><g
               id="g74"><g
                 id="g76" /></g><g
               id="g78" /><g
               id="g80" /><g
               id="g82"><g
                 id="g84"><g
                   id="g86"
                   transform="translate(16.319,-9.935)"><g
                     id="g88"><g
                       id="g90"
                       transform="translate(-25.285,-5.95)"><g
                         aria-label="a"
                         transform="matrix(1,0,0,-1,25.285,5.95)"
                         id="text94"
                         style="font-size:9.9626px;font-family:CMMI10;-inkscape-font-specification:CMMI10"><path
                           d="m 1.73178,0.11188467 q -0.627527,0 -0.9923683,-0.47186142 -0.35997675,-0.47672596 -0.35997675,-1.12371125 0,-0.6372561 0.33078945,-1.3231577 0.3307894,-0.6859017 0.8902128,-1.1383049 0.5642878,-0.4572677 1.2112731,-0.4572677 0.2967376,0 0.530236,0.1605301 0.2334984,0.1605302 0.3648413,0.4378096 0.1118847,-0.3988932 0.4378096,-0.3988932 0.1264783,0 0.2091756,0.077833 0.087562,0.072968 0.087562,0.1994466 0,0.029187 -0.00486,0.043781 0,0.014594 -0.00486,0.034052 l -0.6956308,2.782523 q -0.068104,0.2967376 -0.068104,0.48645507 0,0.42808046 0.2870085,0.42808046 0.3113312,0 0.4718614,-0.3940286 0.1653947,-0.39889316 0.2772794,-0.91940003 0.019458,-0.058375 0.077833,-0.058375 h 0.1216138 q 0.038916,0 0.063239,0.034052 0.024323,0.034052 0.024323,0.063239 -0.1751238,0.6956307 -0.3842995,1.11884661 -0.2043112,0.41835136 -0.671308,0.41835136 -0.335654,0 -0.5934752,-0.19458203 Q 3.0841251,-0.28214394 3.020886,-0.60806883 2.3787653,0.11188467 1.73178,0.11188467 Z m 0.00973,-0.26268574 q 0.3599768,0 0.6956308,-0.26755029 0.3405185,-0.27241483 0.5837461,-0.63725614 0.00973,-0.00973 0.00973,-0.029187 l 0.5351005,-2.164725 0.00973,-0.029187 Q 3.5170701,-3.6338193 3.3176236,-3.886776 3.1230415,-4.1445972 2.7873875,-4.1445972 q -0.335654,0 -0.627527,0.2772794 -0.2870085,0.2724149 -0.4864551,0.6469853 -0.194582,0.3988931 -0.3745704,1.0945239 -0.1751238,0.6956307 -0.1751238,1.0799302 0,0.3453831 0.1459365,0.62266249 0.1508011,0.27241484 0.4718614,0.27241484 z"
                           id="path324" /></g><g
                         id="g96"
                         transform="translate(25.285,5.95)" /></g></g><g
                     id="g98"
                     transform="translate(-16.319,9.935)" /></g></g><g
                 id="g100"><g
                   id="g102"
                   transform="translate(135.267,-12.564)"><g
                     id="g104"><g
                       id="g106"
                       transform="translate(-144.233,-3.321)"><g
                         aria-label="b"
                         transform="matrix(1,0,0,-1,144.233,3.321)"
                         id="text110"
                         style="font-size:9.9626px;font-family:CMMI10;-inkscape-font-specification:CMMI10"><path
                           d="m 1.7220509,0.11188467 q -0.6032042,0 -0.93885824,-0.47186142 -0.335654,-0.47186141 -0.335654,-1.10425295 0,-0.092426 0.043781,-0.3599768 0.0486455,-0.2724148 0.0486455,-0.335654 L 1.5031462,-6.0271783 q 0.038916,-0.1702592 0.048646,-0.2675503 0,-0.1605301 -0.64698528,-0.1605301 -0.097291,0 -0.097291,-0.1313429 0.004865,-0.024323 0.0194582,-0.087562 0.0194582,-0.063239 0.043781,-0.097291 0.0291873,-0.034052 0.0778328,-0.034052 L 2.2912034,-6.9125265 q 0.1216137,0 0.1216137,0.1264783 l -0.7394117,2.9381886 q 0.5642879,-0.5545587 1.1383049,-0.5545587 0.4232159,0 0.724818,0.2237693 0.3064667,0.2237693 0.4572678,0.5886106 0.1508011,0.3648413 0.1508011,0.7783281 0,0.4815905 -0.1897175,0.9972329 -0.1848529,0.5107778 -0.5156424,0.95345193 -0.3307894,0.43780956 -0.7734635,0.70535985 -0.4426741,0.26755029 -0.9437229,0.26755029 z m 0.019458,-0.26268574 q 0.3405186,0 0.6372562,-0.28214394 0.2967376,-0.28700849 0.4815905,-0.64212069 0.1994466,-0.3988932 0.3697058,-1.0799302 0.1751239,-0.6859017 0.1751239,-1.0945239 0,-0.3551122 -0.1508011,-0.6226625 -0.1459365,-0.2724149 -0.4669969,-0.2724149 -0.3599767,0 -0.6907662,0.2675503 -0.3259249,0.2626858 -0.5740169,0.6275271 L 1.245325,-2.1209441 q -0.1605302,0.627527 -0.1702593,1.006962 0,0.3745704 0.1605302,0.67130799 0.1653947,0.29187304 0.5059132,0.29187304 z"
                           id="path327" /></g><g
                         id="g112"
                         transform="translate(144.233,3.321)" /></g></g><g
                     id="g114"
                     transform="translate(-135.267,12.564)" /></g></g><g
                 id="g116"><g
                   id="g118"
                   transform="translate(-5.646,16.139)"><g
                     id="g120" /><g
                     id="g122"
                     transform="translate(5.646,-16.139)" /></g></g><g
                 id="g124"><g
                   id="g126"
                   transform="translate(-5.646,48.419)"><g
                     id="g128" /><g
                     id="g130"
                     transform="translate(5.646,-48.419)" /></g></g><g
                 id="g132"><g
                   id="g134"
                   transform="translate(-5.646,80.698)"><g
                     id="g136" /><g
                     id="g138"
                     transform="translate(5.646,-80.698)" /></g></g><g
                 id="g140"><g
                   id="g142"
                   transform="translate(-5.646,112.978)"><g
                     id="g144" /><g
                     id="g146"
                     transform="translate(5.646,-112.978)" /></g></g><g
                 id="g148"><g
                   id="g150"
                   transform="translate(-5.646,145.257)"><g
                     id="g152" /><g
                     id="g154"
                     transform="translate(5.646,-145.257)" /></g></g><g
                 id="g156"
                 clip-path="url(#clipPath160)"><g
                   id="g162"><path
                     d="m 18.9526,84.96097 0.74499,0.86799 0.74499,0.83799 0.74498,0.80845 0.745,0.77924 0.74498,0.75082 0.74499,0.72177 0.745,0.69385 0.74497,0.66632 0.745,0.63898 0.74498,0.61202 0.745,0.58549 0.74498,0.55928 0.74499,0.53349 0.74498,0.50806 0.745,0.48302 0.74497,0.45834 0.745,0.43401 0.745,0.41008 0.74498,0.38655 0.74501,0.36335 0.74498,0.3406 0.74499,0.31817 0.74498,0.29611 0.745,0.27442 0.74498,0.25317 0.74499,0.23224 0.74498,0.21173 0.745,0.19154 0.74499,0.17175 0.74498,0.15234 0.745,0.13333 0.74498,0.11465 0.74501,0.09639 0.74498,0.07848 0.74499,0.06096 0.74498,0.04379 0.745,0.027 0.74498,0.0106 0.74499,-0.005 0.745,-0.021 0.74498,-0.0363 0.74499,-0.0512 0.74498,-0.0657 0.745,-0.07985 0.74498,-0.09359 0.745,-0.10701 0.74499,-0.11998 0.74499,-0.13265 0.74498,-0.14487 0.745,-0.15676 0.74498,-0.16828 0.74499,-0.17941 0.745,-0.19016 0.74497,-0.20051 0.745,-0.21051 0.74498,-0.22019 0.745,-0.22937 0.74498,-0.23829 0.74499,-0.24672 0.74498,-0.25489 0.745,-0.2626 0.74497,-0.26996 0.745,-0.27694 0.745,-0.28356 0.74498,-0.28982 0.74501,-0.29566 0.74498,-0.30113 0.74499,-0.30624 0.74498,-0.31096 0.745,-0.31534 0.74498,-0.31926 0.74499,-0.32312 0.74498,-0.32585 0.745,-0.3291 0.74499,-0.33152 0.74498,-0.33345 0.745,-0.33505 0.74498,-0.3367 0.74501,-0.33748 0.74498,-0.33812 0.74499,-0.33845 0.74498,-0.33831 0.745,-0.33749 0.74498,-0.33699 0.74499,-0.33539 0.745,-0.3336 0.74498,-0.33168 0.74499,-0.32927 0.74498,-0.32634 0.745,-0.32376 0.74498,-0.31958 0.745,-0.31571 0.74497,-0.31149 0.745,-0.30666 0.74499,-0.30197 0.745,-0.29634 0.74498,-0.29052 0.74499,-0.28422 0.745,-0.27777 0.74497,-0.27082 0.74505,-0.26357 0.7449,-0.25583 0.74505,-0.24774 0.74491,-0.23918 0.74504,-0.23049 0.74503,-0.22145 0.74493,-0.21272 0.74503,-0.20288 0.74492,-0.19125 0.74504,-0.18158 0.74502,-0.16995 0.74494,-0.15703 0.74502,-0.1456 0.74494,-0.13217 0.74502,-0.1225 0.74504,-0.1096 0.74491,-0.09441 0.74504,-0.0833 0.74492,-0.06682 0.74504,-0.05229 0.74504,-0.03937 0.74492,-0.02261 0.74504,-0.0048 0.7449,0.0065 0.74504,0.02629 0.74503,0.0407 0.74494,0.05905 0.74502,0.07666 0.74493,0.09459 0.74503,0.11267 0.74504,0.1304 0.74492,0.1501 0.74502,0.16786 0.74494,0.19109 0.74502,0.20853 0.74504,0.22805 0.74492,0.25147 0.74504,0.27373 0.74491,0.29116 0.74504,0.31797 0.74503,0.33571 0.74493,0.36152 0.74502,0.38412 0.74492,0.40835 0.74506,0.43095 0.74502,0.45354 0.74492,0.48096 0.74503,0.50357 0.74493,0.531 0.74503,0.55844 0.74504,0.58103 0.7449,0.6101 0.74506,0.6343 0.7449,0.66496 0.74504,0.6908 0.74504,0.71661 0.74492,0.74727 0.74504,0.77633 0.74492,0.80539"
                     style="fill:none;stroke:#000000;stroke-width:0.3985;stroke-linecap:butt;stroke-linejoin:miter;stroke-miterlimit:10;stroke-dasharray:none;stroke-opacity:1"
                     id="path164" /><g
                     id="g166"><g
                       id="g168"
                       transform="translate(140.924,91.749)"><g
                         id="g170"><g
                           id="g172"
                           transform="translate(-149.89,-107.634)"><g
                             aria-label="f"
                             transform="matrix(1,0,0,-1,149.89,107.634)"
                             id="text176"
                             style="font-size:9.9626px;font-family:CMMI10;-inkscape-font-specification:CMMI10"><path
                               d="m 0.96804558,1.6442181 q 0.18485292,0.141072 0.44753862,0.141072 0.3551122,0 0.5788816,-0.78805721 Q 2.0868922,0.61779793 2.500379,-1.5031462 L 2.9576468,-3.9451506 H 2.1014859 q -0.097291,0 -0.097291,-0.1313429 0.038916,-0.2189047 0.1264783,-0.2189047 H 3.020886 l 0.1167492,-0.6469853 q 0.058375,-0.3016021 0.1070201,-0.5156423 0.048646,-0.2189048 0.1021556,-0.4037577 0.058375,-0.184853 0.1702592,-0.4134869 0.1702593,-0.3259248 0.4572678,-0.5351005 0.291873,-0.2140403 0.627527,-0.2140403 0.2189048,0 0.4232159,0.082697 0.2091757,0.077833 0.3405186,0.238363 0.1313428,0.1605302 0.1313428,0.3794349 0,0.2529567 -0.1702592,0.4426742 -0.1653947,0.1848529 -0.4037577,0.1848529 -0.1605302,0 -0.2772794,-0.097291 -0.1118847,-0.1021556 -0.1118847,-0.2626858 0,-0.2189048 0.1459365,-0.3794349 Q 4.8304988,-6.6011952 5.0494036,-6.625518 4.8645507,-6.76659 4.5921358,-6.76659 q -0.150801,0 -0.2870085,0.141072 -0.1313428,0.141072 -0.1702592,0.3016021 -0.063239,0.2529567 -0.2772794,1.3718033 l -0.1216138,0.6567144 h 1.0264202 q 0.097291,0 0.097291,0.1313428 -0.00486,0.024323 -0.019458,0.087562 -0.014594,0.058375 -0.043781,0.097291 -0.024323,0.034052 -0.063239,0.034052 H 3.6678712 L 3.2057389,-1.5128753 Q 3.118177,-0.98263923 3.0014278,-0.43294501 2.8895431,0.11188467 2.6803674,0.68590164 2.4760563,1.2647832 2.1549959,1.6539472 1.8339356,2.0431113 1.396126,2.0431113 q -0.335654,0 -0.60320424,-0.194582 Q 0.53023602,1.6588118 0.53023602,1.342616 q 0,-0.2529567 0.16053017,-0.44267413 0.16539473,-0.18485292 0.41348681,-0.18485292 0.1653947,0 0.2772794,0.097291 0.1118847,0.10215556 0.1118847,0.26268574 0,0.2140402 -0.1605302,0.389164 -0.1556656,0.1799884 -0.36484132,0.1799884 z"
                               id="path330" /></g><g
                             aria-label="("
                             transform="matrix(1,0,0,-1,155.84,107.634)"
                             id="text180"
                             style="font-size:9.9626px;font-family:CMR10;-inkscape-font-specification:CMR10"><path
                               d="M 3.0889897,2.4711917 Q 2.5344309,2.0333822 2.1306732,1.4642297 1.73178,0.89994187 1.4739589,0.25782119 1.2210022,-0.3842995 1.0945239,-1.0847948 0.96804558,-1.7852901 0.96804558,-2.4906499 q 0,-0.715089 0.12647832,-1.4155843 0.1264783,-0.7004953 0.3842995,-1.3474805 0.2626857,-0.6469853 0.6664434,-1.2112731 0.4037577,-0.5642879 0.9437229,-0.9875038 0,-0.019458 0.048646,-0.019458 h 0.092426 q 0.029187,0 0.05351,0.029187 0.024323,0.024323 0.024323,0.058375 0,0.043781 -0.019458,0.063239 -0.486455,0.4767259 -0.8123799,1.0215556 -0.3210604,0.5448297 -0.5205069,1.1626276 -0.1945821,0.6129334 -0.282144,1.2745123 -0.087562,0.6567143 -0.087562,1.3718033 0,3.16682244 1.6928636,4.8110406 0.029187,0.029187 0.029187,0.082697 0,0.024323 -0.029187,0.05351 -0.024323,0.034052 -0.048646,0.034052 h -0.092426 q -0.048646,0 -0.048646,-0.019458 z"
                               id="path333" /></g><g
                             aria-label="x"
                             transform="matrix(1,0,0,-1,159.714,107.634)"
                             id="text184"
                             style="font-size:9.9626px;font-family:CMMI10;-inkscape-font-specification:CMMI10"><path
                               d="m 0.77832811,-0.28700849 q 0.17512382,0.13620742 0.49618419,0.13620742 0.3113312,0 0.5496942,-0.29673759 0.238363,-0.30160214 0.3259249,-0.65671434 l 0.4524032,-1.7658319 q 0.1070201,-0.4815905 0.1070201,-0.6567143 0,-0.2480921 -0.141072,-0.432945 -0.1362074,-0.184853 -0.3842995,-0.184853 -0.3161957,0 -0.5934751,0.1994466 -0.2772794,0.194582 -0.4669969,0.5010487 -0.18971747,0.3016022 -0.26755028,0.6129334 -0.0194582,0.063239 -0.0778328,0.063239 H 0.65671434 q -0.0778328,0 -0.0778328,-0.092426 v -0.029187 q 0.097291,-0.3697058 0.33078944,-0.7199535 0.23349843,-0.3551122 0.56915243,-0.574017 0.3405185,-0.2189047 0.724818,-0.2189047 0.3648413,0 0.6567144,0.194582 0.2967376,0.194582 0.4183513,0.530236 0.1702593,-0.3064667 0.4329451,-0.5156424 0.2675502,-0.2091756 0.583746,-0.2091756 0.2140403,0 0.4378096,0.077833 0.2237693,0.072968 0.3648413,0.2286338 0.141072,0.1556657 0.141072,0.3891641 0,0.2529566 -0.1653948,0.4378096 -0.1605301,0.1799883 -0.4134868,0.1799883 -0.1605301,0 -0.2675503,-0.1021555 -0.1070201,-0.1021556 -0.1070201,-0.2578212 0,-0.2091757 0.141072,-0.3648413 0.1459365,-0.1605302 0.3453831,-0.1897175 -0.1799884,-0.141072 -0.4961842,-0.141072 -0.3210603,0 -0.5594233,0.2967376 -0.2334984,0.2967376 -0.3307894,0.6615789 l -0.4378096,1.7609674 q -0.1070201,0.3988931 -0.1070201,0.6567143 0,0.25295663 0.141072,0.43780956 0.1459365,0.17998837 0.3842995,0.17998837 0.4669968,0 0.8318381,-0.40862226 0.3697059,-0.4134868 0.4864551,-0.90480637 0.019458,-0.058375 0.077833,-0.058375 h 0.1216138 q 0.038916,0 0.063239,0.029187 0.024323,0.024323 0.024323,0.058375 0,0.00973 -0.00973,0.029187 -0.141072,0.59347514 -0.5934752,1.05560745 -0.4524032,0.46213232 -1.0215556,0.46213232 -0.3648413,0 -0.6615789,-0.19458203 -0.2918731,-0.19944658 -0.4134868,-0.53510057 -0.1556657,0.29187304 -0.4329451,0.51077782 -0.2724148,0.21890478 -0.583746,0.21890478 -0.2140403,0 -0.44267414,-0.07783282 -0.22376933,-0.07296826 -0.3648413,-0.22863388 -0.14107197,-0.15566562 -0.14107197,-0.3940286 0,-0.23349843 0.16053017,-0.42321587 0.16539473,-0.1945821 0.40862226,-0.1945821 0.16539468,0 0.27727938,0.1021556 0.1118847,0.097291 0.1118847,0.25782118 0,0.20917568 -0.141072,0.3648413 -0.13620742,0.15566563 -0.34538309,0.19458203 z"
                               id="path336" /></g><g
                             aria-label=")+"
                             transform="matrix(1,0,0,-1,165.408,107.634)"
                             id="text188"
                             style="font-size:9.9626px;font-family:CMR10;-inkscape-font-specification:CMR10"><path
                               d="m 0.64698524,2.4906499 q -0.0875619,0 -0.0875619,-0.087562 0,-0.043781 0.0194582,-0.063239 1.70259277,-1.66367636 1.70259277,-4.8304988 0,-3.1668225 -1.68313457,-4.8110406 -0.0389164,-0.024323 -0.0389164,-0.082697 0,-0.034052 0.0243227,-0.058375 0.0291873,-0.029187 0.0632392,-0.029187 h 0.0924265 q 0.0291873,0 0.0486455,0.019458 0.71508899,0.5642879 1.19181489,1.3718033 0.476726,0.8075154 0.6956308,1.7220509 0.2237693,0.9145355 0.2237693,1.8679875 0,0.7053598 -0.1216138,1.3912615 Q 2.6609092,-0.41835136 2.3982235,0.24322753 2.1404023,0.90967097 1.7415091,1.4690943 1.342616,2.0333822 0.78805721,2.4711917 0.768599,2.4906499 0.7394117,2.4906499 Z"
                               id="path339" /><path
                               d="m 6.8352934,-2.2912034 q -0.082697,0 -0.1362075,-0.063239 -0.05351,-0.063239 -0.05351,-0.1362074 0,-0.072968 0.05351,-0.1362075 0.05351,-0.063239 0.1362075,-0.063239 h 2.9284595 v -2.9381886 q 0,-0.077833 0.058375,-0.1264783 0.058375,-0.05351 0.1410719,-0.05351 0.072969,0 0.1362076,0.05351 0.06324,0.048646 0.06324,0.1264783 v 2.9381886 h 2.92846 q 0.07297,0 0.126478,0.063239 0.05351,0.063239 0.05351,0.1362075 0,0.072968 -0.05351,0.1362074 -0.05351,0.063239 -0.126478,0.063239 h -2.92846 v 2.93818864 q 0,0.0778328 -0.06324,0.12647832 -0.06324,0.05351 -0.1362076,0.05351 -0.082697,0 -0.1410719,-0.05351 -0.058375,-0.0486455 -0.058375,-0.12647832 V -2.2912034 Z"
                               id="path341" /></g><g
                             aria-label="ϵ"
                             transform="matrix(1,0,0,-1,181.459,107.634)"
                             id="text192"
                             style="font-size:9.9626px;font-family:CMMI10;-inkscape-font-specification:CMMI10"><path
                               d="M 4.7867179,-4.5824067 Q 4.6067295,-4.6456459 4.4267411,-4.6942914 3.9451506,-4.8207697 3.4295082,-4.8207697 q -0.8902128,0 -1.3863969,0.4815905 -0.4621323,0.4475387 -0.5496942,1.2696477 h 3.2933008 v 0.7004953 H 1.4934171 q 0.087562,0.8221091 0.5496942,1.2696478 0.4961841,0.48159047 1.3863969,0.48159047 0.6226625,0 0.9972329,-0.12647832 l 0.3599768,-0.12161377 v 0.81237996 L 4.4024183,0.03405185 q -0.5059132,0.10702012 -1.0264201,0.10702012 -1.3036996,0 -2.0625695,-0.7588699 -0.76373448,-0.75886987 -0.76373448,-2.10148587 0,-1.342616 0.76373448,-2.1014859 0.7588699,-0.7588699 2.0625695,-0.7588699 0.4913196,0 1.0264201,0.1070201 0.1945821,0.038916 0.3842996,0.097291 z"
                               id="path344" /></g><g
                             id="g194"
                             transform="translate(149.89,107.634)" /></g></g><g
                         id="g196"
                         transform="translate(-140.924,-91.749)" /></g></g></g><g
                   id="g198"><path
                     d="m 18.9526,65.59302 0.74499,0.86801 0.74499,0.83798 0.74498,0.80846 0.745,0.77923 0.74498,0.75083 0.74499,0.72178 0.745,0.69385 0.74497,0.66632 0.745,0.63895 0.74498,0.61203 0.745,0.58549 0.74498,0.5593 0.74499,0.53348 0.74498,0.50807 0.745,0.483 0.74497,0.45834 0.745,0.43403 0.745,0.41004 0.74498,0.38659 0.74501,0.36335 0.74498,0.34058 0.74499,0.31817 0.74498,0.29613 0.745,0.27442 0.74498,0.25317 0.74499,0.23224 0.74498,0.21172 0.745,0.19154 0.74499,0.17174 0.74498,0.15236 0.745,0.13331 0.74498,0.11466 0.74501,0.09639 0.74498,0.07847 0.74499,0.06096 0.74498,0.04379 0.745,0.02706 0.74498,0.01062 0.74499,-0.0054 0.745,-0.02103 0.74498,-0.03631 0.74499,-0.05119 0.74498,-0.0657 0.745,-0.07984 0.74498,-0.09359 0.745,-0.10701 0.74499,-0.12 0.74499,-0.13263 0.74498,-0.14488 0.745,-0.15675 0.74498,-0.16828 0.74499,-0.17941 0.745,-0.19017 0.74497,-0.20051 0.745,-0.21052 0.74498,-0.22018 0.745,-0.22937 0.74498,-0.23828 0.74499,-0.24672 0.74498,-0.2549 0.745,-0.26259 0.74497,-0.26996 0.745,-0.27694 0.745,-0.28357 0.74498,-0.28983 0.74501,-0.29565 0.74498,-0.30114 0.74499,-0.30624 0.74498,-0.31096 0.745,-0.31532 0.74498,-0.31926 0.74499,-0.32312 0.74498,-0.32585 0.745,-0.32912 0.74499,-0.3315 0.74498,-0.33346 0.745,-0.33505 0.74498,-0.33669 0.74501,-0.33749 0.74498,-0.33812 0.74499,-0.33846 0.74498,-0.33829 0.745,-0.33749 0.74498,-0.33701 0.74499,-0.33538 0.745,-0.33361 0.74498,-0.33168 0.74499,-0.32925 0.74498,-0.32636 0.745,-0.32376 0.74498,-0.31958 0.745,-0.31569 0.74497,-0.31151 0.745,-0.30665 0.74499,-0.30197 0.745,-0.29633 0.74498,-0.29052 0.74499,-0.28423 0.745,-0.27777 0.74497,-0.27081 0.74505,-0.26358 0.7449,-0.25582 0.74505,-0.24774 0.74491,-0.2392 0.74504,-0.23047 0.74503,-0.22145 0.74493,-0.21272 0.74503,-0.20288 0.74492,-0.19127 0.74504,-0.18156 0.74502,-0.16996 0.74494,-0.15704 0.74502,-0.14558 0.74494,-0.13219 0.74502,-0.1225 0.74504,-0.10959 0.74491,-0.09442 0.74504,-0.0833 0.74492,-0.0668 0.74504,-0.05229 0.74504,-0.03938 0.74492,-0.0226 0.74504,-0.0048 0.7449,0.0065 0.74504,0.0263 0.74503,0.04068 0.74494,0.05905 0.74502,0.07668 0.74493,0.09459 0.74503,0.11265 0.74504,0.13041 0.74492,0.1501 0.74502,0.16786 0.74494,0.19108 0.74502,0.20853 0.74504,0.22806 0.74492,0.25148 0.74504,0.27373 0.74491,0.29115 0.74504,0.31798 0.74503,0.33569 0.74493,0.36154 0.74502,0.38413 0.74492,0.40834 0.74506,0.43094 0.74502,0.45353 0.74492,0.48096 0.74503,0.50357 0.74493,0.53101 0.74503,0.55844 0.74504,0.58104 0.7449,0.61009 0.74506,0.63429 0.7449,0.66496 0.74504,0.6908 0.74504,0.71663 0.74492,0.74727 0.74504,0.77632 0.74492,0.80539"
                     style="fill:none;stroke:#000000;stroke-width:0.99628;stroke-linecap:butt;stroke-linejoin:miter;stroke-miterlimit:10;stroke-dasharray:none;stroke-opacity:1"
                     id="path200" /><g
                     id="g202"><g
                       id="g204"
                       transform="translate(141.223,72.381)"><g
                         id="g206"><g
                           id="g208"
                           transform="translate(-150.189,-88.266)"><g
                             aria-label="f"
                             transform="matrix(1,0,0,-1,150.189,88.266)"
                             id="text212"
                             style="font-size:9.9626px;font-family:CMMI10;-inkscape-font-specification:CMMI10"><path
                               d="m 0.96804558,1.6442181 q 0.18485292,0.141072 0.44753862,0.141072 0.3551122,0 0.5788816,-0.78805721 Q 2.0868922,0.61779793 2.500379,-1.5031462 L 2.9576468,-3.9451506 H 2.1014859 q -0.097291,0 -0.097291,-0.1313429 0.038916,-0.2189047 0.1264783,-0.2189047 H 3.020886 l 0.1167492,-0.6469853 q 0.058375,-0.3016021 0.1070201,-0.5156423 0.048646,-0.2189048 0.1021556,-0.4037577 0.058375,-0.184853 0.1702592,-0.4134869 0.1702593,-0.3259248 0.4572678,-0.5351005 0.291873,-0.2140403 0.627527,-0.2140403 0.2189048,0 0.4232159,0.082697 0.2091757,0.077833 0.3405186,0.238363 0.1313428,0.1605302 0.1313428,0.3794349 0,0.2529567 -0.1702592,0.4426742 -0.1653947,0.1848529 -0.4037577,0.1848529 -0.1605302,0 -0.2772794,-0.097291 -0.1118847,-0.1021556 -0.1118847,-0.2626858 0,-0.2189048 0.1459365,-0.3794349 Q 4.8304988,-6.6011952 5.0494036,-6.625518 4.8645507,-6.76659 4.5921358,-6.76659 q -0.150801,0 -0.2870085,0.141072 -0.1313428,0.141072 -0.1702592,0.3016021 -0.063239,0.2529567 -0.2772794,1.3718033 l -0.1216138,0.6567144 h 1.0264202 q 0.097291,0 0.097291,0.1313428 -0.00486,0.024323 -0.019458,0.087562 -0.014594,0.058375 -0.043781,0.097291 -0.024323,0.034052 -0.063239,0.034052 H 3.6678712 L 3.2057389,-1.5128753 Q 3.118177,-0.98263923 3.0014278,-0.43294501 2.8895431,0.11188467 2.6803674,0.68590164 2.4760563,1.2647832 2.1549959,1.6539472 1.8339356,2.0431113 1.396126,2.0431113 q -0.335654,0 -0.60320424,-0.194582 Q 0.53023602,1.6588118 0.53023602,1.342616 q 0,-0.2529567 0.16053017,-0.44267413 0.16539473,-0.18485292 0.41348681,-0.18485292 0.1653947,0 0.2772794,0.097291 0.1118847,0.10215556 0.1118847,0.26268574 0,0.2140402 -0.1605302,0.389164 -0.1556656,0.1799884 -0.36484132,0.1799884 z"
                               id="path347" /></g><g
                             aria-label="("
                             transform="matrix(1,0,0,-1,156.139,88.266)"
                             id="text216"
                             style="font-size:9.9626px;font-family:CMR10;-inkscape-font-specification:CMR10"><path
                               d="M 3.0889897,2.4711917 Q 2.5344309,2.0333822 2.1306732,1.4642297 1.73178,0.89994187 1.4739589,0.25782119 1.2210022,-0.3842995 1.0945239,-1.0847948 0.96804558,-1.7852901 0.96804558,-2.4906499 q 0,-0.715089 0.12647832,-1.4155843 0.1264783,-0.7004953 0.3842995,-1.3474805 0.2626857,-0.6469853 0.6664434,-1.2112731 0.4037577,-0.5642879 0.9437229,-0.9875038 0,-0.019458 0.048646,-0.019458 h 0.092426 q 0.029187,0 0.05351,0.029187 0.024323,0.024323 0.024323,0.058375 0,0.043781 -0.019458,0.063239 -0.486455,0.4767259 -0.8123799,1.0215556 -0.3210604,0.5448297 -0.5205069,1.1626276 -0.1945821,0.6129334 -0.282144,1.2745123 -0.087562,0.6567143 -0.087562,1.3718033 0,3.16682244 1.6928636,4.8110406 0.029187,0.029187 0.029187,0.082697 0,0.024323 -0.029187,0.05351 -0.024323,0.034052 -0.048646,0.034052 h -0.092426 q -0.048646,0 -0.048646,-0.019458 z"
                               id="path350" /></g><g
                             aria-label="x"
                             transform="matrix(1,0,0,-1,160.013,88.266)"
                             id="text220"
                             style="font-size:9.9626px;font-family:CMMI10;-inkscape-font-specification:CMMI10"><path
                               d="m 0.77832811,-0.28700849 q 0.17512382,0.13620742 0.49618419,0.13620742 0.3113312,0 0.5496942,-0.29673759 0.238363,-0.30160214 0.3259249,-0.65671434 l 0.4524032,-1.7658319 q 0.1070201,-0.4815905 0.1070201,-0.6567143 0,-0.2480921 -0.141072,-0.432945 -0.1362074,-0.184853 -0.3842995,-0.184853 -0.3161957,0 -0.5934751,0.1994466 -0.2772794,0.194582 -0.4669969,0.5010487 -0.18971747,0.3016022 -0.26755028,0.6129334 -0.0194582,0.063239 -0.0778328,0.063239 H 0.65671434 q -0.0778328,0 -0.0778328,-0.092426 v -0.029187 q 0.097291,-0.3697058 0.33078944,-0.7199535 0.23349843,-0.3551122 0.56915243,-0.574017 0.3405185,-0.2189047 0.724818,-0.2189047 0.3648413,0 0.6567144,0.194582 0.2967376,0.194582 0.4183513,0.530236 0.1702593,-0.3064667 0.4329451,-0.5156424 0.2675502,-0.2091756 0.583746,-0.2091756 0.2140403,0 0.4378096,0.077833 0.2237693,0.072968 0.3648413,0.2286338 0.141072,0.1556657 0.141072,0.3891641 0,0.2529566 -0.1653948,0.4378096 -0.1605301,0.1799883 -0.4134868,0.1799883 -0.1605301,0 -0.2675503,-0.1021555 -0.1070201,-0.1021556 -0.1070201,-0.2578212 0,-0.2091757 0.141072,-0.3648413 0.1459365,-0.1605302 0.3453831,-0.1897175 -0.1799884,-0.141072 -0.4961842,-0.141072 -0.3210603,0 -0.5594233,0.2967376 -0.2334984,0.2967376 -0.3307894,0.6615789 l -0.4378096,1.7609674 q -0.1070201,0.3988931 -0.1070201,0.6567143 0,0.25295663 0.141072,0.43780956 0.1459365,0.17998837 0.3842995,0.17998837 0.4669968,0 0.8318381,-0.40862226 0.3697059,-0.4134868 0.4864551,-0.90480637 0.019458,-0.058375 0.077833,-0.058375 h 0.1216138 q 0.038916,0 0.063239,0.029187 0.024323,0.024323 0.024323,0.058375 0,0.00973 -0.00973,0.029187 -0.141072,0.59347514 -0.5934752,1.05560745 -0.4524032,0.46213232 -1.0215556,0.46213232 -0.3648413,0 -0.6615789,-0.19458203 -0.2918731,-0.19944658 -0.4134868,-0.53510057 -0.1556657,0.29187304 -0.4329451,0.51077782 -0.2724148,0.21890478 -0.583746,0.21890478 -0.2140403,0 -0.44267414,-0.07783282 -0.22376933,-0.07296826 -0.3648413,-0.22863388 -0.14107197,-0.15566562 -0.14107197,-0.3940286 0,-0.23349843 0.16053017,-0.42321587 0.16539473,-0.1945821 0.40862226,-0.1945821 0.16539468,0 0.27727938,0.1021556 0.1118847,0.097291 0.1118847,0.25782118 0,0.20917568 -0.141072,0.3648413 -0.13620742,0.15566563 -0.34538309,0.19458203 z"
                               id="path353" /></g><g
                             aria-label=")"
                             transform="matrix(1,0,0,-1,165.707,88.266)"
                             id="text224"
                             style="font-size:9.9626px;font-family:CMR10;-inkscape-font-specification:CMR10"><path
                               d="m 0.64698524,2.4906499 q -0.0875619,0 -0.0875619,-0.087562 0,-0.043781 0.0194582,-0.063239 1.70259277,-1.66367636 1.70259277,-4.8304988 0,-3.1668225 -1.68313457,-4.8110406 -0.0389164,-0.024323 -0.0389164,-0.082697 0,-0.034052 0.0243227,-0.058375 0.0291873,-0.029187 0.0632392,-0.029187 h 0.0924265 q 0.0291873,0 0.0486455,0.019458 0.71508899,0.5642879 1.19181489,1.3718033 0.476726,0.8075154 0.6956308,1.7220509 0.2237693,0.9145355 0.2237693,1.8679875 0,0.7053598 -0.1216138,1.3912615 Q 2.6609092,-0.41835136 2.3982235,0.24322753 2.1404023,0.90967097 1.7415091,1.4690943 1.342616,2.0333822 0.78805721,2.4711917 0.768599,2.4906499 0.7394117,2.4906499 Z"
                               id="path356" /></g><g
                             id="g226"
                             transform="translate(150.189,88.266)" /></g></g><g
                         id="g228"
                         transform="translate(-141.223,-72.381)" /></g></g></g><g
                   id="g230"><path
                     d="m 18.9526,51.61534 0.74499,0.44693 0.74499,0.45998 0.74498,0.47468 0.745,0.49114 0.74498,0.50873 0.74499,0.52665 0.745,0.54697 0.74497,0.56753 0.745,0.58846 0.74498,0.61009 0.745,0.6323 0.74498,0.65403 0.74499,0.67647 0.74498,0.69885 0.745,0.72155 0.74497,0.74305 0.745,0.76424 0.745,0.78468 0.74498,0.80477 0.74501,0.82365 0.74498,0.84157 0.74499,0.85886 0.74498,0.87474 0.745,0.88854 0.74498,0.90136 0.74499,0.91252 0.74498,0.92202 0.745,0.92965 0.74499,0.9358 0.74498,0.9403 0.745,0.9421 0.74498,0.9415 0.74501,0.9397 0.74498,0.93536 0.74499,0.92894 0.74498,0.91989 0.745,0.90891 0.74498,0.89577 0.74499,0.88003 0.745,0.86199 0.74498,0.84221 0.74499,0.81971 0.74498,0.79504 0.745,0.768 0.74498,0.73889 0.745,0.7079 0.74499,0.67474 0.74499,0.6395 0.74498,0.60177 0.745,0.56258 0.74498,0.52204 0.74499,0.47911 0.745,0.43524 0.74497,0.38955 0.745,0.34261 0.74498,0.29355 0.745,0.24386 0.74498,0.19346 0.74499,0.14225 0.74498,0.08985 0.745,0.0368 0.74497,-0.01672 0.745,-0.07098 0.745,-0.12508 0.74498,-0.17943 0.74501,-0.23335 0.74498,-0.28725 0.74499,-0.34128 0.74498,-0.39422 0.745,-0.44722 0.74498,-0.4992 0.74499,-0.54989 0.74498,-0.59944 0.745,-0.64834 0.74499,-0.69547 0.74498,-0.74114 0.745,-0.78537 0.74498,-0.82862 0.74501,-0.86881 0.74498,-0.90756 0.74499,-0.94387 0.74498,-0.97856 0.745,-1.01004 0.74498,-1.04037 0.74499,-1.06733 0.745,-1.09172 0.74498,-1.11413 0.74499,-1.13271 0.74498,-1.14915 0.745,-1.16336 0.74498,-1.17371 0.745,-1.18112 0.74497,-1.18596 0.745,-1.18758 0.74499,-1.18661 0.745,-1.18144 0.74498,-1.17467 0.74499,-1.16418 0.745,-1.15062 0.74497,-1.13398 0.74505,-1.11496 0.7449,-1.09234 0.74505,-1.06717 0.74491,-1.03894 0.74504,-1.00777 0.74503,-0.97468 0.74493,-0.93871 0.74503,-0.90028 0.74492,-0.85801 0.74504,-0.81523 0.74502,-0.76841 0.74494,-0.71888 0.74502,-0.66884 0.74494,-0.61573 0.74502,-0.56443 0.74504,-0.50904 0.74491,-0.45015 0.74504,-0.39333 0.74492,-0.33055 0.74504,-0.27002 0.74504,-0.20949 0.74492,-0.14477 0.74504,-0.07845 0.7449,-0.01936 0.74504,0.04954 0.74503,0.11298 0.74494,0.17947 0.74502,0.24485 0.74493,0.31004 0.74503,0.37464 0.74504,0.43865 0.74492,0.50357 0.74502,0.56538 0.74494,0.63174 0.74502,0.6903 0.74504,0.74985 0.74492,0.81152 0.74504,0.87043 0.74491,0.92369 0.74504,0.98307 0.74503,1.03216 0.74493,1.08654 0.74502,1.1361 0.74492,1.18515 0.74506,1.22954 0.74502,1.27215 0.74492,1.31686 0.74503,1.35447 0.74493,1.39367 0.74503,1.43097 0.74504,1.4605 0.7449,1.49423 0.74506,1.51958 0.7449,1.54945 0.74504,1.57187 0.74504,1.5917 0.74492,1.61287 0.74504,1.63094 0.74492,1.64595"
                     style="fill:none;stroke:#ff0000;stroke-width:0.99628;stroke-linecap:butt;stroke-linejoin:miter;stroke-miterlimit:10;stroke-dasharray:none;stroke-opacity:1"
                     id="path232" /><g
                     id="g234"><g
                       id="g236"
                       transform="translate(62.362,94.392)"><g
                         id="g238"><g
                           id="g240"
                           transform="translate(-71.328,-110.277)"><g
                             aria-label="f"
                             transform="matrix(1,0,0,-1,71.328,110.277)"
                             id="text244"
                             style="font-size:9.9626px;font-family:CMMI10;-inkscape-font-specification:CMMI10;fill:#ff0000"><path
                               d="m 0.96804558,1.6442181 q 0.18485292,0.141072 0.44753862,0.141072 0.3551122,0 0.5788816,-0.78805721 Q 2.0868922,0.61779793 2.500379,-1.5031462 L 2.9576468,-3.9451506 H 2.1014859 q -0.097291,0 -0.097291,-0.1313429 0.038916,-0.2189047 0.1264783,-0.2189047 H 3.020886 l 0.1167492,-0.6469853 q 0.058375,-0.3016021 0.1070201,-0.5156423 0.048646,-0.2189048 0.1021556,-0.4037577 0.058375,-0.184853 0.1702592,-0.4134869 0.1702593,-0.3259248 0.4572678,-0.5351005 0.291873,-0.2140403 0.627527,-0.2140403 0.2189048,0 0.4232159,0.082697 0.2091757,0.077833 0.3405186,0.238363 0.1313428,0.1605302 0.1313428,0.3794349 0,0.2529567 -0.1702592,0.4426742 -0.1653947,0.1848529 -0.4037577,0.1848529 -0.1605302,0 -0.2772794,-0.097291 -0.1118847,-0.1021556 -0.1118847,-0.2626858 0,-0.2189048 0.1459365,-0.3794349 Q 4.8304988,-6.6011952 5.0494036,-6.625518 4.8645507,-6.76659 4.5921358,-6.76659 q -0.150801,0 -0.2870085,0.141072 -0.1313428,0.141072 -0.1702592,0.3016021 -0.063239,0.2529567 -0.2772794,1.3718033 l -0.1216138,0.6567144 h 1.0264202 q 0.097291,0 0.097291,0.1313428 -0.00486,0.024323 -0.019458,0.087562 -0.014594,0.058375 -0.043781,0.097291 -0.024323,0.034052 -0.063239,0.034052 H 3.6678712 L 3.2057389,-1.5128753 Q 3.118177,-0.98263923 3.0014278,-0.43294501 2.8895431,0.11188467 2.6803674,0.68590164 2.4760563,1.2647832 2.1549959,1.6539472 1.8339356,2.0431113 1.396126,2.0431113 q -0.335654,0 -0.60320424,-0.194582 Q 0.53023602,1.6588118 0.53023602,1.342616 q 0,-0.2529567 0.16053017,-0.44267413 0.16539473,-0.18485292 0.41348681,-0.18485292 0.1653947,0 0.2772794,0.097291 0.1118847,0.10215556 0.1118847,0.26268574 0,0.2140402 -0.1605302,0.389164 -0.1556656,0.1799884 -0.36484132,0.1799884 z"
                               id="path359" /></g><g
                             aria-label="n"
                             transform="matrix(1,0,0,-1,76.205,108.782)"
                             id="text248"
                             style="font-size:6.9738px;font-family:CMMI7;-inkscape-font-specification:CMMI7;fill:#ff0000"><path
                               d="M 3.8274177,-2.3018989 V 0 H 3.2008653 v -2.2814678 q 0,-0.541423 -0.2111209,-0.8104319 -0.2111209,-0.2690089 -0.6333627,-0.2690089 -0.5073712,0 -0.8002163,0.3234917 -0.2928452,0.3234917 -0.2928452,0.8819406 V 0 H 0.63336271 V -3.813797 H 1.2633202 v 0.5925006 q 0.2247417,-0.3439227 0.5278023,-0.5141815 0.3064658,-0.1702588 0.7048714,-0.1702588 0.657199,0 0.9943114,0.4086211 0.3371124,0.4052159 0.3371124,1.1952167 z"
                               id="path362" /></g><g
                             aria-label="("
                             transform="matrix(1,0,0,-1,81.628,110.277)"
                             id="text252"
                             style="font-size:9.9626px;font-family:CMR10;-inkscape-font-specification:CMR10;fill:#ff0000"><path
                               d="M 3.0889897,2.4711917 Q 2.5344309,2.0333822 2.1306732,1.4642297 1.73178,0.89994187 1.4739589,0.25782119 1.2210022,-0.3842995 1.0945239,-1.0847948 0.96804558,-1.7852901 0.96804558,-2.4906499 q 0,-0.715089 0.12647832,-1.4155843 0.1264783,-0.7004953 0.3842995,-1.3474805 0.2626857,-0.6469853 0.6664434,-1.2112731 0.4037577,-0.5642879 0.9437229,-0.9875038 0,-0.019458 0.048646,-0.019458 h 0.092426 q 0.029187,0 0.05351,0.029187 0.024323,0.024323 0.024323,0.058375 0,0.043781 -0.019458,0.063239 -0.486455,0.4767259 -0.8123799,1.0215556 -0.3210604,0.5448297 -0.5205069,1.1626276 -0.1945821,0.6129334 -0.282144,1.2745123 -0.087562,0.6567143 -0.087562,1.3718033 0,3.16682244 1.6928636,4.8110406 0.029187,0.029187 0.029187,0.082697 0,0.024323 -0.029187,0.05351 -0.024323,0.034052 -0.048646,0.034052 h -0.092426 q -0.048646,0 -0.048646,-0.019458 z"
                               id="path365" /></g><g
                             aria-label="x"
                             transform="matrix(1,0,0,-1,85.503,110.277)"
                             id="text256"
                             style="font-size:9.9626px;font-family:CMMI10;-inkscape-font-specification:CMMI10;fill:#ff0000"><path
                               d="m 0.77832811,-0.28700849 q 0.17512382,0.13620742 0.49618419,0.13620742 0.3113312,0 0.5496942,-0.29673759 0.238363,-0.30160214 0.3259249,-0.65671434 l 0.4524032,-1.7658319 q 0.1070201,-0.4815905 0.1070201,-0.6567143 0,-0.2480921 -0.141072,-0.432945 -0.1362074,-0.184853 -0.3842995,-0.184853 -0.3161957,0 -0.5934751,0.1994466 -0.2772794,0.194582 -0.4669969,0.5010487 -0.18971747,0.3016022 -0.26755028,0.6129334 -0.0194582,0.063239 -0.0778328,0.063239 H 0.65671434 q -0.0778328,0 -0.0778328,-0.092426 v -0.029187 q 0.097291,-0.3697058 0.33078944,-0.7199535 0.23349843,-0.3551122 0.56915243,-0.574017 0.3405185,-0.2189047 0.724818,-0.2189047 0.3648413,0 0.6567144,0.194582 0.2967376,0.194582 0.4183513,0.530236 0.1702593,-0.3064667 0.4329451,-0.5156424 0.2675502,-0.2091756 0.583746,-0.2091756 0.2140403,0 0.4378096,0.077833 0.2237693,0.072968 0.3648413,0.2286338 0.141072,0.1556657 0.141072,0.3891641 0,0.2529566 -0.1653948,0.4378096 -0.1605301,0.1799883 -0.4134868,0.1799883 -0.1605301,0 -0.2675503,-0.1021555 -0.1070201,-0.1021556 -0.1070201,-0.2578212 0,-0.2091757 0.141072,-0.3648413 0.1459365,-0.1605302 0.3453831,-0.1897175 -0.1799884,-0.141072 -0.4961842,-0.141072 -0.3210603,0 -0.5594233,0.2967376 -0.2334984,0.2967376 -0.3307894,0.6615789 l -0.4378096,1.7609674 q -0.1070201,0.3988931 -0.1070201,0.6567143 0,0.25295663 0.141072,0.43780956 0.1459365,0.17998837 0.3842995,0.17998837 0.4669968,0 0.8318381,-0.40862226 0.3697059,-0.4134868 0.4864551,-0.90480637 0.019458,-0.058375 0.077833,-0.058375 h 0.1216138 q 0.038916,0 0.063239,0.029187 0.024323,0.024323 0.024323,0.058375 0,0.00973 -0.00973,0.029187 -0.141072,0.59347514 -0.5934752,1.05560745 -0.4524032,0.46213232 -1.0215556,0.46213232 -0.3648413,0 -0.6615789,-0.19458203 -0.2918731,-0.19944658 -0.4134868,-0.53510057 -0.1556657,0.29187304 -0.4329451,0.51077782 -0.2724148,0.21890478 -0.583746,0.21890478 -0.2140403,0 -0.44267414,-0.07783282 -0.22376933,-0.07296826 -0.3648413,-0.22863388 -0.14107197,-0.15566562 -0.14107197,-0.3940286 0,-0.23349843 0.16053017,-0.42321587 0.16539473,-0.1945821 0.40862226,-0.1945821 0.16539468,0 0.27727938,0.1021556 0.1118847,0.097291 0.1118847,0.25782118 0,0.20917568 -0.141072,0.3648413 -0.13620742,0.15566563 -0.34538309,0.19458203 z"
                               id="path368" /></g><g
                             aria-label=")"
                             transform="matrix(1,0,0,-1,91.197,110.277)"
                             id="text260"
                             style="font-size:9.9626px;font-family:CMR10;-inkscape-font-specification:CMR10;fill:#ff0000"><path
                               d="m 0.64698524,2.4906499 q -0.0875619,0 -0.0875619,-0.087562 0,-0.043781 0.0194582,-0.063239 1.70259277,-1.66367636 1.70259277,-4.8304988 0,-3.1668225 -1.68313457,-4.8110406 -0.0389164,-0.024323 -0.0389164,-0.082697 0,-0.034052 0.0243227,-0.058375 0.0291873,-0.029187 0.0632392,-0.029187 h 0.0924265 q 0.0291873,0 0.0486455,0.019458 0.71508899,0.5642879 1.19181489,1.3718033 0.476726,0.8075154 0.6956308,1.7220509 0.2237693,0.9145355 0.2237693,1.8679875 0,0.7053598 -0.1216138,1.3912615 Q 2.6609092,-0.41835136 2.3982235,0.24322753 2.1404023,0.90967097 1.7415091,1.4690943 1.342616,2.0333822 0.78805721,2.4711917 0.768599,2.4906499 0.7394117,2.4906499 Z"
                               id="path371" /></g><g
                             id="g262"
                             transform="translate(71.328,110.277)" /></g></g><g
                         id="g264"
                         transform="translate(-62.362,-94.392)" /></g></g></g><g
                   id="g266"><path
                     d="m 18.9526,46.2251 0.74499,0.86801 0.74499,0.83798 0.74498,0.80846 0.745,0.77923 0.74498,0.75082 0.74499,0.72178 0.745,0.69385 0.74497,0.66632 0.745,0.63896 0.74498,0.61203 0.745,0.58549 0.74498,0.55928 0.74499,0.53349 0.74498,0.50806 0.745,0.48302 0.74497,0.45834 0.745,0.43401 0.745,0.41008 0.74498,0.38655 0.74501,0.36336 0.74498,0.34059 0.74499,0.31818 0.74498,0.29611 0.745,0.27441 0.74498,0.25318 0.74499,0.23224 0.74498,0.21171 0.745,0.19154 0.74499,0.17174 0.74498,0.15236 0.745,0.13332 0.74498,0.11465 0.74501,0.09641 0.74498,0.07847 0.74499,0.06096 0.74498,0.04379 0.745,0.02704 0.74498,0.01064 0.74499,-0.0054 0.745,-0.02104 0.74498,-0.03629 0.74499,-0.05119 0.74498,-0.0657 0.745,-0.07985 0.74498,-0.0936 0.745,-0.10701 0.74499,-0.11998 0.74499,-0.13264 0.74498,-0.14487 0.745,-0.15677 0.74498,-0.16827 0.74499,-0.17942 0.745,-0.19015 0.74497,-0.20052 0.745,-0.21052 0.74498,-0.22019 0.745,-0.22935 0.74498,-0.2383 0.74499,-0.24672 0.74498,-0.25488 0.745,-0.26261 0.74497,-0.26995 0.745,-0.27695 0.745,-0.28355 0.74498,-0.28985 0.74501,-0.29563 0.74498,-0.30114 0.74499,-0.30624 0.74498,-0.31096 0.745,-0.31533 0.74498,-0.31927 0.74499,-0.32312 0.74498,-0.32585 0.745,-0.3291 0.74499,-0.33151 0.74498,-0.33345 0.745,-0.33505 0.74498,-0.33671 0.74501,-0.33747 0.74498,-0.33812 0.74499,-0.33847 0.74498,-0.33829 0.745,-0.33749 0.74498,-0.337 0.74499,-0.33538 0.745,-0.33362 0.74498,-0.33167 0.74499,-0.32927 0.74498,-0.32634 0.745,-0.32377 0.74498,-0.31957 0.745,-0.3157 0.74497,-0.31149 0.745,-0.30668 0.74499,-0.30197 0.745,-0.29632 0.74498,-0.29053 0.74499,-0.28421 0.745,-0.27777 0.74497,-0.27083 0.74505,-0.26356 0.7449,-0.25583 0.74505,-0.24775 0.74491,-0.23918 0.74504,-0.23048 0.74503,-0.22145 0.74493,-0.21273 0.74503,-0.20288 0.74492,-0.19125 0.74504,-0.18158 0.74502,-0.16995 0.74494,-0.15704 0.74502,-0.14559 0.74494,-0.13219 0.74502,-0.12249 0.74504,-0.10959 0.74491,-0.09442 0.74504,-0.08329 0.74492,-0.06681 0.74504,-0.0523 0.74504,-0.03936 0.74492,-0.02262 0.74504,-0.0048 0.7449,0.0065 0.74504,0.02629 0.74503,0.04068 0.74494,0.05906 0.74502,0.07666 0.74493,0.09459 0.74503,0.11266 0.74504,0.1304 0.74492,0.15012 0.74502,0.16786 0.74494,0.19108 0.74502,0.20853 0.74504,0.22806 0.74492,0.25146 0.74504,0.27373 0.74491,0.29117 0.74504,0.31796 0.74503,0.33571 0.74493,0.36153 0.74502,0.38412 0.74492,0.40834 0.74506,0.43096 0.74502,0.45353 0.74492,0.48096 0.74503,0.50356 0.74493,0.531 0.74503,0.55846 0.74504,0.58102 0.7449,0.61011 0.74506,0.63429 0.7449,0.66496 0.74504,0.6908 0.74504,0.71661 0.74492,0.74727 0.74504,0.77634 0.74492,0.80539"
                     style="fill:none;stroke:#000000;stroke-width:0.3985;stroke-linecap:butt;stroke-linejoin:miter;stroke-miterlimit:10;stroke-dasharray:none;stroke-opacity:1"
                     id="path268" /><g
                     id="g270"><g
                       id="g272"
                       transform="translate(140.924,53.014)"><g
                         id="g274"><g
                           id="g276"
                           transform="translate(-149.89,-68.899)"><g
                             aria-label="f"
                             transform="matrix(1,0,0,-1,149.89,68.899)"
                             id="text280"
                             style="font-size:9.9626px;font-family:CMMI10;-inkscape-font-specification:CMMI10"><path
                               d="m 0.96804558,1.6442181 q 0.18485292,0.141072 0.44753862,0.141072 0.3551122,0 0.5788816,-0.78805721 Q 2.0868922,0.61779793 2.500379,-1.5031462 L 2.9576468,-3.9451506 H 2.1014859 q -0.097291,0 -0.097291,-0.1313429 0.038916,-0.2189047 0.1264783,-0.2189047 H 3.020886 l 0.1167492,-0.6469853 q 0.058375,-0.3016021 0.1070201,-0.5156423 0.048646,-0.2189048 0.1021556,-0.4037577 0.058375,-0.184853 0.1702592,-0.4134869 0.1702593,-0.3259248 0.4572678,-0.5351005 0.291873,-0.2140403 0.627527,-0.2140403 0.2189048,0 0.4232159,0.082697 0.2091757,0.077833 0.3405186,0.238363 0.1313428,0.1605302 0.1313428,0.3794349 0,0.2529567 -0.1702592,0.4426742 -0.1653947,0.1848529 -0.4037577,0.1848529 -0.1605302,0 -0.2772794,-0.097291 -0.1118847,-0.1021556 -0.1118847,-0.2626858 0,-0.2189048 0.1459365,-0.3794349 Q 4.8304988,-6.6011952 5.0494036,-6.625518 4.8645507,-6.76659 4.5921358,-6.76659 q -0.150801,0 -0.2870085,0.141072 -0.1313428,0.141072 -0.1702592,0.3016021 -0.063239,0.2529567 -0.2772794,1.3718033 l -0.1216138,0.6567144 h 1.0264202 q 0.097291,0 0.097291,0.1313428 -0.00486,0.024323 -0.019458,0.087562 -0.014594,0.058375 -0.043781,0.097291 -0.024323,0.034052 -0.063239,0.034052 H 3.6678712 L 3.2057389,-1.5128753 Q 3.118177,-0.98263923 3.0014278,-0.43294501 2.8895431,0.11188467 2.6803674,0.68590164 2.4760563,1.2647832 2.1549959,1.6539472 1.8339356,2.0431113 1.396126,2.0431113 q -0.335654,0 -0.60320424,-0.194582 Q 0.53023602,1.6588118 0.53023602,1.342616 q 0,-0.2529567 0.16053017,-0.44267413 0.16539473,-0.18485292 0.41348681,-0.18485292 0.1653947,0 0.2772794,0.097291 0.1118847,0.10215556 0.1118847,0.26268574 0,0.2140402 -0.1605302,0.389164 -0.1556656,0.1799884 -0.36484132,0.1799884 z"
                               id="path374" /></g><g
                             aria-label="("
                             transform="matrix(1,0,0,-1,155.84,68.899)"
                             id="text284"
                             style="font-size:9.9626px;font-family:CMR10;-inkscape-font-specification:CMR10"><path
                               d="M 3.0889897,2.4711917 Q 2.5344309,2.0333822 2.1306732,1.4642297 1.73178,0.89994187 1.4739589,0.25782119 1.2210022,-0.3842995 1.0945239,-1.0847948 0.96804558,-1.7852901 0.96804558,-2.4906499 q 0,-0.715089 0.12647832,-1.4155843 0.1264783,-0.7004953 0.3842995,-1.3474805 0.2626857,-0.6469853 0.6664434,-1.2112731 0.4037577,-0.5642879 0.9437229,-0.9875038 0,-0.019458 0.048646,-0.019458 h 0.092426 q 0.029187,0 0.05351,0.029187 0.024323,0.024323 0.024323,0.058375 0,0.043781 -0.019458,0.063239 -0.486455,0.4767259 -0.8123799,1.0215556 -0.3210604,0.5448297 -0.5205069,1.1626276 -0.1945821,0.6129334 -0.282144,1.2745123 -0.087562,0.6567143 -0.087562,1.3718033 0,3.16682244 1.6928636,4.8110406 0.029187,0.029187 0.029187,0.082697 0,0.024323 -0.029187,0.05351 -0.024323,0.034052 -0.048646,0.034052 h -0.092426 q -0.048646,0 -0.048646,-0.019458 z"
                               id="path377" /></g><g
                             aria-label="x"
                             transform="matrix(1,0,0,-1,159.714,68.899)"
                             id="text288"
                             style="font-size:9.9626px;font-family:CMMI10;-inkscape-font-specification:CMMI10"><path
                               d="m 0.77832811,-0.28700849 q 0.17512382,0.13620742 0.49618419,0.13620742 0.3113312,0 0.5496942,-0.29673759 0.238363,-0.30160214 0.3259249,-0.65671434 l 0.4524032,-1.7658319 q 0.1070201,-0.4815905 0.1070201,-0.6567143 0,-0.2480921 -0.141072,-0.432945 -0.1362074,-0.184853 -0.3842995,-0.184853 -0.3161957,0 -0.5934751,0.1994466 -0.2772794,0.194582 -0.4669969,0.5010487 -0.18971747,0.3016022 -0.26755028,0.6129334 -0.0194582,0.063239 -0.0778328,0.063239 H 0.65671434 q -0.0778328,0 -0.0778328,-0.092426 v -0.029187 q 0.097291,-0.3697058 0.33078944,-0.7199535 0.23349843,-0.3551122 0.56915243,-0.574017 0.3405185,-0.2189047 0.724818,-0.2189047 0.3648413,0 0.6567144,0.194582 0.2967376,0.194582 0.4183513,0.530236 0.1702593,-0.3064667 0.4329451,-0.5156424 0.2675502,-0.2091756 0.583746,-0.2091756 0.2140403,0 0.4378096,0.077833 0.2237693,0.072968 0.3648413,0.2286338 0.141072,0.1556657 0.141072,0.3891641 0,0.2529566 -0.1653948,0.4378096 -0.1605301,0.1799883 -0.4134868,0.1799883 -0.1605301,0 -0.2675503,-0.1021555 -0.1070201,-0.1021556 -0.1070201,-0.2578212 0,-0.2091757 0.141072,-0.3648413 0.1459365,-0.1605302 0.3453831,-0.1897175 -0.1799884,-0.141072 -0.4961842,-0.141072 -0.3210603,0 -0.5594233,0.2967376 -0.2334984,0.2967376 -0.3307894,0.6615789 l -0.4378096,1.7609674 q -0.1070201,0.3988931 -0.1070201,0.6567143 0,0.25295663 0.141072,0.43780956 0.1459365,0.17998837 0.3842995,0.17998837 0.4669968,0 0.8318381,-0.40862226 0.3697059,-0.4134868 0.4864551,-0.90480637 0.019458,-0.058375 0.077833,-0.058375 h 0.1216138 q 0.038916,0 0.063239,0.029187 0.024323,0.024323 0.024323,0.058375 0,0.00973 -0.00973,0.029187 -0.141072,0.59347514 -0.5934752,1.05560745 -0.4524032,0.46213232 -1.0215556,0.46213232 -0.3648413,0 -0.6615789,-0.19458203 -0.2918731,-0.19944658 -0.4134868,-0.53510057 -0.1556657,0.29187304 -0.4329451,0.51077782 -0.2724148,0.21890478 -0.583746,0.21890478 -0.2140403,0 -0.44267414,-0.07783282 -0.22376933,-0.07296826 -0.3648413,-0.22863388 -0.14107197,-0.15566562 -0.14107197,-0.3940286 0,-0.23349843 0.16053017,-0.42321587 0.16539473,-0.1945821 0.40862226,-0.1945821 0.16539468,0 0.27727938,0.1021556 0.1118847,0.097291 0.1118847,0.25782118 0,0.20917568 -0.141072,0.3648413 -0.13620742,0.15566563 -0.34538309,0.19458203 z"
                               id="path380" /></g><g
                             aria-label=")"
                             transform="matrix(1,0,0,-1,165.408,68.899)"
                             id="text292"
                             style="font-size:9.9626px;font-family:CMR10;-inkscape-font-specification:CMR10"><path
                               d="m 0.64698524,2.4906499 q -0.0875619,0 -0.0875619,-0.087562 0,-0.043781 0.0194582,-0.063239 1.70259277,-1.66367636 1.70259277,-4.8304988 0,-3.1668225 -1.68313457,-4.8110406 -0.0389164,-0.024323 -0.0389164,-0.082697 0,-0.034052 0.0243227,-0.058375 0.0291873,-0.029187 0.0632392,-0.029187 h 0.0924265 q 0.0291873,0 0.0486455,0.019458 0.71508899,0.5642879 1.19181489,1.3718033 0.476726,0.8075154 0.6956308,1.7220509 0.2237693,0.9145355 0.2237693,1.8679875 0,0.7053598 -0.1216138,1.3912615 Q 2.6609092,-0.41835136 2.3982235,0.24322753 2.1404023,0.90967097 1.7415091,1.4690943 1.342616,2.0333822 0.78805721,2.4711917 0.768599,2.4906499 0.7394117,2.4906499 Z"
                               id="path383" /></g><g
                             aria-label="−"
                             transform="matrix(1,0,0,-1,171.496,68.899)"
                             id="text296"
                             style="font-size:9.9626px;font-family:CMSY10;-inkscape-font-specification:CMSY10"><path
                               d="m 1.0556075,-3.5365283 h 6.2363539 v 0.8269736 H 1.0556075 Z"
                               id="path386" /></g><g
                             aria-label="ϵ"
                             transform="matrix(1,0,0,-1,181.459,68.899)"
                             id="text300"
                             style="font-size:9.9626px;font-family:CMMI10;-inkscape-font-specification:CMMI10"><path
                               d="M 4.7867179,-4.5824067 Q 4.6067295,-4.6456459 4.4267411,-4.6942914 3.9451506,-4.8207697 3.4295082,-4.8207697 q -0.8902128,0 -1.3863969,0.4815905 -0.4621323,0.4475387 -0.5496942,1.2696477 h 3.2933008 v 0.7004953 H 1.4934171 q 0.087562,0.8221091 0.5496942,1.2696478 0.4961841,0.48159047 1.3863969,0.48159047 0.6226625,0 0.9972329,-0.12647832 l 0.3599768,-0.12161377 v 0.81237996 L 4.4024183,0.03405185 q -0.5059132,0.10702012 -1.0264201,0.10702012 -1.3036996,0 -2.0625695,-0.7588699 -0.76373448,-0.75886987 -0.76373448,-2.10148587 0,-1.342616 0.76373448,-2.1014859 0.7588699,-0.7588699 2.0625695,-0.7588699 0.4913196,0 1.0264201,0.1070201 0.1945821,0.038916 0.3842996,0.097291 z"
                               id="path389" /></g><g
                             id="g302"
                             transform="translate(149.89,68.899)" /></g></g><g
                         id="g304"
                         transform="translate(-140.924,-53.014)" /></g></g></g></g></g></g><g
             id="g306" /><g
             id="g308" /><g
             id="g310"
             transform="translate(-8.966,-15.885)"><g
               id="g312" /><g
               id="g314"
               transform="translate(8.966,15.885)" /></g><g
             id="g316" /><g
             id="g318" /></g><g
           id="g320" /><g
           id="g322" /></g></g></g></svg>
