<?xml version="1.0" encoding="UTF-8" standalone="no"?>
<svg
   xmlns:dc="http://purl.org/dc/elements/1.1/"
   xmlns:cc="http://creativecommons.org/ns#"
   xmlns:rdf="http://www.w3.org/1999/02/22-rdf-syntax-ns#"
   xmlns:svg="http://www.w3.org/2000/svg"
   xmlns="http://www.w3.org/2000/svg"
   xmlns:sodipodi="http://sodipodi.sourceforge.net/DTD/sodipodi-0.dtd"
   xmlns:inkscape="http://www.inkscape.org/namespaces/inkscape"
   viewBox="0 0 14592.756 9921.2597"
   width="130mm"
   height="90mm"
   version="1.1"
   id="svg150"
   sodipodi:docname="lagrange.svg"
   inkscape:version="1.0.2 (e86c870879, 2021-01-15)">
  <path
     style="fill:none;stroke:#ff0000;stroke-width:55.1023;stroke-linecap:butt;stroke-linejoin:miter;stroke-miterlimit:2.9;stroke-dasharray:none;stroke-opacity:1;marker-start:url(#Arrow2Mstart)"
     d="M 11113.898,4247.1673 9670.7656,3840.5457"
     id="path895-7"
     sodipodi:nodetypes="cc"
     clip-path="url(#clipPath1019)" />
  <metadata
     id="metadata156">
    <rdf:RDF>
      <cc:Work
         rdf:about="">
        <dc:format>image/svg+xml</dc:format>
        <dc:type
           rdf:resource="http://purl.org/dc/dcmitype/StillImage" />
        <dc:title></dc:title>
      </cc:Work>
    </rdf:RDF>
  </metadata>
  <defs
     id="defs154">
    <marker
       style="overflow:visible"
       id="Arrow2Mstart"
       refX="0"
       refY="0"
       orient="auto"
       inkscape:stockid="Arrow2Mstart"
       inkscape:isstock="true">
      <path
         transform="scale(0.6)"
         d="M 8.7185878,4.0337352 -2.2072895,0.01601326 8.7185884,-4.0017078 c -1.7454984,2.3720609 -1.7354408,5.6174519 -6e-7,8.035443 z"
         style="fill:#ff0000;fill-opacity:1;fill-rule:evenodd;stroke:#ff0000;stroke-width:0.625;stroke-linejoin:round;stroke-opacity:1"
         id="path921" />
    </marker>
    <marker
       style="overflow:visible"
       id="Arrow2Mend"
       refX="0"
       refY="0"
       orient="auto"
       inkscape:stockid="Arrow2Mend"
       inkscape:isstock="true">
      <path
         transform="scale(-0.6)"
         d="M 8.7185878,4.0337352 -2.2072895,0.01601326 8.7185884,-4.0017078 c -1.7454984,2.3720609 -1.7354408,5.6174519 -6e-7,8.035443 z"
         style="fill:#7272bb;fill-opacity:1;fill-rule:evenodd;stroke:#7272bb;stroke-width:0.625;stroke-linejoin:round;stroke-opacity:1"
         id="path924" />
    </marker>
    <clipPath
       clipPathUnits="userSpaceOnUse"
       id="clipPath999">
      <rect
         style="fill:#fdfdfd;fill-opacity:1;stroke:none;stroke-width:79.2001;stroke-linecap:round;stroke-miterlimit:3.725"
         id="rect1001"
         width="14578.313"
         height="10079.293"
         x="29.834908"
         y="-89.459167" />
    </clipPath>
    <clipPath
       clipPathUnits="userSpaceOnUse"
       id="clipPath1003">
      <rect
         style="fill:#fdfdfd;fill-opacity:1;stroke:none;stroke-width:79.2001;stroke-linecap:round;stroke-miterlimit:3.725"
         id="rect1005"
         width="14578.313"
         height="10079.293"
         x="29.834908"
         y="-89.459167" />
    </clipPath>
    <clipPath
       clipPathUnits="userSpaceOnUse"
       id="clipPath1007">
      <rect
         style="fill:#fdfdfd;fill-opacity:1;stroke:none;stroke-width:79.2001;stroke-linecap:round;stroke-miterlimit:3.725"
         id="rect1009"
         width="14578.313"
         height="10079.293"
         x="29.834908"
         y="-89.459167" />
    </clipPath>
    <clipPath
       clipPathUnits="userSpaceOnUse"
       id="clipPath1011">
      <rect
         style="fill:#fdfdfd;fill-opacity:1;stroke:none;stroke-width:79.2001;stroke-linecap:round;stroke-miterlimit:3.725"
         id="rect1013"
         width="14578.313"
         height="10079.293"
         x="29.834908"
         y="-89.459167" />
    </clipPath>
    <clipPath
       clipPathUnits="userSpaceOnUse"
       id="clipPath1015">
      <rect
         style="fill:#fdfdfd;fill-opacity:1;stroke:none;stroke-width:79.2001;stroke-linecap:round;stroke-miterlimit:3.725"
         id="rect1017"
         width="14578.313"
         height="10079.293"
         x="29.834908"
         y="-89.459167" />
    </clipPath>
    <clipPath
       clipPathUnits="userSpaceOnUse"
       id="clipPath1019">
      <rect
         style="fill:#fdfdfd;fill-opacity:1;stroke:none;stroke-width:79.2001;stroke-linecap:round;stroke-miterlimit:3.725"
         id="rect1021"
         width="14578.313"
         height="10079.293"
         x="29.834908"
         y="-89.459167" />
    </clipPath>
  </defs>
  <sodipodi:namedview
     pagecolor="#ffffff"
     bordercolor="#666666"
     borderopacity="1"
     objecttolerance="10"
     gridtolerance="10"
     guidetolerance="10"
     inkscape:pageopacity="0"
     inkscape:pageshadow="2"
     inkscape:window-width="1920"
     inkscape:window-height="1043"
     id="namedview152"
     showgrid="false"
     inkscape:zoom="1.5945939"
     inkscape:cx="306.94096"
     inkscape:cy="156.69483"
     inkscape:window-x="0"
     inkscape:window-y="0"
     inkscape:window-maximized="1"
     inkscape:current-layer="svg150"
     inkscape:document-rotation="0"
     units="mm"
     width="130mm" />
  <path
     d="m 14195.787,2963.9595 c 0.587,1834.1496 -758.688,3593.3703 -2110.731,4890.5084 -1352.043,1297.1382 -3186.0564,2025.8949 -5098.4278,2025.8949 -1912.3714,0 -3746.3847,-728.7567 -5098.428,-2025.8949 C 536.15703,6557.3298 141.87308,4812.6233 142.46042,2978.4737 141.87308,1144.3241 791.24041,-655.39503 2143.2836,-1952.5332 c 1352.0432,-1297.1381 2930.9732,-1999.9106 4843.3446,-1999.9106 1912.3714,0 3746.3848,728.7567 5098.4278,2025.8949 1352.043,1297.13813 2111.318,3056.3588 2110.731,4890.5084 z"
     id="path2"
     inkscape:connector-curvature="0"
     style="fill:none;stroke:#7272bb;stroke-width:48.661;stroke-miterlimit:3.725;stroke-dasharray:none;stroke-dashoffset:0;stroke-opacity:1"
     clip-path="url(#clipPath1015)"
     sodipodi:nodetypes="cssscsssc" />
  <path
     d="m 12299.427,3156.6938 a 5576.2266,4747.5925 0 1 1 -11152.4531,0 5576.2263,4747.5923 0 1 1 11152.4521,0 z"
     id="path4"
     inkscape:connector-curvature="0"
     style="fill:none;stroke:#7272bb;stroke-width:49.4015;stroke-miterlimit:3.725;stroke-dasharray:none;stroke-dashoffset:0;stroke-opacity:1"
     clip-path="url(#clipPath1011)" />
  <path
     d="m 9740.4804,3288.3581 c 0,701.663 -388.8145,1374.5879 -1080.9089,1870.7384 -692.0943,496.1504 -1630.7757,774.8843 -2609.5449,774.8843 -978.7692,0 -1917.4506,-278.7339 -2609.5449,-774.8843 -692.0944,-496.1505 -869.3453,-1169.0754 -869.3453,-1870.7384 0,-701.6629 431.9984,-1493.592 1124.0926,-1989.7423 692.0943,-496.15038 1376.0281,-655.87995 2354.7971,-655.87995 978.769,0 1917.4503,278.73385 2609.5445,774.88425 692.0943,496.1503 1080.9088,1169.0751 1080.9088,1870.738 z"
     id="path6"
     inkscape:connector-curvature="0"
     style="fill:none;stroke:#7272bb;stroke-width:55.1023;stroke-miterlimit:3.725;stroke-dasharray:none;stroke-dashoffset:0;stroke-opacity:1"
     clip-path="url(#clipPath1007)"
     sodipodi:nodetypes="ssssssssss" />
  <path
     style="fill:none;stroke:#7272bb;stroke-width:55.1023;stroke-linecap:butt;stroke-linejoin:miter;stroke-miterlimit:3.725;stroke-dasharray:none;stroke-opacity:1;marker-end:url(#Arrow2Mend)"
     d="M 9670.7656,3840.5457 8113.1487,3409.2252"
     id="path895"
     sodipodi:nodetypes="cc"
     clip-path="url(#clipPath1003)" />
  <path
     d="m -297.53727,9872.5435 c 134.3724,0 3078.64657,-3157.3001 4587.42257,-2427.5048 1618.9971,783.109 1353.9598,2357.2982 2772.1948,2429.8077 1418.2349,72.5096 1859.7356,-2785.1669 2111.6772,-3691.588 199.7938,-758.1871 274.9793,-1637.6488 499.7026,-2333.048 306.7305,-974.3535 1184.3861,-1702.4725 2100.7691,-2095.2765 818.83,-492.6198 2284.873,-606.6168 3960.803,-1539.29863 1675.93,-932.6818 2442.745,-3388.81817 2442.745,-3388.81817"
     id="path122"
     inkscape:connector-curvature="0"
     style="fill:none;stroke:#ff0000;stroke-width:65.088"
     sodipodi:nodetypes="cszccczc"
     clip-path="url(#clipPath999)" />
</svg>
